%TF.GenerationSoftware,KiCad,Pcbnew,(5.1.8)-1*%
%TF.CreationDate,2021-01-28T21:24:41+01:00*%
%TF.ProjectId,VU Switch,56552053-7769-4746-9368-2e6b69636164,rev?*%
%TF.SameCoordinates,Original*%
%TF.FileFunction,Legend,Top*%
%TF.FilePolarity,Positive*%
%FSLAX46Y46*%
G04 Gerber Fmt 4.6, Leading zero omitted, Abs format (unit mm)*
G04 Created by KiCad (PCBNEW (5.1.8)-1) date 2021-01-28 21:24:41*
%MOMM*%
%LPD*%
G01*
G04 APERTURE LIST*
%ADD10C,0.200000*%
%ADD11C,0.100000*%
%ADD12C,0.120000*%
%ADD13C,0.150000*%
G04 APERTURE END LIST*
D10*
X172085000Y-55980000D02*
G75*
G03*
X172085000Y-55980000I-2740000J0D01*
G01*
X172085000Y-106580000D02*
G75*
G03*
X172085000Y-106580000I-2740000J0D01*
G01*
D11*
X102402142Y-94842380D02*
X102735476Y-95842380D01*
X103068809Y-94842380D01*
X103402142Y-94842380D02*
X103402142Y-95651904D01*
X103449761Y-95747142D01*
X103497380Y-95794761D01*
X103592619Y-95842380D01*
X103783095Y-95842380D01*
X103878333Y-95794761D01*
X103925952Y-95747142D01*
X103973571Y-95651904D01*
X103973571Y-94842380D01*
X105164047Y-95794761D02*
X105306904Y-95842380D01*
X105545000Y-95842380D01*
X105640238Y-95794761D01*
X105687857Y-95747142D01*
X105735476Y-95651904D01*
X105735476Y-95556666D01*
X105687857Y-95461428D01*
X105640238Y-95413809D01*
X105545000Y-95366190D01*
X105354523Y-95318571D01*
X105259285Y-95270952D01*
X105211666Y-95223333D01*
X105164047Y-95128095D01*
X105164047Y-95032857D01*
X105211666Y-94937619D01*
X105259285Y-94890000D01*
X105354523Y-94842380D01*
X105592619Y-94842380D01*
X105735476Y-94890000D01*
X106068809Y-95175714D02*
X106259285Y-95842380D01*
X106449761Y-95366190D01*
X106640238Y-95842380D01*
X106830714Y-95175714D01*
X107211666Y-95842380D02*
X107211666Y-95175714D01*
X107211666Y-94842380D02*
X107164047Y-94890000D01*
X107211666Y-94937619D01*
X107259285Y-94890000D01*
X107211666Y-94842380D01*
X107211666Y-94937619D01*
X107545000Y-95175714D02*
X107925952Y-95175714D01*
X107687857Y-94842380D02*
X107687857Y-95699523D01*
X107735476Y-95794761D01*
X107830714Y-95842380D01*
X107925952Y-95842380D01*
X108687857Y-95794761D02*
X108592619Y-95842380D01*
X108402142Y-95842380D01*
X108306904Y-95794761D01*
X108259285Y-95747142D01*
X108211666Y-95651904D01*
X108211666Y-95366190D01*
X108259285Y-95270952D01*
X108306904Y-95223333D01*
X108402142Y-95175714D01*
X108592619Y-95175714D01*
X108687857Y-95223333D01*
X109116428Y-95842380D02*
X109116428Y-94842380D01*
X109545000Y-95842380D02*
X109545000Y-95318571D01*
X109497380Y-95223333D01*
X109402142Y-95175714D01*
X109259285Y-95175714D01*
X109164047Y-95223333D01*
X109116428Y-95270952D01*
X102878333Y-97442380D02*
X102545000Y-96966190D01*
X102306904Y-97442380D02*
X102306904Y-96442380D01*
X102687857Y-96442380D01*
X102783095Y-96490000D01*
X102830714Y-96537619D01*
X102878333Y-96632857D01*
X102878333Y-96775714D01*
X102830714Y-96870952D01*
X102783095Y-96918571D01*
X102687857Y-96966190D01*
X102306904Y-96966190D01*
X103687857Y-97394761D02*
X103592619Y-97442380D01*
X103402142Y-97442380D01*
X103306904Y-97394761D01*
X103259285Y-97299523D01*
X103259285Y-96918571D01*
X103306904Y-96823333D01*
X103402142Y-96775714D01*
X103592619Y-96775714D01*
X103687857Y-96823333D01*
X103735476Y-96918571D01*
X103735476Y-97013809D01*
X103259285Y-97109047D01*
X104068809Y-96775714D02*
X104306904Y-97442380D01*
X104545000Y-96775714D01*
X104925952Y-97442380D02*
X104925952Y-96775714D01*
X104925952Y-96442380D02*
X104878333Y-96490000D01*
X104925952Y-96537619D01*
X104973571Y-96490000D01*
X104925952Y-96442380D01*
X104925952Y-96537619D01*
X105354523Y-97394761D02*
X105449761Y-97442380D01*
X105640238Y-97442380D01*
X105735476Y-97394761D01*
X105783095Y-97299523D01*
X105783095Y-97251904D01*
X105735476Y-97156666D01*
X105640238Y-97109047D01*
X105497380Y-97109047D01*
X105402142Y-97061428D01*
X105354523Y-96966190D01*
X105354523Y-96918571D01*
X105402142Y-96823333D01*
X105497380Y-96775714D01*
X105640238Y-96775714D01*
X105735476Y-96823333D01*
X106211666Y-97442380D02*
X106211666Y-96775714D01*
X106211666Y-96442380D02*
X106164047Y-96490000D01*
X106211666Y-96537619D01*
X106259285Y-96490000D01*
X106211666Y-96442380D01*
X106211666Y-96537619D01*
X106830714Y-97442380D02*
X106735476Y-97394761D01*
X106687857Y-97347142D01*
X106640238Y-97251904D01*
X106640238Y-96966190D01*
X106687857Y-96870952D01*
X106735476Y-96823333D01*
X106830714Y-96775714D01*
X106973571Y-96775714D01*
X107068809Y-96823333D01*
X107116428Y-96870952D01*
X107164047Y-96966190D01*
X107164047Y-97251904D01*
X107116428Y-97347142D01*
X107068809Y-97394761D01*
X106973571Y-97442380D01*
X106830714Y-97442380D01*
X107592619Y-96775714D02*
X107592619Y-97442380D01*
X107592619Y-96870952D02*
X107640238Y-96823333D01*
X107735476Y-96775714D01*
X107878333Y-96775714D01*
X107973571Y-96823333D01*
X108021190Y-96918571D01*
X108021190Y-97442380D01*
X109592619Y-96918571D02*
X109735476Y-96966190D01*
X109783095Y-97013809D01*
X109830714Y-97109047D01*
X109830714Y-97251904D01*
X109783095Y-97347142D01*
X109735476Y-97394761D01*
X109640238Y-97442380D01*
X109259285Y-97442380D01*
X109259285Y-96442380D01*
X109592619Y-96442380D01*
X109687857Y-96490000D01*
X109735476Y-96537619D01*
X109783095Y-96632857D01*
X109783095Y-96728095D01*
X109735476Y-96823333D01*
X109687857Y-96870952D01*
X109592619Y-96918571D01*
X109259285Y-96918571D01*
X100640238Y-99975714D02*
X100640238Y-100785238D01*
X100592619Y-100880476D01*
X100545000Y-100928095D01*
X100449761Y-100975714D01*
X100306904Y-100975714D01*
X100211666Y-100928095D01*
X100640238Y-100594761D02*
X100545000Y-100642380D01*
X100354523Y-100642380D01*
X100259285Y-100594761D01*
X100211666Y-100547142D01*
X100164047Y-100451904D01*
X100164047Y-100166190D01*
X100211666Y-100070952D01*
X100259285Y-100023333D01*
X100354523Y-99975714D01*
X100545000Y-99975714D01*
X100640238Y-100023333D01*
X101116428Y-100642380D02*
X101116428Y-99975714D01*
X101116428Y-99642380D02*
X101068809Y-99690000D01*
X101116428Y-99737619D01*
X101164047Y-99690000D01*
X101116428Y-99642380D01*
X101116428Y-99737619D01*
X101449761Y-99975714D02*
X101830714Y-99975714D01*
X101592619Y-99642380D02*
X101592619Y-100499523D01*
X101640238Y-100594761D01*
X101735476Y-100642380D01*
X101830714Y-100642380D01*
X102164047Y-100642380D02*
X102164047Y-99642380D01*
X102592619Y-100642380D02*
X102592619Y-100118571D01*
X102545000Y-100023333D01*
X102449761Y-99975714D01*
X102306904Y-99975714D01*
X102211666Y-100023333D01*
X102164047Y-100070952D01*
X103497380Y-99975714D02*
X103497380Y-100642380D01*
X103068809Y-99975714D02*
X103068809Y-100499523D01*
X103116428Y-100594761D01*
X103211666Y-100642380D01*
X103354523Y-100642380D01*
X103449761Y-100594761D01*
X103497380Y-100547142D01*
X103973571Y-100642380D02*
X103973571Y-99642380D01*
X103973571Y-100023333D02*
X104068809Y-99975714D01*
X104259285Y-99975714D01*
X104354523Y-100023333D01*
X104402142Y-100070952D01*
X104449761Y-100166190D01*
X104449761Y-100451904D01*
X104402142Y-100547142D01*
X104354523Y-100594761D01*
X104259285Y-100642380D01*
X104068809Y-100642380D01*
X103973571Y-100594761D01*
X104878333Y-100547142D02*
X104925952Y-100594761D01*
X104878333Y-100642380D01*
X104830714Y-100594761D01*
X104878333Y-100547142D01*
X104878333Y-100642380D01*
X105783095Y-100594761D02*
X105687857Y-100642380D01*
X105497380Y-100642380D01*
X105402142Y-100594761D01*
X105354523Y-100547142D01*
X105306904Y-100451904D01*
X105306904Y-100166190D01*
X105354523Y-100070952D01*
X105402142Y-100023333D01*
X105497380Y-99975714D01*
X105687857Y-99975714D01*
X105783095Y-100023333D01*
X106354523Y-100642380D02*
X106259285Y-100594761D01*
X106211666Y-100547142D01*
X106164047Y-100451904D01*
X106164047Y-100166190D01*
X106211666Y-100070952D01*
X106259285Y-100023333D01*
X106354523Y-99975714D01*
X106497380Y-99975714D01*
X106592619Y-100023333D01*
X106640238Y-100070952D01*
X106687857Y-100166190D01*
X106687857Y-100451904D01*
X106640238Y-100547142D01*
X106592619Y-100594761D01*
X106497380Y-100642380D01*
X106354523Y-100642380D01*
X107116428Y-100642380D02*
X107116428Y-99975714D01*
X107116428Y-100070952D02*
X107164047Y-100023333D01*
X107259285Y-99975714D01*
X107402142Y-99975714D01*
X107497380Y-100023333D01*
X107545000Y-100118571D01*
X107545000Y-100642380D01*
X107545000Y-100118571D02*
X107592619Y-100023333D01*
X107687857Y-99975714D01*
X107830714Y-99975714D01*
X107925952Y-100023333D01*
X107973571Y-100118571D01*
X107973571Y-100642380D01*
X109164047Y-99594761D02*
X108306904Y-100880476D01*
X109354523Y-99975714D02*
X109735476Y-99975714D01*
X109497380Y-99642380D02*
X109497380Y-100499523D01*
X109545000Y-100594761D01*
X109640238Y-100642380D01*
X109735476Y-100642380D01*
X110449761Y-100594761D02*
X110354523Y-100642380D01*
X110164047Y-100642380D01*
X110068809Y-100594761D01*
X110021190Y-100499523D01*
X110021190Y-100118571D01*
X110068809Y-100023333D01*
X110164047Y-99975714D01*
X110354523Y-99975714D01*
X110449761Y-100023333D01*
X110497380Y-100118571D01*
X110497380Y-100213809D01*
X110021190Y-100309047D01*
X110925952Y-100642380D02*
X110925952Y-99642380D01*
X110925952Y-100023333D02*
X111021190Y-99975714D01*
X111211666Y-99975714D01*
X111306904Y-100023333D01*
X111354523Y-100070952D01*
X111402142Y-100166190D01*
X111402142Y-100451904D01*
X111354523Y-100547142D01*
X111306904Y-100594761D01*
X111211666Y-100642380D01*
X111021190Y-100642380D01*
X110925952Y-100594761D01*
X111973571Y-100642380D02*
X111878333Y-100594761D01*
X111830714Y-100499523D01*
X111830714Y-99642380D01*
X96231904Y-84264476D02*
X96231904Y-84721619D01*
X96231904Y-84493047D02*
X95431904Y-84493047D01*
X95546190Y-84569238D01*
X95622380Y-84645428D01*
X95660476Y-84721619D01*
X96231904Y-83921619D02*
X95431904Y-83921619D01*
X96231904Y-83464476D01*
X95431904Y-83464476D01*
X96998571Y-85064476D02*
X97531904Y-85064476D01*
X96693809Y-85254952D02*
X97265238Y-85445428D01*
X97265238Y-84950190D01*
X96731904Y-84493047D02*
X96731904Y-84416857D01*
X96770000Y-84340666D01*
X96808095Y-84302571D01*
X96884285Y-84264476D01*
X97036666Y-84226380D01*
X97227142Y-84226380D01*
X97379523Y-84264476D01*
X97455714Y-84302571D01*
X97493809Y-84340666D01*
X97531904Y-84416857D01*
X97531904Y-84493047D01*
X97493809Y-84569238D01*
X97455714Y-84607333D01*
X97379523Y-84645428D01*
X97227142Y-84683523D01*
X97036666Y-84683523D01*
X96884285Y-84645428D01*
X96808095Y-84607333D01*
X96770000Y-84569238D01*
X96731904Y-84493047D01*
X96731904Y-83731142D02*
X96731904Y-83654952D01*
X96770000Y-83578761D01*
X96808095Y-83540666D01*
X96884285Y-83502571D01*
X97036666Y-83464476D01*
X97227142Y-83464476D01*
X97379523Y-83502571D01*
X97455714Y-83540666D01*
X97493809Y-83578761D01*
X97531904Y-83654952D01*
X97531904Y-83731142D01*
X97493809Y-83807333D01*
X97455714Y-83845428D01*
X97379523Y-83883523D01*
X97227142Y-83921619D01*
X97036666Y-83921619D01*
X96884285Y-83883523D01*
X96808095Y-83845428D01*
X96770000Y-83807333D01*
X96731904Y-83731142D01*
X96731904Y-83197809D02*
X96731904Y-82664476D01*
X97531904Y-83007333D01*
X123888523Y-97501904D02*
X123431380Y-97501904D01*
X123659952Y-97501904D02*
X123659952Y-96701904D01*
X123583761Y-96816190D01*
X123507571Y-96892380D01*
X123431380Y-96930476D01*
X124231380Y-97501904D02*
X124231380Y-96701904D01*
X124688523Y-97501904D01*
X124688523Y-96701904D01*
X123088523Y-98268571D02*
X123088523Y-98801904D01*
X122898047Y-97963809D02*
X122707571Y-98535238D01*
X123202809Y-98535238D01*
X123659952Y-98001904D02*
X123736142Y-98001904D01*
X123812333Y-98040000D01*
X123850428Y-98078095D01*
X123888523Y-98154285D01*
X123926619Y-98306666D01*
X123926619Y-98497142D01*
X123888523Y-98649523D01*
X123850428Y-98725714D01*
X123812333Y-98763809D01*
X123736142Y-98801904D01*
X123659952Y-98801904D01*
X123583761Y-98763809D01*
X123545666Y-98725714D01*
X123507571Y-98649523D01*
X123469476Y-98497142D01*
X123469476Y-98306666D01*
X123507571Y-98154285D01*
X123545666Y-98078095D01*
X123583761Y-98040000D01*
X123659952Y-98001904D01*
X124421857Y-98001904D02*
X124498047Y-98001904D01*
X124574238Y-98040000D01*
X124612333Y-98078095D01*
X124650428Y-98154285D01*
X124688523Y-98306666D01*
X124688523Y-98497142D01*
X124650428Y-98649523D01*
X124612333Y-98725714D01*
X124574238Y-98763809D01*
X124498047Y-98801904D01*
X124421857Y-98801904D01*
X124345666Y-98763809D01*
X124307571Y-98725714D01*
X124269476Y-98649523D01*
X124231380Y-98497142D01*
X124231380Y-98306666D01*
X124269476Y-98154285D01*
X124307571Y-98078095D01*
X124345666Y-98040000D01*
X124421857Y-98001904D01*
X125450428Y-98801904D02*
X124993285Y-98801904D01*
X125221857Y-98801904D02*
X125221857Y-98001904D01*
X125145666Y-98116190D01*
X125069476Y-98192380D01*
X124993285Y-98230476D01*
X96755000Y-71094523D02*
X96716904Y-71170714D01*
X96716904Y-71285000D01*
X96755000Y-71399285D01*
X96831190Y-71475476D01*
X96907380Y-71513571D01*
X97059761Y-71551666D01*
X97174047Y-71551666D01*
X97326428Y-71513571D01*
X97402619Y-71475476D01*
X97478809Y-71399285D01*
X97516904Y-71285000D01*
X97516904Y-71208809D01*
X97478809Y-71094523D01*
X97440714Y-71056428D01*
X97174047Y-71056428D01*
X97174047Y-71208809D01*
X97516904Y-70713571D02*
X96716904Y-70713571D01*
X97516904Y-70256428D01*
X96716904Y-70256428D01*
X97516904Y-69875476D02*
X96716904Y-69875476D01*
X96716904Y-69685000D01*
X96755000Y-69570714D01*
X96831190Y-69494523D01*
X96907380Y-69456428D01*
X97059761Y-69418333D01*
X97174047Y-69418333D01*
X97326428Y-69456428D01*
X97402619Y-69494523D01*
X97478809Y-69570714D01*
X97516904Y-69685000D01*
X97516904Y-69875476D01*
X97516904Y-76060238D02*
X97516904Y-76517380D01*
X97516904Y-76288809D02*
X96716904Y-76288809D01*
X96831190Y-76365000D01*
X96907380Y-76441190D01*
X96945476Y-76517380D01*
X96793095Y-75755476D02*
X96755000Y-75717380D01*
X96716904Y-75641190D01*
X96716904Y-75450714D01*
X96755000Y-75374523D01*
X96793095Y-75336428D01*
X96869285Y-75298333D01*
X96945476Y-75298333D01*
X97059761Y-75336428D01*
X97516904Y-75793571D01*
X97516904Y-75298333D01*
X96716904Y-75069761D02*
X97516904Y-74803095D01*
X96716904Y-74536428D01*
X90341666Y-92436904D02*
X89960714Y-92436904D01*
X89960714Y-91636904D01*
X90608333Y-92436904D02*
X90608333Y-91636904D01*
X90875000Y-92208333D01*
X91141666Y-91636904D01*
X91141666Y-92436904D01*
X91446428Y-91636904D02*
X91979761Y-91636904D01*
X91636904Y-92436904D01*
X92398809Y-91979761D02*
X92322619Y-91941666D01*
X92284523Y-91903571D01*
X92246428Y-91827380D01*
X92246428Y-91789285D01*
X92284523Y-91713095D01*
X92322619Y-91675000D01*
X92398809Y-91636904D01*
X92551190Y-91636904D01*
X92627380Y-91675000D01*
X92665476Y-91713095D01*
X92703571Y-91789285D01*
X92703571Y-91827380D01*
X92665476Y-91903571D01*
X92627380Y-91941666D01*
X92551190Y-91979761D01*
X92398809Y-91979761D01*
X92322619Y-92017857D01*
X92284523Y-92055952D01*
X92246428Y-92132142D01*
X92246428Y-92284523D01*
X92284523Y-92360714D01*
X92322619Y-92398809D01*
X92398809Y-92436904D01*
X92551190Y-92436904D01*
X92627380Y-92398809D01*
X92665476Y-92360714D01*
X92703571Y-92284523D01*
X92703571Y-92132142D01*
X92665476Y-92055952D01*
X92627380Y-92017857D01*
X92551190Y-91979761D01*
X93198809Y-91636904D02*
X93275000Y-91636904D01*
X93351190Y-91675000D01*
X93389285Y-91713095D01*
X93427380Y-91789285D01*
X93465476Y-91941666D01*
X93465476Y-92132142D01*
X93427380Y-92284523D01*
X93389285Y-92360714D01*
X93351190Y-92398809D01*
X93275000Y-92436904D01*
X93198809Y-92436904D01*
X93122619Y-92398809D01*
X93084523Y-92360714D01*
X93046428Y-92284523D01*
X93008333Y-92132142D01*
X93008333Y-91941666D01*
X93046428Y-91789285D01*
X93084523Y-91713095D01*
X93122619Y-91675000D01*
X93198809Y-91636904D01*
X94189285Y-91636904D02*
X93808333Y-91636904D01*
X93770238Y-92017857D01*
X93808333Y-91979761D01*
X93884523Y-91941666D01*
X94075000Y-91941666D01*
X94151190Y-91979761D01*
X94189285Y-92017857D01*
X94227380Y-92094047D01*
X94227380Y-92284523D01*
X94189285Y-92360714D01*
X94151190Y-92398809D01*
X94075000Y-92436904D01*
X93884523Y-92436904D01*
X93808333Y-92398809D01*
X93770238Y-92360714D01*
D12*
%TO.C,K1*%
X158115000Y-83820000D02*
X158115000Y-85090000D01*
X156845000Y-83820000D02*
X156845000Y-85090000D01*
X162490000Y-64820000D02*
X152490000Y-64820000D01*
X162490000Y-85120000D02*
X162490000Y-64820000D01*
X152490000Y-85120000D02*
X152490000Y-64820000D01*
X162490000Y-85120000D02*
X152490000Y-85120000D01*
X156845000Y-83820000D02*
G75*
G02*
X158115000Y-83820000I635000J0D01*
G01*
%TO.C,K2*%
X145415000Y-83820000D02*
X145415000Y-85090000D01*
X144145000Y-83820000D02*
X144145000Y-85090000D01*
X149790000Y-64820000D02*
X139790000Y-64820000D01*
X149790000Y-85120000D02*
X149790000Y-64820000D01*
X139790000Y-85120000D02*
X139790000Y-64820000D01*
X149790000Y-85120000D02*
X139790000Y-85120000D01*
X144145000Y-83820000D02*
G75*
G02*
X145415000Y-83820000I635000J0D01*
G01*
%TO.C,K3*%
X132715000Y-83820000D02*
X132715000Y-85090000D01*
X131445000Y-83820000D02*
X131445000Y-85090000D01*
X137090000Y-64820000D02*
X127090000Y-64820000D01*
X137090000Y-85120000D02*
X137090000Y-64820000D01*
X127090000Y-85120000D02*
X127090000Y-64820000D01*
X137090000Y-85120000D02*
X127090000Y-85120000D01*
X131445000Y-83820000D02*
G75*
G02*
X132715000Y-83820000I635000J0D01*
G01*
%TO.C,K4*%
X120015000Y-83820000D02*
X120015000Y-85090000D01*
X118745000Y-83820000D02*
X118745000Y-85090000D01*
X124390000Y-64820000D02*
X114390000Y-64820000D01*
X124390000Y-85120000D02*
X124390000Y-64820000D01*
X114390000Y-85120000D02*
X114390000Y-64820000D01*
X124390000Y-85120000D02*
X114390000Y-85120000D01*
X118745000Y-83820000D02*
G75*
G02*
X120015000Y-83820000I635000J0D01*
G01*
%TO.C,J3*%
X131940000Y-93900000D02*
X131940000Y-87930000D01*
X131940000Y-87930000D02*
X116820000Y-87930000D01*
X116820000Y-87930000D02*
X116820000Y-93900000D01*
X116820000Y-93900000D02*
X131940000Y-93900000D01*
X128630000Y-93890000D02*
X128630000Y-93140000D01*
X128630000Y-93140000D02*
X120130000Y-93140000D01*
X120130000Y-93140000D02*
X120130000Y-93890000D01*
X120130000Y-93890000D02*
X128630000Y-93890000D01*
X131930000Y-93890000D02*
X131930000Y-93140000D01*
X131930000Y-93140000D02*
X130130000Y-93140000D01*
X130130000Y-93140000D02*
X130130000Y-93890000D01*
X130130000Y-93890000D02*
X131930000Y-93890000D01*
X118630000Y-93890000D02*
X118630000Y-93140000D01*
X118630000Y-93140000D02*
X116830000Y-93140000D01*
X116830000Y-93140000D02*
X116830000Y-93890000D01*
X116830000Y-93890000D02*
X118630000Y-93890000D01*
X131930000Y-91640000D02*
X131180000Y-91640000D01*
X131180000Y-91640000D02*
X131180000Y-88690000D01*
X131180000Y-88690000D02*
X124380000Y-88690000D01*
X116830000Y-91640000D02*
X117580000Y-91640000D01*
X117580000Y-91640000D02*
X117580000Y-88690000D01*
X117580000Y-88690000D02*
X124380000Y-88690000D01*
X130980000Y-94190000D02*
X132230000Y-94190000D01*
X132230000Y-94190000D02*
X132230000Y-92940000D01*
%TO.C,D2*%
X127180000Y-99260000D02*
X127180000Y-96320000D01*
X127180000Y-96320000D02*
X121740000Y-96320000D01*
X121740000Y-96320000D02*
X121740000Y-99260000D01*
X121740000Y-99260000D02*
X127180000Y-99260000D01*
X128200000Y-97790000D02*
X127180000Y-97790000D01*
X120720000Y-97790000D02*
X121740000Y-97790000D01*
X126280000Y-99260000D02*
X126280000Y-96320000D01*
X126160000Y-99260000D02*
X126160000Y-96320000D01*
X126400000Y-99260000D02*
X126400000Y-96320000D01*
%TO.C,J10*%
X163215000Y-102790000D02*
X163215000Y-96820000D01*
X163215000Y-96820000D02*
X155595000Y-96820000D01*
X155595000Y-96820000D02*
X155595000Y-102790000D01*
X155595000Y-102790000D02*
X163215000Y-102790000D01*
X159905000Y-102780000D02*
X159905000Y-102030000D01*
X159905000Y-102030000D02*
X158905000Y-102030000D01*
X158905000Y-102030000D02*
X158905000Y-102780000D01*
X158905000Y-102780000D02*
X159905000Y-102780000D01*
X163205000Y-102780000D02*
X163205000Y-102030000D01*
X163205000Y-102030000D02*
X161405000Y-102030000D01*
X161405000Y-102030000D02*
X161405000Y-102780000D01*
X161405000Y-102780000D02*
X163205000Y-102780000D01*
X157405000Y-102780000D02*
X157405000Y-102030000D01*
X157405000Y-102030000D02*
X155605000Y-102030000D01*
X155605000Y-102030000D02*
X155605000Y-102780000D01*
X155605000Y-102780000D02*
X157405000Y-102780000D01*
X163205000Y-100530000D02*
X162455000Y-100530000D01*
X162455000Y-100530000D02*
X162455000Y-97580000D01*
X162455000Y-97580000D02*
X159405000Y-97580000D01*
X155605000Y-100530000D02*
X156355000Y-100530000D01*
X156355000Y-100530000D02*
X156355000Y-97580000D01*
X156355000Y-97580000D02*
X159405000Y-97580000D01*
X162255000Y-103080000D02*
X163505000Y-103080000D01*
X163505000Y-103080000D02*
X163505000Y-101830000D01*
%TO.C,J2*%
X144165000Y-102790000D02*
X144165000Y-96820000D01*
X144165000Y-96820000D02*
X136545000Y-96820000D01*
X136545000Y-96820000D02*
X136545000Y-102790000D01*
X136545000Y-102790000D02*
X144165000Y-102790000D01*
X140855000Y-102780000D02*
X140855000Y-102030000D01*
X140855000Y-102030000D02*
X139855000Y-102030000D01*
X139855000Y-102030000D02*
X139855000Y-102780000D01*
X139855000Y-102780000D02*
X140855000Y-102780000D01*
X144155000Y-102780000D02*
X144155000Y-102030000D01*
X144155000Y-102030000D02*
X142355000Y-102030000D01*
X142355000Y-102030000D02*
X142355000Y-102780000D01*
X142355000Y-102780000D02*
X144155000Y-102780000D01*
X138355000Y-102780000D02*
X138355000Y-102030000D01*
X138355000Y-102030000D02*
X136555000Y-102030000D01*
X136555000Y-102030000D02*
X136555000Y-102780000D01*
X136555000Y-102780000D02*
X138355000Y-102780000D01*
X144155000Y-100530000D02*
X143405000Y-100530000D01*
X143405000Y-100530000D02*
X143405000Y-97580000D01*
X143405000Y-97580000D02*
X140355000Y-97580000D01*
X136555000Y-100530000D02*
X137305000Y-100530000D01*
X137305000Y-100530000D02*
X137305000Y-97580000D01*
X137305000Y-97580000D02*
X140355000Y-97580000D01*
X143205000Y-103080000D02*
X144455000Y-103080000D01*
X144455000Y-103080000D02*
X144455000Y-101830000D01*
%TO.C,J13*%
X153980000Y-103080000D02*
X153980000Y-101830000D01*
X152730000Y-103080000D02*
X153980000Y-103080000D01*
X146830000Y-97580000D02*
X149880000Y-97580000D01*
X146830000Y-100530000D02*
X146830000Y-97580000D01*
X146080000Y-100530000D02*
X146830000Y-100530000D01*
X152930000Y-97580000D02*
X149880000Y-97580000D01*
X152930000Y-100530000D02*
X152930000Y-97580000D01*
X153680000Y-100530000D02*
X152930000Y-100530000D01*
X146080000Y-102780000D02*
X147880000Y-102780000D01*
X146080000Y-102030000D02*
X146080000Y-102780000D01*
X147880000Y-102030000D02*
X146080000Y-102030000D01*
X147880000Y-102780000D02*
X147880000Y-102030000D01*
X151880000Y-102780000D02*
X153680000Y-102780000D01*
X151880000Y-102030000D02*
X151880000Y-102780000D01*
X153680000Y-102030000D02*
X151880000Y-102030000D01*
X153680000Y-102780000D02*
X153680000Y-102030000D01*
X149380000Y-102780000D02*
X150380000Y-102780000D01*
X149380000Y-102030000D02*
X149380000Y-102780000D01*
X150380000Y-102030000D02*
X149380000Y-102030000D01*
X150380000Y-102780000D02*
X150380000Y-102030000D01*
X146070000Y-102790000D02*
X153690000Y-102790000D01*
X146070000Y-96820000D02*
X146070000Y-102790000D01*
X153690000Y-96820000D02*
X146070000Y-96820000D01*
X153690000Y-102790000D02*
X153690000Y-96820000D01*
%TO.C,C3*%
X109640000Y-70595000D02*
X109955000Y-70595000D01*
X107215000Y-70595000D02*
X107530000Y-70595000D01*
X109640000Y-75535000D02*
X109955000Y-75535000D01*
X107215000Y-75535000D02*
X107530000Y-75535000D01*
X109955000Y-75535000D02*
X109955000Y-70595000D01*
X107215000Y-75535000D02*
X107215000Y-70595000D01*
%TO.C,A1*%
X210295000Y-106580000D02*
G75*
G03*
X210295000Y-106580000I-2450000J0D01*
G01*
X210295000Y-55980000D02*
G75*
G03*
X210295000Y-55980000I-2450000J0D01*
G01*
X164495000Y-55980000D02*
X164495000Y-81280000D01*
X212695000Y-55980000D02*
X212695000Y-81280000D01*
X188595000Y-51280000D02*
X169195000Y-51280000D01*
X188595000Y-51280000D02*
X207995000Y-51280000D01*
X164495000Y-106580000D02*
X164495000Y-81280000D01*
X212695000Y-106580000D02*
X212695000Y-81280000D01*
X188595000Y-111280000D02*
X169195000Y-111280000D01*
X188595000Y-111280000D02*
X207995000Y-111280000D01*
X169195000Y-111280000D02*
G75*
G02*
X164495000Y-106580000I0J4700000D01*
G01*
X207995000Y-51280000D02*
G75*
G02*
X212695000Y-55980000I0J-4700000D01*
G01*
X212695000Y-106580000D02*
G75*
G02*
X207995000Y-111280000I-4700000J0D01*
G01*
X164495000Y-55980000D02*
G75*
G02*
X169195000Y-51280000I4700000J0D01*
G01*
%TO.C,M1*%
X94361000Y-101600000D02*
G75*
G03*
X94361000Y-101600000I-2286000J0D01*
G01*
%TO.C,M2*%
X187071000Y-106680000D02*
G75*
G03*
X187071000Y-106680000I-2286000J0D01*
G01*
%TO.C,M3*%
X187071000Y-53340000D02*
G75*
G03*
X187071000Y-53340000I-2286000J0D01*
G01*
%TO.C,M4*%
X94361000Y-53340000D02*
G75*
G03*
X94361000Y-53340000I-2286000J0D01*
G01*
%TO.C,C1*%
X112625000Y-83820000D02*
G75*
G03*
X112625000Y-83820000I-6620000J0D01*
G01*
X106005000Y-77240000D02*
X106005000Y-90400000D01*
X106045000Y-77240000D02*
X106045000Y-90400000D01*
X106085000Y-77240000D02*
X106085000Y-90400000D01*
X106125000Y-77241000D02*
X106125000Y-90399000D01*
X106165000Y-77241000D02*
X106165000Y-90399000D01*
X106205000Y-77243000D02*
X106205000Y-90397000D01*
X106245000Y-77244000D02*
X106245000Y-90396000D01*
X106285000Y-77245000D02*
X106285000Y-90395000D01*
X106325000Y-77247000D02*
X106325000Y-90393000D01*
X106365000Y-77249000D02*
X106365000Y-90391000D01*
X106405000Y-77252000D02*
X106405000Y-90388000D01*
X106445000Y-77254000D02*
X106445000Y-90386000D01*
X106485000Y-77257000D02*
X106485000Y-90383000D01*
X106525000Y-77260000D02*
X106525000Y-90380000D01*
X106565000Y-77263000D02*
X106565000Y-90377000D01*
X106605000Y-77267000D02*
X106605000Y-90373000D01*
X106645000Y-77271000D02*
X106645000Y-90369000D01*
X106685000Y-77275000D02*
X106685000Y-90365000D01*
X106726000Y-77279000D02*
X106726000Y-90361000D01*
X106766000Y-77283000D02*
X106766000Y-90357000D01*
X106806000Y-77288000D02*
X106806000Y-90352000D01*
X106846000Y-77293000D02*
X106846000Y-90347000D01*
X106886000Y-77298000D02*
X106886000Y-90342000D01*
X106926000Y-77304000D02*
X106926000Y-90336000D01*
X106966000Y-77309000D02*
X106966000Y-90331000D01*
X107006000Y-77315000D02*
X107006000Y-90325000D01*
X107046000Y-77322000D02*
X107046000Y-90318000D01*
X107086000Y-77328000D02*
X107086000Y-82380000D01*
X107086000Y-85260000D02*
X107086000Y-90312000D01*
X107126000Y-77335000D02*
X107126000Y-82380000D01*
X107126000Y-85260000D02*
X107126000Y-90305000D01*
X107166000Y-77342000D02*
X107166000Y-82380000D01*
X107166000Y-85260000D02*
X107166000Y-90298000D01*
X107206000Y-77349000D02*
X107206000Y-82380000D01*
X107206000Y-85260000D02*
X107206000Y-90291000D01*
X107246000Y-77357000D02*
X107246000Y-82380000D01*
X107246000Y-85260000D02*
X107246000Y-90283000D01*
X107286000Y-77364000D02*
X107286000Y-82380000D01*
X107286000Y-85260000D02*
X107286000Y-90276000D01*
X107326000Y-77372000D02*
X107326000Y-82380000D01*
X107326000Y-85260000D02*
X107326000Y-90268000D01*
X107366000Y-77381000D02*
X107366000Y-82380000D01*
X107366000Y-85260000D02*
X107366000Y-90259000D01*
X107406000Y-77389000D02*
X107406000Y-82380000D01*
X107406000Y-85260000D02*
X107406000Y-90251000D01*
X107446000Y-77398000D02*
X107446000Y-82380000D01*
X107446000Y-85260000D02*
X107446000Y-90242000D01*
X107486000Y-77407000D02*
X107486000Y-82380000D01*
X107486000Y-85260000D02*
X107486000Y-90233000D01*
X107526000Y-77416000D02*
X107526000Y-82380000D01*
X107526000Y-85260000D02*
X107526000Y-90224000D01*
X107566000Y-77426000D02*
X107566000Y-82380000D01*
X107566000Y-85260000D02*
X107566000Y-90214000D01*
X107606000Y-77436000D02*
X107606000Y-82380000D01*
X107606000Y-85260000D02*
X107606000Y-90204000D01*
X107646000Y-77446000D02*
X107646000Y-82380000D01*
X107646000Y-85260000D02*
X107646000Y-90194000D01*
X107686000Y-77456000D02*
X107686000Y-82380000D01*
X107686000Y-85260000D02*
X107686000Y-90184000D01*
X107726000Y-77467000D02*
X107726000Y-82380000D01*
X107726000Y-85260000D02*
X107726000Y-90173000D01*
X107766000Y-77478000D02*
X107766000Y-82380000D01*
X107766000Y-85260000D02*
X107766000Y-90162000D01*
X107806000Y-77489000D02*
X107806000Y-82380000D01*
X107806000Y-85260000D02*
X107806000Y-90151000D01*
X107846000Y-77500000D02*
X107846000Y-82380000D01*
X107846000Y-85260000D02*
X107846000Y-90140000D01*
X107886000Y-77512000D02*
X107886000Y-82380000D01*
X107886000Y-85260000D02*
X107886000Y-90128000D01*
X107926000Y-77524000D02*
X107926000Y-82380000D01*
X107926000Y-85260000D02*
X107926000Y-90116000D01*
X107966000Y-77536000D02*
X107966000Y-82380000D01*
X107966000Y-85260000D02*
X107966000Y-90104000D01*
X108006000Y-77549000D02*
X108006000Y-82380000D01*
X108006000Y-85260000D02*
X108006000Y-90091000D01*
X108046000Y-77562000D02*
X108046000Y-82380000D01*
X108046000Y-85260000D02*
X108046000Y-90078000D01*
X108086000Y-77575000D02*
X108086000Y-82380000D01*
X108086000Y-85260000D02*
X108086000Y-90065000D01*
X108126000Y-77588000D02*
X108126000Y-82380000D01*
X108126000Y-85260000D02*
X108126000Y-90052000D01*
X108166000Y-77602000D02*
X108166000Y-82380000D01*
X108166000Y-85260000D02*
X108166000Y-90038000D01*
X108206000Y-77616000D02*
X108206000Y-82380000D01*
X108206000Y-85260000D02*
X108206000Y-90024000D01*
X108246000Y-77630000D02*
X108246000Y-82380000D01*
X108246000Y-85260000D02*
X108246000Y-90010000D01*
X108286000Y-77645000D02*
X108286000Y-82380000D01*
X108286000Y-85260000D02*
X108286000Y-89995000D01*
X108326000Y-77659000D02*
X108326000Y-82380000D01*
X108326000Y-85260000D02*
X108326000Y-89981000D01*
X108366000Y-77674000D02*
X108366000Y-82380000D01*
X108366000Y-85260000D02*
X108366000Y-89966000D01*
X108406000Y-77690000D02*
X108406000Y-82380000D01*
X108406000Y-85260000D02*
X108406000Y-89950000D01*
X108446000Y-77706000D02*
X108446000Y-82380000D01*
X108446000Y-85260000D02*
X108446000Y-89934000D01*
X108486000Y-77722000D02*
X108486000Y-82380000D01*
X108486000Y-85260000D02*
X108486000Y-89918000D01*
X108526000Y-77738000D02*
X108526000Y-82380000D01*
X108526000Y-85260000D02*
X108526000Y-89902000D01*
X108566000Y-77755000D02*
X108566000Y-82380000D01*
X108566000Y-85260000D02*
X108566000Y-89885000D01*
X108606000Y-77771000D02*
X108606000Y-82380000D01*
X108606000Y-85260000D02*
X108606000Y-89869000D01*
X108646000Y-77789000D02*
X108646000Y-82380000D01*
X108646000Y-85260000D02*
X108646000Y-89851000D01*
X108686000Y-77806000D02*
X108686000Y-82380000D01*
X108686000Y-85260000D02*
X108686000Y-89834000D01*
X108726000Y-77824000D02*
X108726000Y-82380000D01*
X108726000Y-85260000D02*
X108726000Y-89816000D01*
X108766000Y-77842000D02*
X108766000Y-82380000D01*
X108766000Y-85260000D02*
X108766000Y-89798000D01*
X108806000Y-77861000D02*
X108806000Y-82380000D01*
X108806000Y-85260000D02*
X108806000Y-89779000D01*
X108846000Y-77880000D02*
X108846000Y-82380000D01*
X108846000Y-85260000D02*
X108846000Y-89760000D01*
X108886000Y-77899000D02*
X108886000Y-82380000D01*
X108886000Y-85260000D02*
X108886000Y-89741000D01*
X108926000Y-77918000D02*
X108926000Y-82380000D01*
X108926000Y-85260000D02*
X108926000Y-89722000D01*
X108966000Y-77938000D02*
X108966000Y-82380000D01*
X108966000Y-85260000D02*
X108966000Y-89702000D01*
X109006000Y-77958000D02*
X109006000Y-82380000D01*
X109006000Y-85260000D02*
X109006000Y-89682000D01*
X109046000Y-77979000D02*
X109046000Y-82380000D01*
X109046000Y-85260000D02*
X109046000Y-89661000D01*
X109086000Y-78000000D02*
X109086000Y-82380000D01*
X109086000Y-85260000D02*
X109086000Y-89640000D01*
X109126000Y-78021000D02*
X109126000Y-82380000D01*
X109126000Y-85260000D02*
X109126000Y-89619000D01*
X109166000Y-78042000D02*
X109166000Y-82380000D01*
X109166000Y-85260000D02*
X109166000Y-89598000D01*
X109206000Y-78064000D02*
X109206000Y-82380000D01*
X109206000Y-85260000D02*
X109206000Y-89576000D01*
X109246000Y-78087000D02*
X109246000Y-82380000D01*
X109246000Y-85260000D02*
X109246000Y-89553000D01*
X109286000Y-78109000D02*
X109286000Y-82380000D01*
X109286000Y-85260000D02*
X109286000Y-89531000D01*
X109326000Y-78132000D02*
X109326000Y-82380000D01*
X109326000Y-85260000D02*
X109326000Y-89508000D01*
X109366000Y-78156000D02*
X109366000Y-82380000D01*
X109366000Y-85260000D02*
X109366000Y-89484000D01*
X109406000Y-78179000D02*
X109406000Y-82380000D01*
X109406000Y-85260000D02*
X109406000Y-89461000D01*
X109446000Y-78203000D02*
X109446000Y-82380000D01*
X109446000Y-85260000D02*
X109446000Y-89437000D01*
X109486000Y-78228000D02*
X109486000Y-82380000D01*
X109486000Y-85260000D02*
X109486000Y-89412000D01*
X109526000Y-78253000D02*
X109526000Y-82380000D01*
X109526000Y-85260000D02*
X109526000Y-89387000D01*
X109566000Y-78278000D02*
X109566000Y-82380000D01*
X109566000Y-85260000D02*
X109566000Y-89362000D01*
X109606000Y-78304000D02*
X109606000Y-82380000D01*
X109606000Y-85260000D02*
X109606000Y-89336000D01*
X109646000Y-78330000D02*
X109646000Y-82380000D01*
X109646000Y-85260000D02*
X109646000Y-89310000D01*
X109686000Y-78357000D02*
X109686000Y-82380000D01*
X109686000Y-85260000D02*
X109686000Y-89283000D01*
X109726000Y-78384000D02*
X109726000Y-82380000D01*
X109726000Y-85260000D02*
X109726000Y-89256000D01*
X109766000Y-78411000D02*
X109766000Y-82380000D01*
X109766000Y-85260000D02*
X109766000Y-89229000D01*
X109806000Y-78439000D02*
X109806000Y-82380000D01*
X109806000Y-85260000D02*
X109806000Y-89201000D01*
X109846000Y-78467000D02*
X109846000Y-82380000D01*
X109846000Y-85260000D02*
X109846000Y-89173000D01*
X109886000Y-78496000D02*
X109886000Y-82380000D01*
X109886000Y-85260000D02*
X109886000Y-89144000D01*
X109926000Y-78525000D02*
X109926000Y-82380000D01*
X109926000Y-85260000D02*
X109926000Y-89115000D01*
X109966000Y-78555000D02*
X109966000Y-89085000D01*
X110006000Y-78585000D02*
X110006000Y-89055000D01*
X110046000Y-78615000D02*
X110046000Y-89025000D01*
X110086000Y-78646000D02*
X110086000Y-88994000D01*
X110126000Y-78678000D02*
X110126000Y-88962000D01*
X110166000Y-78710000D02*
X110166000Y-88930000D01*
X110206000Y-78742000D02*
X110206000Y-88898000D01*
X110246000Y-78776000D02*
X110246000Y-88864000D01*
X110286000Y-78809000D02*
X110286000Y-88831000D01*
X110326000Y-78843000D02*
X110326000Y-88797000D01*
X110366000Y-78878000D02*
X110366000Y-88762000D01*
X110406000Y-78913000D02*
X110406000Y-88727000D01*
X110446000Y-78949000D02*
X110446000Y-88691000D01*
X110486000Y-78986000D02*
X110486000Y-88654000D01*
X110526000Y-79023000D02*
X110526000Y-88617000D01*
X110566000Y-79060000D02*
X110566000Y-88580000D01*
X110606000Y-79099000D02*
X110606000Y-88541000D01*
X110646000Y-79138000D02*
X110646000Y-88502000D01*
X110686000Y-79177000D02*
X110686000Y-88463000D01*
X110726000Y-79218000D02*
X110726000Y-88422000D01*
X110766000Y-79259000D02*
X110766000Y-88381000D01*
X110806000Y-79301000D02*
X110806000Y-88339000D01*
X110846000Y-79343000D02*
X110846000Y-88297000D01*
X110886000Y-79386000D02*
X110886000Y-88254000D01*
X110926000Y-79430000D02*
X110926000Y-88210000D01*
X110966000Y-79475000D02*
X110966000Y-88165000D01*
X111006000Y-79521000D02*
X111006000Y-88119000D01*
X111046000Y-79567000D02*
X111046000Y-88073000D01*
X111086000Y-79615000D02*
X111086000Y-88025000D01*
X111126000Y-79663000D02*
X111126000Y-87977000D01*
X111166000Y-79712000D02*
X111166000Y-87928000D01*
X111206000Y-79763000D02*
X111206000Y-87877000D01*
X111246000Y-79814000D02*
X111246000Y-87826000D01*
X111286000Y-79866000D02*
X111286000Y-87774000D01*
X111326000Y-79920000D02*
X111326000Y-87720000D01*
X111366000Y-79974000D02*
X111366000Y-87666000D01*
X111406000Y-80030000D02*
X111406000Y-87610000D01*
X111446000Y-80087000D02*
X111446000Y-87553000D01*
X111486000Y-80145000D02*
X111486000Y-87495000D01*
X111526000Y-80205000D02*
X111526000Y-87435000D01*
X111566000Y-80266000D02*
X111566000Y-87374000D01*
X111606000Y-80329000D02*
X111606000Y-87311000D01*
X111646000Y-80393000D02*
X111646000Y-87247000D01*
X111686000Y-80459000D02*
X111686000Y-87181000D01*
X111726000Y-80527000D02*
X111726000Y-87113000D01*
X111766000Y-80597000D02*
X111766000Y-87043000D01*
X111806000Y-80668000D02*
X111806000Y-86972000D01*
X111846000Y-80742000D02*
X111846000Y-86898000D01*
X111886000Y-80818000D02*
X111886000Y-86822000D01*
X111926000Y-80897000D02*
X111926000Y-86743000D01*
X111966000Y-80978000D02*
X111966000Y-86662000D01*
X112006000Y-81062000D02*
X112006000Y-86578000D01*
X112046000Y-81150000D02*
X112046000Y-86490000D01*
X112086000Y-81241000D02*
X112086000Y-86399000D01*
X112126000Y-81336000D02*
X112126000Y-86304000D01*
X112166000Y-81435000D02*
X112166000Y-86205000D01*
X112206000Y-81539000D02*
X112206000Y-86101000D01*
X112246000Y-81649000D02*
X112246000Y-85991000D01*
X112286000Y-81765000D02*
X112286000Y-85875000D01*
X112326000Y-81889000D02*
X112326000Y-85751000D01*
X112366000Y-82022000D02*
X112366000Y-85618000D01*
X112406000Y-82167000D02*
X112406000Y-85473000D01*
X112446000Y-82326000D02*
X112446000Y-85314000D01*
X112486000Y-82505000D02*
X112486000Y-85135000D01*
X112526000Y-82713000D02*
X112526000Y-84927000D01*
X112566000Y-82970000D02*
X112566000Y-84670000D01*
X112606000Y-83345000D02*
X112606000Y-84295000D01*
X98920431Y-80105000D02*
X100220431Y-80105000D01*
X99570431Y-79455000D02*
X99570431Y-80755000D01*
%TO.C,C2*%
X100716000Y-76230241D02*
X101346000Y-76230241D01*
X101031000Y-76545241D02*
X101031000Y-75915241D01*
X102468000Y-69804000D02*
X103272000Y-69804000D01*
X102237000Y-69844000D02*
X103503000Y-69844000D01*
X102068000Y-69884000D02*
X103672000Y-69884000D01*
X101930000Y-69924000D02*
X103810000Y-69924000D01*
X101811000Y-69964000D02*
X103929000Y-69964000D01*
X101705000Y-70004000D02*
X104035000Y-70004000D01*
X101608000Y-70044000D02*
X104132000Y-70044000D01*
X101520000Y-70084000D02*
X104220000Y-70084000D01*
X101438000Y-70124000D02*
X104302000Y-70124000D01*
X101361000Y-70164000D02*
X104379000Y-70164000D01*
X101289000Y-70204000D02*
X104451000Y-70204000D01*
X101220000Y-70244000D02*
X104520000Y-70244000D01*
X101156000Y-70284000D02*
X104584000Y-70284000D01*
X101094000Y-70324000D02*
X104646000Y-70324000D01*
X101036000Y-70364000D02*
X104704000Y-70364000D01*
X100980000Y-70404000D02*
X104760000Y-70404000D01*
X100926000Y-70444000D02*
X104814000Y-70444000D01*
X100875000Y-70484000D02*
X104865000Y-70484000D01*
X100826000Y-70524000D02*
X104914000Y-70524000D01*
X100778000Y-70564000D02*
X104962000Y-70564000D01*
X100733000Y-70604000D02*
X105007000Y-70604000D01*
X100688000Y-70644000D02*
X105052000Y-70644000D01*
X100646000Y-70684000D02*
X105094000Y-70684000D01*
X100605000Y-70724000D02*
X105135000Y-70724000D01*
X103910000Y-70764000D02*
X105175000Y-70764000D01*
X100565000Y-70764000D02*
X101830000Y-70764000D01*
X103910000Y-70804000D02*
X105213000Y-70804000D01*
X100527000Y-70804000D02*
X101830000Y-70804000D01*
X103910000Y-70844000D02*
X105250000Y-70844000D01*
X100490000Y-70844000D02*
X101830000Y-70844000D01*
X103910000Y-70884000D02*
X105286000Y-70884000D01*
X100454000Y-70884000D02*
X101830000Y-70884000D01*
X103910000Y-70924000D02*
X105320000Y-70924000D01*
X100420000Y-70924000D02*
X101830000Y-70924000D01*
X103910000Y-70964000D02*
X105354000Y-70964000D01*
X100386000Y-70964000D02*
X101830000Y-70964000D01*
X103910000Y-71004000D02*
X105386000Y-71004000D01*
X100354000Y-71004000D02*
X101830000Y-71004000D01*
X103910000Y-71044000D02*
X105418000Y-71044000D01*
X100322000Y-71044000D02*
X101830000Y-71044000D01*
X103910000Y-71084000D02*
X105448000Y-71084000D01*
X100292000Y-71084000D02*
X101830000Y-71084000D01*
X103910000Y-71124000D02*
X105477000Y-71124000D01*
X100263000Y-71124000D02*
X101830000Y-71124000D01*
X103910000Y-71164000D02*
X105506000Y-71164000D01*
X100234000Y-71164000D02*
X101830000Y-71164000D01*
X103910000Y-71204000D02*
X105534000Y-71204000D01*
X100206000Y-71204000D02*
X101830000Y-71204000D01*
X103910000Y-71244000D02*
X105560000Y-71244000D01*
X100180000Y-71244000D02*
X101830000Y-71244000D01*
X103910000Y-71284000D02*
X105586000Y-71284000D01*
X100154000Y-71284000D02*
X101830000Y-71284000D01*
X103910000Y-71324000D02*
X105612000Y-71324000D01*
X100128000Y-71324000D02*
X101830000Y-71324000D01*
X103910000Y-71364000D02*
X105636000Y-71364000D01*
X100104000Y-71364000D02*
X101830000Y-71364000D01*
X103910000Y-71404000D02*
X105660000Y-71404000D01*
X100080000Y-71404000D02*
X101830000Y-71404000D01*
X103910000Y-71444000D02*
X105682000Y-71444000D01*
X100058000Y-71444000D02*
X101830000Y-71444000D01*
X103910000Y-71484000D02*
X105704000Y-71484000D01*
X100036000Y-71484000D02*
X101830000Y-71484000D01*
X103910000Y-71524000D02*
X105726000Y-71524000D01*
X100014000Y-71524000D02*
X101830000Y-71524000D01*
X103910000Y-71564000D02*
X105746000Y-71564000D01*
X99994000Y-71564000D02*
X101830000Y-71564000D01*
X103910000Y-71604000D02*
X105766000Y-71604000D01*
X99974000Y-71604000D02*
X101830000Y-71604000D01*
X103910000Y-71644000D02*
X105786000Y-71644000D01*
X99954000Y-71644000D02*
X101830000Y-71644000D01*
X103910000Y-71684000D02*
X105804000Y-71684000D01*
X99936000Y-71684000D02*
X101830000Y-71684000D01*
X103910000Y-71724000D02*
X105822000Y-71724000D01*
X99918000Y-71724000D02*
X101830000Y-71724000D01*
X103910000Y-71764000D02*
X105840000Y-71764000D01*
X99900000Y-71764000D02*
X101830000Y-71764000D01*
X103910000Y-71804000D02*
X105856000Y-71804000D01*
X99884000Y-71804000D02*
X101830000Y-71804000D01*
X103910000Y-71844000D02*
X105872000Y-71844000D01*
X99868000Y-71844000D02*
X101830000Y-71844000D01*
X103910000Y-71884000D02*
X105888000Y-71884000D01*
X99852000Y-71884000D02*
X101830000Y-71884000D01*
X103910000Y-71924000D02*
X105903000Y-71924000D01*
X99837000Y-71924000D02*
X101830000Y-71924000D01*
X103910000Y-71964000D02*
X105917000Y-71964000D01*
X99823000Y-71964000D02*
X101830000Y-71964000D01*
X103910000Y-72004000D02*
X105931000Y-72004000D01*
X99809000Y-72004000D02*
X101830000Y-72004000D01*
X103910000Y-72044000D02*
X105944000Y-72044000D01*
X99796000Y-72044000D02*
X101830000Y-72044000D01*
X103910000Y-72084000D02*
X105956000Y-72084000D01*
X99784000Y-72084000D02*
X101830000Y-72084000D01*
X103910000Y-72124000D02*
X105968000Y-72124000D01*
X99772000Y-72124000D02*
X101830000Y-72124000D01*
X103910000Y-72164000D02*
X105980000Y-72164000D01*
X99760000Y-72164000D02*
X101830000Y-72164000D01*
X103910000Y-72204000D02*
X105991000Y-72204000D01*
X99749000Y-72204000D02*
X101830000Y-72204000D01*
X103910000Y-72244000D02*
X106001000Y-72244000D01*
X99739000Y-72244000D02*
X101830000Y-72244000D01*
X103910000Y-72284000D02*
X106011000Y-72284000D01*
X99729000Y-72284000D02*
X101830000Y-72284000D01*
X103910000Y-72324000D02*
X106020000Y-72324000D01*
X99720000Y-72324000D02*
X101830000Y-72324000D01*
X103910000Y-72365000D02*
X106029000Y-72365000D01*
X99711000Y-72365000D02*
X101830000Y-72365000D01*
X103910000Y-72405000D02*
X106037000Y-72405000D01*
X99703000Y-72405000D02*
X101830000Y-72405000D01*
X103910000Y-72445000D02*
X106045000Y-72445000D01*
X99695000Y-72445000D02*
X101830000Y-72445000D01*
X103910000Y-72485000D02*
X106052000Y-72485000D01*
X99688000Y-72485000D02*
X101830000Y-72485000D01*
X103910000Y-72525000D02*
X106059000Y-72525000D01*
X99681000Y-72525000D02*
X101830000Y-72525000D01*
X103910000Y-72565000D02*
X106065000Y-72565000D01*
X99675000Y-72565000D02*
X101830000Y-72565000D01*
X103910000Y-72605000D02*
X106071000Y-72605000D01*
X99669000Y-72605000D02*
X101830000Y-72605000D01*
X103910000Y-72645000D02*
X106076000Y-72645000D01*
X99664000Y-72645000D02*
X101830000Y-72645000D01*
X103910000Y-72685000D02*
X106081000Y-72685000D01*
X99659000Y-72685000D02*
X101830000Y-72685000D01*
X103910000Y-72725000D02*
X106085000Y-72725000D01*
X99655000Y-72725000D02*
X101830000Y-72725000D01*
X103910000Y-72765000D02*
X106088000Y-72765000D01*
X99652000Y-72765000D02*
X101830000Y-72765000D01*
X103910000Y-72805000D02*
X106092000Y-72805000D01*
X99648000Y-72805000D02*
X101830000Y-72805000D01*
X99646000Y-72845000D02*
X106094000Y-72845000D01*
X99643000Y-72885000D02*
X106097000Y-72885000D01*
X99642000Y-72925000D02*
X106098000Y-72925000D01*
X99640000Y-72965000D02*
X106100000Y-72965000D01*
X99640000Y-73005000D02*
X106100000Y-73005000D01*
X99640000Y-73045000D02*
X106100000Y-73045000D01*
X106140000Y-73045000D02*
G75*
G03*
X106140000Y-73045000I-3270000J0D01*
G01*
%TO.C,D1*%
X95050000Y-86395000D02*
X97990000Y-86395000D01*
X95050000Y-86155000D02*
X97990000Y-86155000D01*
X95050000Y-86275000D02*
X97990000Y-86275000D01*
X96520000Y-80715000D02*
X96520000Y-81735000D01*
X96520000Y-88195000D02*
X96520000Y-87175000D01*
X95050000Y-81735000D02*
X95050000Y-87175000D01*
X97990000Y-81735000D02*
X95050000Y-81735000D01*
X97990000Y-87175000D02*
X97990000Y-81735000D01*
X95050000Y-87175000D02*
X97990000Y-87175000D01*
D13*
%TO.C,J4*%
X163576000Y-60452000D02*
X151384000Y-60452000D01*
X163576000Y-48260000D02*
X163576000Y-60452000D01*
X151384000Y-60452000D02*
X151384000Y-48260000D01*
X154940000Y-46228000D02*
X160020000Y-46228000D01*
X162560000Y-47752000D02*
X162560000Y-48260000D01*
X152400000Y-47752000D02*
X162560000Y-47752000D01*
X152400000Y-48006000D02*
X152400000Y-47752000D01*
X152400000Y-48260000D02*
X152400000Y-48006000D01*
X154940000Y-46990000D02*
X160020000Y-46990000D01*
X160020000Y-47752000D02*
X160020000Y-46228000D01*
X154940000Y-46228000D02*
X154940000Y-47752000D01*
X163576000Y-48260000D02*
X162560000Y-48260000D01*
X152400000Y-48260000D02*
X151384000Y-48260000D01*
X161290000Y-52832000D02*
X159258000Y-52832000D01*
X161290000Y-49276000D02*
X161290000Y-52832000D01*
X153670000Y-49276000D02*
X161290000Y-49276000D01*
X153670000Y-52832000D02*
X153670000Y-49276000D01*
X155702000Y-52832000D02*
X153670000Y-52832000D01*
%TO.C,J5*%
X143002000Y-52832000D02*
X140970000Y-52832000D01*
X140970000Y-52832000D02*
X140970000Y-49276000D01*
X140970000Y-49276000D02*
X148590000Y-49276000D01*
X148590000Y-49276000D02*
X148590000Y-52832000D01*
X148590000Y-52832000D02*
X146558000Y-52832000D01*
X139700000Y-48260000D02*
X138684000Y-48260000D01*
X150876000Y-48260000D02*
X149860000Y-48260000D01*
X142240000Y-46228000D02*
X142240000Y-47752000D01*
X147320000Y-47752000D02*
X147320000Y-46228000D01*
X142240000Y-46990000D02*
X147320000Y-46990000D01*
X139700000Y-48260000D02*
X139700000Y-48006000D01*
X139700000Y-48006000D02*
X139700000Y-47752000D01*
X139700000Y-47752000D02*
X149860000Y-47752000D01*
X149860000Y-47752000D02*
X149860000Y-48260000D01*
X142240000Y-46228000D02*
X147320000Y-46228000D01*
X138684000Y-60452000D02*
X138684000Y-48260000D01*
X150876000Y-48260000D02*
X150876000Y-60452000D01*
X150876000Y-60452000D02*
X138684000Y-60452000D01*
%TO.C,J6*%
X138176000Y-60452000D02*
X125984000Y-60452000D01*
X138176000Y-48260000D02*
X138176000Y-60452000D01*
X125984000Y-60452000D02*
X125984000Y-48260000D01*
X129540000Y-46228000D02*
X134620000Y-46228000D01*
X137160000Y-47752000D02*
X137160000Y-48260000D01*
X127000000Y-47752000D02*
X137160000Y-47752000D01*
X127000000Y-48006000D02*
X127000000Y-47752000D01*
X127000000Y-48260000D02*
X127000000Y-48006000D01*
X129540000Y-46990000D02*
X134620000Y-46990000D01*
X134620000Y-47752000D02*
X134620000Y-46228000D01*
X129540000Y-46228000D02*
X129540000Y-47752000D01*
X138176000Y-48260000D02*
X137160000Y-48260000D01*
X127000000Y-48260000D02*
X125984000Y-48260000D01*
X135890000Y-52832000D02*
X133858000Y-52832000D01*
X135890000Y-49276000D02*
X135890000Y-52832000D01*
X128270000Y-49276000D02*
X135890000Y-49276000D01*
X128270000Y-52832000D02*
X128270000Y-49276000D01*
X130302000Y-52832000D02*
X128270000Y-52832000D01*
%TO.C,J7*%
X117602000Y-52832000D02*
X115570000Y-52832000D01*
X115570000Y-52832000D02*
X115570000Y-49276000D01*
X115570000Y-49276000D02*
X123190000Y-49276000D01*
X123190000Y-49276000D02*
X123190000Y-52832000D01*
X123190000Y-52832000D02*
X121158000Y-52832000D01*
X114300000Y-48260000D02*
X113284000Y-48260000D01*
X125476000Y-48260000D02*
X124460000Y-48260000D01*
X116840000Y-46228000D02*
X116840000Y-47752000D01*
X121920000Y-47752000D02*
X121920000Y-46228000D01*
X116840000Y-46990000D02*
X121920000Y-46990000D01*
X114300000Y-48260000D02*
X114300000Y-48006000D01*
X114300000Y-48006000D02*
X114300000Y-47752000D01*
X114300000Y-47752000D02*
X124460000Y-47752000D01*
X124460000Y-47752000D02*
X124460000Y-48260000D01*
X116840000Y-46228000D02*
X121920000Y-46228000D01*
X113284000Y-60452000D02*
X113284000Y-48260000D01*
X125476000Y-48260000D02*
X125476000Y-60452000D01*
X125476000Y-60452000D02*
X113284000Y-60452000D01*
%TO.C,J8*%
X100457000Y-52832000D02*
X98425000Y-52832000D01*
X98425000Y-52832000D02*
X98425000Y-49276000D01*
X98425000Y-49276000D02*
X106045000Y-49276000D01*
X106045000Y-49276000D02*
X106045000Y-52832000D01*
X106045000Y-52832000D02*
X104013000Y-52832000D01*
X97155000Y-48260000D02*
X96139000Y-48260000D01*
X108331000Y-48260000D02*
X107315000Y-48260000D01*
X99695000Y-46228000D02*
X99695000Y-47752000D01*
X104775000Y-47752000D02*
X104775000Y-46228000D01*
X99695000Y-46990000D02*
X104775000Y-46990000D01*
X97155000Y-48260000D02*
X97155000Y-48006000D01*
X97155000Y-48006000D02*
X97155000Y-47752000D01*
X97155000Y-47752000D02*
X107315000Y-47752000D01*
X107315000Y-47752000D02*
X107315000Y-48260000D01*
X99695000Y-46228000D02*
X104775000Y-46228000D01*
X96139000Y-60452000D02*
X96139000Y-48260000D01*
X108331000Y-48260000D02*
X108331000Y-60452000D01*
X108331000Y-60452000D02*
X96139000Y-60452000D01*
D12*
%TO.C,J9*%
X163215000Y-93900000D02*
X163215000Y-87930000D01*
X163215000Y-87930000D02*
X153095000Y-87930000D01*
X153095000Y-87930000D02*
X153095000Y-93900000D01*
X153095000Y-93900000D02*
X163215000Y-93900000D01*
X159905000Y-93890000D02*
X159905000Y-93140000D01*
X159905000Y-93140000D02*
X156405000Y-93140000D01*
X156405000Y-93140000D02*
X156405000Y-93890000D01*
X156405000Y-93890000D02*
X159905000Y-93890000D01*
X163205000Y-93890000D02*
X163205000Y-93140000D01*
X163205000Y-93140000D02*
X161405000Y-93140000D01*
X161405000Y-93140000D02*
X161405000Y-93890000D01*
X161405000Y-93890000D02*
X163205000Y-93890000D01*
X154905000Y-93890000D02*
X154905000Y-93140000D01*
X154905000Y-93140000D02*
X153105000Y-93140000D01*
X153105000Y-93140000D02*
X153105000Y-93890000D01*
X153105000Y-93890000D02*
X154905000Y-93890000D01*
X163205000Y-91640000D02*
X162455000Y-91640000D01*
X162455000Y-91640000D02*
X162455000Y-88690000D01*
X162455000Y-88690000D02*
X158155000Y-88690000D01*
X153105000Y-91640000D02*
X153855000Y-91640000D01*
X153855000Y-91640000D02*
X153855000Y-88690000D01*
X153855000Y-88690000D02*
X158155000Y-88690000D01*
X162255000Y-94190000D02*
X163505000Y-94190000D01*
X163505000Y-94190000D02*
X163505000Y-92940000D01*
%TO.C,J11*%
X151440000Y-94190000D02*
X151440000Y-92940000D01*
X150190000Y-94190000D02*
X151440000Y-94190000D01*
X144290000Y-88690000D02*
X147340000Y-88690000D01*
X144290000Y-91640000D02*
X144290000Y-88690000D01*
X143540000Y-91640000D02*
X144290000Y-91640000D01*
X150390000Y-88690000D02*
X147340000Y-88690000D01*
X150390000Y-91640000D02*
X150390000Y-88690000D01*
X151140000Y-91640000D02*
X150390000Y-91640000D01*
X143540000Y-93890000D02*
X145340000Y-93890000D01*
X143540000Y-93140000D02*
X143540000Y-93890000D01*
X145340000Y-93140000D02*
X143540000Y-93140000D01*
X145340000Y-93890000D02*
X145340000Y-93140000D01*
X149340000Y-93890000D02*
X151140000Y-93890000D01*
X149340000Y-93140000D02*
X149340000Y-93890000D01*
X151140000Y-93140000D02*
X149340000Y-93140000D01*
X151140000Y-93890000D02*
X151140000Y-93140000D01*
X146840000Y-93890000D02*
X147840000Y-93890000D01*
X146840000Y-93140000D02*
X146840000Y-93890000D01*
X147840000Y-93140000D02*
X146840000Y-93140000D01*
X147840000Y-93890000D02*
X147840000Y-93140000D01*
X143530000Y-93900000D02*
X151150000Y-93900000D01*
X143530000Y-87930000D02*
X143530000Y-93900000D01*
X151150000Y-87930000D02*
X143530000Y-87930000D01*
X151150000Y-93900000D02*
X151150000Y-87930000D01*
%TO.C,J12*%
X141625000Y-93900000D02*
X141625000Y-87930000D01*
X141625000Y-87930000D02*
X134005000Y-87930000D01*
X134005000Y-87930000D02*
X134005000Y-93900000D01*
X134005000Y-93900000D02*
X141625000Y-93900000D01*
X138315000Y-93890000D02*
X138315000Y-93140000D01*
X138315000Y-93140000D02*
X137315000Y-93140000D01*
X137315000Y-93140000D02*
X137315000Y-93890000D01*
X137315000Y-93890000D02*
X138315000Y-93890000D01*
X141615000Y-93890000D02*
X141615000Y-93140000D01*
X141615000Y-93140000D02*
X139815000Y-93140000D01*
X139815000Y-93140000D02*
X139815000Y-93890000D01*
X139815000Y-93890000D02*
X141615000Y-93890000D01*
X135815000Y-93890000D02*
X135815000Y-93140000D01*
X135815000Y-93140000D02*
X134015000Y-93140000D01*
X134015000Y-93140000D02*
X134015000Y-93890000D01*
X134015000Y-93890000D02*
X135815000Y-93890000D01*
X141615000Y-91640000D02*
X140865000Y-91640000D01*
X140865000Y-91640000D02*
X140865000Y-88690000D01*
X140865000Y-88690000D02*
X137815000Y-88690000D01*
X134015000Y-91640000D02*
X134765000Y-91640000D01*
X134765000Y-91640000D02*
X134765000Y-88690000D01*
X134765000Y-88690000D02*
X137815000Y-88690000D01*
X140665000Y-94190000D02*
X141915000Y-94190000D01*
X141915000Y-94190000D02*
X141915000Y-92940000D01*
%TO.C,R1*%
X127730000Y-102970000D02*
X127730000Y-100230000D01*
X127730000Y-100230000D02*
X121190000Y-100230000D01*
X121190000Y-100230000D02*
X121190000Y-102970000D01*
X121190000Y-102970000D02*
X127730000Y-102970000D01*
X128500000Y-101600000D02*
X127730000Y-101600000D01*
X120420000Y-101600000D02*
X121190000Y-101600000D01*
%TO.C,U1*%
X89440000Y-89575000D02*
X89440000Y-79335000D01*
X94081000Y-89575000D02*
X94081000Y-79335000D01*
X89440000Y-89575000D02*
X94081000Y-89575000D01*
X89440000Y-79335000D02*
X94081000Y-79335000D01*
X90950000Y-89575000D02*
X90950000Y-79335000D01*
X89440000Y-86305000D02*
X90950000Y-86305000D01*
X89440000Y-82604000D02*
X90950000Y-82604000D01*
%TO.C,J1*%
X95805000Y-69195000D02*
X89835000Y-69195000D01*
X89835000Y-69195000D02*
X89835000Y-76815000D01*
X89835000Y-76815000D02*
X95805000Y-76815000D01*
X95805000Y-76815000D02*
X95805000Y-69195000D01*
X95795000Y-72505000D02*
X95045000Y-72505000D01*
X95045000Y-72505000D02*
X95045000Y-73505000D01*
X95045000Y-73505000D02*
X95795000Y-73505000D01*
X95795000Y-73505000D02*
X95795000Y-72505000D01*
X95795000Y-69205000D02*
X95045000Y-69205000D01*
X95045000Y-69205000D02*
X95045000Y-71005000D01*
X95045000Y-71005000D02*
X95795000Y-71005000D01*
X95795000Y-71005000D02*
X95795000Y-69205000D01*
X95795000Y-75005000D02*
X95045000Y-75005000D01*
X95045000Y-75005000D02*
X95045000Y-76805000D01*
X95045000Y-76805000D02*
X95795000Y-76805000D01*
X95795000Y-76805000D02*
X95795000Y-75005000D01*
X93545000Y-69205000D02*
X93545000Y-69955000D01*
X93545000Y-69955000D02*
X90595000Y-69955000D01*
X90595000Y-69955000D02*
X90595000Y-73005000D01*
X93545000Y-76805000D02*
X93545000Y-76055000D01*
X93545000Y-76055000D02*
X90595000Y-76055000D01*
X90595000Y-76055000D02*
X90595000Y-73005000D01*
X96095000Y-70155000D02*
X96095000Y-68905000D01*
X96095000Y-68905000D02*
X94845000Y-68905000D01*
%TO.C,K1*%
D13*
X157297380Y-75668095D02*
X156297380Y-75668095D01*
X157297380Y-75096666D02*
X156725952Y-75525238D01*
X156297380Y-75096666D02*
X156868809Y-75668095D01*
X157297380Y-74144285D02*
X157297380Y-74715714D01*
X157297380Y-74430000D02*
X156297380Y-74430000D01*
X156440238Y-74525238D01*
X156535476Y-74620476D01*
X156583095Y-74715714D01*
X158567380Y-78715714D02*
X157567380Y-78715714D01*
X158043571Y-78715714D02*
X158043571Y-78144285D01*
X158567380Y-78144285D02*
X157567380Y-78144285D01*
X158567380Y-77668095D02*
X157567380Y-77668095D01*
X158567380Y-77096666D02*
X157995952Y-77525238D01*
X157567380Y-77096666D02*
X158138809Y-77668095D01*
X158567380Y-76144285D02*
X158567380Y-76715714D01*
X158567380Y-76430000D02*
X157567380Y-76430000D01*
X157710238Y-76525238D01*
X157805476Y-76620476D01*
X157853095Y-76715714D01*
X158567380Y-75668095D02*
X158567380Y-75477619D01*
X158519761Y-75382380D01*
X158472142Y-75334761D01*
X158329285Y-75239523D01*
X158138809Y-75191904D01*
X157757857Y-75191904D01*
X157662619Y-75239523D01*
X157615000Y-75287142D01*
X157567380Y-75382380D01*
X157567380Y-75572857D01*
X157615000Y-75668095D01*
X157662619Y-75715714D01*
X157757857Y-75763333D01*
X157995952Y-75763333D01*
X158091190Y-75715714D01*
X158138809Y-75668095D01*
X158186428Y-75572857D01*
X158186428Y-75382380D01*
X158138809Y-75287142D01*
X158091190Y-75239523D01*
X157995952Y-75191904D01*
X158043571Y-74430000D02*
X158043571Y-74763333D01*
X158567380Y-74763333D02*
X157567380Y-74763333D01*
X157567380Y-74287142D01*
X158186428Y-73906190D02*
X158186428Y-73144285D01*
X158567380Y-72668095D02*
X157567380Y-72668095D01*
X157567380Y-72430000D01*
X157615000Y-72287142D01*
X157710238Y-72191904D01*
X157805476Y-72144285D01*
X157995952Y-72096666D01*
X158138809Y-72096666D01*
X158329285Y-72144285D01*
X158424523Y-72191904D01*
X158519761Y-72287142D01*
X158567380Y-72430000D01*
X158567380Y-72668095D01*
X158472142Y-71096666D02*
X158519761Y-71144285D01*
X158567380Y-71287142D01*
X158567380Y-71382380D01*
X158519761Y-71525238D01*
X158424523Y-71620476D01*
X158329285Y-71668095D01*
X158138809Y-71715714D01*
X157995952Y-71715714D01*
X157805476Y-71668095D01*
X157710238Y-71620476D01*
X157615000Y-71525238D01*
X157567380Y-71382380D01*
X157567380Y-71287142D01*
X157615000Y-71144285D01*
X157662619Y-71096666D01*
%TO.C,K2*%
X144597380Y-75668095D02*
X143597380Y-75668095D01*
X144597380Y-75096666D02*
X144025952Y-75525238D01*
X143597380Y-75096666D02*
X144168809Y-75668095D01*
X143692619Y-74715714D02*
X143645000Y-74668095D01*
X143597380Y-74572857D01*
X143597380Y-74334761D01*
X143645000Y-74239523D01*
X143692619Y-74191904D01*
X143787857Y-74144285D01*
X143883095Y-74144285D01*
X144025952Y-74191904D01*
X144597380Y-74763333D01*
X144597380Y-74144285D01*
X145867380Y-78715714D02*
X144867380Y-78715714D01*
X145343571Y-78715714D02*
X145343571Y-78144285D01*
X145867380Y-78144285D02*
X144867380Y-78144285D01*
X145867380Y-77668095D02*
X144867380Y-77668095D01*
X145867380Y-77096666D02*
X145295952Y-77525238D01*
X144867380Y-77096666D02*
X145438809Y-77668095D01*
X145867380Y-76144285D02*
X145867380Y-76715714D01*
X145867380Y-76430000D02*
X144867380Y-76430000D01*
X145010238Y-76525238D01*
X145105476Y-76620476D01*
X145153095Y-76715714D01*
X145867380Y-75668095D02*
X145867380Y-75477619D01*
X145819761Y-75382380D01*
X145772142Y-75334761D01*
X145629285Y-75239523D01*
X145438809Y-75191904D01*
X145057857Y-75191904D01*
X144962619Y-75239523D01*
X144915000Y-75287142D01*
X144867380Y-75382380D01*
X144867380Y-75572857D01*
X144915000Y-75668095D01*
X144962619Y-75715714D01*
X145057857Y-75763333D01*
X145295952Y-75763333D01*
X145391190Y-75715714D01*
X145438809Y-75668095D01*
X145486428Y-75572857D01*
X145486428Y-75382380D01*
X145438809Y-75287142D01*
X145391190Y-75239523D01*
X145295952Y-75191904D01*
X145343571Y-74430000D02*
X145343571Y-74763333D01*
X145867380Y-74763333D02*
X144867380Y-74763333D01*
X144867380Y-74287142D01*
X145486428Y-73906190D02*
X145486428Y-73144285D01*
X145867380Y-72668095D02*
X144867380Y-72668095D01*
X144867380Y-72430000D01*
X144915000Y-72287142D01*
X145010238Y-72191904D01*
X145105476Y-72144285D01*
X145295952Y-72096666D01*
X145438809Y-72096666D01*
X145629285Y-72144285D01*
X145724523Y-72191904D01*
X145819761Y-72287142D01*
X145867380Y-72430000D01*
X145867380Y-72668095D01*
X145772142Y-71096666D02*
X145819761Y-71144285D01*
X145867380Y-71287142D01*
X145867380Y-71382380D01*
X145819761Y-71525238D01*
X145724523Y-71620476D01*
X145629285Y-71668095D01*
X145438809Y-71715714D01*
X145295952Y-71715714D01*
X145105476Y-71668095D01*
X145010238Y-71620476D01*
X144915000Y-71525238D01*
X144867380Y-71382380D01*
X144867380Y-71287142D01*
X144915000Y-71144285D01*
X144962619Y-71096666D01*
%TO.C,K3*%
X131897380Y-75668095D02*
X130897380Y-75668095D01*
X131897380Y-75096666D02*
X131325952Y-75525238D01*
X130897380Y-75096666D02*
X131468809Y-75668095D01*
X130897380Y-74763333D02*
X130897380Y-74144285D01*
X131278333Y-74477619D01*
X131278333Y-74334761D01*
X131325952Y-74239523D01*
X131373571Y-74191904D01*
X131468809Y-74144285D01*
X131706904Y-74144285D01*
X131802142Y-74191904D01*
X131849761Y-74239523D01*
X131897380Y-74334761D01*
X131897380Y-74620476D01*
X131849761Y-74715714D01*
X131802142Y-74763333D01*
X133167380Y-78715714D02*
X132167380Y-78715714D01*
X132643571Y-78715714D02*
X132643571Y-78144285D01*
X133167380Y-78144285D02*
X132167380Y-78144285D01*
X133167380Y-77668095D02*
X132167380Y-77668095D01*
X133167380Y-77096666D02*
X132595952Y-77525238D01*
X132167380Y-77096666D02*
X132738809Y-77668095D01*
X133167380Y-76144285D02*
X133167380Y-76715714D01*
X133167380Y-76430000D02*
X132167380Y-76430000D01*
X132310238Y-76525238D01*
X132405476Y-76620476D01*
X132453095Y-76715714D01*
X133167380Y-75668095D02*
X133167380Y-75477619D01*
X133119761Y-75382380D01*
X133072142Y-75334761D01*
X132929285Y-75239523D01*
X132738809Y-75191904D01*
X132357857Y-75191904D01*
X132262619Y-75239523D01*
X132215000Y-75287142D01*
X132167380Y-75382380D01*
X132167380Y-75572857D01*
X132215000Y-75668095D01*
X132262619Y-75715714D01*
X132357857Y-75763333D01*
X132595952Y-75763333D01*
X132691190Y-75715714D01*
X132738809Y-75668095D01*
X132786428Y-75572857D01*
X132786428Y-75382380D01*
X132738809Y-75287142D01*
X132691190Y-75239523D01*
X132595952Y-75191904D01*
X132643571Y-74430000D02*
X132643571Y-74763333D01*
X133167380Y-74763333D02*
X132167380Y-74763333D01*
X132167380Y-74287142D01*
X132786428Y-73906190D02*
X132786428Y-73144285D01*
X133167380Y-72668095D02*
X132167380Y-72668095D01*
X132167380Y-72430000D01*
X132215000Y-72287142D01*
X132310238Y-72191904D01*
X132405476Y-72144285D01*
X132595952Y-72096666D01*
X132738809Y-72096666D01*
X132929285Y-72144285D01*
X133024523Y-72191904D01*
X133119761Y-72287142D01*
X133167380Y-72430000D01*
X133167380Y-72668095D01*
X133072142Y-71096666D02*
X133119761Y-71144285D01*
X133167380Y-71287142D01*
X133167380Y-71382380D01*
X133119761Y-71525238D01*
X133024523Y-71620476D01*
X132929285Y-71668095D01*
X132738809Y-71715714D01*
X132595952Y-71715714D01*
X132405476Y-71668095D01*
X132310238Y-71620476D01*
X132215000Y-71525238D01*
X132167380Y-71382380D01*
X132167380Y-71287142D01*
X132215000Y-71144285D01*
X132262619Y-71096666D01*
%TO.C,K4*%
X119197380Y-75668095D02*
X118197380Y-75668095D01*
X119197380Y-75096666D02*
X118625952Y-75525238D01*
X118197380Y-75096666D02*
X118768809Y-75668095D01*
X118530714Y-74239523D02*
X119197380Y-74239523D01*
X118149761Y-74477619D02*
X118864047Y-74715714D01*
X118864047Y-74096666D01*
X120467380Y-78715714D02*
X119467380Y-78715714D01*
X119943571Y-78715714D02*
X119943571Y-78144285D01*
X120467380Y-78144285D02*
X119467380Y-78144285D01*
X120467380Y-77668095D02*
X119467380Y-77668095D01*
X120467380Y-77096666D02*
X119895952Y-77525238D01*
X119467380Y-77096666D02*
X120038809Y-77668095D01*
X120467380Y-76144285D02*
X120467380Y-76715714D01*
X120467380Y-76430000D02*
X119467380Y-76430000D01*
X119610238Y-76525238D01*
X119705476Y-76620476D01*
X119753095Y-76715714D01*
X120467380Y-75668095D02*
X120467380Y-75477619D01*
X120419761Y-75382380D01*
X120372142Y-75334761D01*
X120229285Y-75239523D01*
X120038809Y-75191904D01*
X119657857Y-75191904D01*
X119562619Y-75239523D01*
X119515000Y-75287142D01*
X119467380Y-75382380D01*
X119467380Y-75572857D01*
X119515000Y-75668095D01*
X119562619Y-75715714D01*
X119657857Y-75763333D01*
X119895952Y-75763333D01*
X119991190Y-75715714D01*
X120038809Y-75668095D01*
X120086428Y-75572857D01*
X120086428Y-75382380D01*
X120038809Y-75287142D01*
X119991190Y-75239523D01*
X119895952Y-75191904D01*
X119943571Y-74430000D02*
X119943571Y-74763333D01*
X120467380Y-74763333D02*
X119467380Y-74763333D01*
X119467380Y-74287142D01*
X120086428Y-73906190D02*
X120086428Y-73144285D01*
X120467380Y-72668095D02*
X119467380Y-72668095D01*
X119467380Y-72430000D01*
X119515000Y-72287142D01*
X119610238Y-72191904D01*
X119705476Y-72144285D01*
X119895952Y-72096666D01*
X120038809Y-72096666D01*
X120229285Y-72144285D01*
X120324523Y-72191904D01*
X120419761Y-72287142D01*
X120467380Y-72430000D01*
X120467380Y-72668095D01*
X120372142Y-71096666D02*
X120419761Y-71144285D01*
X120467380Y-71287142D01*
X120467380Y-71382380D01*
X120419761Y-71525238D01*
X120324523Y-71620476D01*
X120229285Y-71668095D01*
X120038809Y-71715714D01*
X119895952Y-71715714D01*
X119705476Y-71668095D01*
X119610238Y-71620476D01*
X119515000Y-71525238D01*
X119467380Y-71382380D01*
X119467380Y-71287142D01*
X119515000Y-71144285D01*
X119562619Y-71096666D01*
%TO.C,J3*%
D11*
X124193333Y-89096904D02*
X124193333Y-89668333D01*
X124155238Y-89782619D01*
X124079047Y-89858809D01*
X123964761Y-89896904D01*
X123888571Y-89896904D01*
X124498095Y-89096904D02*
X124993333Y-89096904D01*
X124726666Y-89401666D01*
X124840952Y-89401666D01*
X124917142Y-89439761D01*
X124955238Y-89477857D01*
X124993333Y-89554047D01*
X124993333Y-89744523D01*
X124955238Y-89820714D01*
X124917142Y-89858809D01*
X124840952Y-89896904D01*
X124612380Y-89896904D01*
X124536190Y-89858809D01*
X124498095Y-89820714D01*
X122479047Y-95573809D02*
X122593333Y-95611904D01*
X122783809Y-95611904D01*
X122860000Y-95573809D01*
X122898095Y-95535714D01*
X122936190Y-95459523D01*
X122936190Y-95383333D01*
X122898095Y-95307142D01*
X122860000Y-95269047D01*
X122783809Y-95230952D01*
X122631428Y-95192857D01*
X122555238Y-95154761D01*
X122517142Y-95116666D01*
X122479047Y-95040476D01*
X122479047Y-94964285D01*
X122517142Y-94888095D01*
X122555238Y-94850000D01*
X122631428Y-94811904D01*
X122821904Y-94811904D01*
X122936190Y-94850000D01*
X123279047Y-95192857D02*
X123545714Y-95192857D01*
X123660000Y-95611904D02*
X123279047Y-95611904D01*
X123279047Y-94811904D01*
X123660000Y-94811904D01*
X124383809Y-95611904D02*
X124002857Y-95611904D01*
X124002857Y-94811904D01*
X124650476Y-95192857D02*
X124917142Y-95192857D01*
X125031428Y-95611904D02*
X124650476Y-95611904D01*
X124650476Y-94811904D01*
X125031428Y-94811904D01*
X125831428Y-95535714D02*
X125793333Y-95573809D01*
X125679047Y-95611904D01*
X125602857Y-95611904D01*
X125488571Y-95573809D01*
X125412380Y-95497619D01*
X125374285Y-95421428D01*
X125336190Y-95269047D01*
X125336190Y-95154761D01*
X125374285Y-95002380D01*
X125412380Y-94926190D01*
X125488571Y-94850000D01*
X125602857Y-94811904D01*
X125679047Y-94811904D01*
X125793333Y-94850000D01*
X125831428Y-94888095D01*
X126060000Y-94811904D02*
X126517142Y-94811904D01*
X126288571Y-95611904D02*
X126288571Y-94811904D01*
%TO.C,J10*%
X158737380Y-97986904D02*
X158737380Y-98558333D01*
X158699285Y-98672619D01*
X158623095Y-98748809D01*
X158508809Y-98786904D01*
X158432619Y-98786904D01*
X159537380Y-98786904D02*
X159080238Y-98786904D01*
X159308809Y-98786904D02*
X159308809Y-97986904D01*
X159232619Y-98101190D01*
X159156428Y-98177380D01*
X159080238Y-98215476D01*
X160032619Y-97986904D02*
X160108809Y-97986904D01*
X160185000Y-98025000D01*
X160223095Y-98063095D01*
X160261190Y-98139285D01*
X160299285Y-98291666D01*
X160299285Y-98482142D01*
X160261190Y-98634523D01*
X160223095Y-98710714D01*
X160185000Y-98748809D01*
X160108809Y-98786904D01*
X160032619Y-98786904D01*
X159956428Y-98748809D01*
X159918333Y-98710714D01*
X159880238Y-98634523D01*
X159842142Y-98482142D01*
X159842142Y-98291666D01*
X159880238Y-98139285D01*
X159918333Y-98063095D01*
X159956428Y-98025000D01*
X160032619Y-97986904D01*
X157289761Y-103701904D02*
X157556428Y-104501904D01*
X157823095Y-103701904D01*
X158089761Y-103701904D02*
X158089761Y-104349523D01*
X158127857Y-104425714D01*
X158165952Y-104463809D01*
X158242142Y-104501904D01*
X158394523Y-104501904D01*
X158470714Y-104463809D01*
X158508809Y-104425714D01*
X158546904Y-104349523D01*
X158546904Y-103701904D01*
X158737380Y-104578095D02*
X159346904Y-104578095D01*
X159956428Y-104501904D02*
X159499285Y-104501904D01*
X159727857Y-104501904D02*
X159727857Y-103701904D01*
X159651666Y-103816190D01*
X159575476Y-103892380D01*
X159499285Y-103930476D01*
X160261190Y-103778095D02*
X160299285Y-103740000D01*
X160375476Y-103701904D01*
X160565952Y-103701904D01*
X160642142Y-103740000D01*
X160680238Y-103778095D01*
X160718333Y-103854285D01*
X160718333Y-103930476D01*
X160680238Y-104044761D01*
X160223095Y-104501904D01*
X160718333Y-104501904D01*
X160946904Y-103701904D02*
X161213571Y-104501904D01*
X161480238Y-103701904D01*
X158737380Y-97986904D02*
X158737380Y-98558333D01*
X158699285Y-98672619D01*
X158623095Y-98748809D01*
X158508809Y-98786904D01*
X158432619Y-98786904D01*
X159537380Y-98786904D02*
X159080238Y-98786904D01*
X159308809Y-98786904D02*
X159308809Y-97986904D01*
X159232619Y-98101190D01*
X159156428Y-98177380D01*
X159080238Y-98215476D01*
X160032619Y-97986904D02*
X160108809Y-97986904D01*
X160185000Y-98025000D01*
X160223095Y-98063095D01*
X160261190Y-98139285D01*
X160299285Y-98291666D01*
X160299285Y-98482142D01*
X160261190Y-98634523D01*
X160223095Y-98710714D01*
X160185000Y-98748809D01*
X160108809Y-98786904D01*
X160032619Y-98786904D01*
X159956428Y-98748809D01*
X159918333Y-98710714D01*
X159880238Y-98634523D01*
X159842142Y-98482142D01*
X159842142Y-98291666D01*
X159880238Y-98139285D01*
X159918333Y-98063095D01*
X159956428Y-98025000D01*
X160032619Y-97986904D01*
%TO.C,J2*%
X140068333Y-97986904D02*
X140068333Y-98558333D01*
X140030238Y-98672619D01*
X139954047Y-98748809D01*
X139839761Y-98786904D01*
X139763571Y-98786904D01*
X140411190Y-98063095D02*
X140449285Y-98025000D01*
X140525476Y-97986904D01*
X140715952Y-97986904D01*
X140792142Y-98025000D01*
X140830238Y-98063095D01*
X140868333Y-98139285D01*
X140868333Y-98215476D01*
X140830238Y-98329761D01*
X140373095Y-98786904D01*
X140868333Y-98786904D01*
X138239761Y-103701904D02*
X138506428Y-104501904D01*
X138773095Y-103701904D01*
X139039761Y-103701904D02*
X139039761Y-104349523D01*
X139077857Y-104425714D01*
X139115952Y-104463809D01*
X139192142Y-104501904D01*
X139344523Y-104501904D01*
X139420714Y-104463809D01*
X139458809Y-104425714D01*
X139496904Y-104349523D01*
X139496904Y-103701904D01*
X139687380Y-104578095D02*
X140296904Y-104578095D01*
X140906428Y-104501904D02*
X140449285Y-104501904D01*
X140677857Y-104501904D02*
X140677857Y-103701904D01*
X140601666Y-103816190D01*
X140525476Y-103892380D01*
X140449285Y-103930476D01*
X141211190Y-103778095D02*
X141249285Y-103740000D01*
X141325476Y-103701904D01*
X141515952Y-103701904D01*
X141592142Y-103740000D01*
X141630238Y-103778095D01*
X141668333Y-103854285D01*
X141668333Y-103930476D01*
X141630238Y-104044761D01*
X141173095Y-104501904D01*
X141668333Y-104501904D01*
X141896904Y-103701904D02*
X142163571Y-104501904D01*
X142430238Y-103701904D01*
X140088333Y-97986904D02*
X140088333Y-98558333D01*
X140050238Y-98672619D01*
X139974047Y-98748809D01*
X139859761Y-98786904D01*
X139783571Y-98786904D01*
X140431190Y-98063095D02*
X140469285Y-98025000D01*
X140545476Y-97986904D01*
X140735952Y-97986904D01*
X140812142Y-98025000D01*
X140850238Y-98063095D01*
X140888333Y-98139285D01*
X140888333Y-98215476D01*
X140850238Y-98329761D01*
X140393095Y-98786904D01*
X140888333Y-98786904D01*
%TO.C,J13*%
X149212380Y-97986904D02*
X149212380Y-98558333D01*
X149174285Y-98672619D01*
X149098095Y-98748809D01*
X148983809Y-98786904D01*
X148907619Y-98786904D01*
X150012380Y-98786904D02*
X149555238Y-98786904D01*
X149783809Y-98786904D02*
X149783809Y-97986904D01*
X149707619Y-98101190D01*
X149631428Y-98177380D01*
X149555238Y-98215476D01*
X150279047Y-97986904D02*
X150774285Y-97986904D01*
X150507619Y-98291666D01*
X150621904Y-98291666D01*
X150698095Y-98329761D01*
X150736190Y-98367857D01*
X150774285Y-98444047D01*
X150774285Y-98634523D01*
X150736190Y-98710714D01*
X150698095Y-98748809D01*
X150621904Y-98786904D01*
X150393333Y-98786904D01*
X150317142Y-98748809D01*
X150279047Y-98710714D01*
X147764761Y-103701904D02*
X148031428Y-104501904D01*
X148298095Y-103701904D01*
X148564761Y-103701904D02*
X148564761Y-104349523D01*
X148602857Y-104425714D01*
X148640952Y-104463809D01*
X148717142Y-104501904D01*
X148869523Y-104501904D01*
X148945714Y-104463809D01*
X148983809Y-104425714D01*
X149021904Y-104349523D01*
X149021904Y-103701904D01*
X149212380Y-104578095D02*
X149821904Y-104578095D01*
X150431428Y-104501904D02*
X149974285Y-104501904D01*
X150202857Y-104501904D02*
X150202857Y-103701904D01*
X150126666Y-103816190D01*
X150050476Y-103892380D01*
X149974285Y-103930476D01*
X150736190Y-103778095D02*
X150774285Y-103740000D01*
X150850476Y-103701904D01*
X151040952Y-103701904D01*
X151117142Y-103740000D01*
X151155238Y-103778095D01*
X151193333Y-103854285D01*
X151193333Y-103930476D01*
X151155238Y-104044761D01*
X150698095Y-104501904D01*
X151193333Y-104501904D01*
X151421904Y-103701904D02*
X151688571Y-104501904D01*
X151955238Y-103701904D01*
X149212380Y-97986904D02*
X149212380Y-98558333D01*
X149174285Y-98672619D01*
X149098095Y-98748809D01*
X148983809Y-98786904D01*
X148907619Y-98786904D01*
X150012380Y-98786904D02*
X149555238Y-98786904D01*
X149783809Y-98786904D02*
X149783809Y-97986904D01*
X149707619Y-98101190D01*
X149631428Y-98177380D01*
X149555238Y-98215476D01*
X150279047Y-97986904D02*
X150774285Y-97986904D01*
X150507619Y-98291666D01*
X150621904Y-98291666D01*
X150698095Y-98329761D01*
X150736190Y-98367857D01*
X150774285Y-98444047D01*
X150774285Y-98634523D01*
X150736190Y-98710714D01*
X150698095Y-98748809D01*
X150621904Y-98786904D01*
X150393333Y-98786904D01*
X150317142Y-98748809D01*
X150279047Y-98710714D01*
%TO.C,C3*%
X108451666Y-73310714D02*
X108413571Y-73348809D01*
X108299285Y-73386904D01*
X108223095Y-73386904D01*
X108108809Y-73348809D01*
X108032619Y-73272619D01*
X107994523Y-73196428D01*
X107956428Y-73044047D01*
X107956428Y-72929761D01*
X107994523Y-72777380D01*
X108032619Y-72701190D01*
X108108809Y-72625000D01*
X108223095Y-72586904D01*
X108299285Y-72586904D01*
X108413571Y-72625000D01*
X108451666Y-72663095D01*
X108718333Y-72586904D02*
X109213571Y-72586904D01*
X108946904Y-72891666D01*
X109061190Y-72891666D01*
X109137380Y-72929761D01*
X109175476Y-72967857D01*
X109213571Y-73044047D01*
X109213571Y-73234523D01*
X109175476Y-73310714D01*
X109137380Y-73348809D01*
X109061190Y-73386904D01*
X108832619Y-73386904D01*
X108756428Y-73348809D01*
X108718333Y-73310714D01*
X111446904Y-74303095D02*
X111446904Y-74760238D01*
X111446904Y-74531666D02*
X110646904Y-74531666D01*
X110761190Y-74607857D01*
X110837380Y-74684047D01*
X110875476Y-74760238D01*
X110646904Y-73807857D02*
X110646904Y-73731666D01*
X110685000Y-73655476D01*
X110723095Y-73617380D01*
X110799285Y-73579285D01*
X110951666Y-73541190D01*
X111142142Y-73541190D01*
X111294523Y-73579285D01*
X111370714Y-73617380D01*
X111408809Y-73655476D01*
X111446904Y-73731666D01*
X111446904Y-73807857D01*
X111408809Y-73884047D01*
X111370714Y-73922142D01*
X111294523Y-73960238D01*
X111142142Y-73998333D01*
X110951666Y-73998333D01*
X110799285Y-73960238D01*
X110723095Y-73922142D01*
X110685000Y-73884047D01*
X110646904Y-73807857D01*
X110646904Y-73045952D02*
X110646904Y-72969761D01*
X110685000Y-72893571D01*
X110723095Y-72855476D01*
X110799285Y-72817380D01*
X110951666Y-72779285D01*
X111142142Y-72779285D01*
X111294523Y-72817380D01*
X111370714Y-72855476D01*
X111408809Y-72893571D01*
X111446904Y-72969761D01*
X111446904Y-73045952D01*
X111408809Y-73122142D01*
X111370714Y-73160238D01*
X111294523Y-73198333D01*
X111142142Y-73236428D01*
X110951666Y-73236428D01*
X110799285Y-73198333D01*
X110723095Y-73160238D01*
X110685000Y-73122142D01*
X110646904Y-73045952D01*
X110913571Y-72436428D02*
X111446904Y-72436428D01*
X110989761Y-72436428D02*
X110951666Y-72398333D01*
X110913571Y-72322142D01*
X110913571Y-72207857D01*
X110951666Y-72131666D01*
X111027857Y-72093571D01*
X111446904Y-72093571D01*
X111027857Y-71445952D02*
X111027857Y-71712619D01*
X111446904Y-71712619D02*
X110646904Y-71712619D01*
X110646904Y-71331666D01*
%TO.C,C1*%
X103371666Y-86645714D02*
X103333571Y-86683809D01*
X103219285Y-86721904D01*
X103143095Y-86721904D01*
X103028809Y-86683809D01*
X102952619Y-86607619D01*
X102914523Y-86531428D01*
X102876428Y-86379047D01*
X102876428Y-86264761D01*
X102914523Y-86112380D01*
X102952619Y-86036190D01*
X103028809Y-85960000D01*
X103143095Y-85921904D01*
X103219285Y-85921904D01*
X103333571Y-85960000D01*
X103371666Y-85998095D01*
X104133571Y-86721904D02*
X103676428Y-86721904D01*
X103905000Y-86721904D02*
X103905000Y-85921904D01*
X103828809Y-86036190D01*
X103752619Y-86112380D01*
X103676428Y-86150476D01*
X101428809Y-87268095D02*
X101466904Y-87230000D01*
X101543095Y-87191904D01*
X101733571Y-87191904D01*
X101809761Y-87230000D01*
X101847857Y-87268095D01*
X101885952Y-87344285D01*
X101885952Y-87420476D01*
X101847857Y-87534761D01*
X101390714Y-87991904D01*
X101885952Y-87991904D01*
X102190714Y-87268095D02*
X102228809Y-87230000D01*
X102305000Y-87191904D01*
X102495476Y-87191904D01*
X102571666Y-87230000D01*
X102609761Y-87268095D01*
X102647857Y-87344285D01*
X102647857Y-87420476D01*
X102609761Y-87534761D01*
X102152619Y-87991904D01*
X102647857Y-87991904D01*
X103143095Y-87191904D02*
X103219285Y-87191904D01*
X103295476Y-87230000D01*
X103333571Y-87268095D01*
X103371666Y-87344285D01*
X103409761Y-87496666D01*
X103409761Y-87687142D01*
X103371666Y-87839523D01*
X103333571Y-87915714D01*
X103295476Y-87953809D01*
X103219285Y-87991904D01*
X103143095Y-87991904D01*
X103066904Y-87953809D01*
X103028809Y-87915714D01*
X102990714Y-87839523D01*
X102952619Y-87687142D01*
X102952619Y-87496666D01*
X102990714Y-87344285D01*
X103028809Y-87268095D01*
X103066904Y-87230000D01*
X103143095Y-87191904D01*
X103905000Y-87191904D02*
X103981190Y-87191904D01*
X104057380Y-87230000D01*
X104095476Y-87268095D01*
X104133571Y-87344285D01*
X104171666Y-87496666D01*
X104171666Y-87687142D01*
X104133571Y-87839523D01*
X104095476Y-87915714D01*
X104057380Y-87953809D01*
X103981190Y-87991904D01*
X103905000Y-87991904D01*
X103828809Y-87953809D01*
X103790714Y-87915714D01*
X103752619Y-87839523D01*
X103714523Y-87687142D01*
X103714523Y-87496666D01*
X103752619Y-87344285D01*
X103790714Y-87268095D01*
X103828809Y-87230000D01*
X103905000Y-87191904D01*
X104857380Y-87458571D02*
X104857380Y-87991904D01*
X104514523Y-87458571D02*
X104514523Y-87877619D01*
X104552619Y-87953809D01*
X104628809Y-87991904D01*
X104743095Y-87991904D01*
X104819285Y-87953809D01*
X104857380Y-87915714D01*
X105505000Y-87572857D02*
X105238333Y-87572857D01*
X105238333Y-87991904D02*
X105238333Y-87191904D01*
X105619285Y-87191904D01*
%TO.C,C2*%
X102736666Y-67595714D02*
X102698571Y-67633809D01*
X102584285Y-67671904D01*
X102508095Y-67671904D01*
X102393809Y-67633809D01*
X102317619Y-67557619D01*
X102279523Y-67481428D01*
X102241428Y-67329047D01*
X102241428Y-67214761D01*
X102279523Y-67062380D01*
X102317619Y-66986190D01*
X102393809Y-66910000D01*
X102508095Y-66871904D01*
X102584285Y-66871904D01*
X102698571Y-66910000D01*
X102736666Y-66948095D01*
X103041428Y-66948095D02*
X103079523Y-66910000D01*
X103155714Y-66871904D01*
X103346190Y-66871904D01*
X103422380Y-66910000D01*
X103460476Y-66948095D01*
X103498571Y-67024285D01*
X103498571Y-67100476D01*
X103460476Y-67214761D01*
X103003333Y-67671904D01*
X103498571Y-67671904D01*
X101631904Y-68941904D02*
X101174761Y-68941904D01*
X101403333Y-68941904D02*
X101403333Y-68141904D01*
X101327142Y-68256190D01*
X101250952Y-68332380D01*
X101174761Y-68370476D01*
X102127142Y-68141904D02*
X102203333Y-68141904D01*
X102279523Y-68180000D01*
X102317619Y-68218095D01*
X102355714Y-68294285D01*
X102393809Y-68446666D01*
X102393809Y-68637142D01*
X102355714Y-68789523D01*
X102317619Y-68865714D01*
X102279523Y-68903809D01*
X102203333Y-68941904D01*
X102127142Y-68941904D01*
X102050952Y-68903809D01*
X102012857Y-68865714D01*
X101974761Y-68789523D01*
X101936666Y-68637142D01*
X101936666Y-68446666D01*
X101974761Y-68294285D01*
X102012857Y-68218095D01*
X102050952Y-68180000D01*
X102127142Y-68141904D01*
X102889047Y-68141904D02*
X102965238Y-68141904D01*
X103041428Y-68180000D01*
X103079523Y-68218095D01*
X103117619Y-68294285D01*
X103155714Y-68446666D01*
X103155714Y-68637142D01*
X103117619Y-68789523D01*
X103079523Y-68865714D01*
X103041428Y-68903809D01*
X102965238Y-68941904D01*
X102889047Y-68941904D01*
X102812857Y-68903809D01*
X102774761Y-68865714D01*
X102736666Y-68789523D01*
X102698571Y-68637142D01*
X102698571Y-68446666D01*
X102736666Y-68294285D01*
X102774761Y-68218095D01*
X102812857Y-68180000D01*
X102889047Y-68141904D01*
X103841428Y-68408571D02*
X103841428Y-68941904D01*
X103498571Y-68408571D02*
X103498571Y-68827619D01*
X103536666Y-68903809D01*
X103612857Y-68941904D01*
X103727142Y-68941904D01*
X103803333Y-68903809D01*
X103841428Y-68865714D01*
X104489047Y-68522857D02*
X104222380Y-68522857D01*
X104222380Y-68941904D02*
X104222380Y-68141904D01*
X104603333Y-68141904D01*
%TO.C,J4*%
D13*
X157213333Y-50107904D02*
X157213333Y-50679333D01*
X157175238Y-50793619D01*
X157099047Y-50869809D01*
X156984761Y-50907904D01*
X156908571Y-50907904D01*
X157937142Y-50374571D02*
X157937142Y-50907904D01*
X157746666Y-50069809D02*
X157556190Y-50641238D01*
X158051428Y-50641238D01*
D11*
X156037142Y-61612428D02*
X156037142Y-61012428D01*
X156322857Y-61612428D02*
X156322857Y-61012428D01*
X156665714Y-61612428D01*
X156665714Y-61012428D01*
X156951428Y-61612428D02*
X156951428Y-61012428D01*
X157180000Y-61012428D01*
X157237142Y-61041000D01*
X157265714Y-61069571D01*
X157294285Y-61126714D01*
X157294285Y-61212428D01*
X157265714Y-61269571D01*
X157237142Y-61298142D01*
X157180000Y-61326714D01*
X156951428Y-61326714D01*
X157551428Y-61012428D02*
X157551428Y-61498142D01*
X157580000Y-61555285D01*
X157608571Y-61583857D01*
X157665714Y-61612428D01*
X157780000Y-61612428D01*
X157837142Y-61583857D01*
X157865714Y-61555285D01*
X157894285Y-61498142D01*
X157894285Y-61012428D01*
X158094285Y-61012428D02*
X158437142Y-61012428D01*
X158265714Y-61612428D02*
X158265714Y-61012428D01*
X158894285Y-61212428D02*
X158894285Y-61612428D01*
X158751428Y-60983857D02*
X158608571Y-61412428D01*
X158980000Y-61412428D01*
%TO.C,J5*%
D13*
X144513333Y-50107904D02*
X144513333Y-50679333D01*
X144475238Y-50793619D01*
X144399047Y-50869809D01*
X144284761Y-50907904D01*
X144208571Y-50907904D01*
X145275238Y-50107904D02*
X144894285Y-50107904D01*
X144856190Y-50488857D01*
X144894285Y-50450761D01*
X144970476Y-50412666D01*
X145160952Y-50412666D01*
X145237142Y-50450761D01*
X145275238Y-50488857D01*
X145313333Y-50565047D01*
X145313333Y-50755523D01*
X145275238Y-50831714D01*
X145237142Y-50869809D01*
X145160952Y-50907904D01*
X144970476Y-50907904D01*
X144894285Y-50869809D01*
X144856190Y-50831714D01*
D11*
X143337142Y-61612428D02*
X143337142Y-61012428D01*
X143622857Y-61612428D02*
X143622857Y-61012428D01*
X143965714Y-61612428D01*
X143965714Y-61012428D01*
X144251428Y-61612428D02*
X144251428Y-61012428D01*
X144480000Y-61012428D01*
X144537142Y-61041000D01*
X144565714Y-61069571D01*
X144594285Y-61126714D01*
X144594285Y-61212428D01*
X144565714Y-61269571D01*
X144537142Y-61298142D01*
X144480000Y-61326714D01*
X144251428Y-61326714D01*
X144851428Y-61012428D02*
X144851428Y-61498142D01*
X144880000Y-61555285D01*
X144908571Y-61583857D01*
X144965714Y-61612428D01*
X145080000Y-61612428D01*
X145137142Y-61583857D01*
X145165714Y-61555285D01*
X145194285Y-61498142D01*
X145194285Y-61012428D01*
X145394285Y-61012428D02*
X145737142Y-61012428D01*
X145565714Y-61612428D02*
X145565714Y-61012428D01*
X145880000Y-61012428D02*
X146251428Y-61012428D01*
X146051428Y-61241000D01*
X146137142Y-61241000D01*
X146194285Y-61269571D01*
X146222857Y-61298142D01*
X146251428Y-61355285D01*
X146251428Y-61498142D01*
X146222857Y-61555285D01*
X146194285Y-61583857D01*
X146137142Y-61612428D01*
X145965714Y-61612428D01*
X145908571Y-61583857D01*
X145880000Y-61555285D01*
%TO.C,J6*%
D13*
X131813333Y-50107904D02*
X131813333Y-50679333D01*
X131775238Y-50793619D01*
X131699047Y-50869809D01*
X131584761Y-50907904D01*
X131508571Y-50907904D01*
X132537142Y-50107904D02*
X132384761Y-50107904D01*
X132308571Y-50146000D01*
X132270476Y-50184095D01*
X132194285Y-50298380D01*
X132156190Y-50450761D01*
X132156190Y-50755523D01*
X132194285Y-50831714D01*
X132232380Y-50869809D01*
X132308571Y-50907904D01*
X132460952Y-50907904D01*
X132537142Y-50869809D01*
X132575238Y-50831714D01*
X132613333Y-50755523D01*
X132613333Y-50565047D01*
X132575238Y-50488857D01*
X132537142Y-50450761D01*
X132460952Y-50412666D01*
X132308571Y-50412666D01*
X132232380Y-50450761D01*
X132194285Y-50488857D01*
X132156190Y-50565047D01*
D11*
X130637142Y-61612428D02*
X130637142Y-61012428D01*
X130922857Y-61612428D02*
X130922857Y-61012428D01*
X131265714Y-61612428D01*
X131265714Y-61012428D01*
X131551428Y-61612428D02*
X131551428Y-61012428D01*
X131780000Y-61012428D01*
X131837142Y-61041000D01*
X131865714Y-61069571D01*
X131894285Y-61126714D01*
X131894285Y-61212428D01*
X131865714Y-61269571D01*
X131837142Y-61298142D01*
X131780000Y-61326714D01*
X131551428Y-61326714D01*
X132151428Y-61012428D02*
X132151428Y-61498142D01*
X132180000Y-61555285D01*
X132208571Y-61583857D01*
X132265714Y-61612428D01*
X132380000Y-61612428D01*
X132437142Y-61583857D01*
X132465714Y-61555285D01*
X132494285Y-61498142D01*
X132494285Y-61012428D01*
X132694285Y-61012428D02*
X133037142Y-61012428D01*
X132865714Y-61612428D02*
X132865714Y-61012428D01*
X133208571Y-61069571D02*
X133237142Y-61041000D01*
X133294285Y-61012428D01*
X133437142Y-61012428D01*
X133494285Y-61041000D01*
X133522857Y-61069571D01*
X133551428Y-61126714D01*
X133551428Y-61183857D01*
X133522857Y-61269571D01*
X133180000Y-61612428D01*
X133551428Y-61612428D01*
%TO.C,J7*%
D13*
X119113333Y-50107904D02*
X119113333Y-50679333D01*
X119075238Y-50793619D01*
X118999047Y-50869809D01*
X118884761Y-50907904D01*
X118808571Y-50907904D01*
X119418095Y-50107904D02*
X119951428Y-50107904D01*
X119608571Y-50907904D01*
D11*
X117937142Y-61612428D02*
X117937142Y-61012428D01*
X118222857Y-61612428D02*
X118222857Y-61012428D01*
X118565714Y-61612428D01*
X118565714Y-61012428D01*
X118851428Y-61612428D02*
X118851428Y-61012428D01*
X119080000Y-61012428D01*
X119137142Y-61041000D01*
X119165714Y-61069571D01*
X119194285Y-61126714D01*
X119194285Y-61212428D01*
X119165714Y-61269571D01*
X119137142Y-61298142D01*
X119080000Y-61326714D01*
X118851428Y-61326714D01*
X119451428Y-61012428D02*
X119451428Y-61498142D01*
X119480000Y-61555285D01*
X119508571Y-61583857D01*
X119565714Y-61612428D01*
X119680000Y-61612428D01*
X119737142Y-61583857D01*
X119765714Y-61555285D01*
X119794285Y-61498142D01*
X119794285Y-61012428D01*
X119994285Y-61012428D02*
X120337142Y-61012428D01*
X120165714Y-61612428D02*
X120165714Y-61012428D01*
X120851428Y-61612428D02*
X120508571Y-61612428D01*
X120680000Y-61612428D02*
X120680000Y-61012428D01*
X120622857Y-61098142D01*
X120565714Y-61155285D01*
X120508571Y-61183857D01*
%TO.C,J8*%
D13*
X101968333Y-50107904D02*
X101968333Y-50679333D01*
X101930238Y-50793619D01*
X101854047Y-50869809D01*
X101739761Y-50907904D01*
X101663571Y-50907904D01*
X102463571Y-50450761D02*
X102387380Y-50412666D01*
X102349285Y-50374571D01*
X102311190Y-50298380D01*
X102311190Y-50260285D01*
X102349285Y-50184095D01*
X102387380Y-50146000D01*
X102463571Y-50107904D01*
X102615952Y-50107904D01*
X102692142Y-50146000D01*
X102730238Y-50184095D01*
X102768333Y-50260285D01*
X102768333Y-50298380D01*
X102730238Y-50374571D01*
X102692142Y-50412666D01*
X102615952Y-50450761D01*
X102463571Y-50450761D01*
X102387380Y-50488857D01*
X102349285Y-50526952D01*
X102311190Y-50603142D01*
X102311190Y-50755523D01*
X102349285Y-50831714D01*
X102387380Y-50869809D01*
X102463571Y-50907904D01*
X102615952Y-50907904D01*
X102692142Y-50869809D01*
X102730238Y-50831714D01*
X102768333Y-50755523D01*
X102768333Y-50603142D01*
X102730238Y-50526952D01*
X102692142Y-50488857D01*
X102615952Y-50450761D01*
D11*
X100792142Y-61012428D02*
X100906428Y-61012428D01*
X100963571Y-61041000D01*
X101020714Y-61098142D01*
X101049285Y-61212428D01*
X101049285Y-61412428D01*
X101020714Y-61526714D01*
X100963571Y-61583857D01*
X100906428Y-61612428D01*
X100792142Y-61612428D01*
X100735000Y-61583857D01*
X100677857Y-61526714D01*
X100649285Y-61412428D01*
X100649285Y-61212428D01*
X100677857Y-61098142D01*
X100735000Y-61041000D01*
X100792142Y-61012428D01*
X101306428Y-61012428D02*
X101306428Y-61498142D01*
X101335000Y-61555285D01*
X101363571Y-61583857D01*
X101420714Y-61612428D01*
X101535000Y-61612428D01*
X101592142Y-61583857D01*
X101620714Y-61555285D01*
X101649285Y-61498142D01*
X101649285Y-61012428D01*
X101849285Y-61012428D02*
X102192142Y-61012428D01*
X102020714Y-61612428D02*
X102020714Y-61012428D01*
X102392142Y-61612428D02*
X102392142Y-61012428D01*
X102620714Y-61012428D01*
X102677857Y-61041000D01*
X102706428Y-61069571D01*
X102735000Y-61126714D01*
X102735000Y-61212428D01*
X102706428Y-61269571D01*
X102677857Y-61298142D01*
X102620714Y-61326714D01*
X102392142Y-61326714D01*
X102992142Y-61012428D02*
X102992142Y-61498142D01*
X103020714Y-61555285D01*
X103049285Y-61583857D01*
X103106428Y-61612428D01*
X103220714Y-61612428D01*
X103277857Y-61583857D01*
X103306428Y-61555285D01*
X103335000Y-61498142D01*
X103335000Y-61012428D01*
X103535000Y-61012428D02*
X103877857Y-61012428D01*
X103706428Y-61612428D02*
X103706428Y-61012428D01*
%TO.C,J9*%
X157848333Y-89096904D02*
X157848333Y-89668333D01*
X157810238Y-89782619D01*
X157734047Y-89858809D01*
X157619761Y-89896904D01*
X157543571Y-89896904D01*
X158267380Y-89896904D02*
X158419761Y-89896904D01*
X158495952Y-89858809D01*
X158534047Y-89820714D01*
X158610238Y-89706428D01*
X158648333Y-89554047D01*
X158648333Y-89249285D01*
X158610238Y-89173095D01*
X158572142Y-89135000D01*
X158495952Y-89096904D01*
X158343571Y-89096904D01*
X158267380Y-89135000D01*
X158229285Y-89173095D01*
X158191190Y-89249285D01*
X158191190Y-89439761D01*
X158229285Y-89515952D01*
X158267380Y-89554047D01*
X158343571Y-89592142D01*
X158495952Y-89592142D01*
X158572142Y-89554047D01*
X158610238Y-89515952D01*
X158648333Y-89439761D01*
X155981666Y-94811904D02*
X156248333Y-95611904D01*
X156515000Y-94811904D01*
X156781666Y-94811904D02*
X156781666Y-95459523D01*
X156819761Y-95535714D01*
X156857857Y-95573809D01*
X156934047Y-95611904D01*
X157086428Y-95611904D01*
X157162619Y-95573809D01*
X157200714Y-95535714D01*
X157238809Y-95459523D01*
X157238809Y-94811904D01*
X157429285Y-95688095D02*
X158038809Y-95688095D01*
X158381666Y-94811904D02*
X158534047Y-94811904D01*
X158610238Y-94850000D01*
X158686428Y-94926190D01*
X158724523Y-95078571D01*
X158724523Y-95345238D01*
X158686428Y-95497619D01*
X158610238Y-95573809D01*
X158534047Y-95611904D01*
X158381666Y-95611904D01*
X158305476Y-95573809D01*
X158229285Y-95497619D01*
X158191190Y-95345238D01*
X158191190Y-95078571D01*
X158229285Y-94926190D01*
X158305476Y-94850000D01*
X158381666Y-94811904D01*
X159067380Y-94811904D02*
X159067380Y-95459523D01*
X159105476Y-95535714D01*
X159143571Y-95573809D01*
X159219761Y-95611904D01*
X159372142Y-95611904D01*
X159448333Y-95573809D01*
X159486428Y-95535714D01*
X159524523Y-95459523D01*
X159524523Y-94811904D01*
X159791190Y-94811904D02*
X160248333Y-94811904D01*
X160019761Y-95611904D02*
X160019761Y-94811904D01*
X157848333Y-89096904D02*
X157848333Y-89668333D01*
X157810238Y-89782619D01*
X157734047Y-89858809D01*
X157619761Y-89896904D01*
X157543571Y-89896904D01*
X158267380Y-89896904D02*
X158419761Y-89896904D01*
X158495952Y-89858809D01*
X158534047Y-89820714D01*
X158610238Y-89706428D01*
X158648333Y-89554047D01*
X158648333Y-89249285D01*
X158610238Y-89173095D01*
X158572142Y-89135000D01*
X158495952Y-89096904D01*
X158343571Y-89096904D01*
X158267380Y-89135000D01*
X158229285Y-89173095D01*
X158191190Y-89249285D01*
X158191190Y-89439761D01*
X158229285Y-89515952D01*
X158267380Y-89554047D01*
X158343571Y-89592142D01*
X158495952Y-89592142D01*
X158572142Y-89554047D01*
X158610238Y-89515952D01*
X158648333Y-89439761D01*
%TO.C,J11*%
X146672380Y-89096904D02*
X146672380Y-89668333D01*
X146634285Y-89782619D01*
X146558095Y-89858809D01*
X146443809Y-89896904D01*
X146367619Y-89896904D01*
X147472380Y-89896904D02*
X147015238Y-89896904D01*
X147243809Y-89896904D02*
X147243809Y-89096904D01*
X147167619Y-89211190D01*
X147091428Y-89287380D01*
X147015238Y-89325476D01*
X148234285Y-89896904D02*
X147777142Y-89896904D01*
X148005714Y-89896904D02*
X148005714Y-89096904D01*
X147929523Y-89211190D01*
X147853333Y-89287380D01*
X147777142Y-89325476D01*
X146805714Y-95611904D02*
X146424761Y-95611904D01*
X146424761Y-94811904D01*
X147072380Y-95192857D02*
X147339047Y-95192857D01*
X147453333Y-95611904D02*
X147072380Y-95611904D01*
X147072380Y-94811904D01*
X147453333Y-94811904D01*
X147796190Y-95611904D02*
X147796190Y-94811904D01*
X147986666Y-94811904D01*
X148100952Y-94850000D01*
X148177142Y-94926190D01*
X148215238Y-95002380D01*
X148253333Y-95154761D01*
X148253333Y-95269047D01*
X148215238Y-95421428D01*
X148177142Y-95497619D01*
X148100952Y-95573809D01*
X147986666Y-95611904D01*
X147796190Y-95611904D01*
X146672380Y-89096904D02*
X146672380Y-89668333D01*
X146634285Y-89782619D01*
X146558095Y-89858809D01*
X146443809Y-89896904D01*
X146367619Y-89896904D01*
X147472380Y-89896904D02*
X147015238Y-89896904D01*
X147243809Y-89896904D02*
X147243809Y-89096904D01*
X147167619Y-89211190D01*
X147091428Y-89287380D01*
X147015238Y-89325476D01*
X148234285Y-89896904D02*
X147777142Y-89896904D01*
X148005714Y-89896904D02*
X148005714Y-89096904D01*
X147929523Y-89211190D01*
X147853333Y-89287380D01*
X147777142Y-89325476D01*
%TO.C,J12*%
X137167380Y-89096904D02*
X137167380Y-89668333D01*
X137129285Y-89782619D01*
X137053095Y-89858809D01*
X136938809Y-89896904D01*
X136862619Y-89896904D01*
X137967380Y-89896904D02*
X137510238Y-89896904D01*
X137738809Y-89896904D02*
X137738809Y-89096904D01*
X137662619Y-89211190D01*
X137586428Y-89287380D01*
X137510238Y-89325476D01*
X138272142Y-89173095D02*
X138310238Y-89135000D01*
X138386428Y-89096904D01*
X138576904Y-89096904D01*
X138653095Y-89135000D01*
X138691190Y-89173095D01*
X138729285Y-89249285D01*
X138729285Y-89325476D01*
X138691190Y-89439761D01*
X138234047Y-89896904D01*
X138729285Y-89896904D01*
X136100714Y-94811904D02*
X136367380Y-95611904D01*
X136634047Y-94811904D01*
X136900714Y-94811904D02*
X136900714Y-95459523D01*
X136938809Y-95535714D01*
X136976904Y-95573809D01*
X137053095Y-95611904D01*
X137205476Y-95611904D01*
X137281666Y-95573809D01*
X137319761Y-95535714D01*
X137357857Y-95459523D01*
X137357857Y-94811904D01*
X137548333Y-95688095D02*
X138157857Y-95688095D01*
X138729285Y-94811904D02*
X138348333Y-94811904D01*
X138310238Y-95192857D01*
X138348333Y-95154761D01*
X138424523Y-95116666D01*
X138615000Y-95116666D01*
X138691190Y-95154761D01*
X138729285Y-95192857D01*
X138767380Y-95269047D01*
X138767380Y-95459523D01*
X138729285Y-95535714D01*
X138691190Y-95573809D01*
X138615000Y-95611904D01*
X138424523Y-95611904D01*
X138348333Y-95573809D01*
X138310238Y-95535714D01*
X138995952Y-94811904D02*
X139262619Y-95611904D01*
X139529285Y-94811904D01*
X137167380Y-89096904D02*
X137167380Y-89668333D01*
X137129285Y-89782619D01*
X137053095Y-89858809D01*
X136938809Y-89896904D01*
X136862619Y-89896904D01*
X137967380Y-89896904D02*
X137510238Y-89896904D01*
X137738809Y-89896904D02*
X137738809Y-89096904D01*
X137662619Y-89211190D01*
X137586428Y-89287380D01*
X137510238Y-89325476D01*
X138272142Y-89173095D02*
X138310238Y-89135000D01*
X138386428Y-89096904D01*
X138576904Y-89096904D01*
X138653095Y-89135000D01*
X138691190Y-89173095D01*
X138729285Y-89249285D01*
X138729285Y-89325476D01*
X138691190Y-89439761D01*
X138234047Y-89896904D01*
X138729285Y-89896904D01*
%TO.C,R1*%
D13*
X122388333Y-102052380D02*
X122055000Y-101576190D01*
X121816904Y-102052380D02*
X121816904Y-101052380D01*
X122197857Y-101052380D01*
X122293095Y-101100000D01*
X122340714Y-101147619D01*
X122388333Y-101242857D01*
X122388333Y-101385714D01*
X122340714Y-101480952D01*
X122293095Y-101528571D01*
X122197857Y-101576190D01*
X121816904Y-101576190D01*
X123340714Y-102052380D02*
X122769285Y-102052380D01*
X123055000Y-102052380D02*
X123055000Y-101052380D01*
X122959761Y-101195238D01*
X122864523Y-101290476D01*
X122769285Y-101338095D01*
X125610952Y-102052380D02*
X125039523Y-102052380D01*
X125325238Y-102052380D02*
X125325238Y-101052380D01*
X125230000Y-101195238D01*
X125134761Y-101290476D01*
X125039523Y-101338095D01*
X126039523Y-102052380D02*
X126039523Y-101052380D01*
X126134761Y-101671428D02*
X126420476Y-102052380D01*
X126420476Y-101385714D02*
X126039523Y-101766666D01*
%TO.C,U1*%
D11*
X91465476Y-90366904D02*
X91465476Y-91014523D01*
X91503571Y-91090714D01*
X91541666Y-91128809D01*
X91617857Y-91166904D01*
X91770238Y-91166904D01*
X91846428Y-91128809D01*
X91884523Y-91090714D01*
X91922619Y-91014523D01*
X91922619Y-90366904D01*
X92722619Y-91166904D02*
X92265476Y-91166904D01*
X92494047Y-91166904D02*
X92494047Y-90366904D01*
X92417857Y-90481190D01*
X92341666Y-90557380D01*
X92265476Y-90595476D01*
%TO.C,J1*%
X91808333Y-66236904D02*
X91808333Y-66808333D01*
X91770238Y-66922619D01*
X91694047Y-66998809D01*
X91579761Y-67036904D01*
X91503571Y-67036904D01*
X92608333Y-67036904D02*
X92151190Y-67036904D01*
X92379761Y-67036904D02*
X92379761Y-66236904D01*
X92303571Y-66351190D01*
X92227380Y-66427380D01*
X92151190Y-66465476D01*
X90055952Y-68306904D02*
X90055952Y-67506904D01*
X90246428Y-67506904D01*
X90360714Y-67545000D01*
X90436904Y-67621190D01*
X90475000Y-67697380D01*
X90513095Y-67849761D01*
X90513095Y-67964047D01*
X90475000Y-68116428D01*
X90436904Y-68192619D01*
X90360714Y-68268809D01*
X90246428Y-68306904D01*
X90055952Y-68306904D01*
X91313095Y-68230714D02*
X91275000Y-68268809D01*
X91160714Y-68306904D01*
X91084523Y-68306904D01*
X90970238Y-68268809D01*
X90894047Y-68192619D01*
X90855952Y-68116428D01*
X90817857Y-67964047D01*
X90817857Y-67849761D01*
X90855952Y-67697380D01*
X90894047Y-67621190D01*
X90970238Y-67545000D01*
X91084523Y-67506904D01*
X91160714Y-67506904D01*
X91275000Y-67545000D01*
X91313095Y-67583095D01*
X91465476Y-68383095D02*
X92075000Y-68383095D01*
X92684523Y-68306904D02*
X92227380Y-68306904D01*
X92455952Y-68306904D02*
X92455952Y-67506904D01*
X92379761Y-67621190D01*
X92303571Y-67697380D01*
X92227380Y-67735476D01*
X92989285Y-67583095D02*
X93027380Y-67545000D01*
X93103571Y-67506904D01*
X93294047Y-67506904D01*
X93370238Y-67545000D01*
X93408333Y-67583095D01*
X93446428Y-67659285D01*
X93446428Y-67735476D01*
X93408333Y-67849761D01*
X92951190Y-68306904D01*
X93446428Y-68306904D01*
X93675000Y-67506904D02*
X93941666Y-68306904D01*
X94208333Y-67506904D01*
%TD*%
M02*
