M48
INCH,TZ
T1C0.0157
T2C0.0300
T3C0.0315
T4C0.0374
T5C0.0394
T6C0.0433
T7C0.0472
T8C0.0598
T9C0.1200
%
G90
G05
T1
X52250Y-33439
X52250Y-34061
X52564Y-33202
X52564Y-34298
X60750Y-33750
X61750Y-33750
T2
X45500Y-26000
X45500Y-28000
X45500Y-30000
X45500Y-33000
X48500Y-26000
X48500Y-28000
X48500Y-30000
X48500Y-33000
X60500Y-26000
X60500Y-28000
X60500Y-30000
X60500Y-33000
X63500Y-26000
X63500Y-28000
X63500Y-30000
X63500Y-33000
X50500Y-26000
X50500Y-28000
X50500Y-30000
X50500Y-33000
X53500Y-26000
X53500Y-28000
X53500Y-30000
X53500Y-33000
X55500Y-26000
X55500Y-28000
X55500Y-30000
X55500Y-33000
X58500Y-26000
X58500Y-28000
X58500Y-30000
X58500Y-33000
T3
X47000Y-40000
X51000Y-40000
X40500Y-28266
X40500Y-29250
X42750Y-27781
X42750Y-29750
T4
X61281Y-36000
X62266Y-36000
X63250Y-36000
X47000Y-36000
X47984Y-36000
X48969Y-36000
X49953Y-36000
X50937Y-36000
T5
X53766Y-36000
X54750Y-36000
X54766Y-39500
X55750Y-39500
X57516Y-36000
X58500Y-36000
X62266Y-39500
X63250Y-39500
X58516Y-39500
X59500Y-39500
T6
X38000Y-31250
X38000Y-35250
X36500Y-32250
X36500Y-33250
X36500Y-34250
X47000Y-38500
X51000Y-38500
T7
X50031Y-23593
X51016Y-23593
X52000Y-21622
X52984Y-23593
X53969Y-23593
X38281Y-23593
X39266Y-23593
X40250Y-21622
X41234Y-23593
X42219Y-23593
X55031Y-23593
X56016Y-23593
X57000Y-21622
X57984Y-23593
X58969Y-23593
X45031Y-23593
X46016Y-23593
X47000Y-21622
X47984Y-23593
X48969Y-23593
X60031Y-23593
X61016Y-23593
X62000Y-21622
X62984Y-23593
X63969Y-23593
X40750Y-33000
X42719Y-33000
T8
X36750Y-27250
X36750Y-29250
T9
X72750Y-21000
X71250Y-46000
X36250Y-21000
X36250Y-40000
T0
M30
