M48
INCH,TZ
T1C0.0157
T2C0.0315
T3C0.0374
T4C0.0394
T5C0.0433
T6C0.0472
T7C0.1200
%
G90
G05
T1
X52250Y-33439
X52250Y-34061
X52564Y-33202
X52564Y-34298
X60750Y-33750
X61750Y-33750
T2
X40500Y-28266
X40500Y-29250
X42750Y-27781
X42750Y-29750
X47000Y-40000
X51000Y-40000
T3
X61281Y-36000
X62266Y-36000
X63250Y-36000
X47000Y-36000
X47984Y-36000
X48969Y-36000
X49953Y-36000
X50937Y-36000
T4
X58516Y-39500
X59500Y-39500
X62266Y-39500
X63250Y-39500
X57516Y-36000
X58500Y-36000
X36750Y-28250
X36750Y-29234
X53766Y-36000
X54750Y-36000
X54766Y-39500
X55750Y-39500
T5
X36500Y-32250
X36500Y-33250
X36500Y-34250
X50500Y-26000
X50500Y-28000
X50500Y-30000
X50500Y-33000
X53500Y-26000
X53500Y-28000
X53500Y-30000
X53500Y-33000
X38000Y-31250
X38000Y-35250
X60500Y-26000
X60500Y-28000
X60500Y-30000
X60500Y-33000
X63500Y-26000
X63500Y-28000
X63500Y-30000
X63500Y-33000
X55500Y-26000
X55500Y-28000
X55500Y-30000
X55500Y-33000
X58500Y-26000
X58500Y-28000
X58500Y-30000
X58500Y-33000
X45500Y-26000
X45500Y-28000
X45500Y-30000
X45500Y-33000
X48500Y-26000
X48500Y-28000
X48500Y-30000
X48500Y-33000
X47000Y-38500
X51000Y-38500
T6
X50031Y-22743
X51016Y-22743
X52000Y-20772
X52984Y-22743
X53969Y-22743
X40750Y-33000
X42719Y-33000
X55031Y-22743
X56016Y-22743
X57000Y-20772
X57984Y-22743
X58969Y-22743
X38281Y-22743
X39266Y-22743
X40250Y-20772
X41234Y-22743
X42219Y-22743
X45031Y-22743
X46016Y-22743
X47000Y-20772
X47984Y-22743
X48969Y-22743
X60031Y-22743
X61016Y-22743
X62000Y-20772
X62984Y-22743
X63969Y-22743
T7
X36250Y-21000
X72750Y-21000
X72750Y-42000
X36250Y-40000
T0
M30
