%TF.GenerationSoftware,KiCad,Pcbnew,(5.1.8)-1*%
%TF.CreationDate,2021-01-28T21:24:41+01:00*%
%TF.ProjectId,VU Switch,56552053-7769-4746-9368-2e6b69636164,rev?*%
%TF.SameCoordinates,Original*%
%TF.FileFunction,Legend,Bot*%
%TF.FilePolarity,Positive*%
%FSLAX46Y46*%
G04 Gerber Fmt 4.6, Leading zero omitted, Abs format (unit mm)*
G04 Created by KiCad (PCBNEW (5.1.8)-1) date 2021-01-28 21:24:41*
%MOMM*%
%LPD*%
G01*
G04 APERTURE LIST*
%ADD10C,0.100000*%
G04 APERTURE END LIST*
D10*
X130092380Y-93630714D02*
X130130476Y-93668809D01*
X130244761Y-93706904D01*
X130320952Y-93706904D01*
X130435238Y-93668809D01*
X130511428Y-93592619D01*
X130549523Y-93516428D01*
X130587619Y-93364047D01*
X130587619Y-93249761D01*
X130549523Y-93097380D01*
X130511428Y-93021190D01*
X130435238Y-92945000D01*
X130320952Y-92906904D01*
X130244761Y-92906904D01*
X130130476Y-92945000D01*
X130092380Y-92983095D01*
X129749523Y-93706904D02*
X129749523Y-92906904D01*
X129749523Y-93287857D02*
X129292380Y-93287857D01*
X129292380Y-93706904D02*
X129292380Y-92906904D01*
X128568571Y-93173571D02*
X128568571Y-93706904D01*
X128759047Y-92868809D02*
X128949523Y-93440238D01*
X128454285Y-93440238D01*
X127552380Y-89820714D02*
X127590476Y-89858809D01*
X127704761Y-89896904D01*
X127780952Y-89896904D01*
X127895238Y-89858809D01*
X127971428Y-89782619D01*
X128009523Y-89706428D01*
X128047619Y-89554047D01*
X128047619Y-89439761D01*
X128009523Y-89287380D01*
X127971428Y-89211190D01*
X127895238Y-89135000D01*
X127780952Y-89096904D01*
X127704761Y-89096904D01*
X127590476Y-89135000D01*
X127552380Y-89173095D01*
X127209523Y-89896904D02*
X127209523Y-89096904D01*
X127209523Y-89477857D02*
X126752380Y-89477857D01*
X126752380Y-89896904D02*
X126752380Y-89096904D01*
X126447619Y-89096904D02*
X125952380Y-89096904D01*
X126219047Y-89401666D01*
X126104761Y-89401666D01*
X126028571Y-89439761D01*
X125990476Y-89477857D01*
X125952380Y-89554047D01*
X125952380Y-89744523D01*
X125990476Y-89820714D01*
X126028571Y-89858809D01*
X126104761Y-89896904D01*
X126333333Y-89896904D01*
X126409523Y-89858809D01*
X126447619Y-89820714D01*
X125012380Y-93630714D02*
X125050476Y-93668809D01*
X125164761Y-93706904D01*
X125240952Y-93706904D01*
X125355238Y-93668809D01*
X125431428Y-93592619D01*
X125469523Y-93516428D01*
X125507619Y-93364047D01*
X125507619Y-93249761D01*
X125469523Y-93097380D01*
X125431428Y-93021190D01*
X125355238Y-92945000D01*
X125240952Y-92906904D01*
X125164761Y-92906904D01*
X125050476Y-92945000D01*
X125012380Y-92983095D01*
X124669523Y-93706904D02*
X124669523Y-92906904D01*
X124669523Y-93287857D02*
X124212380Y-93287857D01*
X124212380Y-93706904D02*
X124212380Y-92906904D01*
X123869523Y-92983095D02*
X123831428Y-92945000D01*
X123755238Y-92906904D01*
X123564761Y-92906904D01*
X123488571Y-92945000D01*
X123450476Y-92983095D01*
X123412380Y-93059285D01*
X123412380Y-93135476D01*
X123450476Y-93249761D01*
X123907619Y-93706904D01*
X123412380Y-93706904D01*
X122472380Y-89820714D02*
X122510476Y-89858809D01*
X122624761Y-89896904D01*
X122700952Y-89896904D01*
X122815238Y-89858809D01*
X122891428Y-89782619D01*
X122929523Y-89706428D01*
X122967619Y-89554047D01*
X122967619Y-89439761D01*
X122929523Y-89287380D01*
X122891428Y-89211190D01*
X122815238Y-89135000D01*
X122700952Y-89096904D01*
X122624761Y-89096904D01*
X122510476Y-89135000D01*
X122472380Y-89173095D01*
X122129523Y-89896904D02*
X122129523Y-89096904D01*
X122129523Y-89477857D02*
X121672380Y-89477857D01*
X121672380Y-89896904D02*
X121672380Y-89096904D01*
X120872380Y-89896904D02*
X121329523Y-89896904D01*
X121100952Y-89896904D02*
X121100952Y-89096904D01*
X121177142Y-89211190D01*
X121253333Y-89287380D01*
X121329523Y-89325476D01*
X119989523Y-92945000D02*
X120065714Y-92906904D01*
X120180000Y-92906904D01*
X120294285Y-92945000D01*
X120370476Y-93021190D01*
X120408571Y-93097380D01*
X120446666Y-93249761D01*
X120446666Y-93364047D01*
X120408571Y-93516428D01*
X120370476Y-93592619D01*
X120294285Y-93668809D01*
X120180000Y-93706904D01*
X120103809Y-93706904D01*
X119989523Y-93668809D01*
X119951428Y-93630714D01*
X119951428Y-93364047D01*
X120103809Y-93364047D01*
X119608571Y-93706904D02*
X119608571Y-92906904D01*
X119151428Y-93706904D01*
X119151428Y-92906904D01*
X118770476Y-93706904D02*
X118770476Y-92906904D01*
X118580000Y-92906904D01*
X118465714Y-92945000D01*
X118389523Y-93021190D01*
X118351428Y-93097380D01*
X118313333Y-93249761D01*
X118313333Y-93364047D01*
X118351428Y-93516428D01*
X118389523Y-93592619D01*
X118465714Y-93668809D01*
X118580000Y-93706904D01*
X118770476Y-93706904D01*
X148723333Y-93706904D02*
X148990000Y-93325952D01*
X149180476Y-93706904D02*
X149180476Y-92906904D01*
X148875714Y-92906904D01*
X148799523Y-92945000D01*
X148761428Y-92983095D01*
X148723333Y-93059285D01*
X148723333Y-93173571D01*
X148761428Y-93249761D01*
X148799523Y-93287857D01*
X148875714Y-93325952D01*
X149180476Y-93325952D01*
X147961428Y-93706904D02*
X148418571Y-93706904D01*
X148190000Y-93706904D02*
X148190000Y-92906904D01*
X148266190Y-93021190D01*
X148342380Y-93097380D01*
X148418571Y-93135476D01*
X139674523Y-92945000D02*
X139750714Y-92906904D01*
X139865000Y-92906904D01*
X139979285Y-92945000D01*
X140055476Y-93021190D01*
X140093571Y-93097380D01*
X140131666Y-93249761D01*
X140131666Y-93364047D01*
X140093571Y-93516428D01*
X140055476Y-93592619D01*
X139979285Y-93668809D01*
X139865000Y-93706904D01*
X139788809Y-93706904D01*
X139674523Y-93668809D01*
X139636428Y-93630714D01*
X139636428Y-93364047D01*
X139788809Y-93364047D01*
X139293571Y-93706904D02*
X139293571Y-92906904D01*
X138836428Y-93706904D01*
X138836428Y-92906904D01*
X138455476Y-93706904D02*
X138455476Y-92906904D01*
X138265000Y-92906904D01*
X138150714Y-92945000D01*
X138074523Y-93021190D01*
X138036428Y-93097380D01*
X137998333Y-93249761D01*
X137998333Y-93364047D01*
X138036428Y-93516428D01*
X138074523Y-93592619D01*
X138150714Y-93668809D01*
X138265000Y-93706904D01*
X138455476Y-93706904D01*
X158724523Y-92945000D02*
X158800714Y-92906904D01*
X158915000Y-92906904D01*
X159029285Y-92945000D01*
X159105476Y-93021190D01*
X159143571Y-93097380D01*
X159181666Y-93249761D01*
X159181666Y-93364047D01*
X159143571Y-93516428D01*
X159105476Y-93592619D01*
X159029285Y-93668809D01*
X158915000Y-93706904D01*
X158838809Y-93706904D01*
X158724523Y-93668809D01*
X158686428Y-93630714D01*
X158686428Y-93364047D01*
X158838809Y-93364047D01*
X158343571Y-93706904D02*
X158343571Y-92906904D01*
X157886428Y-93706904D01*
X157886428Y-92906904D01*
X157505476Y-93706904D02*
X157505476Y-92906904D01*
X157315000Y-92906904D01*
X157200714Y-92945000D01*
X157124523Y-93021190D01*
X157086428Y-93097380D01*
X157048333Y-93249761D01*
X157048333Y-93364047D01*
X157086428Y-93516428D01*
X157124523Y-93592619D01*
X157200714Y-93668809D01*
X157315000Y-93706904D01*
X157505476Y-93706904D01*
X161264523Y-101835000D02*
X161340714Y-101796904D01*
X161455000Y-101796904D01*
X161569285Y-101835000D01*
X161645476Y-101911190D01*
X161683571Y-101987380D01*
X161721666Y-102139761D01*
X161721666Y-102254047D01*
X161683571Y-102406428D01*
X161645476Y-102482619D01*
X161569285Y-102558809D01*
X161455000Y-102596904D01*
X161378809Y-102596904D01*
X161264523Y-102558809D01*
X161226428Y-102520714D01*
X161226428Y-102254047D01*
X161378809Y-102254047D01*
X160883571Y-102596904D02*
X160883571Y-101796904D01*
X160426428Y-102596904D01*
X160426428Y-101796904D01*
X160045476Y-102596904D02*
X160045476Y-101796904D01*
X159855000Y-101796904D01*
X159740714Y-101835000D01*
X159664523Y-101911190D01*
X159626428Y-101987380D01*
X159588333Y-102139761D01*
X159588333Y-102254047D01*
X159626428Y-102406428D01*
X159664523Y-102482619D01*
X159740714Y-102558809D01*
X159855000Y-102596904D01*
X160045476Y-102596904D01*
X151739523Y-101835000D02*
X151815714Y-101796904D01*
X151930000Y-101796904D01*
X152044285Y-101835000D01*
X152120476Y-101911190D01*
X152158571Y-101987380D01*
X152196666Y-102139761D01*
X152196666Y-102254047D01*
X152158571Y-102406428D01*
X152120476Y-102482619D01*
X152044285Y-102558809D01*
X151930000Y-102596904D01*
X151853809Y-102596904D01*
X151739523Y-102558809D01*
X151701428Y-102520714D01*
X151701428Y-102254047D01*
X151853809Y-102254047D01*
X151358571Y-102596904D02*
X151358571Y-101796904D01*
X150901428Y-102596904D01*
X150901428Y-101796904D01*
X150520476Y-102596904D02*
X150520476Y-101796904D01*
X150330000Y-101796904D01*
X150215714Y-101835000D01*
X150139523Y-101911190D01*
X150101428Y-101987380D01*
X150063333Y-102139761D01*
X150063333Y-102254047D01*
X150101428Y-102406428D01*
X150139523Y-102482619D01*
X150215714Y-102558809D01*
X150330000Y-102596904D01*
X150520476Y-102596904D01*
X142214523Y-101835000D02*
X142290714Y-101796904D01*
X142405000Y-101796904D01*
X142519285Y-101835000D01*
X142595476Y-101911190D01*
X142633571Y-101987380D01*
X142671666Y-102139761D01*
X142671666Y-102254047D01*
X142633571Y-102406428D01*
X142595476Y-102482619D01*
X142519285Y-102558809D01*
X142405000Y-102596904D01*
X142328809Y-102596904D01*
X142214523Y-102558809D01*
X142176428Y-102520714D01*
X142176428Y-102254047D01*
X142328809Y-102254047D01*
X141833571Y-102596904D02*
X141833571Y-101796904D01*
X141376428Y-102596904D01*
X141376428Y-101796904D01*
X140995476Y-102596904D02*
X140995476Y-101796904D01*
X140805000Y-101796904D01*
X140690714Y-101835000D01*
X140614523Y-101911190D01*
X140576428Y-101987380D01*
X140538333Y-102139761D01*
X140538333Y-102254047D01*
X140576428Y-102406428D01*
X140614523Y-102482619D01*
X140690714Y-102558809D01*
X140805000Y-102596904D01*
X140995476Y-102596904D01*
X158572142Y-98786904D02*
X159029285Y-98786904D01*
X158800714Y-98786904D02*
X158800714Y-97986904D01*
X158876904Y-98101190D01*
X158953095Y-98177380D01*
X159029285Y-98215476D01*
X158267380Y-98063095D02*
X158229285Y-98025000D01*
X158153095Y-97986904D01*
X157962619Y-97986904D01*
X157886428Y-98025000D01*
X157848333Y-98063095D01*
X157810238Y-98139285D01*
X157810238Y-98215476D01*
X157848333Y-98329761D01*
X158305476Y-98786904D01*
X157810238Y-98786904D01*
X157543571Y-98253571D02*
X157353095Y-98786904D01*
X157162619Y-98253571D01*
X139522142Y-98786904D02*
X139979285Y-98786904D01*
X139750714Y-98786904D02*
X139750714Y-97986904D01*
X139826904Y-98101190D01*
X139903095Y-98177380D01*
X139979285Y-98215476D01*
X139217380Y-98063095D02*
X139179285Y-98025000D01*
X139103095Y-97986904D01*
X138912619Y-97986904D01*
X138836428Y-98025000D01*
X138798333Y-98063095D01*
X138760238Y-98139285D01*
X138760238Y-98215476D01*
X138798333Y-98329761D01*
X139255476Y-98786904D01*
X138760238Y-98786904D01*
X138493571Y-98253571D02*
X138303095Y-98786904D01*
X138112619Y-98253571D01*
X149047142Y-98786904D02*
X149504285Y-98786904D01*
X149275714Y-98786904D02*
X149275714Y-97986904D01*
X149351904Y-98101190D01*
X149428095Y-98177380D01*
X149504285Y-98215476D01*
X148742380Y-98063095D02*
X148704285Y-98025000D01*
X148628095Y-97986904D01*
X148437619Y-97986904D01*
X148361428Y-98025000D01*
X148323333Y-98063095D01*
X148285238Y-98139285D01*
X148285238Y-98215476D01*
X148323333Y-98329761D01*
X148780476Y-98786904D01*
X148285238Y-98786904D01*
X148018571Y-98253571D02*
X147828095Y-98786904D01*
X147637619Y-98253571D01*
X136639285Y-89096904D02*
X137020238Y-89096904D01*
X137058333Y-89477857D01*
X137020238Y-89439761D01*
X136944047Y-89401666D01*
X136753571Y-89401666D01*
X136677380Y-89439761D01*
X136639285Y-89477857D01*
X136601190Y-89554047D01*
X136601190Y-89744523D01*
X136639285Y-89820714D01*
X136677380Y-89858809D01*
X136753571Y-89896904D01*
X136944047Y-89896904D01*
X137020238Y-89858809D01*
X137058333Y-89820714D01*
X136334523Y-89363571D02*
X136144047Y-89896904D01*
X135953571Y-89363571D01*
X146164285Y-89096904D02*
X146545238Y-89096904D01*
X146583333Y-89477857D01*
X146545238Y-89439761D01*
X146469047Y-89401666D01*
X146278571Y-89401666D01*
X146202380Y-89439761D01*
X146164285Y-89477857D01*
X146126190Y-89554047D01*
X146126190Y-89744523D01*
X146164285Y-89820714D01*
X146202380Y-89858809D01*
X146278571Y-89896904D01*
X146469047Y-89896904D01*
X146545238Y-89858809D01*
X146583333Y-89820714D01*
X145859523Y-89363571D02*
X145669047Y-89896904D01*
X145478571Y-89363571D01*
X160407380Y-89896904D02*
X160674047Y-89515952D01*
X160864523Y-89896904D02*
X160864523Y-89096904D01*
X160559761Y-89096904D01*
X160483571Y-89135000D01*
X160445476Y-89173095D01*
X160407380Y-89249285D01*
X160407380Y-89363571D01*
X160445476Y-89439761D01*
X160483571Y-89477857D01*
X160559761Y-89515952D01*
X160864523Y-89515952D01*
X155327380Y-89896904D02*
X155708333Y-89896904D01*
X155708333Y-89096904D01*
M02*
