%TF.GenerationSoftware,KiCad,Pcbnew,(5.1.8)-1*%
%TF.CreationDate,2021-01-28T21:24:41+01:00*%
%TF.ProjectId,VU Switch,56552053-7769-4746-9368-2e6b69636164,rev?*%
%TF.SameCoordinates,Original*%
%TF.FileFunction,Copper,L2,Bot*%
%TF.FilePolarity,Positive*%
%FSLAX46Y46*%
G04 Gerber Fmt 4.6, Leading zero omitted, Abs format (unit mm)*
G04 Created by KiCad (PCBNEW (5.1.8)-1) date 2021-01-28 21:24:41*
%MOMM*%
%LPD*%
G01*
G04 APERTURE LIST*
%TA.AperFunction,ComponentPad*%
%ADD10O,1.800000X2.300000*%
%TD*%
%TA.AperFunction,ComponentPad*%
%ADD11R,1.800000X2.300000*%
%TD*%
%TA.AperFunction,ComponentPad*%
%ADD12O,1.700000X1.950000*%
%TD*%
%TA.AperFunction,ComponentPad*%
%ADD13R,2.200000X2.200000*%
%TD*%
%TA.AperFunction,ComponentPad*%
%ADD14O,2.200000X2.200000*%
%TD*%
%TA.AperFunction,ComponentPad*%
%ADD15O,1.700000X2.000000*%
%TD*%
%TA.AperFunction,ComponentPad*%
%ADD16C,1.600000*%
%TD*%
%TA.AperFunction,WasherPad*%
%ADD17C,5.000000*%
%TD*%
%TA.AperFunction,ComponentPad*%
%ADD18C,5.000000*%
%TD*%
%TA.AperFunction,ComponentPad*%
%ADD19R,2.400000X2.400000*%
%TD*%
%TA.AperFunction,ComponentPad*%
%ADD20C,2.400000*%
%TD*%
%TA.AperFunction,ComponentPad*%
%ADD21R,1.600000X1.600000*%
%TD*%
%TA.AperFunction,ComponentPad*%
%ADD22O,1.750000X3.500000*%
%TD*%
%TA.AperFunction,ComponentPad*%
%ADD23R,3.500000X2.500000*%
%TD*%
%TA.AperFunction,ComponentPad*%
%ADD24O,1.600000X1.600000*%
%TD*%
%TA.AperFunction,ComponentPad*%
%ADD25R,2.000000X1.905000*%
%TD*%
%TA.AperFunction,ComponentPad*%
%ADD26O,2.000000X1.905000*%
%TD*%
%TA.AperFunction,ComponentPad*%
%ADD27O,2.000000X1.700000*%
%TD*%
%TA.AperFunction,ViaPad*%
%ADD28C,0.800000*%
%TD*%
%TA.AperFunction,Conductor*%
%ADD29C,0.381000*%
%TD*%
%TA.AperFunction,Conductor*%
%ADD30C,0.250000*%
%TD*%
%TA.AperFunction,Conductor*%
%ADD31C,0.254000*%
%TD*%
%TA.AperFunction,Conductor*%
%ADD32C,0.100000*%
%TD*%
G04 APERTURE END LIST*
D10*
%TO.P,K1,16*%
%TO.N,SELECT_4*%
X153670000Y-83820000D03*
%TO.P,K1,13*%
%TO.N,OUT_L*%
X153670000Y-76200000D03*
%TO.P,K1,11*%
%TO.N,N/C*%
X153670000Y-71120000D03*
%TO.P,K1,9*%
%TO.N,Net-(J4-Pad5)*%
X153670000Y-66040000D03*
%TO.P,K1,8*%
%TO.N,Net-(J4-Pad2)*%
X161290000Y-66040000D03*
%TO.P,K1,6*%
%TO.N,N/C*%
X161290000Y-71120000D03*
%TO.P,K1,4*%
%TO.N,OUT_R*%
X161290000Y-76200000D03*
D11*
%TO.P,K1,1*%
%TO.N,+5V*%
X161290000Y-83820000D03*
%TD*%
D10*
%TO.P,K2,16*%
%TO.N,SELECT_3*%
X140970000Y-83820000D03*
%TO.P,K2,13*%
%TO.N,OUT_L*%
X140970000Y-76200000D03*
%TO.P,K2,11*%
%TO.N,N/C*%
X140970000Y-71120000D03*
%TO.P,K2,9*%
%TO.N,Net-(J5-Pad5)*%
X140970000Y-66040000D03*
%TO.P,K2,8*%
%TO.N,Net-(J5-Pad2)*%
X148590000Y-66040000D03*
%TO.P,K2,6*%
%TO.N,N/C*%
X148590000Y-71120000D03*
%TO.P,K2,4*%
%TO.N,OUT_R*%
X148590000Y-76200000D03*
D11*
%TO.P,K2,1*%
%TO.N,+5V*%
X148590000Y-83820000D03*
%TD*%
D10*
%TO.P,K3,16*%
%TO.N,SELECT_2*%
X128270000Y-83820000D03*
%TO.P,K3,13*%
%TO.N,OUT_L*%
X128270000Y-76200000D03*
%TO.P,K3,11*%
%TO.N,N/C*%
X128270000Y-71120000D03*
%TO.P,K3,9*%
%TO.N,Net-(J6-Pad5)*%
X128270000Y-66040000D03*
%TO.P,K3,8*%
%TO.N,Net-(J6-Pad2)*%
X135890000Y-66040000D03*
%TO.P,K3,6*%
%TO.N,N/C*%
X135890000Y-71120000D03*
%TO.P,K3,4*%
%TO.N,OUT_R*%
X135890000Y-76200000D03*
D11*
%TO.P,K3,1*%
%TO.N,+5V*%
X135890000Y-83820000D03*
%TD*%
D10*
%TO.P,K4,16*%
%TO.N,SELECT_1*%
X115570000Y-83820000D03*
%TO.P,K4,13*%
%TO.N,OUT_L*%
X115570000Y-76200000D03*
%TO.P,K4,11*%
%TO.N,N/C*%
X115570000Y-71120000D03*
%TO.P,K4,9*%
%TO.N,Net-(J7-Pad5)*%
X115570000Y-66040000D03*
%TO.P,K4,8*%
%TO.N,Net-(J7-Pad2)*%
X123190000Y-66040000D03*
%TO.P,K4,6*%
%TO.N,N/C*%
X123190000Y-71120000D03*
%TO.P,K4,4*%
%TO.N,OUT_R*%
X123190000Y-76200000D03*
D11*
%TO.P,K4,1*%
%TO.N,+5V*%
X123190000Y-83820000D03*
%TD*%
%TO.P,J3,1*%
%TO.N,SELECT_4*%
%TA.AperFunction,ComponentPad*%
G36*
G01*
X130230000Y-90715000D02*
X130230000Y-92165000D01*
G75*
G02*
X129980000Y-92415000I-250000J0D01*
G01*
X128780000Y-92415000D01*
G75*
G02*
X128530000Y-92165000I0J250000D01*
G01*
X128530000Y-90715000D01*
G75*
G02*
X128780000Y-90465000I250000J0D01*
G01*
X129980000Y-90465000D01*
G75*
G02*
X130230000Y-90715000I0J-250000D01*
G01*
G37*
%TD.AperFunction*%
D12*
%TO.P,J3,2*%
%TO.N,SELECT_3*%
X126880000Y-91440000D03*
%TO.P,J3,3*%
%TO.N,SELECT_2*%
X124380000Y-91440000D03*
%TO.P,J3,4*%
%TO.N,SELECT_1*%
X121880000Y-91440000D03*
%TO.P,J3,5*%
%TO.N,GND*%
X119380000Y-91440000D03*
%TD*%
D13*
%TO.P,D2,1*%
%TO.N,+5V*%
X129540000Y-97790000D03*
D14*
%TO.P,D2,2*%
%TO.N,GND*%
X119380000Y-97790000D03*
%TD*%
%TO.P,J10,1*%
%TO.N,GND*%
%TA.AperFunction,ComponentPad*%
G36*
G01*
X161505000Y-99580000D02*
X161505000Y-101080000D01*
G75*
G02*
X161255000Y-101330000I-250000J0D01*
G01*
X160055000Y-101330000D01*
G75*
G02*
X159805000Y-101080000I0J250000D01*
G01*
X159805000Y-99580000D01*
G75*
G02*
X160055000Y-99330000I250000J0D01*
G01*
X161255000Y-99330000D01*
G75*
G02*
X161505000Y-99580000I0J-250000D01*
G01*
G37*
%TD.AperFunction*%
D15*
%TO.P,J10,2*%
%TO.N,+12V*%
X158155000Y-100330000D03*
%TD*%
%TO.P,J2,1*%
%TO.N,GND*%
%TA.AperFunction,ComponentPad*%
G36*
G01*
X142455000Y-99580000D02*
X142455000Y-101080000D01*
G75*
G02*
X142205000Y-101330000I-250000J0D01*
G01*
X141005000Y-101330000D01*
G75*
G02*
X140755000Y-101080000I0J250000D01*
G01*
X140755000Y-99580000D01*
G75*
G02*
X141005000Y-99330000I250000J0D01*
G01*
X142205000Y-99330000D01*
G75*
G02*
X142455000Y-99580000I0J-250000D01*
G01*
G37*
%TD.AperFunction*%
%TO.P,J2,2*%
%TO.N,+12V*%
X139105000Y-100330000D03*
%TD*%
%TO.P,J13,2*%
%TO.N,+12V*%
X148630000Y-100330000D03*
%TO.P,J13,1*%
%TO.N,GND*%
%TA.AperFunction,ComponentPad*%
G36*
G01*
X151980000Y-99580000D02*
X151980000Y-101080000D01*
G75*
G02*
X151730000Y-101330000I-250000J0D01*
G01*
X150530000Y-101330000D01*
G75*
G02*
X150280000Y-101080000I0J250000D01*
G01*
X150280000Y-99580000D01*
G75*
G02*
X150530000Y-99330000I250000J0D01*
G01*
X151730000Y-99330000D01*
G75*
G02*
X151980000Y-99580000I0J-250000D01*
G01*
G37*
%TD.AperFunction*%
%TD*%
D16*
%TO.P,C3,1*%
%TO.N,+5V*%
X108585000Y-75565000D03*
%TO.P,C3,2*%
%TO.N,GND*%
X108585000Y-70565000D03*
%TD*%
D17*
%TO.P,A1,*%
%TO.N,*%
X169345000Y-106580000D03*
X169345000Y-55980000D03*
%TD*%
D18*
%TO.P,M1,1*%
%TO.N,GND*%
X92075000Y-101600000D03*
%TD*%
%TO.P,M2,1*%
%TO.N,GND*%
X184785000Y-106680000D03*
%TD*%
%TO.P,M3,1*%
%TO.N,GND*%
X184785000Y-53340000D03*
%TD*%
%TO.P,M4,1*%
%TO.N,GND*%
X92075000Y-53340000D03*
%TD*%
D19*
%TO.P,C1,1*%
%TO.N,+12V*%
X103505000Y-83820000D03*
D20*
%TO.P,C1,2*%
%TO.N,GND*%
X108505000Y-83820000D03*
%TD*%
D16*
%TO.P,C2,2*%
%TO.N,GND*%
X102870000Y-71795000D03*
D21*
%TO.P,C2,1*%
%TO.N,+5V*%
X102870000Y-74295000D03*
%TD*%
D14*
%TO.P,D1,2*%
%TO.N,Net-(D1-Pad2)*%
X96520000Y-79375000D03*
D13*
%TO.P,D1,1*%
%TO.N,+12V*%
X96520000Y-89535000D03*
%TD*%
D22*
%TO.P,J4,4*%
%TO.N,N/C*%
X154980000Y-57766000D03*
%TO.P,J4,3*%
X159980000Y-57766000D03*
%TO.P,J4,5*%
%TO.N,Net-(J4-Pad5)*%
X152480000Y-57766000D03*
%TO.P,J4,2*%
%TO.N,Net-(J4-Pad2)*%
X162480000Y-57766000D03*
D23*
%TO.P,J4,1*%
%TO.N,GND*%
X157480000Y-52760000D03*
%TD*%
%TO.P,J5,1*%
%TO.N,GND*%
X144780000Y-52760000D03*
D22*
%TO.P,J5,2*%
%TO.N,Net-(J5-Pad2)*%
X149780000Y-57766000D03*
%TO.P,J5,5*%
%TO.N,Net-(J5-Pad5)*%
X139780000Y-57766000D03*
%TO.P,J5,3*%
%TO.N,N/C*%
X147280000Y-57766000D03*
%TO.P,J5,4*%
X142280000Y-57766000D03*
%TD*%
%TO.P,J6,4*%
%TO.N,N/C*%
X129580000Y-57766000D03*
%TO.P,J6,3*%
X134580000Y-57766000D03*
%TO.P,J6,5*%
%TO.N,Net-(J6-Pad5)*%
X127080000Y-57766000D03*
%TO.P,J6,2*%
%TO.N,Net-(J6-Pad2)*%
X137080000Y-57766000D03*
D23*
%TO.P,J6,1*%
%TO.N,GND*%
X132080000Y-52760000D03*
%TD*%
%TO.P,J7,1*%
%TO.N,GND*%
X119380000Y-52760000D03*
D22*
%TO.P,J7,2*%
%TO.N,Net-(J7-Pad2)*%
X124380000Y-57766000D03*
%TO.P,J7,5*%
%TO.N,Net-(J7-Pad5)*%
X114380000Y-57766000D03*
%TO.P,J7,3*%
%TO.N,N/C*%
X121880000Y-57766000D03*
%TO.P,J7,4*%
X116880000Y-57766000D03*
%TD*%
D23*
%TO.P,J8,1*%
%TO.N,GND*%
X102235000Y-52760000D03*
D22*
%TO.P,J8,2*%
%TO.N,OUT_R*%
X107235000Y-57766000D03*
%TO.P,J8,5*%
%TO.N,OUT_L*%
X97235000Y-57766000D03*
%TO.P,J8,3*%
%TO.N,N/C*%
X104735000Y-57766000D03*
%TO.P,J8,4*%
X99735000Y-57766000D03*
%TD*%
%TO.P,J9,1*%
%TO.N,OUT_R*%
%TA.AperFunction,ComponentPad*%
G36*
G01*
X161505000Y-90715000D02*
X161505000Y-92165000D01*
G75*
G02*
X161255000Y-92415000I-250000J0D01*
G01*
X160055000Y-92415000D01*
G75*
G02*
X159805000Y-92165000I0J250000D01*
G01*
X159805000Y-90715000D01*
G75*
G02*
X160055000Y-90465000I250000J0D01*
G01*
X161255000Y-90465000D01*
G75*
G02*
X161505000Y-90715000I0J-250000D01*
G01*
G37*
%TD.AperFunction*%
D12*
%TO.P,J9,2*%
%TO.N,GND*%
X158155000Y-91440000D03*
%TO.P,J9,3*%
%TO.N,OUT_L*%
X155655000Y-91440000D03*
%TD*%
D15*
%TO.P,J11,2*%
%TO.N,+5V*%
X146090000Y-91440000D03*
%TO.P,J11,1*%
%TO.N,Net-(J11-Pad1)*%
%TA.AperFunction,ComponentPad*%
G36*
G01*
X149440000Y-90690000D02*
X149440000Y-92190000D01*
G75*
G02*
X149190000Y-92440000I-250000J0D01*
G01*
X147990000Y-92440000D01*
G75*
G02*
X147740000Y-92190000I0J250000D01*
G01*
X147740000Y-90690000D01*
G75*
G02*
X147990000Y-90440000I250000J0D01*
G01*
X149190000Y-90440000D01*
G75*
G02*
X149440000Y-90690000I0J-250000D01*
G01*
G37*
%TD.AperFunction*%
%TD*%
%TO.P,J12,1*%
%TO.N,GND*%
%TA.AperFunction,ComponentPad*%
G36*
G01*
X139915000Y-90690000D02*
X139915000Y-92190000D01*
G75*
G02*
X139665000Y-92440000I-250000J0D01*
G01*
X138465000Y-92440000D01*
G75*
G02*
X138215000Y-92190000I0J250000D01*
G01*
X138215000Y-90690000D01*
G75*
G02*
X138465000Y-90440000I250000J0D01*
G01*
X139665000Y-90440000D01*
G75*
G02*
X139915000Y-90690000I0J-250000D01*
G01*
G37*
%TD.AperFunction*%
%TO.P,J12,2*%
%TO.N,+5V*%
X136565000Y-91440000D03*
%TD*%
D16*
%TO.P,R1,1*%
%TO.N,Net-(J11-Pad1)*%
X129540000Y-101600000D03*
D24*
%TO.P,R1,2*%
%TO.N,GND*%
X119380000Y-101600000D03*
%TD*%
D25*
%TO.P,U1,1*%
%TO.N,+12V*%
X92710000Y-86995000D03*
D26*
%TO.P,U1,2*%
%TO.N,GND*%
X92710000Y-84455000D03*
%TO.P,U1,3*%
%TO.N,+5V*%
X92710000Y-81915000D03*
%TD*%
%TO.P,J1,1*%
%TO.N,GND*%
%TA.AperFunction,ComponentPad*%
G36*
G01*
X92595000Y-70905000D02*
X94095000Y-70905000D01*
G75*
G02*
X94345000Y-71155000I0J-250000D01*
G01*
X94345000Y-72355000D01*
G75*
G02*
X94095000Y-72605000I-250000J0D01*
G01*
X92595000Y-72605000D01*
G75*
G02*
X92345000Y-72355000I0J250000D01*
G01*
X92345000Y-71155000D01*
G75*
G02*
X92595000Y-70905000I250000J0D01*
G01*
G37*
%TD.AperFunction*%
D27*
%TO.P,J1,2*%
%TO.N,Net-(D1-Pad2)*%
X93345000Y-74255000D03*
%TD*%
D28*
%TO.N,+5V*%
X154305000Y-85725000D03*
X156845000Y-85725000D03*
%TO.N,SELECT_4*%
X132715000Y-86515500D03*
X132715000Y-84934500D03*
%TO.N,SELECT_3*%
X133513036Y-84331888D03*
X133513036Y-87118112D03*
%TD*%
D29*
%TO.N,+5V*%
X154305000Y-85725000D02*
X156845000Y-85725000D01*
D30*
%TO.N,SELECT_4*%
X132715000Y-86515500D02*
X132715000Y-84934500D01*
%TO.N,SELECT_3*%
X133513036Y-84331888D02*
X133513036Y-87118112D01*
%TD*%
D31*
%TO.N,GND*%
X90051457Y-51136852D02*
X92075000Y-53160395D01*
X94098543Y-51136852D01*
X93892490Y-50825000D01*
X182967510Y-50825000D01*
X182761457Y-51136852D01*
X184785000Y-53160395D01*
X186808543Y-51136852D01*
X186602490Y-50825000D01*
X186657721Y-50825000D01*
X186807869Y-50839722D01*
X186921246Y-50873953D01*
X187025819Y-50929555D01*
X187117596Y-51004407D01*
X187193091Y-51095664D01*
X187249419Y-51199844D01*
X187284440Y-51312976D01*
X187300001Y-51461031D01*
X187300001Y-51522511D01*
X186988148Y-51316457D01*
X184964605Y-53340000D01*
X186988148Y-55363543D01*
X187300001Y-55157489D01*
X187300000Y-104862511D01*
X186988148Y-104656457D01*
X184964605Y-106680000D01*
X186988148Y-108703543D01*
X187300000Y-108497490D01*
X187300000Y-110457721D01*
X187285278Y-110607869D01*
X187251047Y-110721246D01*
X187195446Y-110825817D01*
X187120594Y-110917595D01*
X187029335Y-110993091D01*
X186925160Y-111049419D01*
X186812024Y-111084440D01*
X186663979Y-111100000D01*
X165132279Y-111100000D01*
X164982131Y-111085278D01*
X164868754Y-111051047D01*
X164764183Y-110995446D01*
X164672405Y-110920594D01*
X164596909Y-110829335D01*
X164540581Y-110725160D01*
X164505560Y-110612024D01*
X164490000Y-110463979D01*
X164490000Y-106271229D01*
X166210000Y-106271229D01*
X166210000Y-106888771D01*
X166330476Y-107494446D01*
X166566799Y-108064979D01*
X166909886Y-108578446D01*
X167346554Y-109015114D01*
X167860021Y-109358201D01*
X168430554Y-109594524D01*
X169036229Y-109715000D01*
X169653771Y-109715000D01*
X170259446Y-109594524D01*
X170829979Y-109358201D01*
X171343446Y-109015114D01*
X171475412Y-108883148D01*
X182761457Y-108883148D01*
X183037627Y-109301118D01*
X183582557Y-109591649D01*
X184173696Y-109770287D01*
X184788328Y-109830168D01*
X185402831Y-109768990D01*
X185993592Y-109589103D01*
X186532373Y-109301118D01*
X186808543Y-108883148D01*
X184785000Y-106859605D01*
X182761457Y-108883148D01*
X171475412Y-108883148D01*
X171780114Y-108578446D01*
X172123201Y-108064979D01*
X172359524Y-107494446D01*
X172480000Y-106888771D01*
X172480000Y-106683328D01*
X181634832Y-106683328D01*
X181696010Y-107297831D01*
X181875897Y-107888592D01*
X182163882Y-108427373D01*
X182581852Y-108703543D01*
X184605395Y-106680000D01*
X182581852Y-104656457D01*
X182163882Y-104932627D01*
X181873351Y-105477557D01*
X181694713Y-106068696D01*
X181634832Y-106683328D01*
X172480000Y-106683328D01*
X172480000Y-106271229D01*
X172359524Y-105665554D01*
X172123201Y-105095021D01*
X171780114Y-104581554D01*
X171675412Y-104476852D01*
X182761457Y-104476852D01*
X184785000Y-106500395D01*
X186808543Y-104476852D01*
X186532373Y-104058882D01*
X185987443Y-103768351D01*
X185396304Y-103589713D01*
X184781672Y-103529832D01*
X184167169Y-103591010D01*
X183576408Y-103770897D01*
X183037627Y-104058882D01*
X182761457Y-104476852D01*
X171675412Y-104476852D01*
X171343446Y-104144886D01*
X170829979Y-103801799D01*
X170259446Y-103565476D01*
X169653771Y-103445000D01*
X169036229Y-103445000D01*
X168430554Y-103565476D01*
X167860021Y-103801799D01*
X167346554Y-104144886D01*
X166909886Y-104581554D01*
X166566799Y-105095021D01*
X166330476Y-105665554D01*
X166210000Y-106271229D01*
X164490000Y-106271229D01*
X164490000Y-106012581D01*
X164487198Y-105984135D01*
X164487253Y-105976318D01*
X164486354Y-105967147D01*
X164460446Y-105720644D01*
X164448414Y-105662028D01*
X164437208Y-105603284D01*
X164434544Y-105594462D01*
X164361249Y-105357686D01*
X164338074Y-105302555D01*
X164315661Y-105247080D01*
X164311334Y-105238944D01*
X164193446Y-105020914D01*
X164160012Y-104971346D01*
X164127240Y-104921265D01*
X164121416Y-104914124D01*
X163963423Y-104723144D01*
X163920988Y-104681005D01*
X163879125Y-104638255D01*
X163872024Y-104632381D01*
X163679946Y-104475727D01*
X163630169Y-104442655D01*
X163580763Y-104408826D01*
X163572657Y-104404444D01*
X163353809Y-104288081D01*
X163298532Y-104265298D01*
X163243525Y-104241721D01*
X163234722Y-104238997D01*
X162997441Y-104167357D01*
X162938754Y-104155736D01*
X162880248Y-104143300D01*
X162871085Y-104142337D01*
X162871083Y-104142337D01*
X162624405Y-104118150D01*
X162624402Y-104118150D01*
X162592419Y-104115000D01*
X93892490Y-104115000D01*
X94098543Y-103803148D01*
X92075000Y-101779605D01*
X90051457Y-103803148D01*
X90257510Y-104115000D01*
X90202279Y-104115000D01*
X90052131Y-104100278D01*
X89938754Y-104066047D01*
X89834183Y-104010446D01*
X89742405Y-103935594D01*
X89666909Y-103844335D01*
X89610581Y-103740160D01*
X89575560Y-103627024D01*
X89560000Y-103478979D01*
X89560000Y-103417490D01*
X89871852Y-103623543D01*
X91895395Y-101600000D01*
X92254605Y-101600000D01*
X94278148Y-103623543D01*
X94696118Y-103347373D01*
X94986649Y-102802443D01*
X95165287Y-102211304D01*
X95190838Y-101949039D01*
X117988096Y-101949039D01*
X118028754Y-102083087D01*
X118148963Y-102337420D01*
X118316481Y-102563414D01*
X118524869Y-102752385D01*
X118766119Y-102897070D01*
X119030960Y-102991909D01*
X119253000Y-102870624D01*
X119253000Y-101727000D01*
X119507000Y-101727000D01*
X119507000Y-102870624D01*
X119729040Y-102991909D01*
X119993881Y-102897070D01*
X120235131Y-102752385D01*
X120443519Y-102563414D01*
X120611037Y-102337420D01*
X120731246Y-102083087D01*
X120771904Y-101949039D01*
X120649915Y-101727000D01*
X119507000Y-101727000D01*
X119253000Y-101727000D01*
X118110085Y-101727000D01*
X117988096Y-101949039D01*
X95190838Y-101949039D01*
X95225168Y-101596672D01*
X95190751Y-101250961D01*
X117988096Y-101250961D01*
X118110085Y-101473000D01*
X119253000Y-101473000D01*
X119253000Y-100329376D01*
X119507000Y-100329376D01*
X119507000Y-101473000D01*
X120649915Y-101473000D01*
X120657790Y-101458665D01*
X128105000Y-101458665D01*
X128105000Y-101741335D01*
X128160147Y-102018574D01*
X128268320Y-102279727D01*
X128425363Y-102514759D01*
X128625241Y-102714637D01*
X128860273Y-102871680D01*
X129121426Y-102979853D01*
X129398665Y-103035000D01*
X129681335Y-103035000D01*
X129958574Y-102979853D01*
X130219727Y-102871680D01*
X130454759Y-102714637D01*
X130654637Y-102514759D01*
X130811680Y-102279727D01*
X130919853Y-102018574D01*
X130975000Y-101741335D01*
X130975000Y-101458665D01*
X130919853Y-101181426D01*
X130811680Y-100920273D01*
X130654637Y-100685241D01*
X130454759Y-100485363D01*
X130219727Y-100328320D01*
X129958574Y-100220147D01*
X129681335Y-100165000D01*
X129398665Y-100165000D01*
X129121426Y-100220147D01*
X128860273Y-100328320D01*
X128625241Y-100485363D01*
X128425363Y-100685241D01*
X128268320Y-100920273D01*
X128160147Y-101181426D01*
X128105000Y-101458665D01*
X120657790Y-101458665D01*
X120771904Y-101250961D01*
X120731246Y-101116913D01*
X120611037Y-100862580D01*
X120443519Y-100636586D01*
X120235131Y-100447615D01*
X119993881Y-100302930D01*
X119729040Y-100208091D01*
X119507000Y-100329376D01*
X119253000Y-100329376D01*
X119030960Y-100208091D01*
X118766119Y-100302930D01*
X118524869Y-100447615D01*
X118316481Y-100636586D01*
X118148963Y-100862580D01*
X118028754Y-101116913D01*
X117988096Y-101250961D01*
X95190751Y-101250961D01*
X95163990Y-100982169D01*
X94984103Y-100391408D01*
X94832111Y-100107050D01*
X137620000Y-100107050D01*
X137620000Y-100552949D01*
X137641487Y-100771110D01*
X137726401Y-101051033D01*
X137864294Y-101309013D01*
X138049866Y-101535134D01*
X138275986Y-101720706D01*
X138533966Y-101858599D01*
X138813889Y-101943513D01*
X139105000Y-101972185D01*
X139396110Y-101943513D01*
X139676033Y-101858599D01*
X139934013Y-101720706D01*
X140154945Y-101539392D01*
X140165498Y-101574180D01*
X140224463Y-101684494D01*
X140303815Y-101781185D01*
X140400506Y-101860537D01*
X140510820Y-101919502D01*
X140630518Y-101955812D01*
X140755000Y-101968072D01*
X141319250Y-101965000D01*
X141478000Y-101806250D01*
X141478000Y-100457000D01*
X141732000Y-100457000D01*
X141732000Y-101806250D01*
X141890750Y-101965000D01*
X142455000Y-101968072D01*
X142579482Y-101955812D01*
X142699180Y-101919502D01*
X142809494Y-101860537D01*
X142906185Y-101781185D01*
X142985537Y-101684494D01*
X143044502Y-101574180D01*
X143080812Y-101454482D01*
X143093072Y-101330000D01*
X143090000Y-100615750D01*
X142931250Y-100457000D01*
X141732000Y-100457000D01*
X141478000Y-100457000D01*
X141458000Y-100457000D01*
X141458000Y-100203000D01*
X141478000Y-100203000D01*
X141478000Y-98853750D01*
X141732000Y-98853750D01*
X141732000Y-100203000D01*
X142931250Y-100203000D01*
X143027200Y-100107050D01*
X147145000Y-100107050D01*
X147145000Y-100552949D01*
X147166487Y-100771110D01*
X147251401Y-101051033D01*
X147389294Y-101309013D01*
X147574866Y-101535134D01*
X147800986Y-101720706D01*
X148058966Y-101858599D01*
X148338889Y-101943513D01*
X148630000Y-101972185D01*
X148921110Y-101943513D01*
X149201033Y-101858599D01*
X149459013Y-101720706D01*
X149679945Y-101539392D01*
X149690498Y-101574180D01*
X149749463Y-101684494D01*
X149828815Y-101781185D01*
X149925506Y-101860537D01*
X150035820Y-101919502D01*
X150155518Y-101955812D01*
X150280000Y-101968072D01*
X150844250Y-101965000D01*
X151003000Y-101806250D01*
X151003000Y-100457000D01*
X151257000Y-100457000D01*
X151257000Y-101806250D01*
X151415750Y-101965000D01*
X151980000Y-101968072D01*
X152104482Y-101955812D01*
X152224180Y-101919502D01*
X152334494Y-101860537D01*
X152431185Y-101781185D01*
X152510537Y-101684494D01*
X152569502Y-101574180D01*
X152605812Y-101454482D01*
X152618072Y-101330000D01*
X152615000Y-100615750D01*
X152456250Y-100457000D01*
X151257000Y-100457000D01*
X151003000Y-100457000D01*
X150983000Y-100457000D01*
X150983000Y-100203000D01*
X151003000Y-100203000D01*
X151003000Y-98853750D01*
X151257000Y-98853750D01*
X151257000Y-100203000D01*
X152456250Y-100203000D01*
X152552200Y-100107050D01*
X156670000Y-100107050D01*
X156670000Y-100552949D01*
X156691487Y-100771110D01*
X156776401Y-101051033D01*
X156914294Y-101309013D01*
X157099866Y-101535134D01*
X157325986Y-101720706D01*
X157583966Y-101858599D01*
X157863889Y-101943513D01*
X158155000Y-101972185D01*
X158446110Y-101943513D01*
X158726033Y-101858599D01*
X158984013Y-101720706D01*
X159204945Y-101539392D01*
X159215498Y-101574180D01*
X159274463Y-101684494D01*
X159353815Y-101781185D01*
X159450506Y-101860537D01*
X159560820Y-101919502D01*
X159680518Y-101955812D01*
X159805000Y-101968072D01*
X160369250Y-101965000D01*
X160528000Y-101806250D01*
X160528000Y-100457000D01*
X160782000Y-100457000D01*
X160782000Y-101806250D01*
X160940750Y-101965000D01*
X161505000Y-101968072D01*
X161629482Y-101955812D01*
X161749180Y-101919502D01*
X161859494Y-101860537D01*
X161956185Y-101781185D01*
X162035537Y-101684494D01*
X162094502Y-101574180D01*
X162130812Y-101454482D01*
X162143072Y-101330000D01*
X162140000Y-100615750D01*
X161981250Y-100457000D01*
X160782000Y-100457000D01*
X160528000Y-100457000D01*
X160508000Y-100457000D01*
X160508000Y-100203000D01*
X160528000Y-100203000D01*
X160528000Y-98853750D01*
X160782000Y-98853750D01*
X160782000Y-100203000D01*
X161981250Y-100203000D01*
X162140000Y-100044250D01*
X162143072Y-99330000D01*
X162130812Y-99205518D01*
X162094502Y-99085820D01*
X162035537Y-98975506D01*
X161956185Y-98878815D01*
X161859494Y-98799463D01*
X161749180Y-98740498D01*
X161629482Y-98704188D01*
X161505000Y-98691928D01*
X160940750Y-98695000D01*
X160782000Y-98853750D01*
X160528000Y-98853750D01*
X160369250Y-98695000D01*
X159805000Y-98691928D01*
X159680518Y-98704188D01*
X159560820Y-98740498D01*
X159450506Y-98799463D01*
X159353815Y-98878815D01*
X159274463Y-98975506D01*
X159215498Y-99085820D01*
X159204945Y-99120608D01*
X158984014Y-98939294D01*
X158726034Y-98801401D01*
X158446111Y-98716487D01*
X158155000Y-98687815D01*
X157863890Y-98716487D01*
X157583967Y-98801401D01*
X157325987Y-98939294D01*
X157099866Y-99124866D01*
X156914294Y-99350986D01*
X156776401Y-99608966D01*
X156691487Y-99888889D01*
X156670000Y-100107050D01*
X152552200Y-100107050D01*
X152615000Y-100044250D01*
X152618072Y-99330000D01*
X152605812Y-99205518D01*
X152569502Y-99085820D01*
X152510537Y-98975506D01*
X152431185Y-98878815D01*
X152334494Y-98799463D01*
X152224180Y-98740498D01*
X152104482Y-98704188D01*
X151980000Y-98691928D01*
X151415750Y-98695000D01*
X151257000Y-98853750D01*
X151003000Y-98853750D01*
X150844250Y-98695000D01*
X150280000Y-98691928D01*
X150155518Y-98704188D01*
X150035820Y-98740498D01*
X149925506Y-98799463D01*
X149828815Y-98878815D01*
X149749463Y-98975506D01*
X149690498Y-99085820D01*
X149679945Y-99120608D01*
X149459014Y-98939294D01*
X149201034Y-98801401D01*
X148921111Y-98716487D01*
X148630000Y-98687815D01*
X148338890Y-98716487D01*
X148058967Y-98801401D01*
X147800987Y-98939294D01*
X147574866Y-99124866D01*
X147389294Y-99350986D01*
X147251401Y-99608966D01*
X147166487Y-99888889D01*
X147145000Y-100107050D01*
X143027200Y-100107050D01*
X143090000Y-100044250D01*
X143093072Y-99330000D01*
X143080812Y-99205518D01*
X143044502Y-99085820D01*
X142985537Y-98975506D01*
X142906185Y-98878815D01*
X142809494Y-98799463D01*
X142699180Y-98740498D01*
X142579482Y-98704188D01*
X142455000Y-98691928D01*
X141890750Y-98695000D01*
X141732000Y-98853750D01*
X141478000Y-98853750D01*
X141319250Y-98695000D01*
X140755000Y-98691928D01*
X140630518Y-98704188D01*
X140510820Y-98740498D01*
X140400506Y-98799463D01*
X140303815Y-98878815D01*
X140224463Y-98975506D01*
X140165498Y-99085820D01*
X140154945Y-99120608D01*
X139934014Y-98939294D01*
X139676034Y-98801401D01*
X139396111Y-98716487D01*
X139105000Y-98687815D01*
X138813890Y-98716487D01*
X138533967Y-98801401D01*
X138275987Y-98939294D01*
X138049866Y-99124866D01*
X137864294Y-99350986D01*
X137726401Y-99608966D01*
X137641487Y-99888889D01*
X137620000Y-100107050D01*
X94832111Y-100107050D01*
X94696118Y-99852627D01*
X94278148Y-99576457D01*
X92254605Y-101600000D01*
X91895395Y-101600000D01*
X89871852Y-99576457D01*
X89560000Y-99782510D01*
X89560000Y-99396852D01*
X90051457Y-99396852D01*
X92075000Y-101420395D01*
X94098543Y-99396852D01*
X93822373Y-98978882D01*
X93277443Y-98688351D01*
X92686304Y-98509713D01*
X92071672Y-98449832D01*
X91457169Y-98511010D01*
X90866408Y-98690897D01*
X90327627Y-98978882D01*
X90051457Y-99396852D01*
X89560000Y-99396852D01*
X89560000Y-98186122D01*
X117690825Y-98186122D01*
X117755425Y-98399094D01*
X117905469Y-98704329D01*
X118112178Y-98974427D01*
X118367609Y-99199008D01*
X118661946Y-99369442D01*
X118983877Y-99479179D01*
X119253000Y-99361600D01*
X119253000Y-97917000D01*
X119507000Y-97917000D01*
X119507000Y-99361600D01*
X119776123Y-99479179D01*
X120098054Y-99369442D01*
X120392391Y-99199008D01*
X120647822Y-98974427D01*
X120854531Y-98704329D01*
X121004575Y-98399094D01*
X121069175Y-98186122D01*
X120951125Y-97917000D01*
X119507000Y-97917000D01*
X119253000Y-97917000D01*
X117808875Y-97917000D01*
X117690825Y-98186122D01*
X89560000Y-98186122D01*
X89560000Y-97147394D01*
X117602228Y-97147394D01*
X117604440Y-97179776D01*
X117611667Y-97203601D01*
X117623403Y-97225557D01*
X117639197Y-97244803D01*
X117658443Y-97260597D01*
X117680399Y-97272333D01*
X117704224Y-97279560D01*
X117724884Y-97281595D01*
X117690825Y-97393878D01*
X117808875Y-97663000D01*
X119253000Y-97663000D01*
X119253000Y-97643000D01*
X119507000Y-97643000D01*
X119507000Y-97663000D01*
X120951125Y-97663000D01*
X121069175Y-97393878D01*
X121035080Y-97281474D01*
X121063192Y-97277852D01*
X121086541Y-97269211D01*
X121107755Y-97256181D01*
X121126020Y-97239263D01*
X121140633Y-97219106D01*
X121151033Y-97196486D01*
X121156820Y-97172272D01*
X121157772Y-97147394D01*
X121130329Y-96690000D01*
X127801928Y-96690000D01*
X127801928Y-98890000D01*
X127814188Y-99014482D01*
X127850498Y-99134180D01*
X127909463Y-99244494D01*
X127988815Y-99341185D01*
X128085506Y-99420537D01*
X128195820Y-99479502D01*
X128315518Y-99515812D01*
X128440000Y-99528072D01*
X130640000Y-99528072D01*
X130764482Y-99515812D01*
X130884180Y-99479502D01*
X130994494Y-99420537D01*
X131091185Y-99341185D01*
X131170537Y-99244494D01*
X131229502Y-99134180D01*
X131265812Y-99014482D01*
X131278072Y-98890000D01*
X131278072Y-96690000D01*
X131265812Y-96565518D01*
X131229502Y-96445820D01*
X131170537Y-96335506D01*
X131091185Y-96238815D01*
X130994494Y-96159463D01*
X130884180Y-96100498D01*
X130764482Y-96064188D01*
X130640000Y-96051928D01*
X128440000Y-96051928D01*
X128315518Y-96064188D01*
X128195820Y-96100498D01*
X128085506Y-96159463D01*
X127988815Y-96238815D01*
X127909463Y-96335506D01*
X127850498Y-96445820D01*
X127814188Y-96565518D01*
X127801928Y-96690000D01*
X121130329Y-96690000D01*
X120889310Y-92673022D01*
X121050986Y-92805706D01*
X121308966Y-92943599D01*
X121588889Y-93028513D01*
X121880000Y-93057185D01*
X122171110Y-93028513D01*
X122451033Y-92943599D01*
X122709013Y-92805706D01*
X122935134Y-92620134D01*
X123120706Y-92394014D01*
X123130000Y-92376626D01*
X123139294Y-92394013D01*
X123324866Y-92620134D01*
X123550986Y-92805706D01*
X123808966Y-92943599D01*
X124088889Y-93028513D01*
X124380000Y-93057185D01*
X124671110Y-93028513D01*
X124951033Y-92943599D01*
X125209013Y-92805706D01*
X125435134Y-92620134D01*
X125620706Y-92394014D01*
X125630000Y-92376626D01*
X125639294Y-92394013D01*
X125824866Y-92620134D01*
X126050986Y-92805706D01*
X126308966Y-92943599D01*
X126588889Y-93028513D01*
X126880000Y-93057185D01*
X127171110Y-93028513D01*
X127451033Y-92943599D01*
X127709013Y-92805706D01*
X127935134Y-92620134D01*
X127987223Y-92556663D01*
X128041595Y-92658386D01*
X128152038Y-92792962D01*
X128286614Y-92903405D01*
X128440150Y-92985472D01*
X128606746Y-93036008D01*
X128780000Y-93053072D01*
X129980000Y-93053072D01*
X130153254Y-93036008D01*
X130319850Y-92985472D01*
X130473386Y-92903405D01*
X130607962Y-92792962D01*
X130718405Y-92658386D01*
X130800472Y-92504850D01*
X130851008Y-92338254D01*
X130868072Y-92165000D01*
X130868072Y-91217050D01*
X135080000Y-91217050D01*
X135080000Y-91662949D01*
X135101487Y-91881110D01*
X135186401Y-92161033D01*
X135324294Y-92419013D01*
X135509866Y-92645134D01*
X135735986Y-92830706D01*
X135993966Y-92968599D01*
X136273889Y-93053513D01*
X136565000Y-93082185D01*
X136856110Y-93053513D01*
X137136033Y-92968599D01*
X137394013Y-92830706D01*
X137614945Y-92649392D01*
X137625498Y-92684180D01*
X137684463Y-92794494D01*
X137763815Y-92891185D01*
X137860506Y-92970537D01*
X137970820Y-93029502D01*
X138090518Y-93065812D01*
X138215000Y-93078072D01*
X138779250Y-93075000D01*
X138938000Y-92916250D01*
X138938000Y-91567000D01*
X139192000Y-91567000D01*
X139192000Y-92916250D01*
X139350750Y-93075000D01*
X139915000Y-93078072D01*
X140039482Y-93065812D01*
X140159180Y-93029502D01*
X140269494Y-92970537D01*
X140366185Y-92891185D01*
X140445537Y-92794494D01*
X140504502Y-92684180D01*
X140540812Y-92564482D01*
X140553072Y-92440000D01*
X140550000Y-91725750D01*
X140391250Y-91567000D01*
X139192000Y-91567000D01*
X138938000Y-91567000D01*
X138918000Y-91567000D01*
X138918000Y-91313000D01*
X138938000Y-91313000D01*
X138938000Y-89963750D01*
X139192000Y-89963750D01*
X139192000Y-91313000D01*
X140391250Y-91313000D01*
X140487200Y-91217050D01*
X144605000Y-91217050D01*
X144605000Y-91662949D01*
X144626487Y-91881110D01*
X144711401Y-92161033D01*
X144849294Y-92419013D01*
X145034866Y-92645134D01*
X145260986Y-92830706D01*
X145518966Y-92968599D01*
X145798889Y-93053513D01*
X146090000Y-93082185D01*
X146381110Y-93053513D01*
X146661033Y-92968599D01*
X146919013Y-92830706D01*
X147145134Y-92645134D01*
X147197223Y-92581663D01*
X147251595Y-92683386D01*
X147362038Y-92817962D01*
X147496614Y-92928405D01*
X147650150Y-93010472D01*
X147816746Y-93061008D01*
X147990000Y-93078072D01*
X149190000Y-93078072D01*
X149363254Y-93061008D01*
X149529850Y-93010472D01*
X149683386Y-92928405D01*
X149817962Y-92817962D01*
X149928405Y-92683386D01*
X150010472Y-92529850D01*
X150061008Y-92363254D01*
X150078072Y-92190000D01*
X150078072Y-91242050D01*
X154170000Y-91242050D01*
X154170000Y-91637949D01*
X154191487Y-91856110D01*
X154276401Y-92136033D01*
X154414294Y-92394013D01*
X154599866Y-92620134D01*
X154825986Y-92805706D01*
X155083966Y-92943599D01*
X155363889Y-93028513D01*
X155655000Y-93057185D01*
X155946110Y-93028513D01*
X156226033Y-92943599D01*
X156484013Y-92805706D01*
X156710134Y-92620134D01*
X156895706Y-92394014D01*
X156909462Y-92368278D01*
X157065951Y-92574429D01*
X157283807Y-92767496D01*
X157535142Y-92914352D01*
X157798110Y-93006476D01*
X158028000Y-92885155D01*
X158028000Y-91567000D01*
X158008000Y-91567000D01*
X158008000Y-91313000D01*
X158028000Y-91313000D01*
X158028000Y-89994845D01*
X158282000Y-89994845D01*
X158282000Y-91313000D01*
X158302000Y-91313000D01*
X158302000Y-91567000D01*
X158282000Y-91567000D01*
X158282000Y-92885155D01*
X158511890Y-93006476D01*
X158774858Y-92914352D01*
X159026193Y-92767496D01*
X159244049Y-92574429D01*
X159260286Y-92553039D01*
X159316595Y-92658386D01*
X159427038Y-92792962D01*
X159561614Y-92903405D01*
X159715150Y-92985472D01*
X159881746Y-93036008D01*
X160055000Y-93053072D01*
X161255000Y-93053072D01*
X161428254Y-93036008D01*
X161594850Y-92985472D01*
X161748386Y-92903405D01*
X161882962Y-92792962D01*
X161993405Y-92658386D01*
X162075472Y-92504850D01*
X162126008Y-92338254D01*
X162143072Y-92165000D01*
X162143072Y-90715000D01*
X162126008Y-90541746D01*
X162075472Y-90375150D01*
X161993405Y-90221614D01*
X161882962Y-90087038D01*
X161748386Y-89976595D01*
X161594850Y-89894528D01*
X161428254Y-89843992D01*
X161255000Y-89826928D01*
X160055000Y-89826928D01*
X159881746Y-89843992D01*
X159715150Y-89894528D01*
X159561614Y-89976595D01*
X159427038Y-90087038D01*
X159316595Y-90221614D01*
X159260286Y-90326961D01*
X159244049Y-90305571D01*
X159026193Y-90112504D01*
X158774858Y-89965648D01*
X158511890Y-89873524D01*
X158282000Y-89994845D01*
X158028000Y-89994845D01*
X157798110Y-89873524D01*
X157535142Y-89965648D01*
X157283807Y-90112504D01*
X157065951Y-90305571D01*
X156909462Y-90511722D01*
X156895706Y-90485986D01*
X156710134Y-90259866D01*
X156484014Y-90074294D01*
X156226034Y-89936401D01*
X155946111Y-89851487D01*
X155655000Y-89822815D01*
X155363890Y-89851487D01*
X155083967Y-89936401D01*
X154825987Y-90074294D01*
X154599866Y-90259866D01*
X154414294Y-90485986D01*
X154276401Y-90743966D01*
X154191487Y-91023889D01*
X154170000Y-91242050D01*
X150078072Y-91242050D01*
X150078072Y-90690000D01*
X150061008Y-90516746D01*
X150010472Y-90350150D01*
X149928405Y-90196614D01*
X149817962Y-90062038D01*
X149683386Y-89951595D01*
X149529850Y-89869528D01*
X149363254Y-89818992D01*
X149190000Y-89801928D01*
X147990000Y-89801928D01*
X147816746Y-89818992D01*
X147650150Y-89869528D01*
X147496614Y-89951595D01*
X147362038Y-90062038D01*
X147251595Y-90196614D01*
X147197223Y-90298337D01*
X147145134Y-90234866D01*
X146919014Y-90049294D01*
X146661034Y-89911401D01*
X146381111Y-89826487D01*
X146090000Y-89797815D01*
X145798890Y-89826487D01*
X145518967Y-89911401D01*
X145260987Y-90049294D01*
X145034866Y-90234866D01*
X144849294Y-90460986D01*
X144711401Y-90718966D01*
X144626487Y-90998889D01*
X144605000Y-91217050D01*
X140487200Y-91217050D01*
X140550000Y-91154250D01*
X140553072Y-90440000D01*
X140540812Y-90315518D01*
X140504502Y-90195820D01*
X140445537Y-90085506D01*
X140366185Y-89988815D01*
X140269494Y-89909463D01*
X140159180Y-89850498D01*
X140039482Y-89814188D01*
X139915000Y-89801928D01*
X139350750Y-89805000D01*
X139192000Y-89963750D01*
X138938000Y-89963750D01*
X138779250Y-89805000D01*
X138215000Y-89801928D01*
X138090518Y-89814188D01*
X137970820Y-89850498D01*
X137860506Y-89909463D01*
X137763815Y-89988815D01*
X137684463Y-90085506D01*
X137625498Y-90195820D01*
X137614945Y-90230608D01*
X137394014Y-90049294D01*
X137136034Y-89911401D01*
X136856111Y-89826487D01*
X136565000Y-89797815D01*
X136273890Y-89826487D01*
X135993967Y-89911401D01*
X135735987Y-90049294D01*
X135509866Y-90234866D01*
X135324294Y-90460986D01*
X135186401Y-90718966D01*
X135101487Y-90998889D01*
X135080000Y-91217050D01*
X130868072Y-91217050D01*
X130868072Y-90715000D01*
X130851008Y-90541746D01*
X130800472Y-90375150D01*
X130718405Y-90221614D01*
X130607962Y-90087038D01*
X130473386Y-89976595D01*
X130319850Y-89894528D01*
X130153254Y-89843992D01*
X129980000Y-89826928D01*
X128780000Y-89826928D01*
X128606746Y-89843992D01*
X128440150Y-89894528D01*
X128286614Y-89976595D01*
X128152038Y-90087038D01*
X128041595Y-90221614D01*
X127987223Y-90323337D01*
X127935134Y-90259866D01*
X127709014Y-90074294D01*
X127451034Y-89936401D01*
X127171111Y-89851487D01*
X126880000Y-89822815D01*
X126588890Y-89851487D01*
X126308967Y-89936401D01*
X126050987Y-90074294D01*
X125824866Y-90259866D01*
X125639294Y-90485986D01*
X125630000Y-90503374D01*
X125620706Y-90485986D01*
X125435134Y-90259866D01*
X125209014Y-90074294D01*
X124951034Y-89936401D01*
X124671111Y-89851487D01*
X124380000Y-89822815D01*
X124088890Y-89851487D01*
X123808967Y-89936401D01*
X123550987Y-90074294D01*
X123324866Y-90259866D01*
X123139294Y-90485986D01*
X123130000Y-90503374D01*
X123120706Y-90485986D01*
X122935134Y-90259866D01*
X122709014Y-90074294D01*
X122451034Y-89936401D01*
X122171111Y-89851487D01*
X121880000Y-89822815D01*
X121588890Y-89851487D01*
X121308967Y-89936401D01*
X121050987Y-90074294D01*
X120824866Y-90259866D01*
X120639294Y-90485986D01*
X120625538Y-90511722D01*
X120469049Y-90305571D01*
X120415332Y-90257966D01*
X120118344Y-89842183D01*
X120104803Y-89826197D01*
X120085557Y-89810403D01*
X120063601Y-89798667D01*
X120039776Y-89791440D01*
X120015000Y-89789000D01*
X118745000Y-89789000D01*
X118724121Y-89790728D01*
X118700083Y-89797208D01*
X118677771Y-89808254D01*
X118658043Y-89823440D01*
X118641656Y-89842183D01*
X118344668Y-90257966D01*
X118290951Y-90305571D01*
X118114947Y-90537430D01*
X118050568Y-90669706D01*
X118006656Y-90731183D01*
X117995789Y-90749459D01*
X117987148Y-90772808D01*
X117983228Y-90797394D01*
X117981806Y-90821091D01*
X117913680Y-91080733D01*
X117961475Y-91159940D01*
X117924157Y-91781904D01*
X117913680Y-91799267D01*
X117921360Y-91828535D01*
X117602228Y-97147394D01*
X89560000Y-97147394D01*
X89560000Y-86042500D01*
X91071928Y-86042500D01*
X91071928Y-87947500D01*
X91084188Y-88071982D01*
X91120498Y-88191680D01*
X91179463Y-88301994D01*
X91258815Y-88398685D01*
X91355506Y-88478037D01*
X91465820Y-88537002D01*
X91585518Y-88573312D01*
X91710000Y-88585572D01*
X93710000Y-88585572D01*
X93834482Y-88573312D01*
X93954180Y-88537002D01*
X94064494Y-88478037D01*
X94116934Y-88435000D01*
X94781928Y-88435000D01*
X94781928Y-90635000D01*
X94794188Y-90759482D01*
X94830498Y-90879180D01*
X94889463Y-90989494D01*
X94968815Y-91086185D01*
X95065506Y-91165537D01*
X95175820Y-91224502D01*
X95295518Y-91260812D01*
X95420000Y-91273072D01*
X97620000Y-91273072D01*
X97744482Y-91260812D01*
X97864180Y-91224502D01*
X97974494Y-91165537D01*
X98071185Y-91086185D01*
X98150537Y-90989494D01*
X98209502Y-90879180D01*
X98245812Y-90759482D01*
X98258072Y-90635000D01*
X98258072Y-88435000D01*
X98245812Y-88310518D01*
X98209502Y-88190820D01*
X98150537Y-88080506D01*
X98071185Y-87983815D01*
X97974494Y-87904463D01*
X97864180Y-87845498D01*
X97744482Y-87809188D01*
X97620000Y-87796928D01*
X95420000Y-87796928D01*
X95295518Y-87809188D01*
X95175820Y-87845498D01*
X95065506Y-87904463D01*
X94968815Y-87983815D01*
X94889463Y-88080506D01*
X94830498Y-88190820D01*
X94794188Y-88310518D01*
X94781928Y-88435000D01*
X94116934Y-88435000D01*
X94161185Y-88398685D01*
X94240537Y-88301994D01*
X94299502Y-88191680D01*
X94335812Y-88071982D01*
X94348072Y-87947500D01*
X94348072Y-86042500D01*
X94335812Y-85918018D01*
X94299502Y-85798320D01*
X94240537Y-85688006D01*
X94161185Y-85591315D01*
X94064494Y-85511963D01*
X93972781Y-85462941D01*
X94085969Y-85321923D01*
X94229571Y-85046094D01*
X94300563Y-84827980D01*
X94180594Y-84582000D01*
X92837000Y-84582000D01*
X92837000Y-84602000D01*
X92583000Y-84602000D01*
X92583000Y-84582000D01*
X91239406Y-84582000D01*
X91119437Y-84827980D01*
X91190429Y-85046094D01*
X91334031Y-85321923D01*
X91447219Y-85462941D01*
X91355506Y-85511963D01*
X91258815Y-85591315D01*
X91179463Y-85688006D01*
X91120498Y-85798320D01*
X91084188Y-85918018D01*
X91071928Y-86042500D01*
X89560000Y-86042500D01*
X89560000Y-81915000D01*
X91067319Y-81915000D01*
X91097970Y-82226204D01*
X91188745Y-82525449D01*
X91336155Y-82801235D01*
X91534537Y-83042963D01*
X91713899Y-83190163D01*
X91528685Y-83345563D01*
X91334031Y-83588077D01*
X91190429Y-83863906D01*
X91119437Y-84082020D01*
X91239406Y-84328000D01*
X92583000Y-84328000D01*
X92583000Y-84308000D01*
X92837000Y-84308000D01*
X92837000Y-84328000D01*
X94180594Y-84328000D01*
X94300563Y-84082020D01*
X94229571Y-83863906D01*
X94085969Y-83588077D01*
X93891315Y-83345563D01*
X93706101Y-83190163D01*
X93885463Y-83042963D01*
X94083845Y-82801235D01*
X94180716Y-82620000D01*
X101666928Y-82620000D01*
X101666928Y-85020000D01*
X101679188Y-85144482D01*
X101715498Y-85264180D01*
X101774463Y-85374494D01*
X101853815Y-85471185D01*
X101950506Y-85550537D01*
X102060820Y-85609502D01*
X102180518Y-85645812D01*
X102305000Y-85658072D01*
X104705000Y-85658072D01*
X104829482Y-85645812D01*
X104949180Y-85609502D01*
X105059494Y-85550537D01*
X105156185Y-85471185D01*
X105235537Y-85374494D01*
X105294502Y-85264180D01*
X105330812Y-85144482D01*
X105335391Y-85097980D01*
X107406626Y-85097980D01*
X107526514Y-85382836D01*
X107850210Y-85543699D01*
X108199069Y-85638322D01*
X108559684Y-85663067D01*
X108918198Y-85616985D01*
X109260833Y-85501846D01*
X109483486Y-85382836D01*
X109603374Y-85097980D01*
X108505000Y-83999605D01*
X107406626Y-85097980D01*
X105335391Y-85097980D01*
X105343072Y-85020000D01*
X105343072Y-83874684D01*
X106661933Y-83874684D01*
X106708015Y-84233198D01*
X106823154Y-84575833D01*
X106942164Y-84798486D01*
X107227020Y-84918374D01*
X108325395Y-83820000D01*
X108684605Y-83820000D01*
X109782980Y-84918374D01*
X110067836Y-84798486D01*
X110228699Y-84474790D01*
X110323322Y-84125931D01*
X110348067Y-83765316D01*
X110313270Y-83494593D01*
X114035000Y-83494593D01*
X114035000Y-84145408D01*
X114057210Y-84370913D01*
X114144983Y-84660261D01*
X114287519Y-84926927D01*
X114479339Y-85160661D01*
X114713074Y-85352481D01*
X114979740Y-85495017D01*
X115269088Y-85582790D01*
X115570000Y-85612427D01*
X115870913Y-85582790D01*
X116160261Y-85495017D01*
X116426927Y-85352481D01*
X116660661Y-85160661D01*
X116852481Y-84926927D01*
X116995017Y-84660261D01*
X117082790Y-84370912D01*
X117105000Y-84145407D01*
X117105000Y-83494592D01*
X117082790Y-83269087D01*
X116995017Y-82979739D01*
X116852481Y-82713073D01*
X116817133Y-82670000D01*
X121651928Y-82670000D01*
X121651928Y-84970000D01*
X121664188Y-85094482D01*
X121700498Y-85214180D01*
X121759463Y-85324494D01*
X121838815Y-85421185D01*
X121935506Y-85500537D01*
X122045820Y-85559502D01*
X122165518Y-85595812D01*
X122290000Y-85608072D01*
X124090000Y-85608072D01*
X124214482Y-85595812D01*
X124334180Y-85559502D01*
X124444494Y-85500537D01*
X124541185Y-85421185D01*
X124620537Y-85324494D01*
X124679502Y-85214180D01*
X124715812Y-85094482D01*
X124728072Y-84970000D01*
X124728072Y-83494593D01*
X126735000Y-83494593D01*
X126735000Y-84145408D01*
X126757210Y-84370913D01*
X126844983Y-84660261D01*
X126987519Y-84926927D01*
X127179339Y-85160661D01*
X127413074Y-85352481D01*
X127679740Y-85495017D01*
X127969088Y-85582790D01*
X128270000Y-85612427D01*
X128570913Y-85582790D01*
X128860261Y-85495017D01*
X129126927Y-85352481D01*
X129360661Y-85160661D01*
X129552481Y-84926927D01*
X129602920Y-84832561D01*
X131680000Y-84832561D01*
X131680000Y-85036439D01*
X131719774Y-85236398D01*
X131797795Y-85424756D01*
X131911063Y-85594274D01*
X131955001Y-85638212D01*
X131955000Y-85811789D01*
X131911063Y-85855726D01*
X131797795Y-86025244D01*
X131719774Y-86213602D01*
X131680000Y-86413561D01*
X131680000Y-86617439D01*
X131719774Y-86817398D01*
X131797795Y-87005756D01*
X131911063Y-87175274D01*
X132055226Y-87319437D01*
X132224744Y-87432705D01*
X132413102Y-87510726D01*
X132568162Y-87541569D01*
X132595831Y-87608368D01*
X132709099Y-87777886D01*
X132853262Y-87922049D01*
X133022780Y-88035317D01*
X133211138Y-88113338D01*
X133411097Y-88153112D01*
X133614975Y-88153112D01*
X133814934Y-88113338D01*
X134003292Y-88035317D01*
X134172810Y-87922049D01*
X134316973Y-87777886D01*
X134430241Y-87608368D01*
X134508262Y-87420010D01*
X134548036Y-87220051D01*
X134548036Y-87016173D01*
X134508262Y-86816214D01*
X134430241Y-86627856D01*
X134316973Y-86458338D01*
X134273036Y-86414401D01*
X134273036Y-85035599D01*
X134316973Y-84991662D01*
X134351928Y-84939348D01*
X134351928Y-84970000D01*
X134364188Y-85094482D01*
X134400498Y-85214180D01*
X134459463Y-85324494D01*
X134538815Y-85421185D01*
X134635506Y-85500537D01*
X134745820Y-85559502D01*
X134865518Y-85595812D01*
X134990000Y-85608072D01*
X136790000Y-85608072D01*
X136914482Y-85595812D01*
X137034180Y-85559502D01*
X137144494Y-85500537D01*
X137241185Y-85421185D01*
X137320537Y-85324494D01*
X137379502Y-85214180D01*
X137415812Y-85094482D01*
X137428072Y-84970000D01*
X137428072Y-83494593D01*
X139435000Y-83494593D01*
X139435000Y-84145408D01*
X139457210Y-84370913D01*
X139544983Y-84660261D01*
X139687519Y-84926927D01*
X139879339Y-85160661D01*
X140113074Y-85352481D01*
X140379740Y-85495017D01*
X140669088Y-85582790D01*
X140970000Y-85612427D01*
X141270913Y-85582790D01*
X141560261Y-85495017D01*
X141826927Y-85352481D01*
X142060661Y-85160661D01*
X142252481Y-84926927D01*
X142395017Y-84660261D01*
X142482790Y-84370912D01*
X142505000Y-84145407D01*
X142505000Y-83494592D01*
X142482790Y-83269087D01*
X142395017Y-82979739D01*
X142252481Y-82713073D01*
X142217133Y-82670000D01*
X147051928Y-82670000D01*
X147051928Y-84970000D01*
X147064188Y-85094482D01*
X147100498Y-85214180D01*
X147159463Y-85324494D01*
X147238815Y-85421185D01*
X147335506Y-85500537D01*
X147445820Y-85559502D01*
X147565518Y-85595812D01*
X147690000Y-85608072D01*
X149490000Y-85608072D01*
X149614482Y-85595812D01*
X149734180Y-85559502D01*
X149844494Y-85500537D01*
X149941185Y-85421185D01*
X150020537Y-85324494D01*
X150079502Y-85214180D01*
X150115812Y-85094482D01*
X150128072Y-84970000D01*
X150128072Y-83494593D01*
X152135000Y-83494593D01*
X152135000Y-84145408D01*
X152157210Y-84370913D01*
X152244983Y-84660261D01*
X152387519Y-84926927D01*
X152579339Y-85160661D01*
X152813074Y-85352481D01*
X153079740Y-85495017D01*
X153283193Y-85556734D01*
X153270000Y-85623061D01*
X153270000Y-85826939D01*
X153309774Y-86026898D01*
X153387795Y-86215256D01*
X153501063Y-86384774D01*
X153645226Y-86528937D01*
X153814744Y-86642205D01*
X154003102Y-86720226D01*
X154203061Y-86760000D01*
X154406939Y-86760000D01*
X154606898Y-86720226D01*
X154795256Y-86642205D01*
X154932503Y-86550500D01*
X156217497Y-86550500D01*
X156354744Y-86642205D01*
X156543102Y-86720226D01*
X156743061Y-86760000D01*
X156946939Y-86760000D01*
X157146898Y-86720226D01*
X157335256Y-86642205D01*
X157504774Y-86528937D01*
X157648937Y-86384774D01*
X157762205Y-86215256D01*
X157840226Y-86026898D01*
X157880000Y-85826939D01*
X157880000Y-85623061D01*
X157840226Y-85423102D01*
X157762205Y-85234744D01*
X157648937Y-85065226D01*
X157504774Y-84921063D01*
X157335256Y-84807795D01*
X157146898Y-84729774D01*
X156946939Y-84690000D01*
X156743061Y-84690000D01*
X156543102Y-84729774D01*
X156354744Y-84807795D01*
X156217497Y-84899500D01*
X154967141Y-84899500D01*
X155095017Y-84660261D01*
X155182790Y-84370912D01*
X155205000Y-84145407D01*
X155205000Y-83494592D01*
X155182790Y-83269087D01*
X155095017Y-82979739D01*
X154952481Y-82713073D01*
X154917133Y-82670000D01*
X159751928Y-82670000D01*
X159751928Y-84970000D01*
X159764188Y-85094482D01*
X159800498Y-85214180D01*
X159859463Y-85324494D01*
X159938815Y-85421185D01*
X160035506Y-85500537D01*
X160145820Y-85559502D01*
X160265518Y-85595812D01*
X160390000Y-85608072D01*
X162190000Y-85608072D01*
X162314482Y-85595812D01*
X162434180Y-85559502D01*
X162544494Y-85500537D01*
X162641185Y-85421185D01*
X162720537Y-85324494D01*
X162779502Y-85214180D01*
X162815812Y-85094482D01*
X162828072Y-84970000D01*
X162828072Y-82670000D01*
X162815812Y-82545518D01*
X162779502Y-82425820D01*
X162720537Y-82315506D01*
X162641185Y-82218815D01*
X162544494Y-82139463D01*
X162434180Y-82080498D01*
X162314482Y-82044188D01*
X162190000Y-82031928D01*
X160390000Y-82031928D01*
X160265518Y-82044188D01*
X160145820Y-82080498D01*
X160035506Y-82139463D01*
X159938815Y-82218815D01*
X159859463Y-82315506D01*
X159800498Y-82425820D01*
X159764188Y-82545518D01*
X159751928Y-82670000D01*
X154917133Y-82670000D01*
X154760661Y-82479339D01*
X154526926Y-82287519D01*
X154260260Y-82144983D01*
X153970912Y-82057210D01*
X153670000Y-82027573D01*
X153369087Y-82057210D01*
X153079739Y-82144983D01*
X152813073Y-82287519D01*
X152579339Y-82479339D01*
X152387519Y-82713074D01*
X152244983Y-82979740D01*
X152157210Y-83269088D01*
X152135000Y-83494593D01*
X150128072Y-83494593D01*
X150128072Y-82670000D01*
X150115812Y-82545518D01*
X150079502Y-82425820D01*
X150020537Y-82315506D01*
X149941185Y-82218815D01*
X149844494Y-82139463D01*
X149734180Y-82080498D01*
X149614482Y-82044188D01*
X149490000Y-82031928D01*
X147690000Y-82031928D01*
X147565518Y-82044188D01*
X147445820Y-82080498D01*
X147335506Y-82139463D01*
X147238815Y-82218815D01*
X147159463Y-82315506D01*
X147100498Y-82425820D01*
X147064188Y-82545518D01*
X147051928Y-82670000D01*
X142217133Y-82670000D01*
X142060661Y-82479339D01*
X141826926Y-82287519D01*
X141560260Y-82144983D01*
X141270912Y-82057210D01*
X140970000Y-82027573D01*
X140669087Y-82057210D01*
X140379739Y-82144983D01*
X140113073Y-82287519D01*
X139879339Y-82479339D01*
X139687519Y-82713074D01*
X139544983Y-82979740D01*
X139457210Y-83269088D01*
X139435000Y-83494593D01*
X137428072Y-83494593D01*
X137428072Y-82670000D01*
X137415812Y-82545518D01*
X137379502Y-82425820D01*
X137320537Y-82315506D01*
X137241185Y-82218815D01*
X137144494Y-82139463D01*
X137034180Y-82080498D01*
X136914482Y-82044188D01*
X136790000Y-82031928D01*
X134990000Y-82031928D01*
X134865518Y-82044188D01*
X134745820Y-82080498D01*
X134635506Y-82139463D01*
X134538815Y-82218815D01*
X134459463Y-82315506D01*
X134400498Y-82425820D01*
X134364188Y-82545518D01*
X134351928Y-82670000D01*
X134351928Y-83724428D01*
X134316973Y-83672114D01*
X134172810Y-83527951D01*
X134003292Y-83414683D01*
X133814934Y-83336662D01*
X133614975Y-83296888D01*
X133411097Y-83296888D01*
X133211138Y-83336662D01*
X133022780Y-83414683D01*
X132853262Y-83527951D01*
X132709099Y-83672114D01*
X132595831Y-83841632D01*
X132568162Y-83908431D01*
X132413102Y-83939274D01*
X132224744Y-84017295D01*
X132055226Y-84130563D01*
X131911063Y-84274726D01*
X131797795Y-84444244D01*
X131719774Y-84632602D01*
X131680000Y-84832561D01*
X129602920Y-84832561D01*
X129695017Y-84660261D01*
X129782790Y-84370912D01*
X129805000Y-84145407D01*
X129805000Y-83494592D01*
X129782790Y-83269087D01*
X129695017Y-82979739D01*
X129552481Y-82713073D01*
X129360661Y-82479339D01*
X129126926Y-82287519D01*
X128860260Y-82144983D01*
X128570912Y-82057210D01*
X128270000Y-82027573D01*
X127969087Y-82057210D01*
X127679739Y-82144983D01*
X127413073Y-82287519D01*
X127179339Y-82479339D01*
X126987519Y-82713074D01*
X126844983Y-82979740D01*
X126757210Y-83269088D01*
X126735000Y-83494593D01*
X124728072Y-83494593D01*
X124728072Y-82670000D01*
X124715812Y-82545518D01*
X124679502Y-82425820D01*
X124620537Y-82315506D01*
X124541185Y-82218815D01*
X124444494Y-82139463D01*
X124334180Y-82080498D01*
X124214482Y-82044188D01*
X124090000Y-82031928D01*
X122290000Y-82031928D01*
X122165518Y-82044188D01*
X122045820Y-82080498D01*
X121935506Y-82139463D01*
X121838815Y-82218815D01*
X121759463Y-82315506D01*
X121700498Y-82425820D01*
X121664188Y-82545518D01*
X121651928Y-82670000D01*
X116817133Y-82670000D01*
X116660661Y-82479339D01*
X116426926Y-82287519D01*
X116160260Y-82144983D01*
X115870912Y-82057210D01*
X115570000Y-82027573D01*
X115269087Y-82057210D01*
X114979739Y-82144983D01*
X114713073Y-82287519D01*
X114479339Y-82479339D01*
X114287519Y-82713074D01*
X114144983Y-82979740D01*
X114057210Y-83269088D01*
X114035000Y-83494593D01*
X110313270Y-83494593D01*
X110301985Y-83406802D01*
X110186846Y-83064167D01*
X110067836Y-82841514D01*
X109782980Y-82721626D01*
X108684605Y-83820000D01*
X108325395Y-83820000D01*
X107227020Y-82721626D01*
X106942164Y-82841514D01*
X106781301Y-83165210D01*
X106686678Y-83514069D01*
X106661933Y-83874684D01*
X105343072Y-83874684D01*
X105343072Y-82620000D01*
X105335392Y-82542020D01*
X107406626Y-82542020D01*
X108505000Y-83640395D01*
X109603374Y-82542020D01*
X109483486Y-82257164D01*
X109159790Y-82096301D01*
X108810931Y-82001678D01*
X108450316Y-81976933D01*
X108091802Y-82023015D01*
X107749167Y-82138154D01*
X107526514Y-82257164D01*
X107406626Y-82542020D01*
X105335392Y-82542020D01*
X105330812Y-82495518D01*
X105294502Y-82375820D01*
X105235537Y-82265506D01*
X105156185Y-82168815D01*
X105059494Y-82089463D01*
X104949180Y-82030498D01*
X104829482Y-81994188D01*
X104705000Y-81981928D01*
X102305000Y-81981928D01*
X102180518Y-81994188D01*
X102060820Y-82030498D01*
X101950506Y-82089463D01*
X101853815Y-82168815D01*
X101774463Y-82265506D01*
X101715498Y-82375820D01*
X101679188Y-82495518D01*
X101666928Y-82620000D01*
X94180716Y-82620000D01*
X94231255Y-82525449D01*
X94322030Y-82226204D01*
X94352681Y-81915000D01*
X94322030Y-81603796D01*
X94231255Y-81304551D01*
X94083845Y-81028765D01*
X93885463Y-80787037D01*
X93643735Y-80588655D01*
X93367949Y-80441245D01*
X93068704Y-80350470D01*
X92835486Y-80327500D01*
X92584514Y-80327500D01*
X92351296Y-80350470D01*
X92052051Y-80441245D01*
X91776265Y-80588655D01*
X91534537Y-80787037D01*
X91336155Y-81028765D01*
X91188745Y-81304551D01*
X91097970Y-81603796D01*
X91067319Y-81915000D01*
X89560000Y-81915000D01*
X89560000Y-79204117D01*
X94785000Y-79204117D01*
X94785000Y-79545883D01*
X94851675Y-79881081D01*
X94982463Y-80196831D01*
X95172337Y-80480998D01*
X95414002Y-80722663D01*
X95698169Y-80912537D01*
X96013919Y-81043325D01*
X96349117Y-81110000D01*
X96690883Y-81110000D01*
X97026081Y-81043325D01*
X97341831Y-80912537D01*
X97625998Y-80722663D01*
X97867663Y-80480998D01*
X98057537Y-80196831D01*
X98188325Y-79881081D01*
X98255000Y-79545883D01*
X98255000Y-79204117D01*
X98188325Y-78868919D01*
X98057537Y-78553169D01*
X97867663Y-78269002D01*
X97625998Y-78027337D01*
X97341831Y-77837463D01*
X97026081Y-77706675D01*
X96690883Y-77640000D01*
X96349117Y-77640000D01*
X96013919Y-77706675D01*
X95698169Y-77837463D01*
X95414002Y-78027337D01*
X95172337Y-78269002D01*
X94982463Y-78553169D01*
X94851675Y-78868919D01*
X94785000Y-79204117D01*
X89560000Y-79204117D01*
X89560000Y-74255000D01*
X91702815Y-74255000D01*
X91731487Y-74546111D01*
X91816401Y-74826034D01*
X91954294Y-75084014D01*
X92139866Y-75310134D01*
X92365986Y-75495706D01*
X92623966Y-75633599D01*
X92903889Y-75718513D01*
X93122050Y-75740000D01*
X93567950Y-75740000D01*
X93786111Y-75718513D01*
X94066034Y-75633599D01*
X94324014Y-75495706D01*
X94550134Y-75310134D01*
X94735706Y-75084014D01*
X94873599Y-74826034D01*
X94958513Y-74546111D01*
X94987185Y-74255000D01*
X94958513Y-73963889D01*
X94873599Y-73683966D01*
X94772595Y-73495000D01*
X101431928Y-73495000D01*
X101431928Y-75095000D01*
X101444188Y-75219482D01*
X101480498Y-75339180D01*
X101539463Y-75449494D01*
X101618815Y-75546185D01*
X101715506Y-75625537D01*
X101825820Y-75684502D01*
X101945518Y-75720812D01*
X102070000Y-75733072D01*
X103670000Y-75733072D01*
X103794482Y-75720812D01*
X103914180Y-75684502D01*
X104024494Y-75625537D01*
X104121185Y-75546185D01*
X104200537Y-75449494D01*
X104214343Y-75423665D01*
X107150000Y-75423665D01*
X107150000Y-75706335D01*
X107205147Y-75983574D01*
X107313320Y-76244727D01*
X107470363Y-76479759D01*
X107670241Y-76679637D01*
X107905273Y-76836680D01*
X108166426Y-76944853D01*
X108443665Y-77000000D01*
X108726335Y-77000000D01*
X109003574Y-76944853D01*
X109264727Y-76836680D01*
X109499759Y-76679637D01*
X109699637Y-76479759D01*
X109856680Y-76244727D01*
X109964853Y-75983574D01*
X109986530Y-75874593D01*
X114035000Y-75874593D01*
X114035000Y-76525408D01*
X114057210Y-76750913D01*
X114144983Y-77040261D01*
X114287519Y-77306927D01*
X114479339Y-77540661D01*
X114713074Y-77732481D01*
X114979740Y-77875017D01*
X115269088Y-77962790D01*
X115570000Y-77992427D01*
X115870913Y-77962790D01*
X116160261Y-77875017D01*
X116426927Y-77732481D01*
X116660661Y-77540661D01*
X116852481Y-77306927D01*
X116995017Y-77040261D01*
X117082790Y-76750912D01*
X117105000Y-76525407D01*
X117105000Y-75874593D01*
X121655000Y-75874593D01*
X121655000Y-76525408D01*
X121677210Y-76750913D01*
X121764983Y-77040261D01*
X121907519Y-77306927D01*
X122099339Y-77540661D01*
X122333074Y-77732481D01*
X122599740Y-77875017D01*
X122889088Y-77962790D01*
X123190000Y-77992427D01*
X123490913Y-77962790D01*
X123780261Y-77875017D01*
X124046927Y-77732481D01*
X124280661Y-77540661D01*
X124472481Y-77306927D01*
X124615017Y-77040261D01*
X124702790Y-76750912D01*
X124725000Y-76525407D01*
X124725000Y-75874593D01*
X126735000Y-75874593D01*
X126735000Y-76525408D01*
X126757210Y-76750913D01*
X126844983Y-77040261D01*
X126987519Y-77306927D01*
X127179339Y-77540661D01*
X127413074Y-77732481D01*
X127679740Y-77875017D01*
X127969088Y-77962790D01*
X128270000Y-77992427D01*
X128570913Y-77962790D01*
X128860261Y-77875017D01*
X129126927Y-77732481D01*
X129360661Y-77540661D01*
X129552481Y-77306927D01*
X129695017Y-77040261D01*
X129782790Y-76750912D01*
X129805000Y-76525407D01*
X129805000Y-75874593D01*
X134355000Y-75874593D01*
X134355000Y-76525408D01*
X134377210Y-76750913D01*
X134464983Y-77040261D01*
X134607519Y-77306927D01*
X134799339Y-77540661D01*
X135033074Y-77732481D01*
X135299740Y-77875017D01*
X135589088Y-77962790D01*
X135890000Y-77992427D01*
X136190913Y-77962790D01*
X136480261Y-77875017D01*
X136746927Y-77732481D01*
X136980661Y-77540661D01*
X137172481Y-77306927D01*
X137315017Y-77040261D01*
X137402790Y-76750912D01*
X137425000Y-76525407D01*
X137425000Y-75874593D01*
X139435000Y-75874593D01*
X139435000Y-76525408D01*
X139457210Y-76750913D01*
X139544983Y-77040261D01*
X139687519Y-77306927D01*
X139879339Y-77540661D01*
X140113074Y-77732481D01*
X140379740Y-77875017D01*
X140669088Y-77962790D01*
X140970000Y-77992427D01*
X141270913Y-77962790D01*
X141560261Y-77875017D01*
X141826927Y-77732481D01*
X142060661Y-77540661D01*
X142252481Y-77306927D01*
X142395017Y-77040261D01*
X142482790Y-76750912D01*
X142505000Y-76525407D01*
X142505000Y-75874593D01*
X147055000Y-75874593D01*
X147055000Y-76525408D01*
X147077210Y-76750913D01*
X147164983Y-77040261D01*
X147307519Y-77306927D01*
X147499339Y-77540661D01*
X147733074Y-77732481D01*
X147999740Y-77875017D01*
X148289088Y-77962790D01*
X148590000Y-77992427D01*
X148890913Y-77962790D01*
X149180261Y-77875017D01*
X149446927Y-77732481D01*
X149680661Y-77540661D01*
X149872481Y-77306927D01*
X150015017Y-77040261D01*
X150102790Y-76750912D01*
X150125000Y-76525407D01*
X150125000Y-75874593D01*
X152135000Y-75874593D01*
X152135000Y-76525408D01*
X152157210Y-76750913D01*
X152244983Y-77040261D01*
X152387519Y-77306927D01*
X152579339Y-77540661D01*
X152813074Y-77732481D01*
X153079740Y-77875017D01*
X153369088Y-77962790D01*
X153670000Y-77992427D01*
X153970913Y-77962790D01*
X154260261Y-77875017D01*
X154526927Y-77732481D01*
X154760661Y-77540661D01*
X154952481Y-77306927D01*
X155095017Y-77040261D01*
X155182790Y-76750912D01*
X155205000Y-76525407D01*
X155205000Y-75874593D01*
X159755000Y-75874593D01*
X159755000Y-76525408D01*
X159777210Y-76750913D01*
X159864983Y-77040261D01*
X160007519Y-77306927D01*
X160199339Y-77540661D01*
X160433074Y-77732481D01*
X160699740Y-77875017D01*
X160989088Y-77962790D01*
X161290000Y-77992427D01*
X161590913Y-77962790D01*
X161880261Y-77875017D01*
X162146927Y-77732481D01*
X162380661Y-77540661D01*
X162572481Y-77306927D01*
X162715017Y-77040261D01*
X162802790Y-76750912D01*
X162825000Y-76525407D01*
X162825000Y-75874592D01*
X162802790Y-75649087D01*
X162715017Y-75359739D01*
X162572481Y-75093073D01*
X162380661Y-74859339D01*
X162146926Y-74667519D01*
X161880260Y-74524983D01*
X161590912Y-74437210D01*
X161290000Y-74407573D01*
X160989087Y-74437210D01*
X160699739Y-74524983D01*
X160433073Y-74667519D01*
X160199339Y-74859339D01*
X160007519Y-75093074D01*
X159864983Y-75359740D01*
X159777210Y-75649088D01*
X159755000Y-75874593D01*
X155205000Y-75874593D01*
X155205000Y-75874592D01*
X155182790Y-75649087D01*
X155095017Y-75359739D01*
X154952481Y-75093073D01*
X154760661Y-74859339D01*
X154526926Y-74667519D01*
X154260260Y-74524983D01*
X153970912Y-74437210D01*
X153670000Y-74407573D01*
X153369087Y-74437210D01*
X153079739Y-74524983D01*
X152813073Y-74667519D01*
X152579339Y-74859339D01*
X152387519Y-75093074D01*
X152244983Y-75359740D01*
X152157210Y-75649088D01*
X152135000Y-75874593D01*
X150125000Y-75874593D01*
X150125000Y-75874592D01*
X150102790Y-75649087D01*
X150015017Y-75359739D01*
X149872481Y-75093073D01*
X149680661Y-74859339D01*
X149446926Y-74667519D01*
X149180260Y-74524983D01*
X148890912Y-74437210D01*
X148590000Y-74407573D01*
X148289087Y-74437210D01*
X147999739Y-74524983D01*
X147733073Y-74667519D01*
X147499339Y-74859339D01*
X147307519Y-75093074D01*
X147164983Y-75359740D01*
X147077210Y-75649088D01*
X147055000Y-75874593D01*
X142505000Y-75874593D01*
X142505000Y-75874592D01*
X142482790Y-75649087D01*
X142395017Y-75359739D01*
X142252481Y-75093073D01*
X142060661Y-74859339D01*
X141826926Y-74667519D01*
X141560260Y-74524983D01*
X141270912Y-74437210D01*
X140970000Y-74407573D01*
X140669087Y-74437210D01*
X140379739Y-74524983D01*
X140113073Y-74667519D01*
X139879339Y-74859339D01*
X139687519Y-75093074D01*
X139544983Y-75359740D01*
X139457210Y-75649088D01*
X139435000Y-75874593D01*
X137425000Y-75874593D01*
X137425000Y-75874592D01*
X137402790Y-75649087D01*
X137315017Y-75359739D01*
X137172481Y-75093073D01*
X136980661Y-74859339D01*
X136746926Y-74667519D01*
X136480260Y-74524983D01*
X136190912Y-74437210D01*
X135890000Y-74407573D01*
X135589087Y-74437210D01*
X135299739Y-74524983D01*
X135033073Y-74667519D01*
X134799339Y-74859339D01*
X134607519Y-75093074D01*
X134464983Y-75359740D01*
X134377210Y-75649088D01*
X134355000Y-75874593D01*
X129805000Y-75874593D01*
X129805000Y-75874592D01*
X129782790Y-75649087D01*
X129695017Y-75359739D01*
X129552481Y-75093073D01*
X129360661Y-74859339D01*
X129126926Y-74667519D01*
X128860260Y-74524983D01*
X128570912Y-74437210D01*
X128270000Y-74407573D01*
X127969087Y-74437210D01*
X127679739Y-74524983D01*
X127413073Y-74667519D01*
X127179339Y-74859339D01*
X126987519Y-75093074D01*
X126844983Y-75359740D01*
X126757210Y-75649088D01*
X126735000Y-75874593D01*
X124725000Y-75874593D01*
X124725000Y-75874592D01*
X124702790Y-75649087D01*
X124615017Y-75359739D01*
X124472481Y-75093073D01*
X124280661Y-74859339D01*
X124046926Y-74667519D01*
X123780260Y-74524983D01*
X123490912Y-74437210D01*
X123190000Y-74407573D01*
X122889087Y-74437210D01*
X122599739Y-74524983D01*
X122333073Y-74667519D01*
X122099339Y-74859339D01*
X121907519Y-75093074D01*
X121764983Y-75359740D01*
X121677210Y-75649088D01*
X121655000Y-75874593D01*
X117105000Y-75874593D01*
X117105000Y-75874592D01*
X117082790Y-75649087D01*
X116995017Y-75359739D01*
X116852481Y-75093073D01*
X116660661Y-74859339D01*
X116426926Y-74667519D01*
X116160260Y-74524983D01*
X115870912Y-74437210D01*
X115570000Y-74407573D01*
X115269087Y-74437210D01*
X114979739Y-74524983D01*
X114713073Y-74667519D01*
X114479339Y-74859339D01*
X114287519Y-75093074D01*
X114144983Y-75359740D01*
X114057210Y-75649088D01*
X114035000Y-75874593D01*
X109986530Y-75874593D01*
X110020000Y-75706335D01*
X110020000Y-75423665D01*
X109964853Y-75146426D01*
X109856680Y-74885273D01*
X109699637Y-74650241D01*
X109499759Y-74450363D01*
X109264727Y-74293320D01*
X109003574Y-74185147D01*
X108726335Y-74130000D01*
X108443665Y-74130000D01*
X108166426Y-74185147D01*
X107905273Y-74293320D01*
X107670241Y-74450363D01*
X107470363Y-74650241D01*
X107313320Y-74885273D01*
X107205147Y-75146426D01*
X107150000Y-75423665D01*
X104214343Y-75423665D01*
X104259502Y-75339180D01*
X104295812Y-75219482D01*
X104308072Y-75095000D01*
X104308072Y-73495000D01*
X104295812Y-73370518D01*
X104259502Y-73250820D01*
X104200537Y-73140506D01*
X104121185Y-73043815D01*
X104024494Y-72964463D01*
X103914180Y-72905498D01*
X103794482Y-72869188D01*
X103670000Y-72856928D01*
X103662785Y-72856928D01*
X103683097Y-72787702D01*
X102870000Y-71974605D01*
X102056903Y-72787702D01*
X102077215Y-72856928D01*
X102070000Y-72856928D01*
X101945518Y-72869188D01*
X101825820Y-72905498D01*
X101715506Y-72964463D01*
X101618815Y-73043815D01*
X101539463Y-73140506D01*
X101480498Y-73250820D01*
X101444188Y-73370518D01*
X101431928Y-73495000D01*
X94772595Y-73495000D01*
X94735706Y-73425986D01*
X94554392Y-73205055D01*
X94589180Y-73194502D01*
X94699494Y-73135537D01*
X94796185Y-73056185D01*
X94875537Y-72959494D01*
X94934502Y-72849180D01*
X94970812Y-72729482D01*
X94983072Y-72605000D01*
X94980000Y-72040750D01*
X94821250Y-71882000D01*
X93472000Y-71882000D01*
X93472000Y-71902000D01*
X93218000Y-71902000D01*
X93218000Y-71882000D01*
X91868750Y-71882000D01*
X91710000Y-72040750D01*
X91706928Y-72605000D01*
X91719188Y-72729482D01*
X91755498Y-72849180D01*
X91814463Y-72959494D01*
X91893815Y-73056185D01*
X91990506Y-73135537D01*
X92100820Y-73194502D01*
X92135608Y-73205055D01*
X91954294Y-73425986D01*
X91816401Y-73683966D01*
X91731487Y-73963889D01*
X91702815Y-74255000D01*
X89560000Y-74255000D01*
X89560000Y-71865512D01*
X101429783Y-71865512D01*
X101471213Y-72145130D01*
X101566397Y-72411292D01*
X101633329Y-72536514D01*
X101877298Y-72608097D01*
X102690395Y-71795000D01*
X103049605Y-71795000D01*
X103862702Y-72608097D01*
X104106671Y-72536514D01*
X104227571Y-72281004D01*
X104296300Y-72006816D01*
X104310217Y-71724488D01*
X104285505Y-71557702D01*
X107771903Y-71557702D01*
X107843486Y-71801671D01*
X108098996Y-71922571D01*
X108373184Y-71991300D01*
X108655512Y-72005217D01*
X108935130Y-71963787D01*
X109201292Y-71868603D01*
X109326514Y-71801671D01*
X109398097Y-71557702D01*
X108585000Y-70744605D01*
X107771903Y-71557702D01*
X104285505Y-71557702D01*
X104268787Y-71444870D01*
X104173603Y-71178708D01*
X104106671Y-71053486D01*
X103862702Y-70981903D01*
X103049605Y-71795000D01*
X102690395Y-71795000D01*
X101877298Y-70981903D01*
X101633329Y-71053486D01*
X101512429Y-71308996D01*
X101443700Y-71583184D01*
X101429783Y-71865512D01*
X89560000Y-71865512D01*
X89560000Y-70905000D01*
X91706928Y-70905000D01*
X91710000Y-71469250D01*
X91868750Y-71628000D01*
X93218000Y-71628000D01*
X93218000Y-70428750D01*
X93472000Y-70428750D01*
X93472000Y-71628000D01*
X94821250Y-71628000D01*
X94980000Y-71469250D01*
X94983072Y-70905000D01*
X94972958Y-70802298D01*
X102056903Y-70802298D01*
X102870000Y-71615395D01*
X103683097Y-70802298D01*
X103634161Y-70635512D01*
X107144783Y-70635512D01*
X107186213Y-70915130D01*
X107281397Y-71181292D01*
X107348329Y-71306514D01*
X107592298Y-71378097D01*
X108405395Y-70565000D01*
X108764605Y-70565000D01*
X109577702Y-71378097D01*
X109821671Y-71306514D01*
X109942571Y-71051004D01*
X110006843Y-70794593D01*
X114035000Y-70794593D01*
X114035000Y-71445408D01*
X114057210Y-71670913D01*
X114144983Y-71960261D01*
X114287519Y-72226927D01*
X114479339Y-72460661D01*
X114713074Y-72652481D01*
X114979740Y-72795017D01*
X115269088Y-72882790D01*
X115570000Y-72912427D01*
X115870913Y-72882790D01*
X116160261Y-72795017D01*
X116426927Y-72652481D01*
X116660661Y-72460661D01*
X116852481Y-72226927D01*
X116995017Y-71960261D01*
X117082790Y-71670912D01*
X117105000Y-71445407D01*
X117105000Y-70794593D01*
X121655000Y-70794593D01*
X121655000Y-71445408D01*
X121677210Y-71670913D01*
X121764983Y-71960261D01*
X121907519Y-72226927D01*
X122099339Y-72460661D01*
X122333074Y-72652481D01*
X122599740Y-72795017D01*
X122889088Y-72882790D01*
X123190000Y-72912427D01*
X123490913Y-72882790D01*
X123780261Y-72795017D01*
X124046927Y-72652481D01*
X124280661Y-72460661D01*
X124472481Y-72226927D01*
X124615017Y-71960261D01*
X124702790Y-71670912D01*
X124725000Y-71445407D01*
X124725000Y-70794593D01*
X126735000Y-70794593D01*
X126735000Y-71445408D01*
X126757210Y-71670913D01*
X126844983Y-71960261D01*
X126987519Y-72226927D01*
X127179339Y-72460661D01*
X127413074Y-72652481D01*
X127679740Y-72795017D01*
X127969088Y-72882790D01*
X128270000Y-72912427D01*
X128570913Y-72882790D01*
X128860261Y-72795017D01*
X129126927Y-72652481D01*
X129360661Y-72460661D01*
X129552481Y-72226927D01*
X129695017Y-71960261D01*
X129782790Y-71670912D01*
X129805000Y-71445407D01*
X129805000Y-70794593D01*
X134355000Y-70794593D01*
X134355000Y-71445408D01*
X134377210Y-71670913D01*
X134464983Y-71960261D01*
X134607519Y-72226927D01*
X134799339Y-72460661D01*
X135033074Y-72652481D01*
X135299740Y-72795017D01*
X135589088Y-72882790D01*
X135890000Y-72912427D01*
X136190913Y-72882790D01*
X136480261Y-72795017D01*
X136746927Y-72652481D01*
X136980661Y-72460661D01*
X137172481Y-72226927D01*
X137315017Y-71960261D01*
X137402790Y-71670912D01*
X137425000Y-71445407D01*
X137425000Y-70794593D01*
X139435000Y-70794593D01*
X139435000Y-71445408D01*
X139457210Y-71670913D01*
X139544983Y-71960261D01*
X139687519Y-72226927D01*
X139879339Y-72460661D01*
X140113074Y-72652481D01*
X140379740Y-72795017D01*
X140669088Y-72882790D01*
X140970000Y-72912427D01*
X141270913Y-72882790D01*
X141560261Y-72795017D01*
X141826927Y-72652481D01*
X142060661Y-72460661D01*
X142252481Y-72226927D01*
X142395017Y-71960261D01*
X142482790Y-71670912D01*
X142505000Y-71445407D01*
X142505000Y-70794593D01*
X147055000Y-70794593D01*
X147055000Y-71445408D01*
X147077210Y-71670913D01*
X147164983Y-71960261D01*
X147307519Y-72226927D01*
X147499339Y-72460661D01*
X147733074Y-72652481D01*
X147999740Y-72795017D01*
X148289088Y-72882790D01*
X148590000Y-72912427D01*
X148890913Y-72882790D01*
X149180261Y-72795017D01*
X149446927Y-72652481D01*
X149680661Y-72460661D01*
X149872481Y-72226927D01*
X150015017Y-71960261D01*
X150102790Y-71670912D01*
X150125000Y-71445407D01*
X150125000Y-70794593D01*
X152135000Y-70794593D01*
X152135000Y-71445408D01*
X152157210Y-71670913D01*
X152244983Y-71960261D01*
X152387519Y-72226927D01*
X152579339Y-72460661D01*
X152813074Y-72652481D01*
X153079740Y-72795017D01*
X153369088Y-72882790D01*
X153670000Y-72912427D01*
X153970913Y-72882790D01*
X154260261Y-72795017D01*
X154526927Y-72652481D01*
X154760661Y-72460661D01*
X154952481Y-72226927D01*
X155095017Y-71960261D01*
X155182790Y-71670912D01*
X155205000Y-71445407D01*
X155205000Y-70794593D01*
X159755000Y-70794593D01*
X159755000Y-71445408D01*
X159777210Y-71670913D01*
X159864983Y-71960261D01*
X160007519Y-72226927D01*
X160199339Y-72460661D01*
X160433074Y-72652481D01*
X160699740Y-72795017D01*
X160989088Y-72882790D01*
X161290000Y-72912427D01*
X161590913Y-72882790D01*
X161880261Y-72795017D01*
X162146927Y-72652481D01*
X162380661Y-72460661D01*
X162572481Y-72226927D01*
X162715017Y-71960261D01*
X162802790Y-71670912D01*
X162825000Y-71445407D01*
X162825000Y-70794592D01*
X162802790Y-70569087D01*
X162715017Y-70279739D01*
X162572481Y-70013073D01*
X162380661Y-69779339D01*
X162146926Y-69587519D01*
X161880260Y-69444983D01*
X161590912Y-69357210D01*
X161290000Y-69327573D01*
X160989087Y-69357210D01*
X160699739Y-69444983D01*
X160433073Y-69587519D01*
X160199339Y-69779339D01*
X160007519Y-70013074D01*
X159864983Y-70279740D01*
X159777210Y-70569088D01*
X159755000Y-70794593D01*
X155205000Y-70794593D01*
X155205000Y-70794592D01*
X155182790Y-70569087D01*
X155095017Y-70279739D01*
X154952481Y-70013073D01*
X154760661Y-69779339D01*
X154526926Y-69587519D01*
X154260260Y-69444983D01*
X153970912Y-69357210D01*
X153670000Y-69327573D01*
X153369087Y-69357210D01*
X153079739Y-69444983D01*
X152813073Y-69587519D01*
X152579339Y-69779339D01*
X152387519Y-70013074D01*
X152244983Y-70279740D01*
X152157210Y-70569088D01*
X152135000Y-70794593D01*
X150125000Y-70794593D01*
X150125000Y-70794592D01*
X150102790Y-70569087D01*
X150015017Y-70279739D01*
X149872481Y-70013073D01*
X149680661Y-69779339D01*
X149446926Y-69587519D01*
X149180260Y-69444983D01*
X148890912Y-69357210D01*
X148590000Y-69327573D01*
X148289087Y-69357210D01*
X147999739Y-69444983D01*
X147733073Y-69587519D01*
X147499339Y-69779339D01*
X147307519Y-70013074D01*
X147164983Y-70279740D01*
X147077210Y-70569088D01*
X147055000Y-70794593D01*
X142505000Y-70794593D01*
X142505000Y-70794592D01*
X142482790Y-70569087D01*
X142395017Y-70279739D01*
X142252481Y-70013073D01*
X142060661Y-69779339D01*
X141826926Y-69587519D01*
X141560260Y-69444983D01*
X141270912Y-69357210D01*
X140970000Y-69327573D01*
X140669087Y-69357210D01*
X140379739Y-69444983D01*
X140113073Y-69587519D01*
X139879339Y-69779339D01*
X139687519Y-70013074D01*
X139544983Y-70279740D01*
X139457210Y-70569088D01*
X139435000Y-70794593D01*
X137425000Y-70794593D01*
X137425000Y-70794592D01*
X137402790Y-70569087D01*
X137315017Y-70279739D01*
X137172481Y-70013073D01*
X136980661Y-69779339D01*
X136746926Y-69587519D01*
X136480260Y-69444983D01*
X136190912Y-69357210D01*
X135890000Y-69327573D01*
X135589087Y-69357210D01*
X135299739Y-69444983D01*
X135033073Y-69587519D01*
X134799339Y-69779339D01*
X134607519Y-70013074D01*
X134464983Y-70279740D01*
X134377210Y-70569088D01*
X134355000Y-70794593D01*
X129805000Y-70794593D01*
X129805000Y-70794592D01*
X129782790Y-70569087D01*
X129695017Y-70279739D01*
X129552481Y-70013073D01*
X129360661Y-69779339D01*
X129126926Y-69587519D01*
X128860260Y-69444983D01*
X128570912Y-69357210D01*
X128270000Y-69327573D01*
X127969087Y-69357210D01*
X127679739Y-69444983D01*
X127413073Y-69587519D01*
X127179339Y-69779339D01*
X126987519Y-70013074D01*
X126844983Y-70279740D01*
X126757210Y-70569088D01*
X126735000Y-70794593D01*
X124725000Y-70794593D01*
X124725000Y-70794592D01*
X124702790Y-70569087D01*
X124615017Y-70279739D01*
X124472481Y-70013073D01*
X124280661Y-69779339D01*
X124046926Y-69587519D01*
X123780260Y-69444983D01*
X123490912Y-69357210D01*
X123190000Y-69327573D01*
X122889087Y-69357210D01*
X122599739Y-69444983D01*
X122333073Y-69587519D01*
X122099339Y-69779339D01*
X121907519Y-70013074D01*
X121764983Y-70279740D01*
X121677210Y-70569088D01*
X121655000Y-70794593D01*
X117105000Y-70794593D01*
X117105000Y-70794592D01*
X117082790Y-70569087D01*
X116995017Y-70279739D01*
X116852481Y-70013073D01*
X116660661Y-69779339D01*
X116426926Y-69587519D01*
X116160260Y-69444983D01*
X115870912Y-69357210D01*
X115570000Y-69327573D01*
X115269087Y-69357210D01*
X114979739Y-69444983D01*
X114713073Y-69587519D01*
X114479339Y-69779339D01*
X114287519Y-70013074D01*
X114144983Y-70279740D01*
X114057210Y-70569088D01*
X114035000Y-70794593D01*
X110006843Y-70794593D01*
X110011300Y-70776816D01*
X110025217Y-70494488D01*
X109983787Y-70214870D01*
X109888603Y-69948708D01*
X109821671Y-69823486D01*
X109577702Y-69751903D01*
X108764605Y-70565000D01*
X108405395Y-70565000D01*
X107592298Y-69751903D01*
X107348329Y-69823486D01*
X107227429Y-70078996D01*
X107158700Y-70353184D01*
X107144783Y-70635512D01*
X103634161Y-70635512D01*
X103611514Y-70558329D01*
X103356004Y-70437429D01*
X103081816Y-70368700D01*
X102799488Y-70354783D01*
X102519870Y-70396213D01*
X102253708Y-70491397D01*
X102128486Y-70558329D01*
X102056903Y-70802298D01*
X94972958Y-70802298D01*
X94970812Y-70780518D01*
X94934502Y-70660820D01*
X94875537Y-70550506D01*
X94796185Y-70453815D01*
X94699494Y-70374463D01*
X94589180Y-70315498D01*
X94469482Y-70279188D01*
X94345000Y-70266928D01*
X93630750Y-70270000D01*
X93472000Y-70428750D01*
X93218000Y-70428750D01*
X93059250Y-70270000D01*
X92345000Y-70266928D01*
X92220518Y-70279188D01*
X92100820Y-70315498D01*
X91990506Y-70374463D01*
X91893815Y-70453815D01*
X91814463Y-70550506D01*
X91755498Y-70660820D01*
X91719188Y-70780518D01*
X91706928Y-70905000D01*
X89560000Y-70905000D01*
X89560000Y-69572298D01*
X107771903Y-69572298D01*
X108585000Y-70385395D01*
X109398097Y-69572298D01*
X109326514Y-69328329D01*
X109071004Y-69207429D01*
X108796816Y-69138700D01*
X108514488Y-69124783D01*
X108234870Y-69166213D01*
X107968708Y-69261397D01*
X107843486Y-69328329D01*
X107771903Y-69572298D01*
X89560000Y-69572298D01*
X89560000Y-65714593D01*
X114035000Y-65714593D01*
X114035000Y-66365408D01*
X114057210Y-66590913D01*
X114144983Y-66880261D01*
X114287519Y-67146927D01*
X114479339Y-67380661D01*
X114713074Y-67572481D01*
X114979740Y-67715017D01*
X115269088Y-67802790D01*
X115570000Y-67832427D01*
X115870913Y-67802790D01*
X116160261Y-67715017D01*
X116426927Y-67572481D01*
X116660661Y-67380661D01*
X116852481Y-67146927D01*
X116995017Y-66880261D01*
X117082790Y-66590912D01*
X117105000Y-66365407D01*
X117105000Y-65714593D01*
X121655000Y-65714593D01*
X121655000Y-66365408D01*
X121677210Y-66590913D01*
X121764983Y-66880261D01*
X121907519Y-67146927D01*
X122099339Y-67380661D01*
X122333074Y-67572481D01*
X122599740Y-67715017D01*
X122889088Y-67802790D01*
X123190000Y-67832427D01*
X123490913Y-67802790D01*
X123780261Y-67715017D01*
X124046927Y-67572481D01*
X124280661Y-67380661D01*
X124472481Y-67146927D01*
X124615017Y-66880261D01*
X124702790Y-66590912D01*
X124725000Y-66365407D01*
X124725000Y-65714593D01*
X126735000Y-65714593D01*
X126735000Y-66365408D01*
X126757210Y-66590913D01*
X126844983Y-66880261D01*
X126987519Y-67146927D01*
X127179339Y-67380661D01*
X127413074Y-67572481D01*
X127679740Y-67715017D01*
X127969088Y-67802790D01*
X128270000Y-67832427D01*
X128570913Y-67802790D01*
X128860261Y-67715017D01*
X129126927Y-67572481D01*
X129360661Y-67380661D01*
X129552481Y-67146927D01*
X129695017Y-66880261D01*
X129782790Y-66590912D01*
X129805000Y-66365407D01*
X129805000Y-65714593D01*
X134355000Y-65714593D01*
X134355000Y-66365408D01*
X134377210Y-66590913D01*
X134464983Y-66880261D01*
X134607519Y-67146927D01*
X134799339Y-67380661D01*
X135033074Y-67572481D01*
X135299740Y-67715017D01*
X135589088Y-67802790D01*
X135890000Y-67832427D01*
X136190913Y-67802790D01*
X136480261Y-67715017D01*
X136746927Y-67572481D01*
X136980661Y-67380661D01*
X137172481Y-67146927D01*
X137315017Y-66880261D01*
X137402790Y-66590912D01*
X137425000Y-66365407D01*
X137425000Y-65714593D01*
X139435000Y-65714593D01*
X139435000Y-66365408D01*
X139457210Y-66590913D01*
X139544983Y-66880261D01*
X139687519Y-67146927D01*
X139879339Y-67380661D01*
X140113074Y-67572481D01*
X140379740Y-67715017D01*
X140669088Y-67802790D01*
X140970000Y-67832427D01*
X141270913Y-67802790D01*
X141560261Y-67715017D01*
X141826927Y-67572481D01*
X142060661Y-67380661D01*
X142252481Y-67146927D01*
X142395017Y-66880261D01*
X142482790Y-66590912D01*
X142505000Y-66365407D01*
X142505000Y-65714593D01*
X147055000Y-65714593D01*
X147055000Y-66365408D01*
X147077210Y-66590913D01*
X147164983Y-66880261D01*
X147307519Y-67146927D01*
X147499339Y-67380661D01*
X147733074Y-67572481D01*
X147999740Y-67715017D01*
X148289088Y-67802790D01*
X148590000Y-67832427D01*
X148890913Y-67802790D01*
X149180261Y-67715017D01*
X149446927Y-67572481D01*
X149680661Y-67380661D01*
X149872481Y-67146927D01*
X150015017Y-66880261D01*
X150102790Y-66590912D01*
X150125000Y-66365407D01*
X150125000Y-65714593D01*
X152135000Y-65714593D01*
X152135000Y-66365408D01*
X152157210Y-66590913D01*
X152244983Y-66880261D01*
X152387519Y-67146927D01*
X152579339Y-67380661D01*
X152813074Y-67572481D01*
X153079740Y-67715017D01*
X153369088Y-67802790D01*
X153670000Y-67832427D01*
X153970913Y-67802790D01*
X154260261Y-67715017D01*
X154526927Y-67572481D01*
X154760661Y-67380661D01*
X154952481Y-67146927D01*
X155095017Y-66880261D01*
X155182790Y-66590912D01*
X155205000Y-66365407D01*
X155205000Y-65714593D01*
X159755000Y-65714593D01*
X159755000Y-66365408D01*
X159777210Y-66590913D01*
X159864983Y-66880261D01*
X160007519Y-67146927D01*
X160199339Y-67380661D01*
X160433074Y-67572481D01*
X160699740Y-67715017D01*
X160989088Y-67802790D01*
X161290000Y-67832427D01*
X161590913Y-67802790D01*
X161880261Y-67715017D01*
X162146927Y-67572481D01*
X162380661Y-67380661D01*
X162572481Y-67146927D01*
X162715017Y-66880261D01*
X162802790Y-66590912D01*
X162825000Y-66365407D01*
X162825000Y-65714592D01*
X162802790Y-65489087D01*
X162715017Y-65199739D01*
X162572481Y-64933073D01*
X162380661Y-64699339D01*
X162146926Y-64507519D01*
X161880260Y-64364983D01*
X161590912Y-64277210D01*
X161290000Y-64247573D01*
X160989087Y-64277210D01*
X160699739Y-64364983D01*
X160433073Y-64507519D01*
X160199339Y-64699339D01*
X160007519Y-64933074D01*
X159864983Y-65199740D01*
X159777210Y-65489088D01*
X159755000Y-65714593D01*
X155205000Y-65714593D01*
X155205000Y-65714592D01*
X155182790Y-65489087D01*
X155095017Y-65199739D01*
X154952481Y-64933073D01*
X154760661Y-64699339D01*
X154526926Y-64507519D01*
X154260260Y-64364983D01*
X153970912Y-64277210D01*
X153670000Y-64247573D01*
X153369087Y-64277210D01*
X153079739Y-64364983D01*
X152813073Y-64507519D01*
X152579339Y-64699339D01*
X152387519Y-64933074D01*
X152244983Y-65199740D01*
X152157210Y-65489088D01*
X152135000Y-65714593D01*
X150125000Y-65714593D01*
X150125000Y-65714592D01*
X150102790Y-65489087D01*
X150015017Y-65199739D01*
X149872481Y-64933073D01*
X149680661Y-64699339D01*
X149446926Y-64507519D01*
X149180260Y-64364983D01*
X148890912Y-64277210D01*
X148590000Y-64247573D01*
X148289087Y-64277210D01*
X147999739Y-64364983D01*
X147733073Y-64507519D01*
X147499339Y-64699339D01*
X147307519Y-64933074D01*
X147164983Y-65199740D01*
X147077210Y-65489088D01*
X147055000Y-65714593D01*
X142505000Y-65714593D01*
X142505000Y-65714592D01*
X142482790Y-65489087D01*
X142395017Y-65199739D01*
X142252481Y-64933073D01*
X142060661Y-64699339D01*
X141826926Y-64507519D01*
X141560260Y-64364983D01*
X141270912Y-64277210D01*
X140970000Y-64247573D01*
X140669087Y-64277210D01*
X140379739Y-64364983D01*
X140113073Y-64507519D01*
X139879339Y-64699339D01*
X139687519Y-64933074D01*
X139544983Y-65199740D01*
X139457210Y-65489088D01*
X139435000Y-65714593D01*
X137425000Y-65714593D01*
X137425000Y-65714592D01*
X137402790Y-65489087D01*
X137315017Y-65199739D01*
X137172481Y-64933073D01*
X136980661Y-64699339D01*
X136746926Y-64507519D01*
X136480260Y-64364983D01*
X136190912Y-64277210D01*
X135890000Y-64247573D01*
X135589087Y-64277210D01*
X135299739Y-64364983D01*
X135033073Y-64507519D01*
X134799339Y-64699339D01*
X134607519Y-64933074D01*
X134464983Y-65199740D01*
X134377210Y-65489088D01*
X134355000Y-65714593D01*
X129805000Y-65714593D01*
X129805000Y-65714592D01*
X129782790Y-65489087D01*
X129695017Y-65199739D01*
X129552481Y-64933073D01*
X129360661Y-64699339D01*
X129126926Y-64507519D01*
X128860260Y-64364983D01*
X128570912Y-64277210D01*
X128270000Y-64247573D01*
X127969087Y-64277210D01*
X127679739Y-64364983D01*
X127413073Y-64507519D01*
X127179339Y-64699339D01*
X126987519Y-64933074D01*
X126844983Y-65199740D01*
X126757210Y-65489088D01*
X126735000Y-65714593D01*
X124725000Y-65714593D01*
X124725000Y-65714592D01*
X124702790Y-65489087D01*
X124615017Y-65199739D01*
X124472481Y-64933073D01*
X124280661Y-64699339D01*
X124046926Y-64507519D01*
X123780260Y-64364983D01*
X123490912Y-64277210D01*
X123190000Y-64247573D01*
X122889087Y-64277210D01*
X122599739Y-64364983D01*
X122333073Y-64507519D01*
X122099339Y-64699339D01*
X121907519Y-64933074D01*
X121764983Y-65199740D01*
X121677210Y-65489088D01*
X121655000Y-65714593D01*
X117105000Y-65714593D01*
X117105000Y-65714592D01*
X117082790Y-65489087D01*
X116995017Y-65199739D01*
X116852481Y-64933073D01*
X116660661Y-64699339D01*
X116426926Y-64507519D01*
X116160260Y-64364983D01*
X115870912Y-64277210D01*
X115570000Y-64247573D01*
X115269087Y-64277210D01*
X114979739Y-64364983D01*
X114713073Y-64507519D01*
X114479339Y-64699339D01*
X114287519Y-64933074D01*
X114144983Y-65199740D01*
X114057210Y-65489088D01*
X114035000Y-65714593D01*
X89560000Y-65714593D01*
X89560000Y-56816823D01*
X95725000Y-56816823D01*
X95725000Y-58715178D01*
X95746850Y-58937012D01*
X95833193Y-59221648D01*
X95973407Y-59483970D01*
X96162104Y-59713897D01*
X96392031Y-59902594D01*
X96654353Y-60042808D01*
X96938989Y-60129151D01*
X97235000Y-60158306D01*
X97531012Y-60129151D01*
X97815648Y-60042808D01*
X98077970Y-59902594D01*
X98307897Y-59713897D01*
X98485001Y-59498097D01*
X98662104Y-59713897D01*
X98892031Y-59902594D01*
X99154353Y-60042808D01*
X99438989Y-60129151D01*
X99735000Y-60158306D01*
X100031012Y-60129151D01*
X100315648Y-60042808D01*
X100577970Y-59902594D01*
X100807897Y-59713897D01*
X100996594Y-59483970D01*
X101136808Y-59221648D01*
X101223151Y-58937012D01*
X101245000Y-58715178D01*
X101245000Y-56816823D01*
X103225000Y-56816823D01*
X103225000Y-58715178D01*
X103246850Y-58937012D01*
X103333193Y-59221648D01*
X103473407Y-59483970D01*
X103662104Y-59713897D01*
X103892031Y-59902594D01*
X104154353Y-60042808D01*
X104438989Y-60129151D01*
X104735000Y-60158306D01*
X105031012Y-60129151D01*
X105315648Y-60042808D01*
X105577970Y-59902594D01*
X105807897Y-59713897D01*
X105985001Y-59498097D01*
X106162104Y-59713897D01*
X106392031Y-59902594D01*
X106654353Y-60042808D01*
X106938989Y-60129151D01*
X107235000Y-60158306D01*
X107531012Y-60129151D01*
X107815648Y-60042808D01*
X108077970Y-59902594D01*
X108307897Y-59713897D01*
X108496594Y-59483970D01*
X108636808Y-59221648D01*
X108723151Y-58937012D01*
X108745000Y-58715178D01*
X108745000Y-56816823D01*
X112870000Y-56816823D01*
X112870000Y-58715178D01*
X112891850Y-58937012D01*
X112978193Y-59221648D01*
X113118407Y-59483970D01*
X113307104Y-59713897D01*
X113537031Y-59902594D01*
X113799353Y-60042808D01*
X114083989Y-60129151D01*
X114380000Y-60158306D01*
X114676012Y-60129151D01*
X114960648Y-60042808D01*
X115222970Y-59902594D01*
X115452897Y-59713897D01*
X115630001Y-59498097D01*
X115807104Y-59713897D01*
X116037031Y-59902594D01*
X116299353Y-60042808D01*
X116583989Y-60129151D01*
X116880000Y-60158306D01*
X117176012Y-60129151D01*
X117460648Y-60042808D01*
X117722970Y-59902594D01*
X117952897Y-59713897D01*
X118141594Y-59483970D01*
X118281808Y-59221648D01*
X118368151Y-58937012D01*
X118390000Y-58715178D01*
X118390000Y-56816823D01*
X120370000Y-56816823D01*
X120370000Y-58715178D01*
X120391850Y-58937012D01*
X120478193Y-59221648D01*
X120618407Y-59483970D01*
X120807104Y-59713897D01*
X121037031Y-59902594D01*
X121299353Y-60042808D01*
X121583989Y-60129151D01*
X121880000Y-60158306D01*
X122176012Y-60129151D01*
X122460648Y-60042808D01*
X122722970Y-59902594D01*
X122952897Y-59713897D01*
X123130001Y-59498097D01*
X123307104Y-59713897D01*
X123537031Y-59902594D01*
X123799353Y-60042808D01*
X124083989Y-60129151D01*
X124380000Y-60158306D01*
X124676012Y-60129151D01*
X124960648Y-60042808D01*
X125222970Y-59902594D01*
X125452897Y-59713897D01*
X125641594Y-59483970D01*
X125730001Y-59318573D01*
X125818407Y-59483970D01*
X126007104Y-59713897D01*
X126237031Y-59902594D01*
X126499353Y-60042808D01*
X126783989Y-60129151D01*
X127080000Y-60158306D01*
X127376012Y-60129151D01*
X127660648Y-60042808D01*
X127922970Y-59902594D01*
X128152897Y-59713897D01*
X128330001Y-59498097D01*
X128507104Y-59713897D01*
X128737031Y-59902594D01*
X128999353Y-60042808D01*
X129283989Y-60129151D01*
X129580000Y-60158306D01*
X129876012Y-60129151D01*
X130160648Y-60042808D01*
X130422970Y-59902594D01*
X130652897Y-59713897D01*
X130841594Y-59483970D01*
X130981808Y-59221648D01*
X131068151Y-58937012D01*
X131090000Y-58715178D01*
X131090000Y-56816823D01*
X133070000Y-56816823D01*
X133070000Y-58715178D01*
X133091850Y-58937012D01*
X133178193Y-59221648D01*
X133318407Y-59483970D01*
X133507104Y-59713897D01*
X133737031Y-59902594D01*
X133999353Y-60042808D01*
X134283989Y-60129151D01*
X134580000Y-60158306D01*
X134876012Y-60129151D01*
X135160648Y-60042808D01*
X135422970Y-59902594D01*
X135652897Y-59713897D01*
X135830001Y-59498097D01*
X136007104Y-59713897D01*
X136237031Y-59902594D01*
X136499353Y-60042808D01*
X136783989Y-60129151D01*
X137080000Y-60158306D01*
X137376012Y-60129151D01*
X137660648Y-60042808D01*
X137922970Y-59902594D01*
X138152897Y-59713897D01*
X138341594Y-59483970D01*
X138430001Y-59318573D01*
X138518407Y-59483970D01*
X138707104Y-59713897D01*
X138937031Y-59902594D01*
X139199353Y-60042808D01*
X139483989Y-60129151D01*
X139780000Y-60158306D01*
X140076012Y-60129151D01*
X140360648Y-60042808D01*
X140622970Y-59902594D01*
X140852897Y-59713897D01*
X141030001Y-59498097D01*
X141207104Y-59713897D01*
X141437031Y-59902594D01*
X141699353Y-60042808D01*
X141983989Y-60129151D01*
X142280000Y-60158306D01*
X142576012Y-60129151D01*
X142860648Y-60042808D01*
X143122970Y-59902594D01*
X143352897Y-59713897D01*
X143541594Y-59483970D01*
X143681808Y-59221648D01*
X143768151Y-58937012D01*
X143790000Y-58715178D01*
X143790000Y-56816823D01*
X145770000Y-56816823D01*
X145770000Y-58715178D01*
X145791850Y-58937012D01*
X145878193Y-59221648D01*
X146018407Y-59483970D01*
X146207104Y-59713897D01*
X146437031Y-59902594D01*
X146699353Y-60042808D01*
X146983989Y-60129151D01*
X147280000Y-60158306D01*
X147576012Y-60129151D01*
X147860648Y-60042808D01*
X148122970Y-59902594D01*
X148352897Y-59713897D01*
X148530001Y-59498097D01*
X148707104Y-59713897D01*
X148937031Y-59902594D01*
X149199353Y-60042808D01*
X149483989Y-60129151D01*
X149780000Y-60158306D01*
X150076012Y-60129151D01*
X150360648Y-60042808D01*
X150622970Y-59902594D01*
X150852897Y-59713897D01*
X151041594Y-59483970D01*
X151130001Y-59318573D01*
X151218407Y-59483970D01*
X151407104Y-59713897D01*
X151637031Y-59902594D01*
X151899353Y-60042808D01*
X152183989Y-60129151D01*
X152480000Y-60158306D01*
X152776012Y-60129151D01*
X153060648Y-60042808D01*
X153322970Y-59902594D01*
X153552897Y-59713897D01*
X153730001Y-59498097D01*
X153907104Y-59713897D01*
X154137031Y-59902594D01*
X154399353Y-60042808D01*
X154683989Y-60129151D01*
X154980000Y-60158306D01*
X155276012Y-60129151D01*
X155560648Y-60042808D01*
X155822970Y-59902594D01*
X156052897Y-59713897D01*
X156241594Y-59483970D01*
X156381808Y-59221648D01*
X156468151Y-58937012D01*
X156490000Y-58715178D01*
X156490000Y-56816823D01*
X158470000Y-56816823D01*
X158470000Y-58715178D01*
X158491850Y-58937012D01*
X158578193Y-59221648D01*
X158718407Y-59483970D01*
X158907104Y-59713897D01*
X159137031Y-59902594D01*
X159399353Y-60042808D01*
X159683989Y-60129151D01*
X159980000Y-60158306D01*
X160276012Y-60129151D01*
X160560648Y-60042808D01*
X160822970Y-59902594D01*
X161052897Y-59713897D01*
X161230001Y-59498097D01*
X161407104Y-59713897D01*
X161637031Y-59902594D01*
X161899353Y-60042808D01*
X162183989Y-60129151D01*
X162480000Y-60158306D01*
X162776012Y-60129151D01*
X163060648Y-60042808D01*
X163322970Y-59902594D01*
X163552897Y-59713897D01*
X163741594Y-59483970D01*
X163881808Y-59221648D01*
X163968151Y-58937012D01*
X163990000Y-58715178D01*
X163990000Y-56816822D01*
X163968151Y-56594988D01*
X163881808Y-56310352D01*
X163741594Y-56048030D01*
X163552897Y-55818103D01*
X163373931Y-55671229D01*
X166210000Y-55671229D01*
X166210000Y-56288771D01*
X166330476Y-56894446D01*
X166566799Y-57464979D01*
X166909886Y-57978446D01*
X167346554Y-58415114D01*
X167860021Y-58758201D01*
X168430554Y-58994524D01*
X169036229Y-59115000D01*
X169653771Y-59115000D01*
X170259446Y-58994524D01*
X170829979Y-58758201D01*
X171343446Y-58415114D01*
X171780114Y-57978446D01*
X172123201Y-57464979D01*
X172359524Y-56894446D01*
X172480000Y-56288771D01*
X172480000Y-55671229D01*
X172454524Y-55543148D01*
X182761457Y-55543148D01*
X183037627Y-55961118D01*
X183582557Y-56251649D01*
X184173696Y-56430287D01*
X184788328Y-56490168D01*
X185402831Y-56428990D01*
X185993592Y-56249103D01*
X186532373Y-55961118D01*
X186808543Y-55543148D01*
X184785000Y-53519605D01*
X182761457Y-55543148D01*
X172454524Y-55543148D01*
X172359524Y-55065554D01*
X172123201Y-54495021D01*
X171780114Y-53981554D01*
X171343446Y-53544886D01*
X171041793Y-53343328D01*
X181634832Y-53343328D01*
X181696010Y-53957831D01*
X181875897Y-54548592D01*
X182163882Y-55087373D01*
X182581852Y-55363543D01*
X184605395Y-53340000D01*
X182581852Y-51316457D01*
X182163882Y-51592627D01*
X181873351Y-52137557D01*
X181694713Y-52728696D01*
X181634832Y-53343328D01*
X171041793Y-53343328D01*
X170829979Y-53201799D01*
X170259446Y-52965476D01*
X169653771Y-52845000D01*
X169036229Y-52845000D01*
X168430554Y-52965476D01*
X167860021Y-53201799D01*
X167346554Y-53544886D01*
X166909886Y-53981554D01*
X166566799Y-54495021D01*
X166330476Y-55065554D01*
X166210000Y-55671229D01*
X163373931Y-55671229D01*
X163322969Y-55629406D01*
X163060647Y-55489192D01*
X162776011Y-55402849D01*
X162480000Y-55373694D01*
X162183988Y-55402849D01*
X161899352Y-55489192D01*
X161637030Y-55629406D01*
X161407103Y-55818103D01*
X161230000Y-56033903D01*
X161052897Y-55818103D01*
X160822969Y-55629406D01*
X160560647Y-55489192D01*
X160276011Y-55402849D01*
X159980000Y-55373694D01*
X159683988Y-55402849D01*
X159399352Y-55489192D01*
X159137030Y-55629406D01*
X158907103Y-55818103D01*
X158718406Y-56048031D01*
X158578192Y-56310353D01*
X158491849Y-56594989D01*
X158470000Y-56816823D01*
X156490000Y-56816823D01*
X156490000Y-56816822D01*
X156468151Y-56594988D01*
X156381808Y-56310352D01*
X156241594Y-56048030D01*
X156052897Y-55818103D01*
X155822969Y-55629406D01*
X155560647Y-55489192D01*
X155276011Y-55402849D01*
X154980000Y-55373694D01*
X154683988Y-55402849D01*
X154399352Y-55489192D01*
X154137030Y-55629406D01*
X153907103Y-55818103D01*
X153730000Y-56033903D01*
X153552897Y-55818103D01*
X153322969Y-55629406D01*
X153060647Y-55489192D01*
X152776011Y-55402849D01*
X152480000Y-55373694D01*
X152183988Y-55402849D01*
X151899352Y-55489192D01*
X151637030Y-55629406D01*
X151407103Y-55818103D01*
X151218406Y-56048031D01*
X151130000Y-56213427D01*
X151041594Y-56048030D01*
X150852897Y-55818103D01*
X150622969Y-55629406D01*
X150360647Y-55489192D01*
X150076011Y-55402849D01*
X149780000Y-55373694D01*
X149483988Y-55402849D01*
X149199352Y-55489192D01*
X148937030Y-55629406D01*
X148707103Y-55818103D01*
X148530000Y-56033903D01*
X148352897Y-55818103D01*
X148122969Y-55629406D01*
X147860647Y-55489192D01*
X147576011Y-55402849D01*
X147280000Y-55373694D01*
X146983988Y-55402849D01*
X146699352Y-55489192D01*
X146437030Y-55629406D01*
X146207103Y-55818103D01*
X146018406Y-56048031D01*
X145878192Y-56310353D01*
X145791849Y-56594989D01*
X145770000Y-56816823D01*
X143790000Y-56816823D01*
X143790000Y-56816822D01*
X143768151Y-56594988D01*
X143681808Y-56310352D01*
X143541594Y-56048030D01*
X143352897Y-55818103D01*
X143122969Y-55629406D01*
X142860647Y-55489192D01*
X142576011Y-55402849D01*
X142280000Y-55373694D01*
X141983988Y-55402849D01*
X141699352Y-55489192D01*
X141437030Y-55629406D01*
X141207103Y-55818103D01*
X141030000Y-56033903D01*
X140852897Y-55818103D01*
X140622969Y-55629406D01*
X140360647Y-55489192D01*
X140076011Y-55402849D01*
X139780000Y-55373694D01*
X139483988Y-55402849D01*
X139199352Y-55489192D01*
X138937030Y-55629406D01*
X138707103Y-55818103D01*
X138518406Y-56048031D01*
X138430000Y-56213427D01*
X138341594Y-56048030D01*
X138152897Y-55818103D01*
X137922969Y-55629406D01*
X137660647Y-55489192D01*
X137376011Y-55402849D01*
X137080000Y-55373694D01*
X136783988Y-55402849D01*
X136499352Y-55489192D01*
X136237030Y-55629406D01*
X136007103Y-55818103D01*
X135830000Y-56033903D01*
X135652897Y-55818103D01*
X135422969Y-55629406D01*
X135160647Y-55489192D01*
X134876011Y-55402849D01*
X134580000Y-55373694D01*
X134283988Y-55402849D01*
X133999352Y-55489192D01*
X133737030Y-55629406D01*
X133507103Y-55818103D01*
X133318406Y-56048031D01*
X133178192Y-56310353D01*
X133091849Y-56594989D01*
X133070000Y-56816823D01*
X131090000Y-56816823D01*
X131090000Y-56816822D01*
X131068151Y-56594988D01*
X130981808Y-56310352D01*
X130841594Y-56048030D01*
X130652897Y-55818103D01*
X130422969Y-55629406D01*
X130160647Y-55489192D01*
X129876011Y-55402849D01*
X129580000Y-55373694D01*
X129283988Y-55402849D01*
X128999352Y-55489192D01*
X128737030Y-55629406D01*
X128507103Y-55818103D01*
X128330000Y-56033903D01*
X128152897Y-55818103D01*
X127922969Y-55629406D01*
X127660647Y-55489192D01*
X127376011Y-55402849D01*
X127080000Y-55373694D01*
X126783988Y-55402849D01*
X126499352Y-55489192D01*
X126237030Y-55629406D01*
X126007103Y-55818103D01*
X125818406Y-56048031D01*
X125730000Y-56213427D01*
X125641594Y-56048030D01*
X125452897Y-55818103D01*
X125222969Y-55629406D01*
X124960647Y-55489192D01*
X124676011Y-55402849D01*
X124380000Y-55373694D01*
X124083988Y-55402849D01*
X123799352Y-55489192D01*
X123537030Y-55629406D01*
X123307103Y-55818103D01*
X123130000Y-56033903D01*
X122952897Y-55818103D01*
X122722969Y-55629406D01*
X122460647Y-55489192D01*
X122176011Y-55402849D01*
X121880000Y-55373694D01*
X121583988Y-55402849D01*
X121299352Y-55489192D01*
X121037030Y-55629406D01*
X120807103Y-55818103D01*
X120618406Y-56048031D01*
X120478192Y-56310353D01*
X120391849Y-56594989D01*
X120370000Y-56816823D01*
X118390000Y-56816823D01*
X118390000Y-56816822D01*
X118368151Y-56594988D01*
X118281808Y-56310352D01*
X118141594Y-56048030D01*
X117952897Y-55818103D01*
X117722969Y-55629406D01*
X117460647Y-55489192D01*
X117176011Y-55402849D01*
X116880000Y-55373694D01*
X116583988Y-55402849D01*
X116299352Y-55489192D01*
X116037030Y-55629406D01*
X115807103Y-55818103D01*
X115630000Y-56033903D01*
X115452897Y-55818103D01*
X115222969Y-55629406D01*
X114960647Y-55489192D01*
X114676011Y-55402849D01*
X114380000Y-55373694D01*
X114083988Y-55402849D01*
X113799352Y-55489192D01*
X113537030Y-55629406D01*
X113307103Y-55818103D01*
X113118406Y-56048031D01*
X112978192Y-56310353D01*
X112891849Y-56594989D01*
X112870000Y-56816823D01*
X108745000Y-56816823D01*
X108745000Y-56816822D01*
X108723151Y-56594988D01*
X108636808Y-56310352D01*
X108496594Y-56048030D01*
X108307897Y-55818103D01*
X108077969Y-55629406D01*
X107815647Y-55489192D01*
X107531011Y-55402849D01*
X107235000Y-55373694D01*
X106938988Y-55402849D01*
X106654352Y-55489192D01*
X106392030Y-55629406D01*
X106162103Y-55818103D01*
X105985000Y-56033903D01*
X105807897Y-55818103D01*
X105577969Y-55629406D01*
X105315647Y-55489192D01*
X105031011Y-55402849D01*
X104735000Y-55373694D01*
X104438988Y-55402849D01*
X104154352Y-55489192D01*
X103892030Y-55629406D01*
X103662103Y-55818103D01*
X103473406Y-56048031D01*
X103333192Y-56310353D01*
X103246849Y-56594989D01*
X103225000Y-56816823D01*
X101245000Y-56816823D01*
X101245000Y-56816822D01*
X101223151Y-56594988D01*
X101136808Y-56310352D01*
X100996594Y-56048030D01*
X100807897Y-55818103D01*
X100577969Y-55629406D01*
X100315647Y-55489192D01*
X100031011Y-55402849D01*
X99735000Y-55373694D01*
X99438988Y-55402849D01*
X99154352Y-55489192D01*
X98892030Y-55629406D01*
X98662103Y-55818103D01*
X98485000Y-56033903D01*
X98307897Y-55818103D01*
X98077969Y-55629406D01*
X97815647Y-55489192D01*
X97531011Y-55402849D01*
X97235000Y-55373694D01*
X96938988Y-55402849D01*
X96654352Y-55489192D01*
X96392030Y-55629406D01*
X96162103Y-55818103D01*
X95973406Y-56048031D01*
X95833192Y-56310353D01*
X95746849Y-56594989D01*
X95725000Y-56816823D01*
X89560000Y-56816823D01*
X89560000Y-55543148D01*
X90051457Y-55543148D01*
X90327627Y-55961118D01*
X90872557Y-56251649D01*
X91463696Y-56430287D01*
X92078328Y-56490168D01*
X92692831Y-56428990D01*
X93283592Y-56249103D01*
X93822373Y-55961118D01*
X94098543Y-55543148D01*
X92075000Y-53519605D01*
X90051457Y-55543148D01*
X89560000Y-55543148D01*
X89560000Y-55157490D01*
X89871852Y-55363543D01*
X91895395Y-53340000D01*
X92254605Y-53340000D01*
X94278148Y-55363543D01*
X94696118Y-55087373D01*
X94986649Y-54542443D01*
X95147549Y-54010000D01*
X99846928Y-54010000D01*
X99859188Y-54134482D01*
X99895498Y-54254180D01*
X99954463Y-54364494D01*
X100033815Y-54461185D01*
X100130506Y-54540537D01*
X100240820Y-54599502D01*
X100360518Y-54635812D01*
X100485000Y-54648072D01*
X101949250Y-54645000D01*
X102108000Y-54486250D01*
X102108000Y-52887000D01*
X102362000Y-52887000D01*
X102362000Y-54486250D01*
X102520750Y-54645000D01*
X103985000Y-54648072D01*
X104109482Y-54635812D01*
X104229180Y-54599502D01*
X104339494Y-54540537D01*
X104436185Y-54461185D01*
X104515537Y-54364494D01*
X104574502Y-54254180D01*
X104610812Y-54134482D01*
X104623072Y-54010000D01*
X116991928Y-54010000D01*
X117004188Y-54134482D01*
X117040498Y-54254180D01*
X117099463Y-54364494D01*
X117178815Y-54461185D01*
X117275506Y-54540537D01*
X117385820Y-54599502D01*
X117505518Y-54635812D01*
X117630000Y-54648072D01*
X119094250Y-54645000D01*
X119253000Y-54486250D01*
X119253000Y-52887000D01*
X119507000Y-52887000D01*
X119507000Y-54486250D01*
X119665750Y-54645000D01*
X121130000Y-54648072D01*
X121254482Y-54635812D01*
X121374180Y-54599502D01*
X121484494Y-54540537D01*
X121581185Y-54461185D01*
X121660537Y-54364494D01*
X121719502Y-54254180D01*
X121755812Y-54134482D01*
X121768072Y-54010000D01*
X129691928Y-54010000D01*
X129704188Y-54134482D01*
X129740498Y-54254180D01*
X129799463Y-54364494D01*
X129878815Y-54461185D01*
X129975506Y-54540537D01*
X130085820Y-54599502D01*
X130205518Y-54635812D01*
X130330000Y-54648072D01*
X131794250Y-54645000D01*
X131953000Y-54486250D01*
X131953000Y-52887000D01*
X132207000Y-52887000D01*
X132207000Y-54486250D01*
X132365750Y-54645000D01*
X133830000Y-54648072D01*
X133954482Y-54635812D01*
X134074180Y-54599502D01*
X134184494Y-54540537D01*
X134281185Y-54461185D01*
X134360537Y-54364494D01*
X134419502Y-54254180D01*
X134455812Y-54134482D01*
X134468072Y-54010000D01*
X142391928Y-54010000D01*
X142404188Y-54134482D01*
X142440498Y-54254180D01*
X142499463Y-54364494D01*
X142578815Y-54461185D01*
X142675506Y-54540537D01*
X142785820Y-54599502D01*
X142905518Y-54635812D01*
X143030000Y-54648072D01*
X144494250Y-54645000D01*
X144653000Y-54486250D01*
X144653000Y-52887000D01*
X144907000Y-52887000D01*
X144907000Y-54486250D01*
X145065750Y-54645000D01*
X146530000Y-54648072D01*
X146654482Y-54635812D01*
X146774180Y-54599502D01*
X146884494Y-54540537D01*
X146981185Y-54461185D01*
X147060537Y-54364494D01*
X147119502Y-54254180D01*
X147155812Y-54134482D01*
X147168072Y-54010000D01*
X155091928Y-54010000D01*
X155104188Y-54134482D01*
X155140498Y-54254180D01*
X155199463Y-54364494D01*
X155278815Y-54461185D01*
X155375506Y-54540537D01*
X155485820Y-54599502D01*
X155605518Y-54635812D01*
X155730000Y-54648072D01*
X157194250Y-54645000D01*
X157353000Y-54486250D01*
X157353000Y-52887000D01*
X157607000Y-52887000D01*
X157607000Y-54486250D01*
X157765750Y-54645000D01*
X159230000Y-54648072D01*
X159354482Y-54635812D01*
X159474180Y-54599502D01*
X159584494Y-54540537D01*
X159681185Y-54461185D01*
X159760537Y-54364494D01*
X159819502Y-54254180D01*
X159855812Y-54134482D01*
X159868072Y-54010000D01*
X159865000Y-53045750D01*
X159706250Y-52887000D01*
X157607000Y-52887000D01*
X157353000Y-52887000D01*
X155253750Y-52887000D01*
X155095000Y-53045750D01*
X155091928Y-54010000D01*
X147168072Y-54010000D01*
X147165000Y-53045750D01*
X147006250Y-52887000D01*
X144907000Y-52887000D01*
X144653000Y-52887000D01*
X142553750Y-52887000D01*
X142395000Y-53045750D01*
X142391928Y-54010000D01*
X134468072Y-54010000D01*
X134465000Y-53045750D01*
X134306250Y-52887000D01*
X132207000Y-52887000D01*
X131953000Y-52887000D01*
X129853750Y-52887000D01*
X129695000Y-53045750D01*
X129691928Y-54010000D01*
X121768072Y-54010000D01*
X121765000Y-53045750D01*
X121606250Y-52887000D01*
X119507000Y-52887000D01*
X119253000Y-52887000D01*
X117153750Y-52887000D01*
X116995000Y-53045750D01*
X116991928Y-54010000D01*
X104623072Y-54010000D01*
X104620000Y-53045750D01*
X104461250Y-52887000D01*
X102362000Y-52887000D01*
X102108000Y-52887000D01*
X100008750Y-52887000D01*
X99850000Y-53045750D01*
X99846928Y-54010000D01*
X95147549Y-54010000D01*
X95165287Y-53951304D01*
X95225168Y-53336672D01*
X95163990Y-52722169D01*
X94984103Y-52131408D01*
X94696118Y-51592627D01*
X94571067Y-51510000D01*
X99846928Y-51510000D01*
X99850000Y-52474250D01*
X100008750Y-52633000D01*
X102108000Y-52633000D01*
X102108000Y-51033750D01*
X102362000Y-51033750D01*
X102362000Y-52633000D01*
X104461250Y-52633000D01*
X104620000Y-52474250D01*
X104623072Y-51510000D01*
X116991928Y-51510000D01*
X116995000Y-52474250D01*
X117153750Y-52633000D01*
X119253000Y-52633000D01*
X119253000Y-51033750D01*
X119507000Y-51033750D01*
X119507000Y-52633000D01*
X121606250Y-52633000D01*
X121765000Y-52474250D01*
X121768072Y-51510000D01*
X129691928Y-51510000D01*
X129695000Y-52474250D01*
X129853750Y-52633000D01*
X131953000Y-52633000D01*
X131953000Y-51033750D01*
X132207000Y-51033750D01*
X132207000Y-52633000D01*
X134306250Y-52633000D01*
X134465000Y-52474250D01*
X134468072Y-51510000D01*
X142391928Y-51510000D01*
X142395000Y-52474250D01*
X142553750Y-52633000D01*
X144653000Y-52633000D01*
X144653000Y-51033750D01*
X144907000Y-51033750D01*
X144907000Y-52633000D01*
X147006250Y-52633000D01*
X147165000Y-52474250D01*
X147168072Y-51510000D01*
X155091928Y-51510000D01*
X155095000Y-52474250D01*
X155253750Y-52633000D01*
X157353000Y-52633000D01*
X157353000Y-51033750D01*
X157607000Y-51033750D01*
X157607000Y-52633000D01*
X159706250Y-52633000D01*
X159865000Y-52474250D01*
X159868072Y-51510000D01*
X159855812Y-51385518D01*
X159819502Y-51265820D01*
X159760537Y-51155506D01*
X159681185Y-51058815D01*
X159584494Y-50979463D01*
X159474180Y-50920498D01*
X159354482Y-50884188D01*
X159230000Y-50871928D01*
X157765750Y-50875000D01*
X157607000Y-51033750D01*
X157353000Y-51033750D01*
X157194250Y-50875000D01*
X155730000Y-50871928D01*
X155605518Y-50884188D01*
X155485820Y-50920498D01*
X155375506Y-50979463D01*
X155278815Y-51058815D01*
X155199463Y-51155506D01*
X155140498Y-51265820D01*
X155104188Y-51385518D01*
X155091928Y-51510000D01*
X147168072Y-51510000D01*
X147155812Y-51385518D01*
X147119502Y-51265820D01*
X147060537Y-51155506D01*
X146981185Y-51058815D01*
X146884494Y-50979463D01*
X146774180Y-50920498D01*
X146654482Y-50884188D01*
X146530000Y-50871928D01*
X145065750Y-50875000D01*
X144907000Y-51033750D01*
X144653000Y-51033750D01*
X144494250Y-50875000D01*
X143030000Y-50871928D01*
X142905518Y-50884188D01*
X142785820Y-50920498D01*
X142675506Y-50979463D01*
X142578815Y-51058815D01*
X142499463Y-51155506D01*
X142440498Y-51265820D01*
X142404188Y-51385518D01*
X142391928Y-51510000D01*
X134468072Y-51510000D01*
X134455812Y-51385518D01*
X134419502Y-51265820D01*
X134360537Y-51155506D01*
X134281185Y-51058815D01*
X134184494Y-50979463D01*
X134074180Y-50920498D01*
X133954482Y-50884188D01*
X133830000Y-50871928D01*
X132365750Y-50875000D01*
X132207000Y-51033750D01*
X131953000Y-51033750D01*
X131794250Y-50875000D01*
X130330000Y-50871928D01*
X130205518Y-50884188D01*
X130085820Y-50920498D01*
X129975506Y-50979463D01*
X129878815Y-51058815D01*
X129799463Y-51155506D01*
X129740498Y-51265820D01*
X129704188Y-51385518D01*
X129691928Y-51510000D01*
X121768072Y-51510000D01*
X121755812Y-51385518D01*
X121719502Y-51265820D01*
X121660537Y-51155506D01*
X121581185Y-51058815D01*
X121484494Y-50979463D01*
X121374180Y-50920498D01*
X121254482Y-50884188D01*
X121130000Y-50871928D01*
X119665750Y-50875000D01*
X119507000Y-51033750D01*
X119253000Y-51033750D01*
X119094250Y-50875000D01*
X117630000Y-50871928D01*
X117505518Y-50884188D01*
X117385820Y-50920498D01*
X117275506Y-50979463D01*
X117178815Y-51058815D01*
X117099463Y-51155506D01*
X117040498Y-51265820D01*
X117004188Y-51385518D01*
X116991928Y-51510000D01*
X104623072Y-51510000D01*
X104610812Y-51385518D01*
X104574502Y-51265820D01*
X104515537Y-51155506D01*
X104436185Y-51058815D01*
X104339494Y-50979463D01*
X104229180Y-50920498D01*
X104109482Y-50884188D01*
X103985000Y-50871928D01*
X102520750Y-50875000D01*
X102362000Y-51033750D01*
X102108000Y-51033750D01*
X101949250Y-50875000D01*
X100485000Y-50871928D01*
X100360518Y-50884188D01*
X100240820Y-50920498D01*
X100130506Y-50979463D01*
X100033815Y-51058815D01*
X99954463Y-51155506D01*
X99895498Y-51265820D01*
X99859188Y-51385518D01*
X99846928Y-51510000D01*
X94571067Y-51510000D01*
X94278148Y-51316457D01*
X92254605Y-53340000D01*
X91895395Y-53340000D01*
X89871852Y-51316457D01*
X89560000Y-51522510D01*
X89560000Y-51467279D01*
X89574722Y-51317131D01*
X89608953Y-51203754D01*
X89664555Y-51099181D01*
X89739407Y-51007404D01*
X89830664Y-50931909D01*
X89934844Y-50875581D01*
X90047976Y-50840560D01*
X90196022Y-50825000D01*
X90257510Y-50825000D01*
X90051457Y-51136852D01*
%TA.AperFunction,Conductor*%
D32*
G36*
X90051457Y-51136852D02*
G01*
X92075000Y-53160395D01*
X94098543Y-51136852D01*
X93892490Y-50825000D01*
X182967510Y-50825000D01*
X182761457Y-51136852D01*
X184785000Y-53160395D01*
X186808543Y-51136852D01*
X186602490Y-50825000D01*
X186657721Y-50825000D01*
X186807869Y-50839722D01*
X186921246Y-50873953D01*
X187025819Y-50929555D01*
X187117596Y-51004407D01*
X187193091Y-51095664D01*
X187249419Y-51199844D01*
X187284440Y-51312976D01*
X187300001Y-51461031D01*
X187300001Y-51522511D01*
X186988148Y-51316457D01*
X184964605Y-53340000D01*
X186988148Y-55363543D01*
X187300001Y-55157489D01*
X187300000Y-104862511D01*
X186988148Y-104656457D01*
X184964605Y-106680000D01*
X186988148Y-108703543D01*
X187300000Y-108497490D01*
X187300000Y-110457721D01*
X187285278Y-110607869D01*
X187251047Y-110721246D01*
X187195446Y-110825817D01*
X187120594Y-110917595D01*
X187029335Y-110993091D01*
X186925160Y-111049419D01*
X186812024Y-111084440D01*
X186663979Y-111100000D01*
X165132279Y-111100000D01*
X164982131Y-111085278D01*
X164868754Y-111051047D01*
X164764183Y-110995446D01*
X164672405Y-110920594D01*
X164596909Y-110829335D01*
X164540581Y-110725160D01*
X164505560Y-110612024D01*
X164490000Y-110463979D01*
X164490000Y-106271229D01*
X166210000Y-106271229D01*
X166210000Y-106888771D01*
X166330476Y-107494446D01*
X166566799Y-108064979D01*
X166909886Y-108578446D01*
X167346554Y-109015114D01*
X167860021Y-109358201D01*
X168430554Y-109594524D01*
X169036229Y-109715000D01*
X169653771Y-109715000D01*
X170259446Y-109594524D01*
X170829979Y-109358201D01*
X171343446Y-109015114D01*
X171475412Y-108883148D01*
X182761457Y-108883148D01*
X183037627Y-109301118D01*
X183582557Y-109591649D01*
X184173696Y-109770287D01*
X184788328Y-109830168D01*
X185402831Y-109768990D01*
X185993592Y-109589103D01*
X186532373Y-109301118D01*
X186808543Y-108883148D01*
X184785000Y-106859605D01*
X182761457Y-108883148D01*
X171475412Y-108883148D01*
X171780114Y-108578446D01*
X172123201Y-108064979D01*
X172359524Y-107494446D01*
X172480000Y-106888771D01*
X172480000Y-106683328D01*
X181634832Y-106683328D01*
X181696010Y-107297831D01*
X181875897Y-107888592D01*
X182163882Y-108427373D01*
X182581852Y-108703543D01*
X184605395Y-106680000D01*
X182581852Y-104656457D01*
X182163882Y-104932627D01*
X181873351Y-105477557D01*
X181694713Y-106068696D01*
X181634832Y-106683328D01*
X172480000Y-106683328D01*
X172480000Y-106271229D01*
X172359524Y-105665554D01*
X172123201Y-105095021D01*
X171780114Y-104581554D01*
X171675412Y-104476852D01*
X182761457Y-104476852D01*
X184785000Y-106500395D01*
X186808543Y-104476852D01*
X186532373Y-104058882D01*
X185987443Y-103768351D01*
X185396304Y-103589713D01*
X184781672Y-103529832D01*
X184167169Y-103591010D01*
X183576408Y-103770897D01*
X183037627Y-104058882D01*
X182761457Y-104476852D01*
X171675412Y-104476852D01*
X171343446Y-104144886D01*
X170829979Y-103801799D01*
X170259446Y-103565476D01*
X169653771Y-103445000D01*
X169036229Y-103445000D01*
X168430554Y-103565476D01*
X167860021Y-103801799D01*
X167346554Y-104144886D01*
X166909886Y-104581554D01*
X166566799Y-105095021D01*
X166330476Y-105665554D01*
X166210000Y-106271229D01*
X164490000Y-106271229D01*
X164490000Y-106012581D01*
X164487198Y-105984135D01*
X164487253Y-105976318D01*
X164486354Y-105967147D01*
X164460446Y-105720644D01*
X164448414Y-105662028D01*
X164437208Y-105603284D01*
X164434544Y-105594462D01*
X164361249Y-105357686D01*
X164338074Y-105302555D01*
X164315661Y-105247080D01*
X164311334Y-105238944D01*
X164193446Y-105020914D01*
X164160012Y-104971346D01*
X164127240Y-104921265D01*
X164121416Y-104914124D01*
X163963423Y-104723144D01*
X163920988Y-104681005D01*
X163879125Y-104638255D01*
X163872024Y-104632381D01*
X163679946Y-104475727D01*
X163630169Y-104442655D01*
X163580763Y-104408826D01*
X163572657Y-104404444D01*
X163353809Y-104288081D01*
X163298532Y-104265298D01*
X163243525Y-104241721D01*
X163234722Y-104238997D01*
X162997441Y-104167357D01*
X162938754Y-104155736D01*
X162880248Y-104143300D01*
X162871085Y-104142337D01*
X162871083Y-104142337D01*
X162624405Y-104118150D01*
X162624402Y-104118150D01*
X162592419Y-104115000D01*
X93892490Y-104115000D01*
X94098543Y-103803148D01*
X92075000Y-101779605D01*
X90051457Y-103803148D01*
X90257510Y-104115000D01*
X90202279Y-104115000D01*
X90052131Y-104100278D01*
X89938754Y-104066047D01*
X89834183Y-104010446D01*
X89742405Y-103935594D01*
X89666909Y-103844335D01*
X89610581Y-103740160D01*
X89575560Y-103627024D01*
X89560000Y-103478979D01*
X89560000Y-103417490D01*
X89871852Y-103623543D01*
X91895395Y-101600000D01*
X92254605Y-101600000D01*
X94278148Y-103623543D01*
X94696118Y-103347373D01*
X94986649Y-102802443D01*
X95165287Y-102211304D01*
X95190838Y-101949039D01*
X117988096Y-101949039D01*
X118028754Y-102083087D01*
X118148963Y-102337420D01*
X118316481Y-102563414D01*
X118524869Y-102752385D01*
X118766119Y-102897070D01*
X119030960Y-102991909D01*
X119253000Y-102870624D01*
X119253000Y-101727000D01*
X119507000Y-101727000D01*
X119507000Y-102870624D01*
X119729040Y-102991909D01*
X119993881Y-102897070D01*
X120235131Y-102752385D01*
X120443519Y-102563414D01*
X120611037Y-102337420D01*
X120731246Y-102083087D01*
X120771904Y-101949039D01*
X120649915Y-101727000D01*
X119507000Y-101727000D01*
X119253000Y-101727000D01*
X118110085Y-101727000D01*
X117988096Y-101949039D01*
X95190838Y-101949039D01*
X95225168Y-101596672D01*
X95190751Y-101250961D01*
X117988096Y-101250961D01*
X118110085Y-101473000D01*
X119253000Y-101473000D01*
X119253000Y-100329376D01*
X119507000Y-100329376D01*
X119507000Y-101473000D01*
X120649915Y-101473000D01*
X120657790Y-101458665D01*
X128105000Y-101458665D01*
X128105000Y-101741335D01*
X128160147Y-102018574D01*
X128268320Y-102279727D01*
X128425363Y-102514759D01*
X128625241Y-102714637D01*
X128860273Y-102871680D01*
X129121426Y-102979853D01*
X129398665Y-103035000D01*
X129681335Y-103035000D01*
X129958574Y-102979853D01*
X130219727Y-102871680D01*
X130454759Y-102714637D01*
X130654637Y-102514759D01*
X130811680Y-102279727D01*
X130919853Y-102018574D01*
X130975000Y-101741335D01*
X130975000Y-101458665D01*
X130919853Y-101181426D01*
X130811680Y-100920273D01*
X130654637Y-100685241D01*
X130454759Y-100485363D01*
X130219727Y-100328320D01*
X129958574Y-100220147D01*
X129681335Y-100165000D01*
X129398665Y-100165000D01*
X129121426Y-100220147D01*
X128860273Y-100328320D01*
X128625241Y-100485363D01*
X128425363Y-100685241D01*
X128268320Y-100920273D01*
X128160147Y-101181426D01*
X128105000Y-101458665D01*
X120657790Y-101458665D01*
X120771904Y-101250961D01*
X120731246Y-101116913D01*
X120611037Y-100862580D01*
X120443519Y-100636586D01*
X120235131Y-100447615D01*
X119993881Y-100302930D01*
X119729040Y-100208091D01*
X119507000Y-100329376D01*
X119253000Y-100329376D01*
X119030960Y-100208091D01*
X118766119Y-100302930D01*
X118524869Y-100447615D01*
X118316481Y-100636586D01*
X118148963Y-100862580D01*
X118028754Y-101116913D01*
X117988096Y-101250961D01*
X95190751Y-101250961D01*
X95163990Y-100982169D01*
X94984103Y-100391408D01*
X94832111Y-100107050D01*
X137620000Y-100107050D01*
X137620000Y-100552949D01*
X137641487Y-100771110D01*
X137726401Y-101051033D01*
X137864294Y-101309013D01*
X138049866Y-101535134D01*
X138275986Y-101720706D01*
X138533966Y-101858599D01*
X138813889Y-101943513D01*
X139105000Y-101972185D01*
X139396110Y-101943513D01*
X139676033Y-101858599D01*
X139934013Y-101720706D01*
X140154945Y-101539392D01*
X140165498Y-101574180D01*
X140224463Y-101684494D01*
X140303815Y-101781185D01*
X140400506Y-101860537D01*
X140510820Y-101919502D01*
X140630518Y-101955812D01*
X140755000Y-101968072D01*
X141319250Y-101965000D01*
X141478000Y-101806250D01*
X141478000Y-100457000D01*
X141732000Y-100457000D01*
X141732000Y-101806250D01*
X141890750Y-101965000D01*
X142455000Y-101968072D01*
X142579482Y-101955812D01*
X142699180Y-101919502D01*
X142809494Y-101860537D01*
X142906185Y-101781185D01*
X142985537Y-101684494D01*
X143044502Y-101574180D01*
X143080812Y-101454482D01*
X143093072Y-101330000D01*
X143090000Y-100615750D01*
X142931250Y-100457000D01*
X141732000Y-100457000D01*
X141478000Y-100457000D01*
X141458000Y-100457000D01*
X141458000Y-100203000D01*
X141478000Y-100203000D01*
X141478000Y-98853750D01*
X141732000Y-98853750D01*
X141732000Y-100203000D01*
X142931250Y-100203000D01*
X143027200Y-100107050D01*
X147145000Y-100107050D01*
X147145000Y-100552949D01*
X147166487Y-100771110D01*
X147251401Y-101051033D01*
X147389294Y-101309013D01*
X147574866Y-101535134D01*
X147800986Y-101720706D01*
X148058966Y-101858599D01*
X148338889Y-101943513D01*
X148630000Y-101972185D01*
X148921110Y-101943513D01*
X149201033Y-101858599D01*
X149459013Y-101720706D01*
X149679945Y-101539392D01*
X149690498Y-101574180D01*
X149749463Y-101684494D01*
X149828815Y-101781185D01*
X149925506Y-101860537D01*
X150035820Y-101919502D01*
X150155518Y-101955812D01*
X150280000Y-101968072D01*
X150844250Y-101965000D01*
X151003000Y-101806250D01*
X151003000Y-100457000D01*
X151257000Y-100457000D01*
X151257000Y-101806250D01*
X151415750Y-101965000D01*
X151980000Y-101968072D01*
X152104482Y-101955812D01*
X152224180Y-101919502D01*
X152334494Y-101860537D01*
X152431185Y-101781185D01*
X152510537Y-101684494D01*
X152569502Y-101574180D01*
X152605812Y-101454482D01*
X152618072Y-101330000D01*
X152615000Y-100615750D01*
X152456250Y-100457000D01*
X151257000Y-100457000D01*
X151003000Y-100457000D01*
X150983000Y-100457000D01*
X150983000Y-100203000D01*
X151003000Y-100203000D01*
X151003000Y-98853750D01*
X151257000Y-98853750D01*
X151257000Y-100203000D01*
X152456250Y-100203000D01*
X152552200Y-100107050D01*
X156670000Y-100107050D01*
X156670000Y-100552949D01*
X156691487Y-100771110D01*
X156776401Y-101051033D01*
X156914294Y-101309013D01*
X157099866Y-101535134D01*
X157325986Y-101720706D01*
X157583966Y-101858599D01*
X157863889Y-101943513D01*
X158155000Y-101972185D01*
X158446110Y-101943513D01*
X158726033Y-101858599D01*
X158984013Y-101720706D01*
X159204945Y-101539392D01*
X159215498Y-101574180D01*
X159274463Y-101684494D01*
X159353815Y-101781185D01*
X159450506Y-101860537D01*
X159560820Y-101919502D01*
X159680518Y-101955812D01*
X159805000Y-101968072D01*
X160369250Y-101965000D01*
X160528000Y-101806250D01*
X160528000Y-100457000D01*
X160782000Y-100457000D01*
X160782000Y-101806250D01*
X160940750Y-101965000D01*
X161505000Y-101968072D01*
X161629482Y-101955812D01*
X161749180Y-101919502D01*
X161859494Y-101860537D01*
X161956185Y-101781185D01*
X162035537Y-101684494D01*
X162094502Y-101574180D01*
X162130812Y-101454482D01*
X162143072Y-101330000D01*
X162140000Y-100615750D01*
X161981250Y-100457000D01*
X160782000Y-100457000D01*
X160528000Y-100457000D01*
X160508000Y-100457000D01*
X160508000Y-100203000D01*
X160528000Y-100203000D01*
X160528000Y-98853750D01*
X160782000Y-98853750D01*
X160782000Y-100203000D01*
X161981250Y-100203000D01*
X162140000Y-100044250D01*
X162143072Y-99330000D01*
X162130812Y-99205518D01*
X162094502Y-99085820D01*
X162035537Y-98975506D01*
X161956185Y-98878815D01*
X161859494Y-98799463D01*
X161749180Y-98740498D01*
X161629482Y-98704188D01*
X161505000Y-98691928D01*
X160940750Y-98695000D01*
X160782000Y-98853750D01*
X160528000Y-98853750D01*
X160369250Y-98695000D01*
X159805000Y-98691928D01*
X159680518Y-98704188D01*
X159560820Y-98740498D01*
X159450506Y-98799463D01*
X159353815Y-98878815D01*
X159274463Y-98975506D01*
X159215498Y-99085820D01*
X159204945Y-99120608D01*
X158984014Y-98939294D01*
X158726034Y-98801401D01*
X158446111Y-98716487D01*
X158155000Y-98687815D01*
X157863890Y-98716487D01*
X157583967Y-98801401D01*
X157325987Y-98939294D01*
X157099866Y-99124866D01*
X156914294Y-99350986D01*
X156776401Y-99608966D01*
X156691487Y-99888889D01*
X156670000Y-100107050D01*
X152552200Y-100107050D01*
X152615000Y-100044250D01*
X152618072Y-99330000D01*
X152605812Y-99205518D01*
X152569502Y-99085820D01*
X152510537Y-98975506D01*
X152431185Y-98878815D01*
X152334494Y-98799463D01*
X152224180Y-98740498D01*
X152104482Y-98704188D01*
X151980000Y-98691928D01*
X151415750Y-98695000D01*
X151257000Y-98853750D01*
X151003000Y-98853750D01*
X150844250Y-98695000D01*
X150280000Y-98691928D01*
X150155518Y-98704188D01*
X150035820Y-98740498D01*
X149925506Y-98799463D01*
X149828815Y-98878815D01*
X149749463Y-98975506D01*
X149690498Y-99085820D01*
X149679945Y-99120608D01*
X149459014Y-98939294D01*
X149201034Y-98801401D01*
X148921111Y-98716487D01*
X148630000Y-98687815D01*
X148338890Y-98716487D01*
X148058967Y-98801401D01*
X147800987Y-98939294D01*
X147574866Y-99124866D01*
X147389294Y-99350986D01*
X147251401Y-99608966D01*
X147166487Y-99888889D01*
X147145000Y-100107050D01*
X143027200Y-100107050D01*
X143090000Y-100044250D01*
X143093072Y-99330000D01*
X143080812Y-99205518D01*
X143044502Y-99085820D01*
X142985537Y-98975506D01*
X142906185Y-98878815D01*
X142809494Y-98799463D01*
X142699180Y-98740498D01*
X142579482Y-98704188D01*
X142455000Y-98691928D01*
X141890750Y-98695000D01*
X141732000Y-98853750D01*
X141478000Y-98853750D01*
X141319250Y-98695000D01*
X140755000Y-98691928D01*
X140630518Y-98704188D01*
X140510820Y-98740498D01*
X140400506Y-98799463D01*
X140303815Y-98878815D01*
X140224463Y-98975506D01*
X140165498Y-99085820D01*
X140154945Y-99120608D01*
X139934014Y-98939294D01*
X139676034Y-98801401D01*
X139396111Y-98716487D01*
X139105000Y-98687815D01*
X138813890Y-98716487D01*
X138533967Y-98801401D01*
X138275987Y-98939294D01*
X138049866Y-99124866D01*
X137864294Y-99350986D01*
X137726401Y-99608966D01*
X137641487Y-99888889D01*
X137620000Y-100107050D01*
X94832111Y-100107050D01*
X94696118Y-99852627D01*
X94278148Y-99576457D01*
X92254605Y-101600000D01*
X91895395Y-101600000D01*
X89871852Y-99576457D01*
X89560000Y-99782510D01*
X89560000Y-99396852D01*
X90051457Y-99396852D01*
X92075000Y-101420395D01*
X94098543Y-99396852D01*
X93822373Y-98978882D01*
X93277443Y-98688351D01*
X92686304Y-98509713D01*
X92071672Y-98449832D01*
X91457169Y-98511010D01*
X90866408Y-98690897D01*
X90327627Y-98978882D01*
X90051457Y-99396852D01*
X89560000Y-99396852D01*
X89560000Y-98186122D01*
X117690825Y-98186122D01*
X117755425Y-98399094D01*
X117905469Y-98704329D01*
X118112178Y-98974427D01*
X118367609Y-99199008D01*
X118661946Y-99369442D01*
X118983877Y-99479179D01*
X119253000Y-99361600D01*
X119253000Y-97917000D01*
X119507000Y-97917000D01*
X119507000Y-99361600D01*
X119776123Y-99479179D01*
X120098054Y-99369442D01*
X120392391Y-99199008D01*
X120647822Y-98974427D01*
X120854531Y-98704329D01*
X121004575Y-98399094D01*
X121069175Y-98186122D01*
X120951125Y-97917000D01*
X119507000Y-97917000D01*
X119253000Y-97917000D01*
X117808875Y-97917000D01*
X117690825Y-98186122D01*
X89560000Y-98186122D01*
X89560000Y-97147394D01*
X117602228Y-97147394D01*
X117604440Y-97179776D01*
X117611667Y-97203601D01*
X117623403Y-97225557D01*
X117639197Y-97244803D01*
X117658443Y-97260597D01*
X117680399Y-97272333D01*
X117704224Y-97279560D01*
X117724884Y-97281595D01*
X117690825Y-97393878D01*
X117808875Y-97663000D01*
X119253000Y-97663000D01*
X119253000Y-97643000D01*
X119507000Y-97643000D01*
X119507000Y-97663000D01*
X120951125Y-97663000D01*
X121069175Y-97393878D01*
X121035080Y-97281474D01*
X121063192Y-97277852D01*
X121086541Y-97269211D01*
X121107755Y-97256181D01*
X121126020Y-97239263D01*
X121140633Y-97219106D01*
X121151033Y-97196486D01*
X121156820Y-97172272D01*
X121157772Y-97147394D01*
X121130329Y-96690000D01*
X127801928Y-96690000D01*
X127801928Y-98890000D01*
X127814188Y-99014482D01*
X127850498Y-99134180D01*
X127909463Y-99244494D01*
X127988815Y-99341185D01*
X128085506Y-99420537D01*
X128195820Y-99479502D01*
X128315518Y-99515812D01*
X128440000Y-99528072D01*
X130640000Y-99528072D01*
X130764482Y-99515812D01*
X130884180Y-99479502D01*
X130994494Y-99420537D01*
X131091185Y-99341185D01*
X131170537Y-99244494D01*
X131229502Y-99134180D01*
X131265812Y-99014482D01*
X131278072Y-98890000D01*
X131278072Y-96690000D01*
X131265812Y-96565518D01*
X131229502Y-96445820D01*
X131170537Y-96335506D01*
X131091185Y-96238815D01*
X130994494Y-96159463D01*
X130884180Y-96100498D01*
X130764482Y-96064188D01*
X130640000Y-96051928D01*
X128440000Y-96051928D01*
X128315518Y-96064188D01*
X128195820Y-96100498D01*
X128085506Y-96159463D01*
X127988815Y-96238815D01*
X127909463Y-96335506D01*
X127850498Y-96445820D01*
X127814188Y-96565518D01*
X127801928Y-96690000D01*
X121130329Y-96690000D01*
X120889310Y-92673022D01*
X121050986Y-92805706D01*
X121308966Y-92943599D01*
X121588889Y-93028513D01*
X121880000Y-93057185D01*
X122171110Y-93028513D01*
X122451033Y-92943599D01*
X122709013Y-92805706D01*
X122935134Y-92620134D01*
X123120706Y-92394014D01*
X123130000Y-92376626D01*
X123139294Y-92394013D01*
X123324866Y-92620134D01*
X123550986Y-92805706D01*
X123808966Y-92943599D01*
X124088889Y-93028513D01*
X124380000Y-93057185D01*
X124671110Y-93028513D01*
X124951033Y-92943599D01*
X125209013Y-92805706D01*
X125435134Y-92620134D01*
X125620706Y-92394014D01*
X125630000Y-92376626D01*
X125639294Y-92394013D01*
X125824866Y-92620134D01*
X126050986Y-92805706D01*
X126308966Y-92943599D01*
X126588889Y-93028513D01*
X126880000Y-93057185D01*
X127171110Y-93028513D01*
X127451033Y-92943599D01*
X127709013Y-92805706D01*
X127935134Y-92620134D01*
X127987223Y-92556663D01*
X128041595Y-92658386D01*
X128152038Y-92792962D01*
X128286614Y-92903405D01*
X128440150Y-92985472D01*
X128606746Y-93036008D01*
X128780000Y-93053072D01*
X129980000Y-93053072D01*
X130153254Y-93036008D01*
X130319850Y-92985472D01*
X130473386Y-92903405D01*
X130607962Y-92792962D01*
X130718405Y-92658386D01*
X130800472Y-92504850D01*
X130851008Y-92338254D01*
X130868072Y-92165000D01*
X130868072Y-91217050D01*
X135080000Y-91217050D01*
X135080000Y-91662949D01*
X135101487Y-91881110D01*
X135186401Y-92161033D01*
X135324294Y-92419013D01*
X135509866Y-92645134D01*
X135735986Y-92830706D01*
X135993966Y-92968599D01*
X136273889Y-93053513D01*
X136565000Y-93082185D01*
X136856110Y-93053513D01*
X137136033Y-92968599D01*
X137394013Y-92830706D01*
X137614945Y-92649392D01*
X137625498Y-92684180D01*
X137684463Y-92794494D01*
X137763815Y-92891185D01*
X137860506Y-92970537D01*
X137970820Y-93029502D01*
X138090518Y-93065812D01*
X138215000Y-93078072D01*
X138779250Y-93075000D01*
X138938000Y-92916250D01*
X138938000Y-91567000D01*
X139192000Y-91567000D01*
X139192000Y-92916250D01*
X139350750Y-93075000D01*
X139915000Y-93078072D01*
X140039482Y-93065812D01*
X140159180Y-93029502D01*
X140269494Y-92970537D01*
X140366185Y-92891185D01*
X140445537Y-92794494D01*
X140504502Y-92684180D01*
X140540812Y-92564482D01*
X140553072Y-92440000D01*
X140550000Y-91725750D01*
X140391250Y-91567000D01*
X139192000Y-91567000D01*
X138938000Y-91567000D01*
X138918000Y-91567000D01*
X138918000Y-91313000D01*
X138938000Y-91313000D01*
X138938000Y-89963750D01*
X139192000Y-89963750D01*
X139192000Y-91313000D01*
X140391250Y-91313000D01*
X140487200Y-91217050D01*
X144605000Y-91217050D01*
X144605000Y-91662949D01*
X144626487Y-91881110D01*
X144711401Y-92161033D01*
X144849294Y-92419013D01*
X145034866Y-92645134D01*
X145260986Y-92830706D01*
X145518966Y-92968599D01*
X145798889Y-93053513D01*
X146090000Y-93082185D01*
X146381110Y-93053513D01*
X146661033Y-92968599D01*
X146919013Y-92830706D01*
X147145134Y-92645134D01*
X147197223Y-92581663D01*
X147251595Y-92683386D01*
X147362038Y-92817962D01*
X147496614Y-92928405D01*
X147650150Y-93010472D01*
X147816746Y-93061008D01*
X147990000Y-93078072D01*
X149190000Y-93078072D01*
X149363254Y-93061008D01*
X149529850Y-93010472D01*
X149683386Y-92928405D01*
X149817962Y-92817962D01*
X149928405Y-92683386D01*
X150010472Y-92529850D01*
X150061008Y-92363254D01*
X150078072Y-92190000D01*
X150078072Y-91242050D01*
X154170000Y-91242050D01*
X154170000Y-91637949D01*
X154191487Y-91856110D01*
X154276401Y-92136033D01*
X154414294Y-92394013D01*
X154599866Y-92620134D01*
X154825986Y-92805706D01*
X155083966Y-92943599D01*
X155363889Y-93028513D01*
X155655000Y-93057185D01*
X155946110Y-93028513D01*
X156226033Y-92943599D01*
X156484013Y-92805706D01*
X156710134Y-92620134D01*
X156895706Y-92394014D01*
X156909462Y-92368278D01*
X157065951Y-92574429D01*
X157283807Y-92767496D01*
X157535142Y-92914352D01*
X157798110Y-93006476D01*
X158028000Y-92885155D01*
X158028000Y-91567000D01*
X158008000Y-91567000D01*
X158008000Y-91313000D01*
X158028000Y-91313000D01*
X158028000Y-89994845D01*
X158282000Y-89994845D01*
X158282000Y-91313000D01*
X158302000Y-91313000D01*
X158302000Y-91567000D01*
X158282000Y-91567000D01*
X158282000Y-92885155D01*
X158511890Y-93006476D01*
X158774858Y-92914352D01*
X159026193Y-92767496D01*
X159244049Y-92574429D01*
X159260286Y-92553039D01*
X159316595Y-92658386D01*
X159427038Y-92792962D01*
X159561614Y-92903405D01*
X159715150Y-92985472D01*
X159881746Y-93036008D01*
X160055000Y-93053072D01*
X161255000Y-93053072D01*
X161428254Y-93036008D01*
X161594850Y-92985472D01*
X161748386Y-92903405D01*
X161882962Y-92792962D01*
X161993405Y-92658386D01*
X162075472Y-92504850D01*
X162126008Y-92338254D01*
X162143072Y-92165000D01*
X162143072Y-90715000D01*
X162126008Y-90541746D01*
X162075472Y-90375150D01*
X161993405Y-90221614D01*
X161882962Y-90087038D01*
X161748386Y-89976595D01*
X161594850Y-89894528D01*
X161428254Y-89843992D01*
X161255000Y-89826928D01*
X160055000Y-89826928D01*
X159881746Y-89843992D01*
X159715150Y-89894528D01*
X159561614Y-89976595D01*
X159427038Y-90087038D01*
X159316595Y-90221614D01*
X159260286Y-90326961D01*
X159244049Y-90305571D01*
X159026193Y-90112504D01*
X158774858Y-89965648D01*
X158511890Y-89873524D01*
X158282000Y-89994845D01*
X158028000Y-89994845D01*
X157798110Y-89873524D01*
X157535142Y-89965648D01*
X157283807Y-90112504D01*
X157065951Y-90305571D01*
X156909462Y-90511722D01*
X156895706Y-90485986D01*
X156710134Y-90259866D01*
X156484014Y-90074294D01*
X156226034Y-89936401D01*
X155946111Y-89851487D01*
X155655000Y-89822815D01*
X155363890Y-89851487D01*
X155083967Y-89936401D01*
X154825987Y-90074294D01*
X154599866Y-90259866D01*
X154414294Y-90485986D01*
X154276401Y-90743966D01*
X154191487Y-91023889D01*
X154170000Y-91242050D01*
X150078072Y-91242050D01*
X150078072Y-90690000D01*
X150061008Y-90516746D01*
X150010472Y-90350150D01*
X149928405Y-90196614D01*
X149817962Y-90062038D01*
X149683386Y-89951595D01*
X149529850Y-89869528D01*
X149363254Y-89818992D01*
X149190000Y-89801928D01*
X147990000Y-89801928D01*
X147816746Y-89818992D01*
X147650150Y-89869528D01*
X147496614Y-89951595D01*
X147362038Y-90062038D01*
X147251595Y-90196614D01*
X147197223Y-90298337D01*
X147145134Y-90234866D01*
X146919014Y-90049294D01*
X146661034Y-89911401D01*
X146381111Y-89826487D01*
X146090000Y-89797815D01*
X145798890Y-89826487D01*
X145518967Y-89911401D01*
X145260987Y-90049294D01*
X145034866Y-90234866D01*
X144849294Y-90460986D01*
X144711401Y-90718966D01*
X144626487Y-90998889D01*
X144605000Y-91217050D01*
X140487200Y-91217050D01*
X140550000Y-91154250D01*
X140553072Y-90440000D01*
X140540812Y-90315518D01*
X140504502Y-90195820D01*
X140445537Y-90085506D01*
X140366185Y-89988815D01*
X140269494Y-89909463D01*
X140159180Y-89850498D01*
X140039482Y-89814188D01*
X139915000Y-89801928D01*
X139350750Y-89805000D01*
X139192000Y-89963750D01*
X138938000Y-89963750D01*
X138779250Y-89805000D01*
X138215000Y-89801928D01*
X138090518Y-89814188D01*
X137970820Y-89850498D01*
X137860506Y-89909463D01*
X137763815Y-89988815D01*
X137684463Y-90085506D01*
X137625498Y-90195820D01*
X137614945Y-90230608D01*
X137394014Y-90049294D01*
X137136034Y-89911401D01*
X136856111Y-89826487D01*
X136565000Y-89797815D01*
X136273890Y-89826487D01*
X135993967Y-89911401D01*
X135735987Y-90049294D01*
X135509866Y-90234866D01*
X135324294Y-90460986D01*
X135186401Y-90718966D01*
X135101487Y-90998889D01*
X135080000Y-91217050D01*
X130868072Y-91217050D01*
X130868072Y-90715000D01*
X130851008Y-90541746D01*
X130800472Y-90375150D01*
X130718405Y-90221614D01*
X130607962Y-90087038D01*
X130473386Y-89976595D01*
X130319850Y-89894528D01*
X130153254Y-89843992D01*
X129980000Y-89826928D01*
X128780000Y-89826928D01*
X128606746Y-89843992D01*
X128440150Y-89894528D01*
X128286614Y-89976595D01*
X128152038Y-90087038D01*
X128041595Y-90221614D01*
X127987223Y-90323337D01*
X127935134Y-90259866D01*
X127709014Y-90074294D01*
X127451034Y-89936401D01*
X127171111Y-89851487D01*
X126880000Y-89822815D01*
X126588890Y-89851487D01*
X126308967Y-89936401D01*
X126050987Y-90074294D01*
X125824866Y-90259866D01*
X125639294Y-90485986D01*
X125630000Y-90503374D01*
X125620706Y-90485986D01*
X125435134Y-90259866D01*
X125209014Y-90074294D01*
X124951034Y-89936401D01*
X124671111Y-89851487D01*
X124380000Y-89822815D01*
X124088890Y-89851487D01*
X123808967Y-89936401D01*
X123550987Y-90074294D01*
X123324866Y-90259866D01*
X123139294Y-90485986D01*
X123130000Y-90503374D01*
X123120706Y-90485986D01*
X122935134Y-90259866D01*
X122709014Y-90074294D01*
X122451034Y-89936401D01*
X122171111Y-89851487D01*
X121880000Y-89822815D01*
X121588890Y-89851487D01*
X121308967Y-89936401D01*
X121050987Y-90074294D01*
X120824866Y-90259866D01*
X120639294Y-90485986D01*
X120625538Y-90511722D01*
X120469049Y-90305571D01*
X120415332Y-90257966D01*
X120118344Y-89842183D01*
X120104803Y-89826197D01*
X120085557Y-89810403D01*
X120063601Y-89798667D01*
X120039776Y-89791440D01*
X120015000Y-89789000D01*
X118745000Y-89789000D01*
X118724121Y-89790728D01*
X118700083Y-89797208D01*
X118677771Y-89808254D01*
X118658043Y-89823440D01*
X118641656Y-89842183D01*
X118344668Y-90257966D01*
X118290951Y-90305571D01*
X118114947Y-90537430D01*
X118050568Y-90669706D01*
X118006656Y-90731183D01*
X117995789Y-90749459D01*
X117987148Y-90772808D01*
X117983228Y-90797394D01*
X117981806Y-90821091D01*
X117913680Y-91080733D01*
X117961475Y-91159940D01*
X117924157Y-91781904D01*
X117913680Y-91799267D01*
X117921360Y-91828535D01*
X117602228Y-97147394D01*
X89560000Y-97147394D01*
X89560000Y-86042500D01*
X91071928Y-86042500D01*
X91071928Y-87947500D01*
X91084188Y-88071982D01*
X91120498Y-88191680D01*
X91179463Y-88301994D01*
X91258815Y-88398685D01*
X91355506Y-88478037D01*
X91465820Y-88537002D01*
X91585518Y-88573312D01*
X91710000Y-88585572D01*
X93710000Y-88585572D01*
X93834482Y-88573312D01*
X93954180Y-88537002D01*
X94064494Y-88478037D01*
X94116934Y-88435000D01*
X94781928Y-88435000D01*
X94781928Y-90635000D01*
X94794188Y-90759482D01*
X94830498Y-90879180D01*
X94889463Y-90989494D01*
X94968815Y-91086185D01*
X95065506Y-91165537D01*
X95175820Y-91224502D01*
X95295518Y-91260812D01*
X95420000Y-91273072D01*
X97620000Y-91273072D01*
X97744482Y-91260812D01*
X97864180Y-91224502D01*
X97974494Y-91165537D01*
X98071185Y-91086185D01*
X98150537Y-90989494D01*
X98209502Y-90879180D01*
X98245812Y-90759482D01*
X98258072Y-90635000D01*
X98258072Y-88435000D01*
X98245812Y-88310518D01*
X98209502Y-88190820D01*
X98150537Y-88080506D01*
X98071185Y-87983815D01*
X97974494Y-87904463D01*
X97864180Y-87845498D01*
X97744482Y-87809188D01*
X97620000Y-87796928D01*
X95420000Y-87796928D01*
X95295518Y-87809188D01*
X95175820Y-87845498D01*
X95065506Y-87904463D01*
X94968815Y-87983815D01*
X94889463Y-88080506D01*
X94830498Y-88190820D01*
X94794188Y-88310518D01*
X94781928Y-88435000D01*
X94116934Y-88435000D01*
X94161185Y-88398685D01*
X94240537Y-88301994D01*
X94299502Y-88191680D01*
X94335812Y-88071982D01*
X94348072Y-87947500D01*
X94348072Y-86042500D01*
X94335812Y-85918018D01*
X94299502Y-85798320D01*
X94240537Y-85688006D01*
X94161185Y-85591315D01*
X94064494Y-85511963D01*
X93972781Y-85462941D01*
X94085969Y-85321923D01*
X94229571Y-85046094D01*
X94300563Y-84827980D01*
X94180594Y-84582000D01*
X92837000Y-84582000D01*
X92837000Y-84602000D01*
X92583000Y-84602000D01*
X92583000Y-84582000D01*
X91239406Y-84582000D01*
X91119437Y-84827980D01*
X91190429Y-85046094D01*
X91334031Y-85321923D01*
X91447219Y-85462941D01*
X91355506Y-85511963D01*
X91258815Y-85591315D01*
X91179463Y-85688006D01*
X91120498Y-85798320D01*
X91084188Y-85918018D01*
X91071928Y-86042500D01*
X89560000Y-86042500D01*
X89560000Y-81915000D01*
X91067319Y-81915000D01*
X91097970Y-82226204D01*
X91188745Y-82525449D01*
X91336155Y-82801235D01*
X91534537Y-83042963D01*
X91713899Y-83190163D01*
X91528685Y-83345563D01*
X91334031Y-83588077D01*
X91190429Y-83863906D01*
X91119437Y-84082020D01*
X91239406Y-84328000D01*
X92583000Y-84328000D01*
X92583000Y-84308000D01*
X92837000Y-84308000D01*
X92837000Y-84328000D01*
X94180594Y-84328000D01*
X94300563Y-84082020D01*
X94229571Y-83863906D01*
X94085969Y-83588077D01*
X93891315Y-83345563D01*
X93706101Y-83190163D01*
X93885463Y-83042963D01*
X94083845Y-82801235D01*
X94180716Y-82620000D01*
X101666928Y-82620000D01*
X101666928Y-85020000D01*
X101679188Y-85144482D01*
X101715498Y-85264180D01*
X101774463Y-85374494D01*
X101853815Y-85471185D01*
X101950506Y-85550537D01*
X102060820Y-85609502D01*
X102180518Y-85645812D01*
X102305000Y-85658072D01*
X104705000Y-85658072D01*
X104829482Y-85645812D01*
X104949180Y-85609502D01*
X105059494Y-85550537D01*
X105156185Y-85471185D01*
X105235537Y-85374494D01*
X105294502Y-85264180D01*
X105330812Y-85144482D01*
X105335391Y-85097980D01*
X107406626Y-85097980D01*
X107526514Y-85382836D01*
X107850210Y-85543699D01*
X108199069Y-85638322D01*
X108559684Y-85663067D01*
X108918198Y-85616985D01*
X109260833Y-85501846D01*
X109483486Y-85382836D01*
X109603374Y-85097980D01*
X108505000Y-83999605D01*
X107406626Y-85097980D01*
X105335391Y-85097980D01*
X105343072Y-85020000D01*
X105343072Y-83874684D01*
X106661933Y-83874684D01*
X106708015Y-84233198D01*
X106823154Y-84575833D01*
X106942164Y-84798486D01*
X107227020Y-84918374D01*
X108325395Y-83820000D01*
X108684605Y-83820000D01*
X109782980Y-84918374D01*
X110067836Y-84798486D01*
X110228699Y-84474790D01*
X110323322Y-84125931D01*
X110348067Y-83765316D01*
X110313270Y-83494593D01*
X114035000Y-83494593D01*
X114035000Y-84145408D01*
X114057210Y-84370913D01*
X114144983Y-84660261D01*
X114287519Y-84926927D01*
X114479339Y-85160661D01*
X114713074Y-85352481D01*
X114979740Y-85495017D01*
X115269088Y-85582790D01*
X115570000Y-85612427D01*
X115870913Y-85582790D01*
X116160261Y-85495017D01*
X116426927Y-85352481D01*
X116660661Y-85160661D01*
X116852481Y-84926927D01*
X116995017Y-84660261D01*
X117082790Y-84370912D01*
X117105000Y-84145407D01*
X117105000Y-83494592D01*
X117082790Y-83269087D01*
X116995017Y-82979739D01*
X116852481Y-82713073D01*
X116817133Y-82670000D01*
X121651928Y-82670000D01*
X121651928Y-84970000D01*
X121664188Y-85094482D01*
X121700498Y-85214180D01*
X121759463Y-85324494D01*
X121838815Y-85421185D01*
X121935506Y-85500537D01*
X122045820Y-85559502D01*
X122165518Y-85595812D01*
X122290000Y-85608072D01*
X124090000Y-85608072D01*
X124214482Y-85595812D01*
X124334180Y-85559502D01*
X124444494Y-85500537D01*
X124541185Y-85421185D01*
X124620537Y-85324494D01*
X124679502Y-85214180D01*
X124715812Y-85094482D01*
X124728072Y-84970000D01*
X124728072Y-83494593D01*
X126735000Y-83494593D01*
X126735000Y-84145408D01*
X126757210Y-84370913D01*
X126844983Y-84660261D01*
X126987519Y-84926927D01*
X127179339Y-85160661D01*
X127413074Y-85352481D01*
X127679740Y-85495017D01*
X127969088Y-85582790D01*
X128270000Y-85612427D01*
X128570913Y-85582790D01*
X128860261Y-85495017D01*
X129126927Y-85352481D01*
X129360661Y-85160661D01*
X129552481Y-84926927D01*
X129602920Y-84832561D01*
X131680000Y-84832561D01*
X131680000Y-85036439D01*
X131719774Y-85236398D01*
X131797795Y-85424756D01*
X131911063Y-85594274D01*
X131955001Y-85638212D01*
X131955000Y-85811789D01*
X131911063Y-85855726D01*
X131797795Y-86025244D01*
X131719774Y-86213602D01*
X131680000Y-86413561D01*
X131680000Y-86617439D01*
X131719774Y-86817398D01*
X131797795Y-87005756D01*
X131911063Y-87175274D01*
X132055226Y-87319437D01*
X132224744Y-87432705D01*
X132413102Y-87510726D01*
X132568162Y-87541569D01*
X132595831Y-87608368D01*
X132709099Y-87777886D01*
X132853262Y-87922049D01*
X133022780Y-88035317D01*
X133211138Y-88113338D01*
X133411097Y-88153112D01*
X133614975Y-88153112D01*
X133814934Y-88113338D01*
X134003292Y-88035317D01*
X134172810Y-87922049D01*
X134316973Y-87777886D01*
X134430241Y-87608368D01*
X134508262Y-87420010D01*
X134548036Y-87220051D01*
X134548036Y-87016173D01*
X134508262Y-86816214D01*
X134430241Y-86627856D01*
X134316973Y-86458338D01*
X134273036Y-86414401D01*
X134273036Y-85035599D01*
X134316973Y-84991662D01*
X134351928Y-84939348D01*
X134351928Y-84970000D01*
X134364188Y-85094482D01*
X134400498Y-85214180D01*
X134459463Y-85324494D01*
X134538815Y-85421185D01*
X134635506Y-85500537D01*
X134745820Y-85559502D01*
X134865518Y-85595812D01*
X134990000Y-85608072D01*
X136790000Y-85608072D01*
X136914482Y-85595812D01*
X137034180Y-85559502D01*
X137144494Y-85500537D01*
X137241185Y-85421185D01*
X137320537Y-85324494D01*
X137379502Y-85214180D01*
X137415812Y-85094482D01*
X137428072Y-84970000D01*
X137428072Y-83494593D01*
X139435000Y-83494593D01*
X139435000Y-84145408D01*
X139457210Y-84370913D01*
X139544983Y-84660261D01*
X139687519Y-84926927D01*
X139879339Y-85160661D01*
X140113074Y-85352481D01*
X140379740Y-85495017D01*
X140669088Y-85582790D01*
X140970000Y-85612427D01*
X141270913Y-85582790D01*
X141560261Y-85495017D01*
X141826927Y-85352481D01*
X142060661Y-85160661D01*
X142252481Y-84926927D01*
X142395017Y-84660261D01*
X142482790Y-84370912D01*
X142505000Y-84145407D01*
X142505000Y-83494592D01*
X142482790Y-83269087D01*
X142395017Y-82979739D01*
X142252481Y-82713073D01*
X142217133Y-82670000D01*
X147051928Y-82670000D01*
X147051928Y-84970000D01*
X147064188Y-85094482D01*
X147100498Y-85214180D01*
X147159463Y-85324494D01*
X147238815Y-85421185D01*
X147335506Y-85500537D01*
X147445820Y-85559502D01*
X147565518Y-85595812D01*
X147690000Y-85608072D01*
X149490000Y-85608072D01*
X149614482Y-85595812D01*
X149734180Y-85559502D01*
X149844494Y-85500537D01*
X149941185Y-85421185D01*
X150020537Y-85324494D01*
X150079502Y-85214180D01*
X150115812Y-85094482D01*
X150128072Y-84970000D01*
X150128072Y-83494593D01*
X152135000Y-83494593D01*
X152135000Y-84145408D01*
X152157210Y-84370913D01*
X152244983Y-84660261D01*
X152387519Y-84926927D01*
X152579339Y-85160661D01*
X152813074Y-85352481D01*
X153079740Y-85495017D01*
X153283193Y-85556734D01*
X153270000Y-85623061D01*
X153270000Y-85826939D01*
X153309774Y-86026898D01*
X153387795Y-86215256D01*
X153501063Y-86384774D01*
X153645226Y-86528937D01*
X153814744Y-86642205D01*
X154003102Y-86720226D01*
X154203061Y-86760000D01*
X154406939Y-86760000D01*
X154606898Y-86720226D01*
X154795256Y-86642205D01*
X154932503Y-86550500D01*
X156217497Y-86550500D01*
X156354744Y-86642205D01*
X156543102Y-86720226D01*
X156743061Y-86760000D01*
X156946939Y-86760000D01*
X157146898Y-86720226D01*
X157335256Y-86642205D01*
X157504774Y-86528937D01*
X157648937Y-86384774D01*
X157762205Y-86215256D01*
X157840226Y-86026898D01*
X157880000Y-85826939D01*
X157880000Y-85623061D01*
X157840226Y-85423102D01*
X157762205Y-85234744D01*
X157648937Y-85065226D01*
X157504774Y-84921063D01*
X157335256Y-84807795D01*
X157146898Y-84729774D01*
X156946939Y-84690000D01*
X156743061Y-84690000D01*
X156543102Y-84729774D01*
X156354744Y-84807795D01*
X156217497Y-84899500D01*
X154967141Y-84899500D01*
X155095017Y-84660261D01*
X155182790Y-84370912D01*
X155205000Y-84145407D01*
X155205000Y-83494592D01*
X155182790Y-83269087D01*
X155095017Y-82979739D01*
X154952481Y-82713073D01*
X154917133Y-82670000D01*
X159751928Y-82670000D01*
X159751928Y-84970000D01*
X159764188Y-85094482D01*
X159800498Y-85214180D01*
X159859463Y-85324494D01*
X159938815Y-85421185D01*
X160035506Y-85500537D01*
X160145820Y-85559502D01*
X160265518Y-85595812D01*
X160390000Y-85608072D01*
X162190000Y-85608072D01*
X162314482Y-85595812D01*
X162434180Y-85559502D01*
X162544494Y-85500537D01*
X162641185Y-85421185D01*
X162720537Y-85324494D01*
X162779502Y-85214180D01*
X162815812Y-85094482D01*
X162828072Y-84970000D01*
X162828072Y-82670000D01*
X162815812Y-82545518D01*
X162779502Y-82425820D01*
X162720537Y-82315506D01*
X162641185Y-82218815D01*
X162544494Y-82139463D01*
X162434180Y-82080498D01*
X162314482Y-82044188D01*
X162190000Y-82031928D01*
X160390000Y-82031928D01*
X160265518Y-82044188D01*
X160145820Y-82080498D01*
X160035506Y-82139463D01*
X159938815Y-82218815D01*
X159859463Y-82315506D01*
X159800498Y-82425820D01*
X159764188Y-82545518D01*
X159751928Y-82670000D01*
X154917133Y-82670000D01*
X154760661Y-82479339D01*
X154526926Y-82287519D01*
X154260260Y-82144983D01*
X153970912Y-82057210D01*
X153670000Y-82027573D01*
X153369087Y-82057210D01*
X153079739Y-82144983D01*
X152813073Y-82287519D01*
X152579339Y-82479339D01*
X152387519Y-82713074D01*
X152244983Y-82979740D01*
X152157210Y-83269088D01*
X152135000Y-83494593D01*
X150128072Y-83494593D01*
X150128072Y-82670000D01*
X150115812Y-82545518D01*
X150079502Y-82425820D01*
X150020537Y-82315506D01*
X149941185Y-82218815D01*
X149844494Y-82139463D01*
X149734180Y-82080498D01*
X149614482Y-82044188D01*
X149490000Y-82031928D01*
X147690000Y-82031928D01*
X147565518Y-82044188D01*
X147445820Y-82080498D01*
X147335506Y-82139463D01*
X147238815Y-82218815D01*
X147159463Y-82315506D01*
X147100498Y-82425820D01*
X147064188Y-82545518D01*
X147051928Y-82670000D01*
X142217133Y-82670000D01*
X142060661Y-82479339D01*
X141826926Y-82287519D01*
X141560260Y-82144983D01*
X141270912Y-82057210D01*
X140970000Y-82027573D01*
X140669087Y-82057210D01*
X140379739Y-82144983D01*
X140113073Y-82287519D01*
X139879339Y-82479339D01*
X139687519Y-82713074D01*
X139544983Y-82979740D01*
X139457210Y-83269088D01*
X139435000Y-83494593D01*
X137428072Y-83494593D01*
X137428072Y-82670000D01*
X137415812Y-82545518D01*
X137379502Y-82425820D01*
X137320537Y-82315506D01*
X137241185Y-82218815D01*
X137144494Y-82139463D01*
X137034180Y-82080498D01*
X136914482Y-82044188D01*
X136790000Y-82031928D01*
X134990000Y-82031928D01*
X134865518Y-82044188D01*
X134745820Y-82080498D01*
X134635506Y-82139463D01*
X134538815Y-82218815D01*
X134459463Y-82315506D01*
X134400498Y-82425820D01*
X134364188Y-82545518D01*
X134351928Y-82670000D01*
X134351928Y-83724428D01*
X134316973Y-83672114D01*
X134172810Y-83527951D01*
X134003292Y-83414683D01*
X133814934Y-83336662D01*
X133614975Y-83296888D01*
X133411097Y-83296888D01*
X133211138Y-83336662D01*
X133022780Y-83414683D01*
X132853262Y-83527951D01*
X132709099Y-83672114D01*
X132595831Y-83841632D01*
X132568162Y-83908431D01*
X132413102Y-83939274D01*
X132224744Y-84017295D01*
X132055226Y-84130563D01*
X131911063Y-84274726D01*
X131797795Y-84444244D01*
X131719774Y-84632602D01*
X131680000Y-84832561D01*
X129602920Y-84832561D01*
X129695017Y-84660261D01*
X129782790Y-84370912D01*
X129805000Y-84145407D01*
X129805000Y-83494592D01*
X129782790Y-83269087D01*
X129695017Y-82979739D01*
X129552481Y-82713073D01*
X129360661Y-82479339D01*
X129126926Y-82287519D01*
X128860260Y-82144983D01*
X128570912Y-82057210D01*
X128270000Y-82027573D01*
X127969087Y-82057210D01*
X127679739Y-82144983D01*
X127413073Y-82287519D01*
X127179339Y-82479339D01*
X126987519Y-82713074D01*
X126844983Y-82979740D01*
X126757210Y-83269088D01*
X126735000Y-83494593D01*
X124728072Y-83494593D01*
X124728072Y-82670000D01*
X124715812Y-82545518D01*
X124679502Y-82425820D01*
X124620537Y-82315506D01*
X124541185Y-82218815D01*
X124444494Y-82139463D01*
X124334180Y-82080498D01*
X124214482Y-82044188D01*
X124090000Y-82031928D01*
X122290000Y-82031928D01*
X122165518Y-82044188D01*
X122045820Y-82080498D01*
X121935506Y-82139463D01*
X121838815Y-82218815D01*
X121759463Y-82315506D01*
X121700498Y-82425820D01*
X121664188Y-82545518D01*
X121651928Y-82670000D01*
X116817133Y-82670000D01*
X116660661Y-82479339D01*
X116426926Y-82287519D01*
X116160260Y-82144983D01*
X115870912Y-82057210D01*
X115570000Y-82027573D01*
X115269087Y-82057210D01*
X114979739Y-82144983D01*
X114713073Y-82287519D01*
X114479339Y-82479339D01*
X114287519Y-82713074D01*
X114144983Y-82979740D01*
X114057210Y-83269088D01*
X114035000Y-83494593D01*
X110313270Y-83494593D01*
X110301985Y-83406802D01*
X110186846Y-83064167D01*
X110067836Y-82841514D01*
X109782980Y-82721626D01*
X108684605Y-83820000D01*
X108325395Y-83820000D01*
X107227020Y-82721626D01*
X106942164Y-82841514D01*
X106781301Y-83165210D01*
X106686678Y-83514069D01*
X106661933Y-83874684D01*
X105343072Y-83874684D01*
X105343072Y-82620000D01*
X105335392Y-82542020D01*
X107406626Y-82542020D01*
X108505000Y-83640395D01*
X109603374Y-82542020D01*
X109483486Y-82257164D01*
X109159790Y-82096301D01*
X108810931Y-82001678D01*
X108450316Y-81976933D01*
X108091802Y-82023015D01*
X107749167Y-82138154D01*
X107526514Y-82257164D01*
X107406626Y-82542020D01*
X105335392Y-82542020D01*
X105330812Y-82495518D01*
X105294502Y-82375820D01*
X105235537Y-82265506D01*
X105156185Y-82168815D01*
X105059494Y-82089463D01*
X104949180Y-82030498D01*
X104829482Y-81994188D01*
X104705000Y-81981928D01*
X102305000Y-81981928D01*
X102180518Y-81994188D01*
X102060820Y-82030498D01*
X101950506Y-82089463D01*
X101853815Y-82168815D01*
X101774463Y-82265506D01*
X101715498Y-82375820D01*
X101679188Y-82495518D01*
X101666928Y-82620000D01*
X94180716Y-82620000D01*
X94231255Y-82525449D01*
X94322030Y-82226204D01*
X94352681Y-81915000D01*
X94322030Y-81603796D01*
X94231255Y-81304551D01*
X94083845Y-81028765D01*
X93885463Y-80787037D01*
X93643735Y-80588655D01*
X93367949Y-80441245D01*
X93068704Y-80350470D01*
X92835486Y-80327500D01*
X92584514Y-80327500D01*
X92351296Y-80350470D01*
X92052051Y-80441245D01*
X91776265Y-80588655D01*
X91534537Y-80787037D01*
X91336155Y-81028765D01*
X91188745Y-81304551D01*
X91097970Y-81603796D01*
X91067319Y-81915000D01*
X89560000Y-81915000D01*
X89560000Y-79204117D01*
X94785000Y-79204117D01*
X94785000Y-79545883D01*
X94851675Y-79881081D01*
X94982463Y-80196831D01*
X95172337Y-80480998D01*
X95414002Y-80722663D01*
X95698169Y-80912537D01*
X96013919Y-81043325D01*
X96349117Y-81110000D01*
X96690883Y-81110000D01*
X97026081Y-81043325D01*
X97341831Y-80912537D01*
X97625998Y-80722663D01*
X97867663Y-80480998D01*
X98057537Y-80196831D01*
X98188325Y-79881081D01*
X98255000Y-79545883D01*
X98255000Y-79204117D01*
X98188325Y-78868919D01*
X98057537Y-78553169D01*
X97867663Y-78269002D01*
X97625998Y-78027337D01*
X97341831Y-77837463D01*
X97026081Y-77706675D01*
X96690883Y-77640000D01*
X96349117Y-77640000D01*
X96013919Y-77706675D01*
X95698169Y-77837463D01*
X95414002Y-78027337D01*
X95172337Y-78269002D01*
X94982463Y-78553169D01*
X94851675Y-78868919D01*
X94785000Y-79204117D01*
X89560000Y-79204117D01*
X89560000Y-74255000D01*
X91702815Y-74255000D01*
X91731487Y-74546111D01*
X91816401Y-74826034D01*
X91954294Y-75084014D01*
X92139866Y-75310134D01*
X92365986Y-75495706D01*
X92623966Y-75633599D01*
X92903889Y-75718513D01*
X93122050Y-75740000D01*
X93567950Y-75740000D01*
X93786111Y-75718513D01*
X94066034Y-75633599D01*
X94324014Y-75495706D01*
X94550134Y-75310134D01*
X94735706Y-75084014D01*
X94873599Y-74826034D01*
X94958513Y-74546111D01*
X94987185Y-74255000D01*
X94958513Y-73963889D01*
X94873599Y-73683966D01*
X94772595Y-73495000D01*
X101431928Y-73495000D01*
X101431928Y-75095000D01*
X101444188Y-75219482D01*
X101480498Y-75339180D01*
X101539463Y-75449494D01*
X101618815Y-75546185D01*
X101715506Y-75625537D01*
X101825820Y-75684502D01*
X101945518Y-75720812D01*
X102070000Y-75733072D01*
X103670000Y-75733072D01*
X103794482Y-75720812D01*
X103914180Y-75684502D01*
X104024494Y-75625537D01*
X104121185Y-75546185D01*
X104200537Y-75449494D01*
X104214343Y-75423665D01*
X107150000Y-75423665D01*
X107150000Y-75706335D01*
X107205147Y-75983574D01*
X107313320Y-76244727D01*
X107470363Y-76479759D01*
X107670241Y-76679637D01*
X107905273Y-76836680D01*
X108166426Y-76944853D01*
X108443665Y-77000000D01*
X108726335Y-77000000D01*
X109003574Y-76944853D01*
X109264727Y-76836680D01*
X109499759Y-76679637D01*
X109699637Y-76479759D01*
X109856680Y-76244727D01*
X109964853Y-75983574D01*
X109986530Y-75874593D01*
X114035000Y-75874593D01*
X114035000Y-76525408D01*
X114057210Y-76750913D01*
X114144983Y-77040261D01*
X114287519Y-77306927D01*
X114479339Y-77540661D01*
X114713074Y-77732481D01*
X114979740Y-77875017D01*
X115269088Y-77962790D01*
X115570000Y-77992427D01*
X115870913Y-77962790D01*
X116160261Y-77875017D01*
X116426927Y-77732481D01*
X116660661Y-77540661D01*
X116852481Y-77306927D01*
X116995017Y-77040261D01*
X117082790Y-76750912D01*
X117105000Y-76525407D01*
X117105000Y-75874593D01*
X121655000Y-75874593D01*
X121655000Y-76525408D01*
X121677210Y-76750913D01*
X121764983Y-77040261D01*
X121907519Y-77306927D01*
X122099339Y-77540661D01*
X122333074Y-77732481D01*
X122599740Y-77875017D01*
X122889088Y-77962790D01*
X123190000Y-77992427D01*
X123490913Y-77962790D01*
X123780261Y-77875017D01*
X124046927Y-77732481D01*
X124280661Y-77540661D01*
X124472481Y-77306927D01*
X124615017Y-77040261D01*
X124702790Y-76750912D01*
X124725000Y-76525407D01*
X124725000Y-75874593D01*
X126735000Y-75874593D01*
X126735000Y-76525408D01*
X126757210Y-76750913D01*
X126844983Y-77040261D01*
X126987519Y-77306927D01*
X127179339Y-77540661D01*
X127413074Y-77732481D01*
X127679740Y-77875017D01*
X127969088Y-77962790D01*
X128270000Y-77992427D01*
X128570913Y-77962790D01*
X128860261Y-77875017D01*
X129126927Y-77732481D01*
X129360661Y-77540661D01*
X129552481Y-77306927D01*
X129695017Y-77040261D01*
X129782790Y-76750912D01*
X129805000Y-76525407D01*
X129805000Y-75874593D01*
X134355000Y-75874593D01*
X134355000Y-76525408D01*
X134377210Y-76750913D01*
X134464983Y-77040261D01*
X134607519Y-77306927D01*
X134799339Y-77540661D01*
X135033074Y-77732481D01*
X135299740Y-77875017D01*
X135589088Y-77962790D01*
X135890000Y-77992427D01*
X136190913Y-77962790D01*
X136480261Y-77875017D01*
X136746927Y-77732481D01*
X136980661Y-77540661D01*
X137172481Y-77306927D01*
X137315017Y-77040261D01*
X137402790Y-76750912D01*
X137425000Y-76525407D01*
X137425000Y-75874593D01*
X139435000Y-75874593D01*
X139435000Y-76525408D01*
X139457210Y-76750913D01*
X139544983Y-77040261D01*
X139687519Y-77306927D01*
X139879339Y-77540661D01*
X140113074Y-77732481D01*
X140379740Y-77875017D01*
X140669088Y-77962790D01*
X140970000Y-77992427D01*
X141270913Y-77962790D01*
X141560261Y-77875017D01*
X141826927Y-77732481D01*
X142060661Y-77540661D01*
X142252481Y-77306927D01*
X142395017Y-77040261D01*
X142482790Y-76750912D01*
X142505000Y-76525407D01*
X142505000Y-75874593D01*
X147055000Y-75874593D01*
X147055000Y-76525408D01*
X147077210Y-76750913D01*
X147164983Y-77040261D01*
X147307519Y-77306927D01*
X147499339Y-77540661D01*
X147733074Y-77732481D01*
X147999740Y-77875017D01*
X148289088Y-77962790D01*
X148590000Y-77992427D01*
X148890913Y-77962790D01*
X149180261Y-77875017D01*
X149446927Y-77732481D01*
X149680661Y-77540661D01*
X149872481Y-77306927D01*
X150015017Y-77040261D01*
X150102790Y-76750912D01*
X150125000Y-76525407D01*
X150125000Y-75874593D01*
X152135000Y-75874593D01*
X152135000Y-76525408D01*
X152157210Y-76750913D01*
X152244983Y-77040261D01*
X152387519Y-77306927D01*
X152579339Y-77540661D01*
X152813074Y-77732481D01*
X153079740Y-77875017D01*
X153369088Y-77962790D01*
X153670000Y-77992427D01*
X153970913Y-77962790D01*
X154260261Y-77875017D01*
X154526927Y-77732481D01*
X154760661Y-77540661D01*
X154952481Y-77306927D01*
X155095017Y-77040261D01*
X155182790Y-76750912D01*
X155205000Y-76525407D01*
X155205000Y-75874593D01*
X159755000Y-75874593D01*
X159755000Y-76525408D01*
X159777210Y-76750913D01*
X159864983Y-77040261D01*
X160007519Y-77306927D01*
X160199339Y-77540661D01*
X160433074Y-77732481D01*
X160699740Y-77875017D01*
X160989088Y-77962790D01*
X161290000Y-77992427D01*
X161590913Y-77962790D01*
X161880261Y-77875017D01*
X162146927Y-77732481D01*
X162380661Y-77540661D01*
X162572481Y-77306927D01*
X162715017Y-77040261D01*
X162802790Y-76750912D01*
X162825000Y-76525407D01*
X162825000Y-75874592D01*
X162802790Y-75649087D01*
X162715017Y-75359739D01*
X162572481Y-75093073D01*
X162380661Y-74859339D01*
X162146926Y-74667519D01*
X161880260Y-74524983D01*
X161590912Y-74437210D01*
X161290000Y-74407573D01*
X160989087Y-74437210D01*
X160699739Y-74524983D01*
X160433073Y-74667519D01*
X160199339Y-74859339D01*
X160007519Y-75093074D01*
X159864983Y-75359740D01*
X159777210Y-75649088D01*
X159755000Y-75874593D01*
X155205000Y-75874593D01*
X155205000Y-75874592D01*
X155182790Y-75649087D01*
X155095017Y-75359739D01*
X154952481Y-75093073D01*
X154760661Y-74859339D01*
X154526926Y-74667519D01*
X154260260Y-74524983D01*
X153970912Y-74437210D01*
X153670000Y-74407573D01*
X153369087Y-74437210D01*
X153079739Y-74524983D01*
X152813073Y-74667519D01*
X152579339Y-74859339D01*
X152387519Y-75093074D01*
X152244983Y-75359740D01*
X152157210Y-75649088D01*
X152135000Y-75874593D01*
X150125000Y-75874593D01*
X150125000Y-75874592D01*
X150102790Y-75649087D01*
X150015017Y-75359739D01*
X149872481Y-75093073D01*
X149680661Y-74859339D01*
X149446926Y-74667519D01*
X149180260Y-74524983D01*
X148890912Y-74437210D01*
X148590000Y-74407573D01*
X148289087Y-74437210D01*
X147999739Y-74524983D01*
X147733073Y-74667519D01*
X147499339Y-74859339D01*
X147307519Y-75093074D01*
X147164983Y-75359740D01*
X147077210Y-75649088D01*
X147055000Y-75874593D01*
X142505000Y-75874593D01*
X142505000Y-75874592D01*
X142482790Y-75649087D01*
X142395017Y-75359739D01*
X142252481Y-75093073D01*
X142060661Y-74859339D01*
X141826926Y-74667519D01*
X141560260Y-74524983D01*
X141270912Y-74437210D01*
X140970000Y-74407573D01*
X140669087Y-74437210D01*
X140379739Y-74524983D01*
X140113073Y-74667519D01*
X139879339Y-74859339D01*
X139687519Y-75093074D01*
X139544983Y-75359740D01*
X139457210Y-75649088D01*
X139435000Y-75874593D01*
X137425000Y-75874593D01*
X137425000Y-75874592D01*
X137402790Y-75649087D01*
X137315017Y-75359739D01*
X137172481Y-75093073D01*
X136980661Y-74859339D01*
X136746926Y-74667519D01*
X136480260Y-74524983D01*
X136190912Y-74437210D01*
X135890000Y-74407573D01*
X135589087Y-74437210D01*
X135299739Y-74524983D01*
X135033073Y-74667519D01*
X134799339Y-74859339D01*
X134607519Y-75093074D01*
X134464983Y-75359740D01*
X134377210Y-75649088D01*
X134355000Y-75874593D01*
X129805000Y-75874593D01*
X129805000Y-75874592D01*
X129782790Y-75649087D01*
X129695017Y-75359739D01*
X129552481Y-75093073D01*
X129360661Y-74859339D01*
X129126926Y-74667519D01*
X128860260Y-74524983D01*
X128570912Y-74437210D01*
X128270000Y-74407573D01*
X127969087Y-74437210D01*
X127679739Y-74524983D01*
X127413073Y-74667519D01*
X127179339Y-74859339D01*
X126987519Y-75093074D01*
X126844983Y-75359740D01*
X126757210Y-75649088D01*
X126735000Y-75874593D01*
X124725000Y-75874593D01*
X124725000Y-75874592D01*
X124702790Y-75649087D01*
X124615017Y-75359739D01*
X124472481Y-75093073D01*
X124280661Y-74859339D01*
X124046926Y-74667519D01*
X123780260Y-74524983D01*
X123490912Y-74437210D01*
X123190000Y-74407573D01*
X122889087Y-74437210D01*
X122599739Y-74524983D01*
X122333073Y-74667519D01*
X122099339Y-74859339D01*
X121907519Y-75093074D01*
X121764983Y-75359740D01*
X121677210Y-75649088D01*
X121655000Y-75874593D01*
X117105000Y-75874593D01*
X117105000Y-75874592D01*
X117082790Y-75649087D01*
X116995017Y-75359739D01*
X116852481Y-75093073D01*
X116660661Y-74859339D01*
X116426926Y-74667519D01*
X116160260Y-74524983D01*
X115870912Y-74437210D01*
X115570000Y-74407573D01*
X115269087Y-74437210D01*
X114979739Y-74524983D01*
X114713073Y-74667519D01*
X114479339Y-74859339D01*
X114287519Y-75093074D01*
X114144983Y-75359740D01*
X114057210Y-75649088D01*
X114035000Y-75874593D01*
X109986530Y-75874593D01*
X110020000Y-75706335D01*
X110020000Y-75423665D01*
X109964853Y-75146426D01*
X109856680Y-74885273D01*
X109699637Y-74650241D01*
X109499759Y-74450363D01*
X109264727Y-74293320D01*
X109003574Y-74185147D01*
X108726335Y-74130000D01*
X108443665Y-74130000D01*
X108166426Y-74185147D01*
X107905273Y-74293320D01*
X107670241Y-74450363D01*
X107470363Y-74650241D01*
X107313320Y-74885273D01*
X107205147Y-75146426D01*
X107150000Y-75423665D01*
X104214343Y-75423665D01*
X104259502Y-75339180D01*
X104295812Y-75219482D01*
X104308072Y-75095000D01*
X104308072Y-73495000D01*
X104295812Y-73370518D01*
X104259502Y-73250820D01*
X104200537Y-73140506D01*
X104121185Y-73043815D01*
X104024494Y-72964463D01*
X103914180Y-72905498D01*
X103794482Y-72869188D01*
X103670000Y-72856928D01*
X103662785Y-72856928D01*
X103683097Y-72787702D01*
X102870000Y-71974605D01*
X102056903Y-72787702D01*
X102077215Y-72856928D01*
X102070000Y-72856928D01*
X101945518Y-72869188D01*
X101825820Y-72905498D01*
X101715506Y-72964463D01*
X101618815Y-73043815D01*
X101539463Y-73140506D01*
X101480498Y-73250820D01*
X101444188Y-73370518D01*
X101431928Y-73495000D01*
X94772595Y-73495000D01*
X94735706Y-73425986D01*
X94554392Y-73205055D01*
X94589180Y-73194502D01*
X94699494Y-73135537D01*
X94796185Y-73056185D01*
X94875537Y-72959494D01*
X94934502Y-72849180D01*
X94970812Y-72729482D01*
X94983072Y-72605000D01*
X94980000Y-72040750D01*
X94821250Y-71882000D01*
X93472000Y-71882000D01*
X93472000Y-71902000D01*
X93218000Y-71902000D01*
X93218000Y-71882000D01*
X91868750Y-71882000D01*
X91710000Y-72040750D01*
X91706928Y-72605000D01*
X91719188Y-72729482D01*
X91755498Y-72849180D01*
X91814463Y-72959494D01*
X91893815Y-73056185D01*
X91990506Y-73135537D01*
X92100820Y-73194502D01*
X92135608Y-73205055D01*
X91954294Y-73425986D01*
X91816401Y-73683966D01*
X91731487Y-73963889D01*
X91702815Y-74255000D01*
X89560000Y-74255000D01*
X89560000Y-71865512D01*
X101429783Y-71865512D01*
X101471213Y-72145130D01*
X101566397Y-72411292D01*
X101633329Y-72536514D01*
X101877298Y-72608097D01*
X102690395Y-71795000D01*
X103049605Y-71795000D01*
X103862702Y-72608097D01*
X104106671Y-72536514D01*
X104227571Y-72281004D01*
X104296300Y-72006816D01*
X104310217Y-71724488D01*
X104285505Y-71557702D01*
X107771903Y-71557702D01*
X107843486Y-71801671D01*
X108098996Y-71922571D01*
X108373184Y-71991300D01*
X108655512Y-72005217D01*
X108935130Y-71963787D01*
X109201292Y-71868603D01*
X109326514Y-71801671D01*
X109398097Y-71557702D01*
X108585000Y-70744605D01*
X107771903Y-71557702D01*
X104285505Y-71557702D01*
X104268787Y-71444870D01*
X104173603Y-71178708D01*
X104106671Y-71053486D01*
X103862702Y-70981903D01*
X103049605Y-71795000D01*
X102690395Y-71795000D01*
X101877298Y-70981903D01*
X101633329Y-71053486D01*
X101512429Y-71308996D01*
X101443700Y-71583184D01*
X101429783Y-71865512D01*
X89560000Y-71865512D01*
X89560000Y-70905000D01*
X91706928Y-70905000D01*
X91710000Y-71469250D01*
X91868750Y-71628000D01*
X93218000Y-71628000D01*
X93218000Y-70428750D01*
X93472000Y-70428750D01*
X93472000Y-71628000D01*
X94821250Y-71628000D01*
X94980000Y-71469250D01*
X94983072Y-70905000D01*
X94972958Y-70802298D01*
X102056903Y-70802298D01*
X102870000Y-71615395D01*
X103683097Y-70802298D01*
X103634161Y-70635512D01*
X107144783Y-70635512D01*
X107186213Y-70915130D01*
X107281397Y-71181292D01*
X107348329Y-71306514D01*
X107592298Y-71378097D01*
X108405395Y-70565000D01*
X108764605Y-70565000D01*
X109577702Y-71378097D01*
X109821671Y-71306514D01*
X109942571Y-71051004D01*
X110006843Y-70794593D01*
X114035000Y-70794593D01*
X114035000Y-71445408D01*
X114057210Y-71670913D01*
X114144983Y-71960261D01*
X114287519Y-72226927D01*
X114479339Y-72460661D01*
X114713074Y-72652481D01*
X114979740Y-72795017D01*
X115269088Y-72882790D01*
X115570000Y-72912427D01*
X115870913Y-72882790D01*
X116160261Y-72795017D01*
X116426927Y-72652481D01*
X116660661Y-72460661D01*
X116852481Y-72226927D01*
X116995017Y-71960261D01*
X117082790Y-71670912D01*
X117105000Y-71445407D01*
X117105000Y-70794593D01*
X121655000Y-70794593D01*
X121655000Y-71445408D01*
X121677210Y-71670913D01*
X121764983Y-71960261D01*
X121907519Y-72226927D01*
X122099339Y-72460661D01*
X122333074Y-72652481D01*
X122599740Y-72795017D01*
X122889088Y-72882790D01*
X123190000Y-72912427D01*
X123490913Y-72882790D01*
X123780261Y-72795017D01*
X124046927Y-72652481D01*
X124280661Y-72460661D01*
X124472481Y-72226927D01*
X124615017Y-71960261D01*
X124702790Y-71670912D01*
X124725000Y-71445407D01*
X124725000Y-70794593D01*
X126735000Y-70794593D01*
X126735000Y-71445408D01*
X126757210Y-71670913D01*
X126844983Y-71960261D01*
X126987519Y-72226927D01*
X127179339Y-72460661D01*
X127413074Y-72652481D01*
X127679740Y-72795017D01*
X127969088Y-72882790D01*
X128270000Y-72912427D01*
X128570913Y-72882790D01*
X128860261Y-72795017D01*
X129126927Y-72652481D01*
X129360661Y-72460661D01*
X129552481Y-72226927D01*
X129695017Y-71960261D01*
X129782790Y-71670912D01*
X129805000Y-71445407D01*
X129805000Y-70794593D01*
X134355000Y-70794593D01*
X134355000Y-71445408D01*
X134377210Y-71670913D01*
X134464983Y-71960261D01*
X134607519Y-72226927D01*
X134799339Y-72460661D01*
X135033074Y-72652481D01*
X135299740Y-72795017D01*
X135589088Y-72882790D01*
X135890000Y-72912427D01*
X136190913Y-72882790D01*
X136480261Y-72795017D01*
X136746927Y-72652481D01*
X136980661Y-72460661D01*
X137172481Y-72226927D01*
X137315017Y-71960261D01*
X137402790Y-71670912D01*
X137425000Y-71445407D01*
X137425000Y-70794593D01*
X139435000Y-70794593D01*
X139435000Y-71445408D01*
X139457210Y-71670913D01*
X139544983Y-71960261D01*
X139687519Y-72226927D01*
X139879339Y-72460661D01*
X140113074Y-72652481D01*
X140379740Y-72795017D01*
X140669088Y-72882790D01*
X140970000Y-72912427D01*
X141270913Y-72882790D01*
X141560261Y-72795017D01*
X141826927Y-72652481D01*
X142060661Y-72460661D01*
X142252481Y-72226927D01*
X142395017Y-71960261D01*
X142482790Y-71670912D01*
X142505000Y-71445407D01*
X142505000Y-70794593D01*
X147055000Y-70794593D01*
X147055000Y-71445408D01*
X147077210Y-71670913D01*
X147164983Y-71960261D01*
X147307519Y-72226927D01*
X147499339Y-72460661D01*
X147733074Y-72652481D01*
X147999740Y-72795017D01*
X148289088Y-72882790D01*
X148590000Y-72912427D01*
X148890913Y-72882790D01*
X149180261Y-72795017D01*
X149446927Y-72652481D01*
X149680661Y-72460661D01*
X149872481Y-72226927D01*
X150015017Y-71960261D01*
X150102790Y-71670912D01*
X150125000Y-71445407D01*
X150125000Y-70794593D01*
X152135000Y-70794593D01*
X152135000Y-71445408D01*
X152157210Y-71670913D01*
X152244983Y-71960261D01*
X152387519Y-72226927D01*
X152579339Y-72460661D01*
X152813074Y-72652481D01*
X153079740Y-72795017D01*
X153369088Y-72882790D01*
X153670000Y-72912427D01*
X153970913Y-72882790D01*
X154260261Y-72795017D01*
X154526927Y-72652481D01*
X154760661Y-72460661D01*
X154952481Y-72226927D01*
X155095017Y-71960261D01*
X155182790Y-71670912D01*
X155205000Y-71445407D01*
X155205000Y-70794593D01*
X159755000Y-70794593D01*
X159755000Y-71445408D01*
X159777210Y-71670913D01*
X159864983Y-71960261D01*
X160007519Y-72226927D01*
X160199339Y-72460661D01*
X160433074Y-72652481D01*
X160699740Y-72795017D01*
X160989088Y-72882790D01*
X161290000Y-72912427D01*
X161590913Y-72882790D01*
X161880261Y-72795017D01*
X162146927Y-72652481D01*
X162380661Y-72460661D01*
X162572481Y-72226927D01*
X162715017Y-71960261D01*
X162802790Y-71670912D01*
X162825000Y-71445407D01*
X162825000Y-70794592D01*
X162802790Y-70569087D01*
X162715017Y-70279739D01*
X162572481Y-70013073D01*
X162380661Y-69779339D01*
X162146926Y-69587519D01*
X161880260Y-69444983D01*
X161590912Y-69357210D01*
X161290000Y-69327573D01*
X160989087Y-69357210D01*
X160699739Y-69444983D01*
X160433073Y-69587519D01*
X160199339Y-69779339D01*
X160007519Y-70013074D01*
X159864983Y-70279740D01*
X159777210Y-70569088D01*
X159755000Y-70794593D01*
X155205000Y-70794593D01*
X155205000Y-70794592D01*
X155182790Y-70569087D01*
X155095017Y-70279739D01*
X154952481Y-70013073D01*
X154760661Y-69779339D01*
X154526926Y-69587519D01*
X154260260Y-69444983D01*
X153970912Y-69357210D01*
X153670000Y-69327573D01*
X153369087Y-69357210D01*
X153079739Y-69444983D01*
X152813073Y-69587519D01*
X152579339Y-69779339D01*
X152387519Y-70013074D01*
X152244983Y-70279740D01*
X152157210Y-70569088D01*
X152135000Y-70794593D01*
X150125000Y-70794593D01*
X150125000Y-70794592D01*
X150102790Y-70569087D01*
X150015017Y-70279739D01*
X149872481Y-70013073D01*
X149680661Y-69779339D01*
X149446926Y-69587519D01*
X149180260Y-69444983D01*
X148890912Y-69357210D01*
X148590000Y-69327573D01*
X148289087Y-69357210D01*
X147999739Y-69444983D01*
X147733073Y-69587519D01*
X147499339Y-69779339D01*
X147307519Y-70013074D01*
X147164983Y-70279740D01*
X147077210Y-70569088D01*
X147055000Y-70794593D01*
X142505000Y-70794593D01*
X142505000Y-70794592D01*
X142482790Y-70569087D01*
X142395017Y-70279739D01*
X142252481Y-70013073D01*
X142060661Y-69779339D01*
X141826926Y-69587519D01*
X141560260Y-69444983D01*
X141270912Y-69357210D01*
X140970000Y-69327573D01*
X140669087Y-69357210D01*
X140379739Y-69444983D01*
X140113073Y-69587519D01*
X139879339Y-69779339D01*
X139687519Y-70013074D01*
X139544983Y-70279740D01*
X139457210Y-70569088D01*
X139435000Y-70794593D01*
X137425000Y-70794593D01*
X137425000Y-70794592D01*
X137402790Y-70569087D01*
X137315017Y-70279739D01*
X137172481Y-70013073D01*
X136980661Y-69779339D01*
X136746926Y-69587519D01*
X136480260Y-69444983D01*
X136190912Y-69357210D01*
X135890000Y-69327573D01*
X135589087Y-69357210D01*
X135299739Y-69444983D01*
X135033073Y-69587519D01*
X134799339Y-69779339D01*
X134607519Y-70013074D01*
X134464983Y-70279740D01*
X134377210Y-70569088D01*
X134355000Y-70794593D01*
X129805000Y-70794593D01*
X129805000Y-70794592D01*
X129782790Y-70569087D01*
X129695017Y-70279739D01*
X129552481Y-70013073D01*
X129360661Y-69779339D01*
X129126926Y-69587519D01*
X128860260Y-69444983D01*
X128570912Y-69357210D01*
X128270000Y-69327573D01*
X127969087Y-69357210D01*
X127679739Y-69444983D01*
X127413073Y-69587519D01*
X127179339Y-69779339D01*
X126987519Y-70013074D01*
X126844983Y-70279740D01*
X126757210Y-70569088D01*
X126735000Y-70794593D01*
X124725000Y-70794593D01*
X124725000Y-70794592D01*
X124702790Y-70569087D01*
X124615017Y-70279739D01*
X124472481Y-70013073D01*
X124280661Y-69779339D01*
X124046926Y-69587519D01*
X123780260Y-69444983D01*
X123490912Y-69357210D01*
X123190000Y-69327573D01*
X122889087Y-69357210D01*
X122599739Y-69444983D01*
X122333073Y-69587519D01*
X122099339Y-69779339D01*
X121907519Y-70013074D01*
X121764983Y-70279740D01*
X121677210Y-70569088D01*
X121655000Y-70794593D01*
X117105000Y-70794593D01*
X117105000Y-70794592D01*
X117082790Y-70569087D01*
X116995017Y-70279739D01*
X116852481Y-70013073D01*
X116660661Y-69779339D01*
X116426926Y-69587519D01*
X116160260Y-69444983D01*
X115870912Y-69357210D01*
X115570000Y-69327573D01*
X115269087Y-69357210D01*
X114979739Y-69444983D01*
X114713073Y-69587519D01*
X114479339Y-69779339D01*
X114287519Y-70013074D01*
X114144983Y-70279740D01*
X114057210Y-70569088D01*
X114035000Y-70794593D01*
X110006843Y-70794593D01*
X110011300Y-70776816D01*
X110025217Y-70494488D01*
X109983787Y-70214870D01*
X109888603Y-69948708D01*
X109821671Y-69823486D01*
X109577702Y-69751903D01*
X108764605Y-70565000D01*
X108405395Y-70565000D01*
X107592298Y-69751903D01*
X107348329Y-69823486D01*
X107227429Y-70078996D01*
X107158700Y-70353184D01*
X107144783Y-70635512D01*
X103634161Y-70635512D01*
X103611514Y-70558329D01*
X103356004Y-70437429D01*
X103081816Y-70368700D01*
X102799488Y-70354783D01*
X102519870Y-70396213D01*
X102253708Y-70491397D01*
X102128486Y-70558329D01*
X102056903Y-70802298D01*
X94972958Y-70802298D01*
X94970812Y-70780518D01*
X94934502Y-70660820D01*
X94875537Y-70550506D01*
X94796185Y-70453815D01*
X94699494Y-70374463D01*
X94589180Y-70315498D01*
X94469482Y-70279188D01*
X94345000Y-70266928D01*
X93630750Y-70270000D01*
X93472000Y-70428750D01*
X93218000Y-70428750D01*
X93059250Y-70270000D01*
X92345000Y-70266928D01*
X92220518Y-70279188D01*
X92100820Y-70315498D01*
X91990506Y-70374463D01*
X91893815Y-70453815D01*
X91814463Y-70550506D01*
X91755498Y-70660820D01*
X91719188Y-70780518D01*
X91706928Y-70905000D01*
X89560000Y-70905000D01*
X89560000Y-69572298D01*
X107771903Y-69572298D01*
X108585000Y-70385395D01*
X109398097Y-69572298D01*
X109326514Y-69328329D01*
X109071004Y-69207429D01*
X108796816Y-69138700D01*
X108514488Y-69124783D01*
X108234870Y-69166213D01*
X107968708Y-69261397D01*
X107843486Y-69328329D01*
X107771903Y-69572298D01*
X89560000Y-69572298D01*
X89560000Y-65714593D01*
X114035000Y-65714593D01*
X114035000Y-66365408D01*
X114057210Y-66590913D01*
X114144983Y-66880261D01*
X114287519Y-67146927D01*
X114479339Y-67380661D01*
X114713074Y-67572481D01*
X114979740Y-67715017D01*
X115269088Y-67802790D01*
X115570000Y-67832427D01*
X115870913Y-67802790D01*
X116160261Y-67715017D01*
X116426927Y-67572481D01*
X116660661Y-67380661D01*
X116852481Y-67146927D01*
X116995017Y-66880261D01*
X117082790Y-66590912D01*
X117105000Y-66365407D01*
X117105000Y-65714593D01*
X121655000Y-65714593D01*
X121655000Y-66365408D01*
X121677210Y-66590913D01*
X121764983Y-66880261D01*
X121907519Y-67146927D01*
X122099339Y-67380661D01*
X122333074Y-67572481D01*
X122599740Y-67715017D01*
X122889088Y-67802790D01*
X123190000Y-67832427D01*
X123490913Y-67802790D01*
X123780261Y-67715017D01*
X124046927Y-67572481D01*
X124280661Y-67380661D01*
X124472481Y-67146927D01*
X124615017Y-66880261D01*
X124702790Y-66590912D01*
X124725000Y-66365407D01*
X124725000Y-65714593D01*
X126735000Y-65714593D01*
X126735000Y-66365408D01*
X126757210Y-66590913D01*
X126844983Y-66880261D01*
X126987519Y-67146927D01*
X127179339Y-67380661D01*
X127413074Y-67572481D01*
X127679740Y-67715017D01*
X127969088Y-67802790D01*
X128270000Y-67832427D01*
X128570913Y-67802790D01*
X128860261Y-67715017D01*
X129126927Y-67572481D01*
X129360661Y-67380661D01*
X129552481Y-67146927D01*
X129695017Y-66880261D01*
X129782790Y-66590912D01*
X129805000Y-66365407D01*
X129805000Y-65714593D01*
X134355000Y-65714593D01*
X134355000Y-66365408D01*
X134377210Y-66590913D01*
X134464983Y-66880261D01*
X134607519Y-67146927D01*
X134799339Y-67380661D01*
X135033074Y-67572481D01*
X135299740Y-67715017D01*
X135589088Y-67802790D01*
X135890000Y-67832427D01*
X136190913Y-67802790D01*
X136480261Y-67715017D01*
X136746927Y-67572481D01*
X136980661Y-67380661D01*
X137172481Y-67146927D01*
X137315017Y-66880261D01*
X137402790Y-66590912D01*
X137425000Y-66365407D01*
X137425000Y-65714593D01*
X139435000Y-65714593D01*
X139435000Y-66365408D01*
X139457210Y-66590913D01*
X139544983Y-66880261D01*
X139687519Y-67146927D01*
X139879339Y-67380661D01*
X140113074Y-67572481D01*
X140379740Y-67715017D01*
X140669088Y-67802790D01*
X140970000Y-67832427D01*
X141270913Y-67802790D01*
X141560261Y-67715017D01*
X141826927Y-67572481D01*
X142060661Y-67380661D01*
X142252481Y-67146927D01*
X142395017Y-66880261D01*
X142482790Y-66590912D01*
X142505000Y-66365407D01*
X142505000Y-65714593D01*
X147055000Y-65714593D01*
X147055000Y-66365408D01*
X147077210Y-66590913D01*
X147164983Y-66880261D01*
X147307519Y-67146927D01*
X147499339Y-67380661D01*
X147733074Y-67572481D01*
X147999740Y-67715017D01*
X148289088Y-67802790D01*
X148590000Y-67832427D01*
X148890913Y-67802790D01*
X149180261Y-67715017D01*
X149446927Y-67572481D01*
X149680661Y-67380661D01*
X149872481Y-67146927D01*
X150015017Y-66880261D01*
X150102790Y-66590912D01*
X150125000Y-66365407D01*
X150125000Y-65714593D01*
X152135000Y-65714593D01*
X152135000Y-66365408D01*
X152157210Y-66590913D01*
X152244983Y-66880261D01*
X152387519Y-67146927D01*
X152579339Y-67380661D01*
X152813074Y-67572481D01*
X153079740Y-67715017D01*
X153369088Y-67802790D01*
X153670000Y-67832427D01*
X153970913Y-67802790D01*
X154260261Y-67715017D01*
X154526927Y-67572481D01*
X154760661Y-67380661D01*
X154952481Y-67146927D01*
X155095017Y-66880261D01*
X155182790Y-66590912D01*
X155205000Y-66365407D01*
X155205000Y-65714593D01*
X159755000Y-65714593D01*
X159755000Y-66365408D01*
X159777210Y-66590913D01*
X159864983Y-66880261D01*
X160007519Y-67146927D01*
X160199339Y-67380661D01*
X160433074Y-67572481D01*
X160699740Y-67715017D01*
X160989088Y-67802790D01*
X161290000Y-67832427D01*
X161590913Y-67802790D01*
X161880261Y-67715017D01*
X162146927Y-67572481D01*
X162380661Y-67380661D01*
X162572481Y-67146927D01*
X162715017Y-66880261D01*
X162802790Y-66590912D01*
X162825000Y-66365407D01*
X162825000Y-65714592D01*
X162802790Y-65489087D01*
X162715017Y-65199739D01*
X162572481Y-64933073D01*
X162380661Y-64699339D01*
X162146926Y-64507519D01*
X161880260Y-64364983D01*
X161590912Y-64277210D01*
X161290000Y-64247573D01*
X160989087Y-64277210D01*
X160699739Y-64364983D01*
X160433073Y-64507519D01*
X160199339Y-64699339D01*
X160007519Y-64933074D01*
X159864983Y-65199740D01*
X159777210Y-65489088D01*
X159755000Y-65714593D01*
X155205000Y-65714593D01*
X155205000Y-65714592D01*
X155182790Y-65489087D01*
X155095017Y-65199739D01*
X154952481Y-64933073D01*
X154760661Y-64699339D01*
X154526926Y-64507519D01*
X154260260Y-64364983D01*
X153970912Y-64277210D01*
X153670000Y-64247573D01*
X153369087Y-64277210D01*
X153079739Y-64364983D01*
X152813073Y-64507519D01*
X152579339Y-64699339D01*
X152387519Y-64933074D01*
X152244983Y-65199740D01*
X152157210Y-65489088D01*
X152135000Y-65714593D01*
X150125000Y-65714593D01*
X150125000Y-65714592D01*
X150102790Y-65489087D01*
X150015017Y-65199739D01*
X149872481Y-64933073D01*
X149680661Y-64699339D01*
X149446926Y-64507519D01*
X149180260Y-64364983D01*
X148890912Y-64277210D01*
X148590000Y-64247573D01*
X148289087Y-64277210D01*
X147999739Y-64364983D01*
X147733073Y-64507519D01*
X147499339Y-64699339D01*
X147307519Y-64933074D01*
X147164983Y-65199740D01*
X147077210Y-65489088D01*
X147055000Y-65714593D01*
X142505000Y-65714593D01*
X142505000Y-65714592D01*
X142482790Y-65489087D01*
X142395017Y-65199739D01*
X142252481Y-64933073D01*
X142060661Y-64699339D01*
X141826926Y-64507519D01*
X141560260Y-64364983D01*
X141270912Y-64277210D01*
X140970000Y-64247573D01*
X140669087Y-64277210D01*
X140379739Y-64364983D01*
X140113073Y-64507519D01*
X139879339Y-64699339D01*
X139687519Y-64933074D01*
X139544983Y-65199740D01*
X139457210Y-65489088D01*
X139435000Y-65714593D01*
X137425000Y-65714593D01*
X137425000Y-65714592D01*
X137402790Y-65489087D01*
X137315017Y-65199739D01*
X137172481Y-64933073D01*
X136980661Y-64699339D01*
X136746926Y-64507519D01*
X136480260Y-64364983D01*
X136190912Y-64277210D01*
X135890000Y-64247573D01*
X135589087Y-64277210D01*
X135299739Y-64364983D01*
X135033073Y-64507519D01*
X134799339Y-64699339D01*
X134607519Y-64933074D01*
X134464983Y-65199740D01*
X134377210Y-65489088D01*
X134355000Y-65714593D01*
X129805000Y-65714593D01*
X129805000Y-65714592D01*
X129782790Y-65489087D01*
X129695017Y-65199739D01*
X129552481Y-64933073D01*
X129360661Y-64699339D01*
X129126926Y-64507519D01*
X128860260Y-64364983D01*
X128570912Y-64277210D01*
X128270000Y-64247573D01*
X127969087Y-64277210D01*
X127679739Y-64364983D01*
X127413073Y-64507519D01*
X127179339Y-64699339D01*
X126987519Y-64933074D01*
X126844983Y-65199740D01*
X126757210Y-65489088D01*
X126735000Y-65714593D01*
X124725000Y-65714593D01*
X124725000Y-65714592D01*
X124702790Y-65489087D01*
X124615017Y-65199739D01*
X124472481Y-64933073D01*
X124280661Y-64699339D01*
X124046926Y-64507519D01*
X123780260Y-64364983D01*
X123490912Y-64277210D01*
X123190000Y-64247573D01*
X122889087Y-64277210D01*
X122599739Y-64364983D01*
X122333073Y-64507519D01*
X122099339Y-64699339D01*
X121907519Y-64933074D01*
X121764983Y-65199740D01*
X121677210Y-65489088D01*
X121655000Y-65714593D01*
X117105000Y-65714593D01*
X117105000Y-65714592D01*
X117082790Y-65489087D01*
X116995017Y-65199739D01*
X116852481Y-64933073D01*
X116660661Y-64699339D01*
X116426926Y-64507519D01*
X116160260Y-64364983D01*
X115870912Y-64277210D01*
X115570000Y-64247573D01*
X115269087Y-64277210D01*
X114979739Y-64364983D01*
X114713073Y-64507519D01*
X114479339Y-64699339D01*
X114287519Y-64933074D01*
X114144983Y-65199740D01*
X114057210Y-65489088D01*
X114035000Y-65714593D01*
X89560000Y-65714593D01*
X89560000Y-56816823D01*
X95725000Y-56816823D01*
X95725000Y-58715178D01*
X95746850Y-58937012D01*
X95833193Y-59221648D01*
X95973407Y-59483970D01*
X96162104Y-59713897D01*
X96392031Y-59902594D01*
X96654353Y-60042808D01*
X96938989Y-60129151D01*
X97235000Y-60158306D01*
X97531012Y-60129151D01*
X97815648Y-60042808D01*
X98077970Y-59902594D01*
X98307897Y-59713897D01*
X98485001Y-59498097D01*
X98662104Y-59713897D01*
X98892031Y-59902594D01*
X99154353Y-60042808D01*
X99438989Y-60129151D01*
X99735000Y-60158306D01*
X100031012Y-60129151D01*
X100315648Y-60042808D01*
X100577970Y-59902594D01*
X100807897Y-59713897D01*
X100996594Y-59483970D01*
X101136808Y-59221648D01*
X101223151Y-58937012D01*
X101245000Y-58715178D01*
X101245000Y-56816823D01*
X103225000Y-56816823D01*
X103225000Y-58715178D01*
X103246850Y-58937012D01*
X103333193Y-59221648D01*
X103473407Y-59483970D01*
X103662104Y-59713897D01*
X103892031Y-59902594D01*
X104154353Y-60042808D01*
X104438989Y-60129151D01*
X104735000Y-60158306D01*
X105031012Y-60129151D01*
X105315648Y-60042808D01*
X105577970Y-59902594D01*
X105807897Y-59713897D01*
X105985001Y-59498097D01*
X106162104Y-59713897D01*
X106392031Y-59902594D01*
X106654353Y-60042808D01*
X106938989Y-60129151D01*
X107235000Y-60158306D01*
X107531012Y-60129151D01*
X107815648Y-60042808D01*
X108077970Y-59902594D01*
X108307897Y-59713897D01*
X108496594Y-59483970D01*
X108636808Y-59221648D01*
X108723151Y-58937012D01*
X108745000Y-58715178D01*
X108745000Y-56816823D01*
X112870000Y-56816823D01*
X112870000Y-58715178D01*
X112891850Y-58937012D01*
X112978193Y-59221648D01*
X113118407Y-59483970D01*
X113307104Y-59713897D01*
X113537031Y-59902594D01*
X113799353Y-60042808D01*
X114083989Y-60129151D01*
X114380000Y-60158306D01*
X114676012Y-60129151D01*
X114960648Y-60042808D01*
X115222970Y-59902594D01*
X115452897Y-59713897D01*
X115630001Y-59498097D01*
X115807104Y-59713897D01*
X116037031Y-59902594D01*
X116299353Y-60042808D01*
X116583989Y-60129151D01*
X116880000Y-60158306D01*
X117176012Y-60129151D01*
X117460648Y-60042808D01*
X117722970Y-59902594D01*
X117952897Y-59713897D01*
X118141594Y-59483970D01*
X118281808Y-59221648D01*
X118368151Y-58937012D01*
X118390000Y-58715178D01*
X118390000Y-56816823D01*
X120370000Y-56816823D01*
X120370000Y-58715178D01*
X120391850Y-58937012D01*
X120478193Y-59221648D01*
X120618407Y-59483970D01*
X120807104Y-59713897D01*
X121037031Y-59902594D01*
X121299353Y-60042808D01*
X121583989Y-60129151D01*
X121880000Y-60158306D01*
X122176012Y-60129151D01*
X122460648Y-60042808D01*
X122722970Y-59902594D01*
X122952897Y-59713897D01*
X123130001Y-59498097D01*
X123307104Y-59713897D01*
X123537031Y-59902594D01*
X123799353Y-60042808D01*
X124083989Y-60129151D01*
X124380000Y-60158306D01*
X124676012Y-60129151D01*
X124960648Y-60042808D01*
X125222970Y-59902594D01*
X125452897Y-59713897D01*
X125641594Y-59483970D01*
X125730001Y-59318573D01*
X125818407Y-59483970D01*
X126007104Y-59713897D01*
X126237031Y-59902594D01*
X126499353Y-60042808D01*
X126783989Y-60129151D01*
X127080000Y-60158306D01*
X127376012Y-60129151D01*
X127660648Y-60042808D01*
X127922970Y-59902594D01*
X128152897Y-59713897D01*
X128330001Y-59498097D01*
X128507104Y-59713897D01*
X128737031Y-59902594D01*
X128999353Y-60042808D01*
X129283989Y-60129151D01*
X129580000Y-60158306D01*
X129876012Y-60129151D01*
X130160648Y-60042808D01*
X130422970Y-59902594D01*
X130652897Y-59713897D01*
X130841594Y-59483970D01*
X130981808Y-59221648D01*
X131068151Y-58937012D01*
X131090000Y-58715178D01*
X131090000Y-56816823D01*
X133070000Y-56816823D01*
X133070000Y-58715178D01*
X133091850Y-58937012D01*
X133178193Y-59221648D01*
X133318407Y-59483970D01*
X133507104Y-59713897D01*
X133737031Y-59902594D01*
X133999353Y-60042808D01*
X134283989Y-60129151D01*
X134580000Y-60158306D01*
X134876012Y-60129151D01*
X135160648Y-60042808D01*
X135422970Y-59902594D01*
X135652897Y-59713897D01*
X135830001Y-59498097D01*
X136007104Y-59713897D01*
X136237031Y-59902594D01*
X136499353Y-60042808D01*
X136783989Y-60129151D01*
X137080000Y-60158306D01*
X137376012Y-60129151D01*
X137660648Y-60042808D01*
X137922970Y-59902594D01*
X138152897Y-59713897D01*
X138341594Y-59483970D01*
X138430001Y-59318573D01*
X138518407Y-59483970D01*
X138707104Y-59713897D01*
X138937031Y-59902594D01*
X139199353Y-60042808D01*
X139483989Y-60129151D01*
X139780000Y-60158306D01*
X140076012Y-60129151D01*
X140360648Y-60042808D01*
X140622970Y-59902594D01*
X140852897Y-59713897D01*
X141030001Y-59498097D01*
X141207104Y-59713897D01*
X141437031Y-59902594D01*
X141699353Y-60042808D01*
X141983989Y-60129151D01*
X142280000Y-60158306D01*
X142576012Y-60129151D01*
X142860648Y-60042808D01*
X143122970Y-59902594D01*
X143352897Y-59713897D01*
X143541594Y-59483970D01*
X143681808Y-59221648D01*
X143768151Y-58937012D01*
X143790000Y-58715178D01*
X143790000Y-56816823D01*
X145770000Y-56816823D01*
X145770000Y-58715178D01*
X145791850Y-58937012D01*
X145878193Y-59221648D01*
X146018407Y-59483970D01*
X146207104Y-59713897D01*
X146437031Y-59902594D01*
X146699353Y-60042808D01*
X146983989Y-60129151D01*
X147280000Y-60158306D01*
X147576012Y-60129151D01*
X147860648Y-60042808D01*
X148122970Y-59902594D01*
X148352897Y-59713897D01*
X148530001Y-59498097D01*
X148707104Y-59713897D01*
X148937031Y-59902594D01*
X149199353Y-60042808D01*
X149483989Y-60129151D01*
X149780000Y-60158306D01*
X150076012Y-60129151D01*
X150360648Y-60042808D01*
X150622970Y-59902594D01*
X150852897Y-59713897D01*
X151041594Y-59483970D01*
X151130001Y-59318573D01*
X151218407Y-59483970D01*
X151407104Y-59713897D01*
X151637031Y-59902594D01*
X151899353Y-60042808D01*
X152183989Y-60129151D01*
X152480000Y-60158306D01*
X152776012Y-60129151D01*
X153060648Y-60042808D01*
X153322970Y-59902594D01*
X153552897Y-59713897D01*
X153730001Y-59498097D01*
X153907104Y-59713897D01*
X154137031Y-59902594D01*
X154399353Y-60042808D01*
X154683989Y-60129151D01*
X154980000Y-60158306D01*
X155276012Y-60129151D01*
X155560648Y-60042808D01*
X155822970Y-59902594D01*
X156052897Y-59713897D01*
X156241594Y-59483970D01*
X156381808Y-59221648D01*
X156468151Y-58937012D01*
X156490000Y-58715178D01*
X156490000Y-56816823D01*
X158470000Y-56816823D01*
X158470000Y-58715178D01*
X158491850Y-58937012D01*
X158578193Y-59221648D01*
X158718407Y-59483970D01*
X158907104Y-59713897D01*
X159137031Y-59902594D01*
X159399353Y-60042808D01*
X159683989Y-60129151D01*
X159980000Y-60158306D01*
X160276012Y-60129151D01*
X160560648Y-60042808D01*
X160822970Y-59902594D01*
X161052897Y-59713897D01*
X161230001Y-59498097D01*
X161407104Y-59713897D01*
X161637031Y-59902594D01*
X161899353Y-60042808D01*
X162183989Y-60129151D01*
X162480000Y-60158306D01*
X162776012Y-60129151D01*
X163060648Y-60042808D01*
X163322970Y-59902594D01*
X163552897Y-59713897D01*
X163741594Y-59483970D01*
X163881808Y-59221648D01*
X163968151Y-58937012D01*
X163990000Y-58715178D01*
X163990000Y-56816822D01*
X163968151Y-56594988D01*
X163881808Y-56310352D01*
X163741594Y-56048030D01*
X163552897Y-55818103D01*
X163373931Y-55671229D01*
X166210000Y-55671229D01*
X166210000Y-56288771D01*
X166330476Y-56894446D01*
X166566799Y-57464979D01*
X166909886Y-57978446D01*
X167346554Y-58415114D01*
X167860021Y-58758201D01*
X168430554Y-58994524D01*
X169036229Y-59115000D01*
X169653771Y-59115000D01*
X170259446Y-58994524D01*
X170829979Y-58758201D01*
X171343446Y-58415114D01*
X171780114Y-57978446D01*
X172123201Y-57464979D01*
X172359524Y-56894446D01*
X172480000Y-56288771D01*
X172480000Y-55671229D01*
X172454524Y-55543148D01*
X182761457Y-55543148D01*
X183037627Y-55961118D01*
X183582557Y-56251649D01*
X184173696Y-56430287D01*
X184788328Y-56490168D01*
X185402831Y-56428990D01*
X185993592Y-56249103D01*
X186532373Y-55961118D01*
X186808543Y-55543148D01*
X184785000Y-53519605D01*
X182761457Y-55543148D01*
X172454524Y-55543148D01*
X172359524Y-55065554D01*
X172123201Y-54495021D01*
X171780114Y-53981554D01*
X171343446Y-53544886D01*
X171041793Y-53343328D01*
X181634832Y-53343328D01*
X181696010Y-53957831D01*
X181875897Y-54548592D01*
X182163882Y-55087373D01*
X182581852Y-55363543D01*
X184605395Y-53340000D01*
X182581852Y-51316457D01*
X182163882Y-51592627D01*
X181873351Y-52137557D01*
X181694713Y-52728696D01*
X181634832Y-53343328D01*
X171041793Y-53343328D01*
X170829979Y-53201799D01*
X170259446Y-52965476D01*
X169653771Y-52845000D01*
X169036229Y-52845000D01*
X168430554Y-52965476D01*
X167860021Y-53201799D01*
X167346554Y-53544886D01*
X166909886Y-53981554D01*
X166566799Y-54495021D01*
X166330476Y-55065554D01*
X166210000Y-55671229D01*
X163373931Y-55671229D01*
X163322969Y-55629406D01*
X163060647Y-55489192D01*
X162776011Y-55402849D01*
X162480000Y-55373694D01*
X162183988Y-55402849D01*
X161899352Y-55489192D01*
X161637030Y-55629406D01*
X161407103Y-55818103D01*
X161230000Y-56033903D01*
X161052897Y-55818103D01*
X160822969Y-55629406D01*
X160560647Y-55489192D01*
X160276011Y-55402849D01*
X159980000Y-55373694D01*
X159683988Y-55402849D01*
X159399352Y-55489192D01*
X159137030Y-55629406D01*
X158907103Y-55818103D01*
X158718406Y-56048031D01*
X158578192Y-56310353D01*
X158491849Y-56594989D01*
X158470000Y-56816823D01*
X156490000Y-56816823D01*
X156490000Y-56816822D01*
X156468151Y-56594988D01*
X156381808Y-56310352D01*
X156241594Y-56048030D01*
X156052897Y-55818103D01*
X155822969Y-55629406D01*
X155560647Y-55489192D01*
X155276011Y-55402849D01*
X154980000Y-55373694D01*
X154683988Y-55402849D01*
X154399352Y-55489192D01*
X154137030Y-55629406D01*
X153907103Y-55818103D01*
X153730000Y-56033903D01*
X153552897Y-55818103D01*
X153322969Y-55629406D01*
X153060647Y-55489192D01*
X152776011Y-55402849D01*
X152480000Y-55373694D01*
X152183988Y-55402849D01*
X151899352Y-55489192D01*
X151637030Y-55629406D01*
X151407103Y-55818103D01*
X151218406Y-56048031D01*
X151130000Y-56213427D01*
X151041594Y-56048030D01*
X150852897Y-55818103D01*
X150622969Y-55629406D01*
X150360647Y-55489192D01*
X150076011Y-55402849D01*
X149780000Y-55373694D01*
X149483988Y-55402849D01*
X149199352Y-55489192D01*
X148937030Y-55629406D01*
X148707103Y-55818103D01*
X148530000Y-56033903D01*
X148352897Y-55818103D01*
X148122969Y-55629406D01*
X147860647Y-55489192D01*
X147576011Y-55402849D01*
X147280000Y-55373694D01*
X146983988Y-55402849D01*
X146699352Y-55489192D01*
X146437030Y-55629406D01*
X146207103Y-55818103D01*
X146018406Y-56048031D01*
X145878192Y-56310353D01*
X145791849Y-56594989D01*
X145770000Y-56816823D01*
X143790000Y-56816823D01*
X143790000Y-56816822D01*
X143768151Y-56594988D01*
X143681808Y-56310352D01*
X143541594Y-56048030D01*
X143352897Y-55818103D01*
X143122969Y-55629406D01*
X142860647Y-55489192D01*
X142576011Y-55402849D01*
X142280000Y-55373694D01*
X141983988Y-55402849D01*
X141699352Y-55489192D01*
X141437030Y-55629406D01*
X141207103Y-55818103D01*
X141030000Y-56033903D01*
X140852897Y-55818103D01*
X140622969Y-55629406D01*
X140360647Y-55489192D01*
X140076011Y-55402849D01*
X139780000Y-55373694D01*
X139483988Y-55402849D01*
X139199352Y-55489192D01*
X138937030Y-55629406D01*
X138707103Y-55818103D01*
X138518406Y-56048031D01*
X138430000Y-56213427D01*
X138341594Y-56048030D01*
X138152897Y-55818103D01*
X137922969Y-55629406D01*
X137660647Y-55489192D01*
X137376011Y-55402849D01*
X137080000Y-55373694D01*
X136783988Y-55402849D01*
X136499352Y-55489192D01*
X136237030Y-55629406D01*
X136007103Y-55818103D01*
X135830000Y-56033903D01*
X135652897Y-55818103D01*
X135422969Y-55629406D01*
X135160647Y-55489192D01*
X134876011Y-55402849D01*
X134580000Y-55373694D01*
X134283988Y-55402849D01*
X133999352Y-55489192D01*
X133737030Y-55629406D01*
X133507103Y-55818103D01*
X133318406Y-56048031D01*
X133178192Y-56310353D01*
X133091849Y-56594989D01*
X133070000Y-56816823D01*
X131090000Y-56816823D01*
X131090000Y-56816822D01*
X131068151Y-56594988D01*
X130981808Y-56310352D01*
X130841594Y-56048030D01*
X130652897Y-55818103D01*
X130422969Y-55629406D01*
X130160647Y-55489192D01*
X129876011Y-55402849D01*
X129580000Y-55373694D01*
X129283988Y-55402849D01*
X128999352Y-55489192D01*
X128737030Y-55629406D01*
X128507103Y-55818103D01*
X128330000Y-56033903D01*
X128152897Y-55818103D01*
X127922969Y-55629406D01*
X127660647Y-55489192D01*
X127376011Y-55402849D01*
X127080000Y-55373694D01*
X126783988Y-55402849D01*
X126499352Y-55489192D01*
X126237030Y-55629406D01*
X126007103Y-55818103D01*
X125818406Y-56048031D01*
X125730000Y-56213427D01*
X125641594Y-56048030D01*
X125452897Y-55818103D01*
X125222969Y-55629406D01*
X124960647Y-55489192D01*
X124676011Y-55402849D01*
X124380000Y-55373694D01*
X124083988Y-55402849D01*
X123799352Y-55489192D01*
X123537030Y-55629406D01*
X123307103Y-55818103D01*
X123130000Y-56033903D01*
X122952897Y-55818103D01*
X122722969Y-55629406D01*
X122460647Y-55489192D01*
X122176011Y-55402849D01*
X121880000Y-55373694D01*
X121583988Y-55402849D01*
X121299352Y-55489192D01*
X121037030Y-55629406D01*
X120807103Y-55818103D01*
X120618406Y-56048031D01*
X120478192Y-56310353D01*
X120391849Y-56594989D01*
X120370000Y-56816823D01*
X118390000Y-56816823D01*
X118390000Y-56816822D01*
X118368151Y-56594988D01*
X118281808Y-56310352D01*
X118141594Y-56048030D01*
X117952897Y-55818103D01*
X117722969Y-55629406D01*
X117460647Y-55489192D01*
X117176011Y-55402849D01*
X116880000Y-55373694D01*
X116583988Y-55402849D01*
X116299352Y-55489192D01*
X116037030Y-55629406D01*
X115807103Y-55818103D01*
X115630000Y-56033903D01*
X115452897Y-55818103D01*
X115222969Y-55629406D01*
X114960647Y-55489192D01*
X114676011Y-55402849D01*
X114380000Y-55373694D01*
X114083988Y-55402849D01*
X113799352Y-55489192D01*
X113537030Y-55629406D01*
X113307103Y-55818103D01*
X113118406Y-56048031D01*
X112978192Y-56310353D01*
X112891849Y-56594989D01*
X112870000Y-56816823D01*
X108745000Y-56816823D01*
X108745000Y-56816822D01*
X108723151Y-56594988D01*
X108636808Y-56310352D01*
X108496594Y-56048030D01*
X108307897Y-55818103D01*
X108077969Y-55629406D01*
X107815647Y-55489192D01*
X107531011Y-55402849D01*
X107235000Y-55373694D01*
X106938988Y-55402849D01*
X106654352Y-55489192D01*
X106392030Y-55629406D01*
X106162103Y-55818103D01*
X105985000Y-56033903D01*
X105807897Y-55818103D01*
X105577969Y-55629406D01*
X105315647Y-55489192D01*
X105031011Y-55402849D01*
X104735000Y-55373694D01*
X104438988Y-55402849D01*
X104154352Y-55489192D01*
X103892030Y-55629406D01*
X103662103Y-55818103D01*
X103473406Y-56048031D01*
X103333192Y-56310353D01*
X103246849Y-56594989D01*
X103225000Y-56816823D01*
X101245000Y-56816823D01*
X101245000Y-56816822D01*
X101223151Y-56594988D01*
X101136808Y-56310352D01*
X100996594Y-56048030D01*
X100807897Y-55818103D01*
X100577969Y-55629406D01*
X100315647Y-55489192D01*
X100031011Y-55402849D01*
X99735000Y-55373694D01*
X99438988Y-55402849D01*
X99154352Y-55489192D01*
X98892030Y-55629406D01*
X98662103Y-55818103D01*
X98485000Y-56033903D01*
X98307897Y-55818103D01*
X98077969Y-55629406D01*
X97815647Y-55489192D01*
X97531011Y-55402849D01*
X97235000Y-55373694D01*
X96938988Y-55402849D01*
X96654352Y-55489192D01*
X96392030Y-55629406D01*
X96162103Y-55818103D01*
X95973406Y-56048031D01*
X95833192Y-56310353D01*
X95746849Y-56594989D01*
X95725000Y-56816823D01*
X89560000Y-56816823D01*
X89560000Y-55543148D01*
X90051457Y-55543148D01*
X90327627Y-55961118D01*
X90872557Y-56251649D01*
X91463696Y-56430287D01*
X92078328Y-56490168D01*
X92692831Y-56428990D01*
X93283592Y-56249103D01*
X93822373Y-55961118D01*
X94098543Y-55543148D01*
X92075000Y-53519605D01*
X90051457Y-55543148D01*
X89560000Y-55543148D01*
X89560000Y-55157490D01*
X89871852Y-55363543D01*
X91895395Y-53340000D01*
X92254605Y-53340000D01*
X94278148Y-55363543D01*
X94696118Y-55087373D01*
X94986649Y-54542443D01*
X95147549Y-54010000D01*
X99846928Y-54010000D01*
X99859188Y-54134482D01*
X99895498Y-54254180D01*
X99954463Y-54364494D01*
X100033815Y-54461185D01*
X100130506Y-54540537D01*
X100240820Y-54599502D01*
X100360518Y-54635812D01*
X100485000Y-54648072D01*
X101949250Y-54645000D01*
X102108000Y-54486250D01*
X102108000Y-52887000D01*
X102362000Y-52887000D01*
X102362000Y-54486250D01*
X102520750Y-54645000D01*
X103985000Y-54648072D01*
X104109482Y-54635812D01*
X104229180Y-54599502D01*
X104339494Y-54540537D01*
X104436185Y-54461185D01*
X104515537Y-54364494D01*
X104574502Y-54254180D01*
X104610812Y-54134482D01*
X104623072Y-54010000D01*
X116991928Y-54010000D01*
X117004188Y-54134482D01*
X117040498Y-54254180D01*
X117099463Y-54364494D01*
X117178815Y-54461185D01*
X117275506Y-54540537D01*
X117385820Y-54599502D01*
X117505518Y-54635812D01*
X117630000Y-54648072D01*
X119094250Y-54645000D01*
X119253000Y-54486250D01*
X119253000Y-52887000D01*
X119507000Y-52887000D01*
X119507000Y-54486250D01*
X119665750Y-54645000D01*
X121130000Y-54648072D01*
X121254482Y-54635812D01*
X121374180Y-54599502D01*
X121484494Y-54540537D01*
X121581185Y-54461185D01*
X121660537Y-54364494D01*
X121719502Y-54254180D01*
X121755812Y-54134482D01*
X121768072Y-54010000D01*
X129691928Y-54010000D01*
X129704188Y-54134482D01*
X129740498Y-54254180D01*
X129799463Y-54364494D01*
X129878815Y-54461185D01*
X129975506Y-54540537D01*
X130085820Y-54599502D01*
X130205518Y-54635812D01*
X130330000Y-54648072D01*
X131794250Y-54645000D01*
X131953000Y-54486250D01*
X131953000Y-52887000D01*
X132207000Y-52887000D01*
X132207000Y-54486250D01*
X132365750Y-54645000D01*
X133830000Y-54648072D01*
X133954482Y-54635812D01*
X134074180Y-54599502D01*
X134184494Y-54540537D01*
X134281185Y-54461185D01*
X134360537Y-54364494D01*
X134419502Y-54254180D01*
X134455812Y-54134482D01*
X134468072Y-54010000D01*
X142391928Y-54010000D01*
X142404188Y-54134482D01*
X142440498Y-54254180D01*
X142499463Y-54364494D01*
X142578815Y-54461185D01*
X142675506Y-54540537D01*
X142785820Y-54599502D01*
X142905518Y-54635812D01*
X143030000Y-54648072D01*
X144494250Y-54645000D01*
X144653000Y-54486250D01*
X144653000Y-52887000D01*
X144907000Y-52887000D01*
X144907000Y-54486250D01*
X145065750Y-54645000D01*
X146530000Y-54648072D01*
X146654482Y-54635812D01*
X146774180Y-54599502D01*
X146884494Y-54540537D01*
X146981185Y-54461185D01*
X147060537Y-54364494D01*
X147119502Y-54254180D01*
X147155812Y-54134482D01*
X147168072Y-54010000D01*
X155091928Y-54010000D01*
X155104188Y-54134482D01*
X155140498Y-54254180D01*
X155199463Y-54364494D01*
X155278815Y-54461185D01*
X155375506Y-54540537D01*
X155485820Y-54599502D01*
X155605518Y-54635812D01*
X155730000Y-54648072D01*
X157194250Y-54645000D01*
X157353000Y-54486250D01*
X157353000Y-52887000D01*
X157607000Y-52887000D01*
X157607000Y-54486250D01*
X157765750Y-54645000D01*
X159230000Y-54648072D01*
X159354482Y-54635812D01*
X159474180Y-54599502D01*
X159584494Y-54540537D01*
X159681185Y-54461185D01*
X159760537Y-54364494D01*
X159819502Y-54254180D01*
X159855812Y-54134482D01*
X159868072Y-54010000D01*
X159865000Y-53045750D01*
X159706250Y-52887000D01*
X157607000Y-52887000D01*
X157353000Y-52887000D01*
X155253750Y-52887000D01*
X155095000Y-53045750D01*
X155091928Y-54010000D01*
X147168072Y-54010000D01*
X147165000Y-53045750D01*
X147006250Y-52887000D01*
X144907000Y-52887000D01*
X144653000Y-52887000D01*
X142553750Y-52887000D01*
X142395000Y-53045750D01*
X142391928Y-54010000D01*
X134468072Y-54010000D01*
X134465000Y-53045750D01*
X134306250Y-52887000D01*
X132207000Y-52887000D01*
X131953000Y-52887000D01*
X129853750Y-52887000D01*
X129695000Y-53045750D01*
X129691928Y-54010000D01*
X121768072Y-54010000D01*
X121765000Y-53045750D01*
X121606250Y-52887000D01*
X119507000Y-52887000D01*
X119253000Y-52887000D01*
X117153750Y-52887000D01*
X116995000Y-53045750D01*
X116991928Y-54010000D01*
X104623072Y-54010000D01*
X104620000Y-53045750D01*
X104461250Y-52887000D01*
X102362000Y-52887000D01*
X102108000Y-52887000D01*
X100008750Y-52887000D01*
X99850000Y-53045750D01*
X99846928Y-54010000D01*
X95147549Y-54010000D01*
X95165287Y-53951304D01*
X95225168Y-53336672D01*
X95163990Y-52722169D01*
X94984103Y-52131408D01*
X94696118Y-51592627D01*
X94571067Y-51510000D01*
X99846928Y-51510000D01*
X99850000Y-52474250D01*
X100008750Y-52633000D01*
X102108000Y-52633000D01*
X102108000Y-51033750D01*
X102362000Y-51033750D01*
X102362000Y-52633000D01*
X104461250Y-52633000D01*
X104620000Y-52474250D01*
X104623072Y-51510000D01*
X116991928Y-51510000D01*
X116995000Y-52474250D01*
X117153750Y-52633000D01*
X119253000Y-52633000D01*
X119253000Y-51033750D01*
X119507000Y-51033750D01*
X119507000Y-52633000D01*
X121606250Y-52633000D01*
X121765000Y-52474250D01*
X121768072Y-51510000D01*
X129691928Y-51510000D01*
X129695000Y-52474250D01*
X129853750Y-52633000D01*
X131953000Y-52633000D01*
X131953000Y-51033750D01*
X132207000Y-51033750D01*
X132207000Y-52633000D01*
X134306250Y-52633000D01*
X134465000Y-52474250D01*
X134468072Y-51510000D01*
X142391928Y-51510000D01*
X142395000Y-52474250D01*
X142553750Y-52633000D01*
X144653000Y-52633000D01*
X144653000Y-51033750D01*
X144907000Y-51033750D01*
X144907000Y-52633000D01*
X147006250Y-52633000D01*
X147165000Y-52474250D01*
X147168072Y-51510000D01*
X155091928Y-51510000D01*
X155095000Y-52474250D01*
X155253750Y-52633000D01*
X157353000Y-52633000D01*
X157353000Y-51033750D01*
X157607000Y-51033750D01*
X157607000Y-52633000D01*
X159706250Y-52633000D01*
X159865000Y-52474250D01*
X159868072Y-51510000D01*
X159855812Y-51385518D01*
X159819502Y-51265820D01*
X159760537Y-51155506D01*
X159681185Y-51058815D01*
X159584494Y-50979463D01*
X159474180Y-50920498D01*
X159354482Y-50884188D01*
X159230000Y-50871928D01*
X157765750Y-50875000D01*
X157607000Y-51033750D01*
X157353000Y-51033750D01*
X157194250Y-50875000D01*
X155730000Y-50871928D01*
X155605518Y-50884188D01*
X155485820Y-50920498D01*
X155375506Y-50979463D01*
X155278815Y-51058815D01*
X155199463Y-51155506D01*
X155140498Y-51265820D01*
X155104188Y-51385518D01*
X155091928Y-51510000D01*
X147168072Y-51510000D01*
X147155812Y-51385518D01*
X147119502Y-51265820D01*
X147060537Y-51155506D01*
X146981185Y-51058815D01*
X146884494Y-50979463D01*
X146774180Y-50920498D01*
X146654482Y-50884188D01*
X146530000Y-50871928D01*
X145065750Y-50875000D01*
X144907000Y-51033750D01*
X144653000Y-51033750D01*
X144494250Y-50875000D01*
X143030000Y-50871928D01*
X142905518Y-50884188D01*
X142785820Y-50920498D01*
X142675506Y-50979463D01*
X142578815Y-51058815D01*
X142499463Y-51155506D01*
X142440498Y-51265820D01*
X142404188Y-51385518D01*
X142391928Y-51510000D01*
X134468072Y-51510000D01*
X134455812Y-51385518D01*
X134419502Y-51265820D01*
X134360537Y-51155506D01*
X134281185Y-51058815D01*
X134184494Y-50979463D01*
X134074180Y-50920498D01*
X133954482Y-50884188D01*
X133830000Y-50871928D01*
X132365750Y-50875000D01*
X132207000Y-51033750D01*
X131953000Y-51033750D01*
X131794250Y-50875000D01*
X130330000Y-50871928D01*
X130205518Y-50884188D01*
X130085820Y-50920498D01*
X129975506Y-50979463D01*
X129878815Y-51058815D01*
X129799463Y-51155506D01*
X129740498Y-51265820D01*
X129704188Y-51385518D01*
X129691928Y-51510000D01*
X121768072Y-51510000D01*
X121755812Y-51385518D01*
X121719502Y-51265820D01*
X121660537Y-51155506D01*
X121581185Y-51058815D01*
X121484494Y-50979463D01*
X121374180Y-50920498D01*
X121254482Y-50884188D01*
X121130000Y-50871928D01*
X119665750Y-50875000D01*
X119507000Y-51033750D01*
X119253000Y-51033750D01*
X119094250Y-50875000D01*
X117630000Y-50871928D01*
X117505518Y-50884188D01*
X117385820Y-50920498D01*
X117275506Y-50979463D01*
X117178815Y-51058815D01*
X117099463Y-51155506D01*
X117040498Y-51265820D01*
X117004188Y-51385518D01*
X116991928Y-51510000D01*
X104623072Y-51510000D01*
X104610812Y-51385518D01*
X104574502Y-51265820D01*
X104515537Y-51155506D01*
X104436185Y-51058815D01*
X104339494Y-50979463D01*
X104229180Y-50920498D01*
X104109482Y-50884188D01*
X103985000Y-50871928D01*
X102520750Y-50875000D01*
X102362000Y-51033750D01*
X102108000Y-51033750D01*
X101949250Y-50875000D01*
X100485000Y-50871928D01*
X100360518Y-50884188D01*
X100240820Y-50920498D01*
X100130506Y-50979463D01*
X100033815Y-51058815D01*
X99954463Y-51155506D01*
X99895498Y-51265820D01*
X99859188Y-51385518D01*
X99846928Y-51510000D01*
X94571067Y-51510000D01*
X94278148Y-51316457D01*
X92254605Y-53340000D01*
X91895395Y-53340000D01*
X89871852Y-51316457D01*
X89560000Y-51522510D01*
X89560000Y-51467279D01*
X89574722Y-51317131D01*
X89608953Y-51203754D01*
X89664555Y-51099181D01*
X89739407Y-51007404D01*
X89830664Y-50931909D01*
X89934844Y-50875581D01*
X90047976Y-50840560D01*
X90196022Y-50825000D01*
X90257510Y-50825000D01*
X90051457Y-51136852D01*
G37*
%TD.AperFunction*%
%TD*%
M02*
